<svg xmlns="http://www.w3.org/2000/svg" font-family="Consolas,monospace" width="340" height="300" font-size="14px"><rect width="340" height="300" fill="#161b22" rx="12"/>
<text x="15" y="29" font-family="Consolas,monospace" font-size="14px" fill="#616e7f">- Editors  (last 30d) —————————-—-</text>
<path d="M 110.00 92.00 L 110.00 70.00 A 85 85 0 0 1 144.28 232.78 L 135.41 212.65 A 63 63 0 0 0 110.00 92.00 Z" fill="#58a6ff" stroke="#161b22" stroke-width="2"/>
<path d="M 135.41 212.65 L 144.28 232.78 A 85 85 0 0 1 32.86 190.71 L 52.83 181.47 A 63 63 0 0 0 135.41 212.65 Z" fill="#3fb950" stroke="#161b22" stroke-width="2"/>
<path d="M 52.83 181.47 L 32.86 190.71 A 85 85 0 0 1 29.29 128.35 L 50.18 135.24 A 63 63 0 0 0 52.83 181.47 Z" fill="#ffa657" stroke="#161b22" stroke-width="2"/>
<path d="M 50.18 135.24 L 29.29 128.35 A 85 85 0 0 1 58.41 87.45 L 71.76 104.93 A 63 63 0 0 0 50.18 135.24 Z" fill="#f85149" stroke="#161b22" stroke-width="2"/>
<path d="M 71.76 104.93 L 58.41 87.45 A 85 85 0 0 1 89.54 72.50 L 94.84 93.85 A 63 63 0 0 0 71.76 104.93 Z" fill="#d2a8ff" stroke="#161b22" stroke-width="2"/>
<path d="M 94.84 93.85 L 89.54 72.50 A 85 85 0 0 1 110.00 70.00 L 110.00 92.00 A 63 63 0 0 0 94.84 93.85 Z" fill="#79c0ff" stroke="#161b22" stroke-width="2"/>
<text x="110" y="147" text-anchor="middle" font-family="Consolas,monospace" font-size="11px" fill="#616e7f">avg/day</text>
<text x="110" y="167" text-anchor="middle" font-family="Consolas,monospace" font-size="16px" font-weight="bold" fill="#58a6ff">3h 34m</text>
<rect x="210" y="50" width="10" height="10" fill="#58a6ff" rx="2"/>
<text x="226" y="60" font-family="Consolas,monospace" font-size="13px" fill="#c9d1d9">Opencode Cli</text>
<text x="226" y="73" font-family="Consolas,monospace" font-size="11px" fill="#616e7f">40.9%  49 hrs 8 mins</text>
<rect x="210" y="86" width="10" height="10" fill="#3fb950" rx="2"/>
<text x="226" y="96" font-family="Consolas,monospace" font-size="13px" fill="#c9d1d9">Zed</text>
<text x="226" y="109" font-family="Consolas,monospace" font-size="11px" fill="#616e7f">23.3%  27 hrs 58 mins</text>
<rect x="210" y="122" width="10" height="10" fill="#ffa657" rx="2"/>
<text x="226" y="132" font-family="Consolas,monospace" font-size="13px" fill="#c9d1d9">Neovim</text>
<text x="226" y="145" font-family="Consolas,monospace" font-size="11px" fill="#616e7f">11.3%  13 hrs 33 mins</text>
<rect x="210" y="158" width="10" height="10" fill="#f85149" rx="2"/>
<text x="226" y="168" font-family="Consolas,monospace" font-size="13px" fill="#c9d1d9">OpenCode</text>
<text x="226" y="181" font-family="Consolas,monospace" font-size="11px" fill="#616e7f">9.0%  10 hrs 48 mins</text>
<rect x="210" y="194" width="10" height="10" fill="#d2a8ff" rx="2"/>
<text x="226" y="204" font-family="Consolas,monospace" font-size="13px" fill="#c9d1d9">Claude Code</text>
<text x="226" y="217" font-family="Consolas,monospace" font-size="11px" fill="#616e7f">6.1%  7 hrs 22 mins</text>
<rect x="210" y="230" width="10" height="10" fill="#79c0ff" rx="2"/>
<text x="226" y="240" font-family="Consolas,monospace" font-size="13px" fill="#c9d1d9">Unknown Editor</text>
<text x="226" y="253" font-family="Consolas,monospace" font-size="11px" fill="#616e7f">3.6%  4 hrs 22 mins</text>
</svg>