<svg xmlns="http://www.w3.org/2000/svg" font-family="Consolas,monospace" width="340" height="300" font-size="14px"><rect width="340" height="300" fill="#161b22" rx="12"/>
<text x="15" y="29" font-family="Consolas,monospace" font-size="14px" fill="#616e7f">- Editors  (last 30d) —————————-—-</text>
<path d="M 110.00 92.00 L 110.00 70.00 A 85 85 0 1 1 98.33 239.20 L 101.35 217.40 A 63 63 0 1 0 110.00 92.00 Z" fill="#58a6ff" stroke="#161b22" stroke-width="2"/>
<path d="M 101.35 217.40 L 98.33 239.20 A 85 85 0 0 1 35.49 114.09 L 54.78 124.68 A 63 63 0 0 0 101.35 217.40 Z" fill="#3fb950" stroke="#161b22" stroke-width="2"/>
<path d="M 54.78 124.68 L 35.49 114.09 A 85 85 0 0 1 66.72 81.84 L 77.92 100.78 A 63 63 0 0 0 54.78 124.68 Z" fill="#ffa657" stroke="#161b22" stroke-width="2"/>
<path d="M 77.92 100.78 L 66.72 81.84 A 85 85 0 0 1 93.49 71.62 L 97.77 93.20 A 63 63 0 0 0 77.92 100.78 Z" fill="#f85149" stroke="#161b22" stroke-width="2"/>
<path d="M 97.77 93.20 L 93.49 71.62 A 85 85 0 0 1 104.71 70.16 L 106.08 92.12 A 63 63 0 0 0 97.77 93.20 Z" fill="#d2a8ff" stroke="#161b22" stroke-width="2"/>
<path d="M 106.08 92.12 L 104.71 70.16 A 85 85 0 0 1 110.00 70.00 L 110.00 92.00 A 63 63 0 0 0 106.08 92.12 Z" fill="#79c0ff" stroke="#161b22" stroke-width="2"/>
<text x="110" y="147" text-anchor="middle" font-family="Consolas,monospace" font-size="11px" fill="#616e7f">avg/day</text>
<text x="110" y="167" text-anchor="middle" font-family="Consolas,monospace" font-size="16px" font-weight="bold" fill="#58a6ff">6h 13m</text>
<rect x="210" y="50" width="10" height="10" fill="#58a6ff" rx="2"/>
<text x="226" y="60" font-family="Consolas,monospace" font-size="13px" fill="#c9d1d9">Pi</text>
<text x="226" y="73" font-family="Consolas,monospace" font-size="11px" fill="#616e7f">52.2%  102 hrs 37 mins</text>
<rect x="210" y="86" width="10" height="10" fill="#3fb950" rx="2"/>
<text x="226" y="96" font-family="Consolas,monospace" font-size="13px" fill="#c9d1d9">OMP</text>
<text x="226" y="109" font-family="Consolas,monospace" font-size="11px" fill="#616e7f">30.8%  60 hrs 33 mins</text>
<rect x="210" y="122" width="10" height="10" fill="#ffa657" rx="2"/>
<text x="226" y="132" font-family="Consolas,monospace" font-size="13px" fill="#c9d1d9">Oh My Pi</text>
<text x="226" y="145" font-family="Consolas,monospace" font-size="11px" fill="#616e7f">8.5%  16 hrs 43 mins</text>
<rect x="210" y="158" width="10" height="10" fill="#f85149" rx="2"/>
<text x="226" y="168" font-family="Consolas,monospace" font-size="13px" fill="#c9d1d9">Antigravity CLI</text>
<text x="226" y="181" font-family="Consolas,monospace" font-size="11px" fill="#616e7f">5.4%  10 hrs 36 mins</text>
<rect x="210" y="194" width="10" height="10" fill="#d2a8ff" rx="2"/>
<text x="226" y="204" font-family="Consolas,monospace" font-size="13px" fill="#c9d1d9">Neovim</text>
<text x="226" y="217" font-family="Consolas,monospace" font-size="11px" fill="#616e7f">2.1%  4 hrs 9 mins</text>
<rect x="210" y="230" width="10" height="10" fill="#79c0ff" rx="2"/>
<text x="226" y="240" font-family="Consolas,monospace" font-size="13px" fill="#c9d1d9">VS Code</text>
<text x="226" y="253" font-family="Consolas,monospace" font-size="11px" fill="#616e7f">1.0%  1 hr 56 mins</text>
</svg>