<svg xmlns="http://www.w3.org/2000/svg" font-family="Consolas,monospace" width="340" height="300" font-size="14px"><rect width="340" height="300" fill="#161b22" rx="12"/>
<text x="15" y="29" font-family="Consolas,monospace" font-size="14px" fill="#616e7f">- Editors  (last 30d) —————————-—-</text>
<path d="M 110.00 92.00 L 110.00 70.00 A 85 85 0 1 1 88.66 237.28 L 94.18 215.98 A 63 63 0 1 0 110.00 92.00 Z" fill="#58a6ff" stroke="#161b22" stroke-width="2"/>
<path d="M 94.18 215.98 L 88.66 237.28 A 85 85 0 0 1 81.91 74.78 L 89.18 95.54 A 63 63 0 0 0 94.18 215.98 Z" fill="#3fb950" stroke="#161b22" stroke-width="2"/>
<path d="M 89.18 95.54 L 81.91 74.78 A 85 85 0 0 1 93.28 71.66 L 97.61 93.23 A 63 63 0 0 0 89.18 95.54 Z" fill="#ffa657" stroke="#161b22" stroke-width="2"/>
<path d="M 97.61 93.23 L 93.28 71.66 A 85 85 0 0 1 102.22 70.36 L 104.23 92.26 A 63 63 0 0 0 97.61 93.23 Z" fill="#f85149" stroke="#161b22" stroke-width="2"/>
<path d="M 104.23 92.26 L 102.22 70.36 A 85 85 0 0 1 110.00 70.00 L 110.00 92.00 A 63 63 0 0 0 104.23 92.26 Z" fill="#d2a8ff" stroke="#161b22" stroke-width="2"/>
<text x="110" y="147" text-anchor="middle" font-family="Consolas,monospace" font-size="11px" fill="#616e7f">avg/day</text>
<text x="110" y="167" text-anchor="middle" font-family="Consolas,monospace" font-size="16px" font-weight="bold" fill="#58a6ff">3h 4m</text>
<rect x="210" y="50" width="10" height="10" fill="#58a6ff" rx="2"/>
<text x="226" y="60" font-family="Consolas,monospace" font-size="13px" fill="#c9d1d9">Claude Code</text>
<text x="226" y="73" font-family="Consolas,monospace" font-size="11px" fill="#616e7f">54.0%  75 hrs 10 mins</text>
<rect x="210" y="86" width="10" height="10" fill="#3fb950" rx="2"/>
<text x="226" y="96" font-family="Consolas,monospace" font-size="13px" fill="#c9d1d9">Neovim</text>
<text x="226" y="109" font-family="Consolas,monospace" font-size="11px" fill="#616e7f">40.6%  56 hrs 29 mins</text>
<rect x="210" y="122" width="10" height="10" fill="#ffa657" rx="2"/>
<text x="226" y="132" font-family="Consolas,monospace" font-size="13px" fill="#c9d1d9">Vim</text>
<text x="226" y="145" font-family="Consolas,monospace" font-size="11px" fill="#616e7f">2.2%  3 hrs 4 mins</text>
<rect x="210" y="158" width="10" height="10" fill="#f85149" rx="2"/>
<text x="226" y="168" font-family="Consolas,monospace" font-size="13px" fill="#c9d1d9">Unknown Editor</text>
<text x="226" y="181" font-family="Consolas,monospace" font-size="11px" fill="#616e7f">1.7%  2 hrs 21 mins</text>
<rect x="210" y="194" width="10" height="10" fill="#d2a8ff" rx="2"/>
<text x="226" y="204" font-family="Consolas,monospace" font-size="13px" fill="#c9d1d9">VS Code</text>
<text x="226" y="217" font-family="Consolas,monospace" font-size="11px" fill="#616e7f">1.5%  2 hrs 1 min</text>
<rect x="210" y="230" width="10" height="10" fill="#79c0ff" rx="2"/>
<text x="226" y="240" font-family="Consolas,monospace" font-size="13px" fill="#c9d1d9">Antigravity</text>
<text x="226" y="253" font-family="Consolas,monospace" font-size="11px" fill="#616e7f">0.0%  0 secs</text>
</svg>