<svg xmlns="http://www.w3.org/2000/svg" font-family="Consolas,monospace" width="760" height="205" font-size="14px"><rect width="760" height="205" fill="#161b22" rx="12"/>
<text x="20" y="34" font-family="Consolas,monospace" font-size="14px" fill="#616e7f">- Working Hours  (last 30d) ———————————————————————————————————————————-—-</text>
<text x="20" y="50" font-family="Consolas,monospace" font-size="12px" fill="#616e7f">total 119h 53m | peak 4h 15:00-19:00 | busiest 16:00 (11h 27m) | tz Asia/Ho_Chi_Minh</text>
<defs>
<linearGradient id="hourFill" x1="0" y1="0" x2="1" y2="0">
<stop offset="0%" stop-color="#1d4ed8"/>
<stop offset="45%" stop-color="#7c3aed"/>
<stop offset="75%" stop-color="#db2777"/>
<stop offset="100%" stop-color="#facc15"/>
</linearGradient>
<linearGradient id="hourFade" x1="0" y1="0" x2="1" y2="0">
<stop offset="0%" stop-color="#1d4ed8" stop-opacity="0.42"/>
<stop offset="28%" stop-color="#2563eb" stop-opacity="0.5"/>
<stop offset="50%" stop-color="#7c3aed" stop-opacity="0.58"/>
<stop offset="70%" stop-color="#db2777" stop-opacity="0.62"/>
<stop offset="86%" stop-color="#f97316" stop-opacity="0.58"/>
<stop offset="100%" stop-color="#facc15" stop-opacity="0.48"/>
</linearGradient>
</defs>
<line x1="56" y1="156" x2="720" y2="156" stroke="#616e7f" stroke-width="1" opacity="0.35"/>
<line x1="56.00" y1="72" x2="56.00" y2="156" stroke="#616e7f" stroke-width="1" opacity="0.16"/>
<text x="56.00" y="174" text-anchor="middle" font-family="Consolas,monospace" font-size="8px" fill="#616e7f">00</text>
<line x1="84.87" y1="72" x2="84.87" y2="156" stroke="#616e7f" stroke-width="1" opacity="0.07"/>
<text x="84.87" y="174" text-anchor="middle" font-family="Consolas,monospace" font-size="8px" fill="#616e7f">01</text>
<line x1="113.74" y1="72" x2="113.74" y2="156" stroke="#616e7f" stroke-width="1" opacity="0.07"/>
<text x="113.74" y="174" text-anchor="middle" font-family="Consolas,monospace" font-size="8px" fill="#616e7f">02</text>
<line x1="142.61" y1="72" x2="142.61" y2="156" stroke="#616e7f" stroke-width="1" opacity="0.16"/>
<text x="142.61" y="174" text-anchor="middle" font-family="Consolas,monospace" font-size="8px" fill="#616e7f">03</text>
<line x1="171.48" y1="72" x2="171.48" y2="156" stroke="#616e7f" stroke-width="1" opacity="0.07"/>
<text x="171.48" y="174" text-anchor="middle" font-family="Consolas,monospace" font-size="8px" fill="#616e7f">04</text>
<line x1="200.35" y1="72" x2="200.35" y2="156" stroke="#616e7f" stroke-width="1" opacity="0.07"/>
<text x="200.35" y="174" text-anchor="middle" font-family="Consolas,monospace" font-size="8px" fill="#616e7f">05</text>
<line x1="229.22" y1="72" x2="229.22" y2="156" stroke="#616e7f" stroke-width="1" opacity="0.16"/>
<text x="229.22" y="174" text-anchor="middle" font-family="Consolas,monospace" font-size="8px" fill="#616e7f">06</text>
<line x1="258.09" y1="72" x2="258.09" y2="156" stroke="#616e7f" stroke-width="1" opacity="0.07"/>
<text x="258.09" y="174" text-anchor="middle" font-family="Consolas,monospace" font-size="8px" fill="#616e7f">07</text>
<line x1="286.96" y1="72" x2="286.96" y2="156" stroke="#616e7f" stroke-width="1" opacity="0.07"/>
<text x="286.96" y="174" text-anchor="middle" font-family="Consolas,monospace" font-size="8px" fill="#616e7f">08</text>
<line x1="315.83" y1="72" x2="315.83" y2="156" stroke="#616e7f" stroke-width="1" opacity="0.16"/>
<text x="315.83" y="174" text-anchor="middle" font-family="Consolas,monospace" font-size="8px" fill="#616e7f">09</text>
<line x1="344.70" y1="72" x2="344.70" y2="156" stroke="#616e7f" stroke-width="1" opacity="0.07"/>
<text x="344.70" y="174" text-anchor="middle" font-family="Consolas,monospace" font-size="8px" fill="#616e7f">10</text>
<line x1="373.57" y1="72" x2="373.57" y2="156" stroke="#616e7f" stroke-width="1" opacity="0.07"/>
<text x="373.57" y="174" text-anchor="middle" font-family="Consolas,monospace" font-size="8px" fill="#616e7f">11</text>
<line x1="402.43" y1="72" x2="402.43" y2="156" stroke="#616e7f" stroke-width="1" opacity="0.16"/>
<text x="402.43" y="174" text-anchor="middle" font-family="Consolas,monospace" font-size="8px" fill="#616e7f">12</text>
<line x1="431.30" y1="72" x2="431.30" y2="156" stroke="#616e7f" stroke-width="1" opacity="0.07"/>
<text x="431.30" y="174" text-anchor="middle" font-family="Consolas,monospace" font-size="8px" fill="#616e7f">13</text>
<line x1="460.17" y1="72" x2="460.17" y2="156" stroke="#616e7f" stroke-width="1" opacity="0.07"/>
<text x="460.17" y="174" text-anchor="middle" font-family="Consolas,monospace" font-size="8px" fill="#616e7f">14</text>
<line x1="489.04" y1="72" x2="489.04" y2="156" stroke="#616e7f" stroke-width="1" opacity="0.16"/>
<text x="489.04" y="174" text-anchor="middle" font-family="Consolas,monospace" font-size="8px" fill="#616e7f">15</text>
<line x1="517.91" y1="72" x2="517.91" y2="156" stroke="#616e7f" stroke-width="1" opacity="0.07"/>
<text x="517.91" y="174" text-anchor="middle" font-family="Consolas,monospace" font-size="8px" fill="#616e7f">16</text>
<line x1="546.78" y1="72" x2="546.78" y2="156" stroke="#616e7f" stroke-width="1" opacity="0.07"/>
<text x="546.78" y="174" text-anchor="middle" font-family="Consolas,monospace" font-size="8px" fill="#616e7f">17</text>
<line x1="575.65" y1="72" x2="575.65" y2="156" stroke="#616e7f" stroke-width="1" opacity="0.16"/>
<text x="575.65" y="174" text-anchor="middle" font-family="Consolas,monospace" font-size="8px" fill="#616e7f">18</text>
<line x1="604.52" y1="72" x2="604.52" y2="156" stroke="#616e7f" stroke-width="1" opacity="0.07"/>
<text x="604.52" y="174" text-anchor="middle" font-family="Consolas,monospace" font-size="8px" fill="#616e7f">19</text>
<line x1="633.39" y1="72" x2="633.39" y2="156" stroke="#616e7f" stroke-width="1" opacity="0.07"/>
<text x="633.39" y="174" text-anchor="middle" font-family="Consolas,monospace" font-size="8px" fill="#616e7f">20</text>
<line x1="662.26" y1="72" x2="662.26" y2="156" stroke="#616e7f" stroke-width="1" opacity="0.16"/>
<text x="662.26" y="174" text-anchor="middle" font-family="Consolas,monospace" font-size="8px" fill="#616e7f">21</text>
<line x1="691.13" y1="72" x2="691.13" y2="156" stroke="#616e7f" stroke-width="1" opacity="0.07"/>
<text x="691.13" y="174" text-anchor="middle" font-family="Consolas,monospace" font-size="8px" fill="#616e7f">22</text>
<line x1="720.00" y1="72" x2="720.00" y2="156" stroke="#616e7f" stroke-width="1" opacity="0.07"/>
<text x="720.00" y="174" text-anchor="middle" font-family="Consolas,monospace" font-size="8px" fill="#616e7f">23</text>
<path d="M 56.00 109.81 C 60.81 108.39, 75.25 98.65, 84.87 101.34 C 94.49 104.03, 104.12 120.79, 113.74 125.94 C 123.36 131.08, 132.99 128.84, 142.61 132.23 C 152.23 135.61, 161.86 143.29, 171.48 146.24 C 181.10 149.19, 190.72 148.47, 200.35 149.92 C 209.97 151.37, 219.59 153.98, 229.22 154.94 C 238.84 155.90, 248.46 157.63, 258.09 155.67 C 267.71 153.72, 277.33 144.88, 286.96 143.23 C 296.58 141.57, 306.20 144.55, 315.83 145.74 C 325.45 146.92, 335.07 149.35, 344.70 150.34 C 354.32 151.33, 363.94 154.01, 373.57 151.66 C 383.19 149.30, 392.81 143.10, 402.43 136.21 C 412.06 129.31, 421.68 115.30, 431.30 110.27 C 440.93 105.25, 450.55 110.92, 460.17 106.07 C 469.80 101.21, 479.42 86.82, 489.04 81.15 C 498.67 75.47, 508.29 72.47, 517.91 72.00 C 527.54 71.53, 537.16 75.34, 546.78 78.33 C 556.41 81.32, 566.03 86.82, 575.65 89.93 C 585.28 93.04, 594.90 95.91, 604.52 96.99 C 614.14 98.06, 623.77 93.13, 633.39 96.36 C 643.01 99.58, 652.64 113.70, 662.26 116.34 C 671.88 118.98, 681.51 114.49, 691.13 112.18 C 700.75 109.86, 715.19 104.07, 720.00 102.45 L 720.00 156.00 L 56.00 156.00 Z" fill="url(#hourFade)"/>
<path d="M 56.00 109.81 C 60.81 108.39, 75.25 98.65, 84.87 101.34 C 94.49 104.03, 104.12 120.79, 113.74 125.94 C 123.36 131.08, 132.99 128.84, 142.61 132.23 C 152.23 135.61, 161.86 143.29, 171.48 146.24 C 181.10 149.19, 190.72 148.47, 200.35 149.92 C 209.97 151.37, 219.59 153.98, 229.22 154.94 C 238.84 155.90, 248.46 157.63, 258.09 155.67 C 267.71 153.72, 277.33 144.88, 286.96 143.23 C 296.58 141.57, 306.20 144.55, 315.83 145.74 C 325.45 146.92, 335.07 149.35, 344.70 150.34 C 354.32 151.33, 363.94 154.01, 373.57 151.66 C 383.19 149.30, 392.81 143.10, 402.43 136.21 C 412.06 129.31, 421.68 115.30, 431.30 110.27 C 440.93 105.25, 450.55 110.92, 460.17 106.07 C 469.80 101.21, 479.42 86.82, 489.04 81.15 C 498.67 75.47, 508.29 72.47, 517.91 72.00 C 527.54 71.53, 537.16 75.34, 546.78 78.33 C 556.41 81.32, 566.03 86.82, 575.65 89.93 C 585.28 93.04, 594.90 95.91, 604.52 96.99 C 614.14 98.06, 623.77 93.13, 633.39 96.36 C 643.01 99.58, 652.64 113.70, 662.26 116.34 C 671.88 118.98, 681.51 114.49, 691.13 112.18 C 700.75 109.86, 715.19 104.07, 720.00 102.45" fill="none" stroke="url(#hourFill)" stroke-width="4" stroke-linecap="round"/>
<circle cx="56.00" cy="109.81" r="2.5" fill="#facc15" opacity="1"><title>00:00 - 6h 18m total</title></circle>
<circle cx="84.87" cy="101.34" r="2.5" fill="#facc15" opacity="1"><title>01:00 - 7h 27m total</title></circle>
<circle cx="113.74" cy="125.94" r="2.5" fill="#facc15" opacity="1"><title>02:00 - 4h 6m total</title></circle>
<circle cx="142.61" cy="132.23" r="2.5" fill="#facc15" opacity="1"><title>03:00 - 3h 14m total</title></circle>
<circle cx="171.48" cy="146.24" r="2.5" fill="#facc15" opacity="1"><title>04:00 - 1h 19m total</title></circle>
<circle cx="200.35" cy="149.92" r="2.5" fill="#facc15" opacity="1"><title>05:00 - 49m total</title></circle>
<circle cx="229.22" cy="154.94" r="2.5" fill="#facc15" opacity="1"><title>06:00 - 8m total</title></circle>
<circle cx="258.09" cy="155.67" r="2.5" fill="#facc15" opacity="1"><title>07:00 - 2m total</title></circle>
<circle cx="286.96" cy="143.23" r="2.5" fill="#facc15" opacity="1"><title>08:00 - 1h 44m total</title></circle>
<circle cx="315.83" cy="145.74" r="2.5" fill="#facc15" opacity="1"><title>09:00 - 1h 24m total</title></circle>
<circle cx="344.70" cy="150.34" r="2.5" fill="#facc15" opacity="1"><title>10:00 - 46m total</title></circle>
<circle cx="373.57" cy="151.66" r="2.5" fill="#facc15" opacity="1"><title>11:00 - 35m total</title></circle>
<circle cx="402.43" cy="136.21" r="2.5" fill="#facc15" opacity="1"><title>12:00 - 2h 42m total</title></circle>
<circle cx="431.30" cy="110.27" r="2.5" fill="#facc15" opacity="1"><title>13:00 - 6h 14m total</title></circle>
<circle cx="460.17" cy="106.07" r="2.5" fill="#facc15" opacity="1"><title>14:00 - 6h 48m total</title></circle>
<circle cx="489.04" cy="81.15" r="2.5" fill="#facc15" opacity="1"><title>15:00 - 10h 12m total</title></circle>
<circle cx="517.91" cy="72.00" r="4" fill="#facc15" opacity="1"><title>16:00 - 11h 27m total</title></circle>
<circle cx="546.78" cy="78.33" r="2.5" fill="#facc15" opacity="1"><title>17:00 - 10h 35m total</title></circle>
<circle cx="575.65" cy="89.93" r="2.5" fill="#facc15" opacity="1"><title>18:00 - 9h 0m total</title></circle>
<circle cx="604.52" cy="96.99" r="2.5" fill="#facc15" opacity="1"><title>19:00 - 8h 3m total</title></circle>
<circle cx="633.39" cy="96.36" r="2.5" fill="#facc15" opacity="1"><title>20:00 - 8h 8m total</title></circle>
<circle cx="662.26" cy="116.34" r="2.5" fill="#facc15" opacity="1"><title>21:00 - 5h 24m total</title></circle>
<circle cx="691.13" cy="112.18" r="2.5" fill="#facc15" opacity="1"><title>22:00 - 5h 58m total</title></circle>
<circle cx="720.00" cy="102.45" r="2.5" fill="#facc15" opacity="1"><title>23:00 - 7h 18m total</title></circle>
<text x="20" y="191" font-family="Consolas,monospace" font-size="11px" fill="#616e7f">24-hour distribution across 30 days; higher curve = more coding time in that hour</text>
</svg>