<svg xmlns="http://www.w3.org/2000/svg" font-family="Consolas,monospace" width="760" height="205" font-size="14px"><rect width="760" height="205" fill="#161b22" rx="12"/>
<text x="20" y="34" font-family="Consolas,monospace" font-size="14px" fill="#616e7f">- Working Hours  (last 30d) ———————————————————————————————————————————-—-</text>
<text x="20" y="50" font-family="Consolas,monospace" font-size="12px" fill="#616e7f">total 146h 15m | peak 4h 21:00-01:00 | busiest 00:00 (12h 56m) | tz Asia/Ho_Chi_Minh</text>
<defs>
<linearGradient id="hourFill" x1="0" y1="0" x2="1" y2="0">
<stop offset="0%" stop-color="#1d4ed8"/>
<stop offset="45%" stop-color="#7c3aed"/>
<stop offset="75%" stop-color="#db2777"/>
<stop offset="100%" stop-color="#facc15"/>
</linearGradient>
<linearGradient id="hourFade" x1="0" y1="0" x2="1" y2="0">
<stop offset="0%" stop-color="#1d4ed8" stop-opacity="0.42"/>
<stop offset="28%" stop-color="#2563eb" stop-opacity="0.5"/>
<stop offset="50%" stop-color="#7c3aed" stop-opacity="0.58"/>
<stop offset="70%" stop-color="#db2777" stop-opacity="0.62"/>
<stop offset="86%" stop-color="#f97316" stop-opacity="0.58"/>
<stop offset="100%" stop-color="#facc15" stop-opacity="0.48"/>
</linearGradient>
</defs>
<line x1="56" y1="156" x2="720" y2="156" stroke="#616e7f" stroke-width="1" opacity="0.35"/>
<line x1="56.00" y1="72" x2="56.00" y2="156" stroke="#616e7f" stroke-width="1" opacity="0.16"/>
<text x="56.00" y="174" text-anchor="middle" font-family="Consolas,monospace" font-size="8px" fill="#616e7f">00</text>
<line x1="84.87" y1="72" x2="84.87" y2="156" stroke="#616e7f" stroke-width="1" opacity="0.07"/>
<text x="84.87" y="174" text-anchor="middle" font-family="Consolas,monospace" font-size="8px" fill="#616e7f">01</text>
<line x1="113.74" y1="72" x2="113.74" y2="156" stroke="#616e7f" stroke-width="1" opacity="0.07"/>
<text x="113.74" y="174" text-anchor="middle" font-family="Consolas,monospace" font-size="8px" fill="#616e7f">02</text>
<line x1="142.61" y1="72" x2="142.61" y2="156" stroke="#616e7f" stroke-width="1" opacity="0.16"/>
<text x="142.61" y="174" text-anchor="middle" font-family="Consolas,monospace" font-size="8px" fill="#616e7f">03</text>
<line x1="171.48" y1="72" x2="171.48" y2="156" stroke="#616e7f" stroke-width="1" opacity="0.07"/>
<text x="171.48" y="174" text-anchor="middle" font-family="Consolas,monospace" font-size="8px" fill="#616e7f">04</text>
<line x1="200.35" y1="72" x2="200.35" y2="156" stroke="#616e7f" stroke-width="1" opacity="0.07"/>
<text x="200.35" y="174" text-anchor="middle" font-family="Consolas,monospace" font-size="8px" fill="#616e7f">05</text>
<line x1="229.22" y1="72" x2="229.22" y2="156" stroke="#616e7f" stroke-width="1" opacity="0.16"/>
<text x="229.22" y="174" text-anchor="middle" font-family="Consolas,monospace" font-size="8px" fill="#616e7f">06</text>
<line x1="258.09" y1="72" x2="258.09" y2="156" stroke="#616e7f" stroke-width="1" opacity="0.07"/>
<text x="258.09" y="174" text-anchor="middle" font-family="Consolas,monospace" font-size="8px" fill="#616e7f">07</text>
<line x1="286.96" y1="72" x2="286.96" y2="156" stroke="#616e7f" stroke-width="1" opacity="0.07"/>
<text x="286.96" y="174" text-anchor="middle" font-family="Consolas,monospace" font-size="8px" fill="#616e7f">08</text>
<line x1="315.83" y1="72" x2="315.83" y2="156" stroke="#616e7f" stroke-width="1" opacity="0.16"/>
<text x="315.83" y="174" text-anchor="middle" font-family="Consolas,monospace" font-size="8px" fill="#616e7f">09</text>
<line x1="344.70" y1="72" x2="344.70" y2="156" stroke="#616e7f" stroke-width="1" opacity="0.07"/>
<text x="344.70" y="174" text-anchor="middle" font-family="Consolas,monospace" font-size="8px" fill="#616e7f">10</text>
<line x1="373.57" y1="72" x2="373.57" y2="156" stroke="#616e7f" stroke-width="1" opacity="0.07"/>
<text x="373.57" y="174" text-anchor="middle" font-family="Consolas,monospace" font-size="8px" fill="#616e7f">11</text>
<line x1="402.43" y1="72" x2="402.43" y2="156" stroke="#616e7f" stroke-width="1" opacity="0.16"/>
<text x="402.43" y="174" text-anchor="middle" font-family="Consolas,monospace" font-size="8px" fill="#616e7f">12</text>
<line x1="431.30" y1="72" x2="431.30" y2="156" stroke="#616e7f" stroke-width="1" opacity="0.07"/>
<text x="431.30" y="174" text-anchor="middle" font-family="Consolas,monospace" font-size="8px" fill="#616e7f">13</text>
<line x1="460.17" y1="72" x2="460.17" y2="156" stroke="#616e7f" stroke-width="1" opacity="0.07"/>
<text x="460.17" y="174" text-anchor="middle" font-family="Consolas,monospace" font-size="8px" fill="#616e7f">14</text>
<line x1="489.04" y1="72" x2="489.04" y2="156" stroke="#616e7f" stroke-width="1" opacity="0.16"/>
<text x="489.04" y="174" text-anchor="middle" font-family="Consolas,monospace" font-size="8px" fill="#616e7f">15</text>
<line x1="517.91" y1="72" x2="517.91" y2="156" stroke="#616e7f" stroke-width="1" opacity="0.07"/>
<text x="517.91" y="174" text-anchor="middle" font-family="Consolas,monospace" font-size="8px" fill="#616e7f">16</text>
<line x1="546.78" y1="72" x2="546.78" y2="156" stroke="#616e7f" stroke-width="1" opacity="0.07"/>
<text x="546.78" y="174" text-anchor="middle" font-family="Consolas,monospace" font-size="8px" fill="#616e7f">17</text>
<line x1="575.65" y1="72" x2="575.65" y2="156" stroke="#616e7f" stroke-width="1" opacity="0.16"/>
<text x="575.65" y="174" text-anchor="middle" font-family="Consolas,monospace" font-size="8px" fill="#616e7f">18</text>
<line x1="604.52" y1="72" x2="604.52" y2="156" stroke="#616e7f" stroke-width="1" opacity="0.07"/>
<text x="604.52" y="174" text-anchor="middle" font-family="Consolas,monospace" font-size="8px" fill="#616e7f">19</text>
<line x1="633.39" y1="72" x2="633.39" y2="156" stroke="#616e7f" stroke-width="1" opacity="0.07"/>
<text x="633.39" y="174" text-anchor="middle" font-family="Consolas,monospace" font-size="8px" fill="#616e7f">20</text>
<line x1="662.26" y1="72" x2="662.26" y2="156" stroke="#616e7f" stroke-width="1" opacity="0.16"/>
<text x="662.26" y="174" text-anchor="middle" font-family="Consolas,monospace" font-size="8px" fill="#616e7f">21</text>
<line x1="691.13" y1="72" x2="691.13" y2="156" stroke="#616e7f" stroke-width="1" opacity="0.07"/>
<text x="691.13" y="174" text-anchor="middle" font-family="Consolas,monospace" font-size="8px" fill="#616e7f">22</text>
<line x1="720.00" y1="72" x2="720.00" y2="156" stroke="#616e7f" stroke-width="1" opacity="0.07"/>
<text x="720.00" y="174" text-anchor="middle" font-family="Consolas,monospace" font-size="8px" fill="#616e7f">23</text>
<path d="M 56.00 72.00 C 60.81 73.56, 75.25 76.78, 84.87 81.38 C 94.49 85.99, 104.12 91.55, 113.74 99.65 C 123.36 107.76, 132.99 122.07, 142.61 130.02 C 152.23 137.96, 161.86 144.08, 171.48 147.33 C 181.10 150.58, 190.72 148.24, 200.35 149.51 C 209.97 150.78, 219.59 154.96, 229.22 154.96 C 238.84 154.96, 248.46 150.47, 258.09 149.51 C 267.71 148.55, 277.33 149.66, 286.96 149.21 C 296.58 148.76, 306.20 147.64, 315.83 146.81 C 325.45 145.98, 335.07 144.70, 344.70 144.22 C 354.32 143.73, 363.94 142.43, 373.57 143.92 C 383.19 145.40, 392.81 153.39, 402.43 153.13 C 412.06 152.88, 421.68 148.56, 431.30 142.40 C 440.93 136.24, 450.55 125.86, 460.17 116.19 C 469.80 106.53, 479.42 91.29, 489.04 84.39 C 498.67 77.50, 508.29 72.16, 517.91 74.80 C 527.54 77.44, 537.16 95.72, 546.78 100.25 C 556.41 104.77, 566.03 100.82, 575.65 101.95 C 585.28 103.08, 594.90 106.74, 604.52 107.04 C 614.14 107.34, 623.77 108.13, 633.39 103.74 C 643.01 99.34, 652.64 84.07, 662.26 80.66 C 671.88 77.24, 681.51 83.60, 691.13 83.26 C 700.75 82.92, 715.19 79.39, 720.00 78.61 L 720.00 156.00 L 56.00 156.00 Z" fill="url(#hourFade)"/>
<path d="M 56.00 72.00 C 60.81 73.56, 75.25 76.78, 84.87 81.38 C 94.49 85.99, 104.12 91.55, 113.74 99.65 C 123.36 107.76, 132.99 122.07, 142.61 130.02 C 152.23 137.96, 161.86 144.08, 171.48 147.33 C 181.10 150.58, 190.72 148.24, 200.35 149.51 C 209.97 150.78, 219.59 154.96, 229.22 154.96 C 238.84 154.96, 248.46 150.47, 258.09 149.51 C 267.71 148.55, 277.33 149.66, 286.96 149.21 C 296.58 148.76, 306.20 147.64, 315.83 146.81 C 325.45 145.98, 335.07 144.70, 344.70 144.22 C 354.32 143.73, 363.94 142.43, 373.57 143.92 C 383.19 145.40, 392.81 153.39, 402.43 153.13 C 412.06 152.88, 421.68 148.56, 431.30 142.40 C 440.93 136.24, 450.55 125.86, 460.17 116.19 C 469.80 106.53, 479.42 91.29, 489.04 84.39 C 498.67 77.50, 508.29 72.16, 517.91 74.80 C 527.54 77.44, 537.16 95.72, 546.78 100.25 C 556.41 104.77, 566.03 100.82, 575.65 101.95 C 585.28 103.08, 594.90 106.74, 604.52 107.04 C 614.14 107.34, 623.77 108.13, 633.39 103.74 C 643.01 99.34, 652.64 84.07, 662.26 80.66 C 671.88 77.24, 681.51 83.60, 691.13 83.26 C 700.75 82.92, 715.19 79.39, 720.00 78.61" fill="none" stroke="url(#hourFill)" stroke-width="4" stroke-linecap="round"/>
<circle cx="56.00" cy="72.00" r="4" fill="#facc15" opacity="1"><title>00:00 - 12h 56m total</title></circle>
<circle cx="84.87" cy="81.38" r="2.5" fill="#facc15" opacity="1"><title>01:00 - 11h 29m total</title></circle>
<circle cx="113.74" cy="99.65" r="2.5" fill="#facc15" opacity="1"><title>02:00 - 8h 41m total</title></circle>
<circle cx="142.61" cy="130.02" r="2.5" fill="#facc15" opacity="1"><title>03:00 - 4h 0m total</title></circle>
<circle cx="171.48" cy="147.33" r="2.5" fill="#facc15" opacity="1"><title>04:00 - 1h 20m total</title></circle>
<circle cx="200.35" cy="149.51" r="2.5" fill="#facc15" opacity="1"><title>05:00 - 1h 0m total</title></circle>
<circle cx="229.22" cy="154.96" r="2.5" fill="#facc15" opacity="1"><title>06:00 - 9m total</title></circle>
<circle cx="258.09" cy="149.51" r="2.5" fill="#facc15" opacity="1"><title>07:00 - 1h 0m total</title></circle>
<circle cx="286.96" cy="149.21" r="2.5" fill="#facc15" opacity="1"><title>08:00 - 1h 2m total</title></circle>
<circle cx="315.83" cy="146.81" r="2.5" fill="#facc15" opacity="1"><title>09:00 - 1h 24m total</title></circle>
<circle cx="344.70" cy="144.22" r="2.5" fill="#facc15" opacity="1"><title>10:00 - 1h 48m total</title></circle>
<circle cx="373.57" cy="143.92" r="2.5" fill="#facc15" opacity="1"><title>11:00 - 1h 51m total</title></circle>
<circle cx="402.43" cy="153.13" r="2.5" fill="#facc15" opacity="1"><title>12:00 - 26m total</title></circle>
<circle cx="431.30" cy="142.40" r="2.5" fill="#facc15" opacity="1"><title>13:00 - 2h 5m total</title></circle>
<circle cx="460.17" cy="116.19" r="2.5" fill="#facc15" opacity="1"><title>14:00 - 6h 8m total</title></circle>
<circle cx="489.04" cy="84.39" r="2.5" fill="#facc15" opacity="1"><title>15:00 - 11h 2m total</title></circle>
<circle cx="517.91" cy="74.80" r="2.5" fill="#facc15" opacity="1"><title>16:00 - 12h 30m total</title></circle>
<circle cx="546.78" cy="100.25" r="2.5" fill="#facc15" opacity="1"><title>17:00 - 8h 35m total</title></circle>
<circle cx="575.65" cy="101.95" r="2.5" fill="#facc15" opacity="1"><title>18:00 - 8h 19m total</title></circle>
<circle cx="604.52" cy="107.04" r="2.5" fill="#facc15" opacity="1"><title>19:00 - 7h 32m total</title></circle>
<circle cx="633.39" cy="103.74" r="2.5" fill="#facc15" opacity="1"><title>20:00 - 8h 3m total</title></circle>
<circle cx="662.26" cy="80.66" r="2.5" fill="#facc15" opacity="1"><title>21:00 - 11h 36m total</title></circle>
<circle cx="691.13" cy="83.26" r="2.5" fill="#facc15" opacity="1"><title>22:00 - 11h 12m total</title></circle>
<circle cx="720.00" cy="78.61" r="2.5" fill="#facc15" opacity="1"><title>23:00 - 11h 55m total</title></circle>
<text x="20" y="191" font-family="Consolas,monospace" font-size="11px" fill="#616e7f">24-hour distribution across 30 days; higher curve = more coding time in that hour</text>
</svg>