<svg xmlns="http://www.w3.org/2000/svg" font-family="Consolas,monospace" width="340" height="300" font-size="14px"><rect width="340" height="300" fill="#161b22" rx="12"/>
<text x="15" y="29" font-family="Consolas,monospace" font-size="14px" fill="#616e7f">- Editors  (last 30d) —————————-—-</text>
<path d="M 110.00 92.00 L 110.00 70.00 A 85 85 0 0 1 177.16 207.10 L 159.78 193.62 A 63 63 0 0 0 110.00 92.00 Z" fill="#58a6ff" stroke="#161b22" stroke-width="2"/>
<path d="M 159.78 193.62 L 177.16 207.10 A 85 85 0 0 1 64.91 227.05 L 76.58 208.40 A 63 63 0 0 0 159.78 193.62 Z" fill="#3fb950" stroke="#161b22" stroke-width="2"/>
<path d="M 76.58 208.40 L 64.91 227.05 A 85 85 0 0 1 26.45 170.65 L 48.08 166.60 A 63 63 0 0 0 76.58 208.40 Z" fill="#ffa657" stroke="#161b22" stroke-width="2"/>
<path d="M 48.08 166.60 L 26.45 170.65 A 85 85 0 0 1 37.09 111.30 L 55.96 122.61 A 63 63 0 0 0 48.08 166.60 Z" fill="#f85149" stroke="#161b22" stroke-width="2"/>
<path d="M 55.96 122.61 L 37.09 111.30 A 85 85 0 0 1 68.54 80.80 L 79.27 100.00 A 63 63 0 0 0 55.96 122.61 Z" fill="#d2a8ff" stroke="#161b22" stroke-width="2"/>
<path d="M 79.27 100.00 L 68.54 80.80 A 85 85 0 0 1 110.00 70.00 L 110.00 92.00 A 63 63 0 0 0 79.27 100.00 Z" fill="#79c0ff" stroke="#161b22" stroke-width="2"/>
<text x="110" y="147" text-anchor="middle" font-family="Consolas,monospace" font-size="11px" fill="#616e7f">avg/day</text>
<text x="110" y="167" text-anchor="middle" font-family="Consolas,monospace" font-size="16px" font-weight="bold" fill="#58a6ff">5h 37m</text>
<rect x="210" y="50" width="10" height="10" fill="#58a6ff" rx="2"/>
<text x="226" y="60" font-family="Consolas,monospace" font-size="13px" fill="#c9d1d9">Claude Code</text>
<text x="226" y="73" font-family="Consolas,monospace" font-size="11px" fill="#616e7f">31.1%  60 hrs 12 mins</text>
<rect x="210" y="86" width="10" height="10" fill="#3fb950" rx="2"/>
<text x="226" y="96" font-family="Consolas,monospace" font-size="13px" fill="#c9d1d9">Codex CLI</text>
<text x="226" y="109" font-family="Consolas,monospace" font-size="11px" fill="#616e7f">20.5%  39 hrs 40 mins</text>
<rect x="210" y="122" width="10" height="10" fill="#ffa657" rx="2"/>
<text x="226" y="132" font-family="Consolas,monospace" font-size="13px" fill="#c9d1d9">OpenCode</text>
<text x="226" y="145" font-family="Consolas,monospace" font-size="11px" fill="#616e7f">11.5%  22 hrs 18 mins</text>
<rect x="210" y="158" width="10" height="10" fill="#f85149" rx="2"/>
<text x="226" y="168" font-family="Consolas,monospace" font-size="13px" fill="#c9d1d9">Neovim</text>
<text x="226" y="181" font-family="Consolas,monospace" font-size="11px" fill="#616e7f">10.1%  19 hrs 34 mins</text>
<rect x="210" y="194" width="10" height="10" fill="#d2a8ff" rx="2"/>
<text x="226" y="204" font-family="Consolas,monospace" font-size="13px" fill="#c9d1d9">Opencode Cli</text>
<text x="226" y="217" font-family="Consolas,monospace" font-size="11px" fill="#616e7f">7.3%  14 hrs 4 mins</text>
<rect x="210" y="230" width="10" height="10" fill="#79c0ff" rx="2"/>
<text x="226" y="240" font-family="Consolas,monospace" font-size="13px" fill="#c9d1d9">Zed</text>
<text x="226" y="253" font-family="Consolas,monospace" font-size="11px" fill="#616e7f">7.1%  13 hrs 45 mins</text>
</svg>