<svg xmlns="http://www.w3.org/2000/svg" font-family="Consolas,monospace" width="340" height="300" font-size="14px"><rect width="340" height="300" fill="#161b22" rx="12"/>
<text x="15" y="29" font-family="Consolas,monospace" font-size="14px" fill="#616e7f">- Editors  (last 30d) —————————-—-</text>
<path d="M 110.00 92.00 L 110.00 70.00 A 85 85 0 0 1 185.07 194.86 L 165.64 184.54 A 63 63 0 0 0 110.00 92.00 Z" fill="#58a6ff" stroke="#161b22" stroke-width="2"/>
<path d="M 165.64 184.54 L 185.07 194.86 A 85 85 0 0 1 75.15 232.53 L 84.17 212.46 A 63 63 0 0 0 165.64 184.54 Z" fill="#3fb950" stroke="#161b22" stroke-width="2"/>
<path d="M 84.17 212.46 L 75.15 232.53 A 85 85 0 0 1 30.61 185.36 L 51.16 177.50 A 63 63 0 0 0 84.17 212.46 Z" fill="#ffa657" stroke="#161b22" stroke-width="2"/>
<path d="M 51.16 177.50 L 30.61 185.36 A 85 85 0 0 1 29.00 129.23 L 49.97 135.90 A 63 63 0 0 0 51.16 177.50 Z" fill="#f85149" stroke="#161b22" stroke-width="2"/>
<path d="M 49.97 135.90 L 29.00 129.23 A 85 85 0 0 1 61.06 85.50 L 73.72 103.49 A 63 63 0 0 0 49.97 135.90 Z" fill="#d2a8ff" stroke="#161b22" stroke-width="2"/>
<path d="M 73.72 103.49 L 61.06 85.50 A 85 85 0 0 1 110.00 70.00 L 110.00 92.00 A 63 63 0 0 0 73.72 103.49 Z" fill="#79c0ff" stroke="#161b22" stroke-width="2"/>
<text x="110" y="147" text-anchor="middle" font-family="Consolas,monospace" font-size="11px" fill="#616e7f">avg/day</text>
<text x="110" y="167" text-anchor="middle" font-family="Consolas,monospace" font-size="16px" font-weight="bold" fill="#58a6ff">5h 42m</text>
<rect x="210" y="50" width="10" height="10" fill="#58a6ff" rx="2"/>
<text x="226" y="60" font-family="Consolas,monospace" font-size="13px" fill="#c9d1d9">Claude Code</text>
<text x="226" y="73" font-family="Consolas,monospace" font-size="11px" fill="#616e7f">29.0%  57 hrs 50 mins</text>
<rect x="210" y="86" width="10" height="10" fill="#3fb950" rx="2"/>
<text x="226" y="96" font-family="Consolas,monospace" font-size="13px" fill="#c9d1d9">Codex CLI</text>
<text x="226" y="109" font-family="Consolas,monospace" font-size="11px" fill="#616e7f">21.2%  42 hrs 16 mins</text>
<rect x="210" y="122" width="10" height="10" fill="#ffa657" rx="2"/>
<text x="226" y="132" font-family="Consolas,monospace" font-size="13px" fill="#c9d1d9">Opencode Cli</text>
<text x="226" y="145" font-family="Consolas,monospace" font-size="11px" fill="#616e7f">11.0%  21 hrs 59 mins</text>
<rect x="210" y="158" width="10" height="10" fill="#f85149" rx="2"/>
<text x="226" y="168" font-family="Consolas,monospace" font-size="13px" fill="#c9d1d9">Neovim</text>
<text x="226" y="181" font-family="Consolas,monospace" font-size="11px" fill="#616e7f">9.5%  18 hrs 54 mins</text>
<rect x="210" y="194" width="10" height="10" fill="#d2a8ff" rx="2"/>
<text x="226" y="204" font-family="Consolas,monospace" font-size="13px" fill="#c9d1d9">OpenCode</text>
<text x="226" y="217" font-family="Consolas,monospace" font-size="11px" fill="#616e7f">9.1%  18 hrs 14 mins</text>
<rect x="210" y="230" width="10" height="10" fill="#79c0ff" rx="2"/>
<text x="226" y="240" font-family="Consolas,monospace" font-size="13px" fill="#c9d1d9">Zed</text>
<text x="226" y="253" font-family="Consolas,monospace" font-size="11px" fill="#616e7f">8.6%  17 hrs 14 mins</text>
</svg>