<svg xmlns="http://www.w3.org/2000/svg" font-family="Consolas,monospace" width="760" height="260" font-size="14px"><rect width="760" height="260" fill="#161b22" rx="12"/>
<text x="20" y="34" font-family="Consolas,monospace" font-size="14px" fill="#616e7f">- Daily Activity  (last 30d) ——————————————————————————————————————————-—-</text>
<rect x="20" y="185" width="21" height="35" fill="#58a6ff" rx="2" opacity="0.85"/>
<text x="30" y="238" text-anchor="middle" font-family="Consolas,monospace" font-size="11px" fill="#616e7f">03/16</text>
<rect x="44" y="158" width="21" height="62" fill="#58a6ff" rx="2" opacity="0.85"/>
<text x="54" y="154" text-anchor="middle" font-family="Consolas,monospace" font-size="10px" fill="#c9d1d9">3h 30m</text>
<rect x="68" y="132" width="21" height="88" fill="#58a6ff" rx="2" opacity="0.85"/>
<text x="78" y="128" text-anchor="middle" font-family="Consolas,monospace" font-size="10px" fill="#c9d1d9">5h 0m</text>
<rect x="92" y="132" width="21" height="88" fill="#58a6ff" rx="2" opacity="0.85"/>
<text x="102" y="128" text-anchor="middle" font-family="Consolas,monospace" font-size="10px" fill="#c9d1d9">5h 0m</text>
<rect x="116" y="105" width="21" height="115" fill="#58a6ff" rx="2" opacity="0.85"/>
<text x="126" y="101" text-anchor="middle" font-family="Consolas,monospace" font-size="10px" fill="#c9d1d9">6h 30m</text>
<rect x="140" y="78" width="21" height="142" fill="#58a6ff" rx="2" opacity="0.85"/>
<text x="150" y="238" text-anchor="middle" font-family="Consolas,monospace" font-size="11px" fill="#616e7f">03/21</text>
<text x="150" y="74" text-anchor="middle" font-family="Consolas,monospace" font-size="10px" fill="#c9d1d9">8h 0m</text>
<rect x="164" y="78" width="21" height="142" fill="#58a6ff" rx="2" opacity="0.85"/>
<text x="174" y="74" text-anchor="middle" font-family="Consolas,monospace" font-size="10px" fill="#c9d1d9">8h 0m</text>
<rect x="188" y="176" width="21" height="44" fill="#58a6ff" rx="2" opacity="0.85"/>
<rect x="212" y="149" width="21" height="71" fill="#58a6ff" rx="2" opacity="0.85"/>
<text x="222" y="145" text-anchor="middle" font-family="Consolas,monospace" font-size="10px" fill="#c9d1d9">4h 0m</text>
<rect x="236" y="149" width="21" height="71" fill="#58a6ff" rx="2" opacity="0.85"/>
<text x="246" y="145" text-anchor="middle" font-family="Consolas,monospace" font-size="10px" fill="#c9d1d9">4h 0m</text>
<rect x="260" y="123" width="21" height="97" fill="#58a6ff" rx="2" opacity="0.85"/>
<text x="270" y="238" text-anchor="middle" font-family="Consolas,monospace" font-size="11px" fill="#616e7f">03/26</text>
<text x="270" y="119" text-anchor="middle" font-family="Consolas,monospace" font-size="10px" fill="#c9d1d9">5h 30m</text>
<rect x="284" y="96" width="21" height="124" fill="#58a6ff" rx="2" opacity="0.85"/>
<text x="294" y="92" text-anchor="middle" font-family="Consolas,monospace" font-size="10px" fill="#c9d1d9">7h 0m</text>
<rect x="308" y="96" width="21" height="124" fill="#58a6ff" rx="2" opacity="0.85"/>
<text x="318" y="92" text-anchor="middle" font-family="Consolas,monospace" font-size="10px" fill="#c9d1d9">7h 0m</text>
<rect x="332" y="69" width="21" height="151" fill="#58a6ff" rx="2" opacity="0.85"/>
<text x="342" y="65" text-anchor="middle" font-family="Consolas,monospace" font-size="10px" fill="#c9d1d9">8h 30m</text>
<rect x="356" y="167" width="21" height="53" fill="#58a6ff" rx="2" opacity="0.85"/>
<rect x="380" y="167" width="21" height="53" fill="#58a6ff" rx="2" opacity="0.85"/>
<text x="390" y="238" text-anchor="middle" font-family="Consolas,monospace" font-size="11px" fill="#616e7f">03/31</text>
<rect x="404" y="140" width="21" height="80" fill="#58a6ff" rx="2" opacity="0.85"/>
<text x="414" y="136" text-anchor="middle" font-family="Consolas,monospace" font-size="10px" fill="#c9d1d9">4h 30m</text>
<rect x="428" y="114" width="21" height="106" fill="#58a6ff" rx="2" opacity="0.85"/>
<text x="438" y="110" text-anchor="middle" font-family="Consolas,monospace" font-size="10px" fill="#c9d1d9">6h 0m</text>
<rect x="452" y="114" width="21" height="106" fill="#58a6ff" rx="2" opacity="0.85"/>
<text x="462" y="110" text-anchor="middle" font-family="Consolas,monospace" font-size="10px" fill="#c9d1d9">6h 0m</text>
<rect x="476" y="87" width="21" height="133" fill="#58a6ff" rx="2" opacity="0.85"/>
<text x="486" y="83" text-anchor="middle" font-family="Consolas,monospace" font-size="10px" fill="#c9d1d9">7h 30m</text>
<rect x="500" y="60" width="21" height="160" fill="#58a6ff" rx="2" opacity="0.85"/>
<text x="510" y="238" text-anchor="middle" font-family="Consolas,monospace" font-size="11px" fill="#616e7f">04/05</text>
<text x="510" y="56" text-anchor="middle" font-family="Consolas,monospace" font-size="10px" fill="#c9d1d9">9h 0m</text>
<rect x="524" y="185" width="21" height="35" fill="#58a6ff" rx="2" opacity="0.85"/>
<rect x="548" y="158" width="21" height="62" fill="#58a6ff" rx="2" opacity="0.85"/>
<text x="558" y="154" text-anchor="middle" font-family="Consolas,monospace" font-size="10px" fill="#c9d1d9">3h 30m</text>
<rect x="572" y="132" width="21" height="88" fill="#58a6ff" rx="2" opacity="0.85"/>
<text x="582" y="128" text-anchor="middle" font-family="Consolas,monospace" font-size="10px" fill="#c9d1d9">5h 0m</text>
<rect x="596" y="132" width="21" height="88" fill="#58a6ff" rx="2" opacity="0.85"/>
<text x="606" y="128" text-anchor="middle" font-family="Consolas,monospace" font-size="10px" fill="#c9d1d9">5h 0m</text>
<rect x="620" y="105" width="21" height="115" fill="#58a6ff" rx="2" opacity="0.85"/>
<text x="630" y="238" text-anchor="middle" font-family="Consolas,monospace" font-size="11px" fill="#616e7f">04/10</text>
<text x="630" y="101" text-anchor="middle" font-family="Consolas,monospace" font-size="10px" fill="#c9d1d9">6h 30m</text>
<rect x="644" y="78" width="21" height="142" fill="#58a6ff" rx="2" opacity="0.85"/>
<text x="654" y="74" text-anchor="middle" font-family="Consolas,monospace" font-size="10px" fill="#c9d1d9">8h 0m</text>
<rect x="668" y="78" width="21" height="142" fill="#58a6ff" rx="2" opacity="0.85"/>
<text x="678" y="74" text-anchor="middle" font-family="Consolas,monospace" font-size="10px" fill="#c9d1d9">8h 0m</text>
<rect x="692" y="176" width="21" height="44" fill="#58a6ff" rx="2" opacity="0.85"/>
<rect x="716" y="149" width="21" height="71" fill="#58a6ff" rx="2" opacity="0.85"/>
<text x="726" y="238" text-anchor="middle" font-family="Consolas,monospace" font-size="11px" fill="#616e7f">04/14</text>
<text x="726" y="145" text-anchor="middle" font-family="Consolas,monospace" font-size="10px" fill="#c9d1d9">4h 0m</text>
<line x1="20" y1="126" x2="740" y2="126" stroke="#f85149" stroke-width="1" stroke-dasharray="4,3" opacity="0.7"/>
<text x="738" y="122" text-anchor="end" font-family="Consolas,monospace" font-size="10px" fill="#f85149">avg 5h 20m</text>
</svg>