<svg xmlns="http://www.w3.org/2000/svg" font-family="Consolas,monospace" width="760" height="260" font-size="14px"><rect width="760" height="260" fill="#161b22" rx="12"/>
<text x="20" y="34" font-family="Consolas,monospace" font-size="14px" fill="#616e7f">- Daily Activity  (last 30d) ——————————————————————————————————————————-—-</text>
<rect x="20" y="113" width="21" height="107" fill="#58a6ff" rx="2" opacity="0.85"/>
<text x="30" y="238" text-anchor="middle" font-family="Consolas,monospace" font-size="11px" fill="#616e7f">07/16</text>
<text x="30" y="109" text-anchor="middle" font-family="Consolas,monospace" font-size="10px" fill="#c9d1d9">12h 30m</text>
<rect x="44" y="211" width="21" height="9" fill="#58a6ff" rx="2" opacity="0.85"/>
<rect x="68" y="190" width="21" height="30" fill="#58a6ff" rx="2" opacity="0.85"/>
<rect x="92" y="218" width="21" height="2" fill="#58a6ff" rx="2" opacity="0.85"/>
<rect x="116" y="218" width="21" height="2" fill="#58a6ff" rx="2" opacity="0.85"/>
<rect x="140" y="218" width="21" height="2" fill="#58a6ff" rx="2" opacity="0.85"/>
<text x="150" y="238" text-anchor="middle" font-family="Consolas,monospace" font-size="11px" fill="#616e7f">07/21</text>
<rect x="164" y="162" width="21" height="58" fill="#58a6ff" rx="2" opacity="0.85"/>
<text x="174" y="158" text-anchor="middle" font-family="Consolas,monospace" font-size="10px" fill="#c9d1d9">6h 47m</text>
<rect x="188" y="184" width="21" height="36" fill="#58a6ff" rx="2" opacity="0.85"/>
<rect x="212" y="60" width="21" height="160" fill="#58a6ff" rx="2" opacity="0.85"/>
<text x="222" y="56" text-anchor="middle" font-family="Consolas,monospace" font-size="10px" fill="#c9d1d9">18h 41m</text>
<rect x="236" y="199" width="21" height="21" fill="#58a6ff" rx="2" opacity="0.85"/>
<rect x="260" y="218" width="21" height="2" fill="#58a6ff" rx="2" opacity="0.85"/>
<text x="270" y="238" text-anchor="middle" font-family="Consolas,monospace" font-size="11px" fill="#616e7f">07/26</text>
<rect x="284" y="174" width="21" height="46" fill="#58a6ff" rx="2" opacity="0.85"/>
<rect x="308" y="177" width="21" height="43" fill="#58a6ff" rx="2" opacity="0.85"/>
<rect x="332" y="216" width="21" height="4" fill="#58a6ff" rx="2" opacity="0.85"/>
<rect x="356" y="218" width="21" height="2" fill="#58a6ff" rx="2" opacity="0.85"/>
<rect x="380" y="203" width="21" height="17" fill="#58a6ff" rx="2" opacity="0.85"/>
<text x="390" y="238" text-anchor="middle" font-family="Consolas,monospace" font-size="11px" fill="#616e7f">07/31</text>
<rect x="404" y="218" width="21" height="2" fill="#58a6ff" rx="2" opacity="0.85"/>
<rect x="428" y="218" width="21" height="2" fill="#58a6ff" rx="2" opacity="0.85"/>
<rect x="452" y="167" width="21" height="53" fill="#58a6ff" rx="2" opacity="0.85"/>
<rect x="476" y="164" width="21" height="56" fill="#58a6ff" rx="2" opacity="0.85"/>
<text x="486" y="160" text-anchor="middle" font-family="Consolas,monospace" font-size="10px" fill="#c9d1d9">6h 35m</text>
<rect x="500" y="177" width="21" height="43" fill="#58a6ff" rx="2" opacity="0.85"/>
<text x="510" y="238" text-anchor="middle" font-family="Consolas,monospace" font-size="11px" fill="#616e7f">08/05</text>
<rect x="524" y="213" width="21" height="7" fill="#58a6ff" rx="2" opacity="0.85"/>
<rect x="548" y="214" width="21" height="6" fill="#58a6ff" rx="2" opacity="0.85"/>
<rect x="572" y="218" width="21" height="2" fill="#58a6ff" rx="2" opacity="0.85"/>
<rect x="596" y="202" width="21" height="18" fill="#58a6ff" rx="2" opacity="0.85"/>
<rect x="620" y="183" width="21" height="37" fill="#58a6ff" rx="2" opacity="0.85"/>
<text x="630" y="238" text-anchor="middle" font-family="Consolas,monospace" font-size="11px" fill="#616e7f">08/10</text>
<rect x="644" y="204" width="21" height="16" fill="#58a6ff" rx="2" opacity="0.85"/>
<rect x="668" y="181" width="21" height="39" fill="#58a6ff" rx="2" opacity="0.85"/>
<rect x="692" y="218" width="21" height="2" fill="#58a6ff" rx="2" opacity="0.85"/>
<rect x="716" y="218" width="21" height="2" fill="#58a6ff" rx="2" opacity="0.85"/>
<text x="726" y="238" text-anchor="middle" font-family="Consolas,monospace" font-size="11px" fill="#616e7f">08/14</text>
<line x1="20" y1="193" x2="740" y2="193" stroke="#f85149" stroke-width="1" stroke-dasharray="4,3" opacity="0.7"/>
<text x="738" y="189" text-anchor="end" font-family="Consolas,monospace" font-size="10px" fill="#f85149">avg 3h 12m</text>
</svg>