<svg xmlns="http://www.w3.org/2000/svg" font-family="Consolas,monospace" width="340" height="300" font-size="14px"><rect width="340" height="300" fill="#161b22" rx="12"/>
<text x="15" y="29" font-family="Consolas,monospace" font-size="14px" fill="#616e7f">- Editors  (last 30d) —————————-—-</text>
<path d="M 110.00 92.00 L 110.00 70.00 A 85 85 0 0 1 147.35 231.35 L 137.69 211.59 A 63 63 0 0 0 110.00 92.00 Z" fill="#58a6ff" stroke="#161b22" stroke-width="2"/>
<path d="M 137.69 211.59 L 147.35 231.35 A 85 85 0 0 1 40.66 204.16 L 58.61 191.44 A 63 63 0 0 0 137.69 211.59 Z" fill="#3fb950" stroke="#161b22" stroke-width="2"/>
<path d="M 58.61 191.44 L 40.66 204.16 A 85 85 0 0 1 41.64 104.48 L 59.33 117.56 A 63 63 0 0 0 58.61 191.44 Z" fill="#ffa657" stroke="#161b22" stroke-width="2"/>
<path d="M 59.33 117.56 L 41.64 104.48 A 85 85 0 0 1 87.78 72.95 L 93.53 94.19 A 63 63 0 0 0 59.33 117.56 Z" fill="#f85149" stroke="#161b22" stroke-width="2"/>
<path d="M 93.53 94.19 L 87.78 72.95 A 85 85 0 0 1 101.33 70.44 L 103.57 92.33 A 63 63 0 0 0 93.53 94.19 Z" fill="#d2a8ff" stroke="#161b22" stroke-width="2"/>
<path d="M 103.57 92.33 L 101.33 70.44 A 85 85 0 0 1 110.00 70.00 L 110.00 92.00 A 63 63 0 0 0 103.57 92.33 Z" fill="#79c0ff" stroke="#161b22" stroke-width="2"/>
<text x="110" y="147" text-anchor="middle" font-family="Consolas,monospace" font-size="11px" fill="#616e7f">avg/day</text>
<text x="110" y="167" text-anchor="middle" font-family="Consolas,monospace" font-size="16px" font-weight="bold" fill="#58a6ff">3h 45m</text>
<rect x="210" y="50" width="10" height="10" fill="#58a6ff" rx="2"/>
<text x="226" y="60" font-family="Consolas,monospace" font-size="13px" fill="#c9d1d9">OpenCode</text>
<text x="226" y="73" font-family="Consolas,monospace" font-size="11px" fill="#616e7f">42.8%  60 hrs 42 mins</text>
<rect x="210" y="86" width="10" height="10" fill="#3fb950" rx="2"/>
<text x="226" y="96" font-family="Consolas,monospace" font-size="13px" fill="#c9d1d9">VS Code</text>
<text x="226" y="109" font-family="Consolas,monospace" font-size="11px" fill="#616e7f">22.4%  31 hrs 50 mins</text>
<rect x="210" y="122" width="10" height="10" fill="#ffa657" rx="2"/>
<text x="226" y="132" font-family="Consolas,monospace" font-size="13px" fill="#c9d1d9">Neovim</text>
<text x="226" y="145" font-family="Consolas,monospace" font-size="11px" fill="#616e7f">19.9%  28 hrs 19 mins</text>
<rect x="210" y="158" width="10" height="10" fill="#f85149" rx="2"/>
<text x="226" y="168" font-family="Consolas,monospace" font-size="13px" fill="#c9d1d9">Claude Code</text>
<text x="226" y="181" font-family="Consolas,monospace" font-size="11px" fill="#616e7f">10.7%  15 hrs 8 mins</text>
<rect x="210" y="194" width="10" height="10" fill="#d2a8ff" rx="2"/>
<text x="226" y="204" font-family="Consolas,monospace" font-size="13px" fill="#c9d1d9">Unknown Editor</text>
<text x="226" y="217" font-family="Consolas,monospace" font-size="11px" fill="#616e7f">2.6%  3 hrs 39 mins</text>
<rect x="210" y="230" width="10" height="10" fill="#79c0ff" rx="2"/>
<text x="226" y="240" font-family="Consolas,monospace" font-size="13px" fill="#c9d1d9">Zed</text>
<text x="226" y="253" font-family="Consolas,monospace" font-size="11px" fill="#616e7f">1.6%  2 hrs 18 mins</text>
</svg>