<svg xmlns="http://www.w3.org/2000/svg" font-family="Consolas,monospace" width="760" height="205" font-size="14px"><rect width="760" height="205" fill="#161b22" rx="12"/>
<text x="20" y="34" font-family="Consolas,monospace" font-size="14px" fill="#616e7f">- Working Hours  (last 30d) ———————————————————————————————————————————-—-</text>
<text x="20" y="50" font-family="Consolas,monospace" font-size="12px" fill="#616e7f">total 144h 32m | peak 4h 22:00-02:00 | busiest 00:00 (13h 29m) | tz Asia/Ho_Chi_Minh</text>
<defs>
<linearGradient id="hourFill" x1="0" y1="0" x2="1" y2="0">
<stop offset="0%" stop-color="#1d4ed8"/>
<stop offset="45%" stop-color="#7c3aed"/>
<stop offset="75%" stop-color="#db2777"/>
<stop offset="100%" stop-color="#facc15"/>
</linearGradient>
<linearGradient id="hourFade" x1="0" y1="0" x2="1" y2="0">
<stop offset="0%" stop-color="#1d4ed8" stop-opacity="0.42"/>
<stop offset="28%" stop-color="#2563eb" stop-opacity="0.5"/>
<stop offset="50%" stop-color="#7c3aed" stop-opacity="0.58"/>
<stop offset="70%" stop-color="#db2777" stop-opacity="0.62"/>
<stop offset="86%" stop-color="#f97316" stop-opacity="0.58"/>
<stop offset="100%" stop-color="#facc15" stop-opacity="0.48"/>
</linearGradient>
</defs>
<line x1="56" y1="156" x2="720" y2="156" stroke="#616e7f" stroke-width="1" opacity="0.35"/>
<line x1="56.00" y1="72" x2="56.00" y2="156" stroke="#616e7f" stroke-width="1" opacity="0.16"/>
<text x="56.00" y="174" text-anchor="middle" font-family="Consolas,monospace" font-size="8px" fill="#616e7f">00</text>
<line x1="84.87" y1="72" x2="84.87" y2="156" stroke="#616e7f" stroke-width="1" opacity="0.07"/>
<text x="84.87" y="174" text-anchor="middle" font-family="Consolas,monospace" font-size="8px" fill="#616e7f">01</text>
<line x1="113.74" y1="72" x2="113.74" y2="156" stroke="#616e7f" stroke-width="1" opacity="0.07"/>
<text x="113.74" y="174" text-anchor="middle" font-family="Consolas,monospace" font-size="8px" fill="#616e7f">02</text>
<line x1="142.61" y1="72" x2="142.61" y2="156" stroke="#616e7f" stroke-width="1" opacity="0.16"/>
<text x="142.61" y="174" text-anchor="middle" font-family="Consolas,monospace" font-size="8px" fill="#616e7f">03</text>
<line x1="171.48" y1="72" x2="171.48" y2="156" stroke="#616e7f" stroke-width="1" opacity="0.07"/>
<text x="171.48" y="174" text-anchor="middle" font-family="Consolas,monospace" font-size="8px" fill="#616e7f">04</text>
<line x1="200.35" y1="72" x2="200.35" y2="156" stroke="#616e7f" stroke-width="1" opacity="0.07"/>
<text x="200.35" y="174" text-anchor="middle" font-family="Consolas,monospace" font-size="8px" fill="#616e7f">05</text>
<line x1="229.22" y1="72" x2="229.22" y2="156" stroke="#616e7f" stroke-width="1" opacity="0.16"/>
<text x="229.22" y="174" text-anchor="middle" font-family="Consolas,monospace" font-size="8px" fill="#616e7f">06</text>
<line x1="258.09" y1="72" x2="258.09" y2="156" stroke="#616e7f" stroke-width="1" opacity="0.07"/>
<text x="258.09" y="174" text-anchor="middle" font-family="Consolas,monospace" font-size="8px" fill="#616e7f">07</text>
<line x1="286.96" y1="72" x2="286.96" y2="156" stroke="#616e7f" stroke-width="1" opacity="0.07"/>
<text x="286.96" y="174" text-anchor="middle" font-family="Consolas,monospace" font-size="8px" fill="#616e7f">08</text>
<line x1="315.83" y1="72" x2="315.83" y2="156" stroke="#616e7f" stroke-width="1" opacity="0.16"/>
<text x="315.83" y="174" text-anchor="middle" font-family="Consolas,monospace" font-size="8px" fill="#616e7f">09</text>
<line x1="344.70" y1="72" x2="344.70" y2="156" stroke="#616e7f" stroke-width="1" opacity="0.07"/>
<text x="344.70" y="174" text-anchor="middle" font-family="Consolas,monospace" font-size="8px" fill="#616e7f">10</text>
<line x1="373.57" y1="72" x2="373.57" y2="156" stroke="#616e7f" stroke-width="1" opacity="0.07"/>
<text x="373.57" y="174" text-anchor="middle" font-family="Consolas,monospace" font-size="8px" fill="#616e7f">11</text>
<line x1="402.43" y1="72" x2="402.43" y2="156" stroke="#616e7f" stroke-width="1" opacity="0.16"/>
<text x="402.43" y="174" text-anchor="middle" font-family="Consolas,monospace" font-size="8px" fill="#616e7f">12</text>
<line x1="431.30" y1="72" x2="431.30" y2="156" stroke="#616e7f" stroke-width="1" opacity="0.07"/>
<text x="431.30" y="174" text-anchor="middle" font-family="Consolas,monospace" font-size="8px" fill="#616e7f">13</text>
<line x1="460.17" y1="72" x2="460.17" y2="156" stroke="#616e7f" stroke-width="1" opacity="0.07"/>
<text x="460.17" y="174" text-anchor="middle" font-family="Consolas,monospace" font-size="8px" fill="#616e7f">14</text>
<line x1="489.04" y1="72" x2="489.04" y2="156" stroke="#616e7f" stroke-width="1" opacity="0.16"/>
<text x="489.04" y="174" text-anchor="middle" font-family="Consolas,monospace" font-size="8px" fill="#616e7f">15</text>
<line x1="517.91" y1="72" x2="517.91" y2="156" stroke="#616e7f" stroke-width="1" opacity="0.07"/>
<text x="517.91" y="174" text-anchor="middle" font-family="Consolas,monospace" font-size="8px" fill="#616e7f">16</text>
<line x1="546.78" y1="72" x2="546.78" y2="156" stroke="#616e7f" stroke-width="1" opacity="0.07"/>
<text x="546.78" y="174" text-anchor="middle" font-family="Consolas,monospace" font-size="8px" fill="#616e7f">17</text>
<line x1="575.65" y1="72" x2="575.65" y2="156" stroke="#616e7f" stroke-width="1" opacity="0.16"/>
<text x="575.65" y="174" text-anchor="middle" font-family="Consolas,monospace" font-size="8px" fill="#616e7f">18</text>
<line x1="604.52" y1="72" x2="604.52" y2="156" stroke="#616e7f" stroke-width="1" opacity="0.07"/>
<text x="604.52" y="174" text-anchor="middle" font-family="Consolas,monospace" font-size="8px" fill="#616e7f">19</text>
<line x1="633.39" y1="72" x2="633.39" y2="156" stroke="#616e7f" stroke-width="1" opacity="0.07"/>
<text x="633.39" y="174" text-anchor="middle" font-family="Consolas,monospace" font-size="8px" fill="#616e7f">20</text>
<line x1="662.26" y1="72" x2="662.26" y2="156" stroke="#616e7f" stroke-width="1" opacity="0.16"/>
<text x="662.26" y="174" text-anchor="middle" font-family="Consolas,monospace" font-size="8px" fill="#616e7f">21</text>
<line x1="691.13" y1="72" x2="691.13" y2="156" stroke="#616e7f" stroke-width="1" opacity="0.07"/>
<text x="691.13" y="174" text-anchor="middle" font-family="Consolas,monospace" font-size="8px" fill="#616e7f">22</text>
<line x1="720.00" y1="72" x2="720.00" y2="156" stroke="#616e7f" stroke-width="1" opacity="0.07"/>
<text x="720.00" y="174" text-anchor="middle" font-family="Consolas,monospace" font-size="8px" fill="#616e7f">23</text>
<path d="M 56.00 72.00 C 60.81 73.59, 75.25 76.75, 84.87 81.57 C 94.49 86.39, 104.12 94.33, 113.74 100.91 C 123.36 107.50, 132.99 113.29, 142.61 121.07 C 152.23 128.85, 161.86 142.80, 171.48 147.58 C 181.10 152.37, 190.72 148.68, 200.35 149.77 C 209.97 150.86, 219.59 154.10, 229.22 154.10 C 238.84 154.10, 248.46 150.77, 258.09 149.77 C 267.71 148.77, 277.33 148.87, 286.96 148.10 C 296.58 147.33, 306.20 146.27, 315.83 145.16 C 325.45 144.05, 335.07 140.94, 344.70 141.42 C 354.32 141.91, 363.94 146.31, 373.57 148.08 C 383.19 149.84, 392.81 152.96, 402.43 152.02 C 412.06 151.08, 421.68 147.65, 431.30 142.44 C 440.93 137.24, 450.55 128.51, 460.17 120.80 C 469.80 113.09, 479.42 102.68, 489.04 96.16 C 498.67 89.63, 508.29 80.47, 517.91 81.65 C 527.54 82.84, 537.16 99.47, 546.78 103.26 C 556.41 107.06, 566.03 104.32, 575.65 104.42 C 585.28 104.52, 594.90 103.92, 604.52 103.87 C 614.14 103.81, 623.77 105.59, 633.39 104.09 C 643.01 102.58, 652.64 95.95, 662.26 94.84 C 671.88 93.72, 681.51 99.33, 691.13 97.39 C 700.75 95.45, 715.19 85.56, 720.00 83.19 L 720.00 156.00 L 56.00 156.00 Z" fill="url(#hourFade)"/>
<path d="M 56.00 72.00 C 60.81 73.59, 75.25 76.75, 84.87 81.57 C 94.49 86.39, 104.12 94.33, 113.74 100.91 C 123.36 107.50, 132.99 113.29, 142.61 121.07 C 152.23 128.85, 161.86 142.80, 171.48 147.58 C 181.10 152.37, 190.72 148.68, 200.35 149.77 C 209.97 150.86, 219.59 154.10, 229.22 154.10 C 238.84 154.10, 248.46 150.77, 258.09 149.77 C 267.71 148.77, 277.33 148.87, 286.96 148.10 C 296.58 147.33, 306.20 146.27, 315.83 145.16 C 325.45 144.05, 335.07 140.94, 344.70 141.42 C 354.32 141.91, 363.94 146.31, 373.57 148.08 C 383.19 149.84, 392.81 152.96, 402.43 152.02 C 412.06 151.08, 421.68 147.65, 431.30 142.44 C 440.93 137.24, 450.55 128.51, 460.17 120.80 C 469.80 113.09, 479.42 102.68, 489.04 96.16 C 498.67 89.63, 508.29 80.47, 517.91 81.65 C 527.54 82.84, 537.16 99.47, 546.78 103.26 C 556.41 107.06, 566.03 104.32, 575.65 104.42 C 585.28 104.52, 594.90 103.92, 604.52 103.87 C 614.14 103.81, 623.77 105.59, 633.39 104.09 C 643.01 102.58, 652.64 95.95, 662.26 94.84 C 671.88 93.72, 681.51 99.33, 691.13 97.39 C 700.75 95.45, 715.19 85.56, 720.00 83.19" fill="none" stroke="url(#hourFill)" stroke-width="4" stroke-linecap="round"/>
<circle cx="56.00" cy="72.00" r="4" fill="#facc15" opacity="1"><title>00:00 - 13h 29m total</title></circle>
<circle cx="84.87" cy="81.57" r="2.5" fill="#facc15" opacity="1"><title>01:00 - 11h 56m total</title></circle>
<circle cx="113.74" cy="100.91" r="2.5" fill="#facc15" opacity="1"><title>02:00 - 8h 50m total</title></circle>
<circle cx="142.61" cy="121.07" r="2.5" fill="#facc15" opacity="1"><title>03:00 - 5h 36m total</title></circle>
<circle cx="171.48" cy="147.58" r="2.5" fill="#facc15" opacity="1"><title>04:00 - 1h 21m total</title></circle>
<circle cx="200.35" cy="149.77" r="2.5" fill="#facc15" opacity="1"><title>05:00 - 1h 0m total</title></circle>
<circle cx="229.22" cy="154.10" r="2.5" fill="#facc15" opacity="1"><title>06:00 - 18m total</title></circle>
<circle cx="258.09" cy="149.77" r="2.5" fill="#facc15" opacity="1"><title>07:00 - 1h 0m total</title></circle>
<circle cx="286.96" cy="148.10" r="2.5" fill="#facc15" opacity="1"><title>08:00 - 1h 16m total</title></circle>
<circle cx="315.83" cy="145.16" r="2.5" fill="#facc15" opacity="1"><title>09:00 - 1h 44m total</title></circle>
<circle cx="344.70" cy="141.42" r="2.5" fill="#facc15" opacity="1"><title>10:00 - 2h 20m total</title></circle>
<circle cx="373.57" cy="148.08" r="2.5" fill="#facc15" opacity="1"><title>11:00 - 1h 16m total</title></circle>
<circle cx="402.43" cy="152.02" r="2.5" fill="#facc15" opacity="1"><title>12:00 - 38m total</title></circle>
<circle cx="431.30" cy="142.44" r="2.5" fill="#facc15" opacity="1"><title>13:00 - 2h 10m total</title></circle>
<circle cx="460.17" cy="120.80" r="2.5" fill="#facc15" opacity="1"><title>14:00 - 5h 39m total</title></circle>
<circle cx="489.04" cy="96.16" r="2.5" fill="#facc15" opacity="1"><title>15:00 - 9h 36m total</title></circle>
<circle cx="517.91" cy="81.65" r="2.5" fill="#facc15" opacity="1"><title>16:00 - 11h 56m total</title></circle>
<circle cx="546.78" cy="103.26" r="2.5" fill="#facc15" opacity="1"><title>17:00 - 8h 27m total</title></circle>
<circle cx="575.65" cy="104.42" r="2.5" fill="#facc15" opacity="1"><title>18:00 - 8h 16m total</title></circle>
<circle cx="604.52" cy="103.87" r="2.5" fill="#facc15" opacity="1"><title>19:00 - 8h 22m total</title></circle>
<circle cx="633.39" cy="104.09" r="2.5" fill="#facc15" opacity="1"><title>20:00 - 8h 20m total</title></circle>
<circle cx="662.26" cy="94.84" r="2.5" fill="#facc15" opacity="1"><title>21:00 - 9h 49m total</title></circle>
<circle cx="691.13" cy="97.39" r="2.5" fill="#facc15" opacity="1"><title>22:00 - 9h 24m total</title></circle>
<circle cx="720.00" cy="83.19" r="2.5" fill="#facc15" opacity="1"><title>23:00 - 11h 41m total</title></circle>
<text x="20" y="191" font-family="Consolas,monospace" font-size="11px" fill="#616e7f">24-hour distribution across 30 days; higher curve = more coding time in that hour</text>
</svg>