<svg xmlns="http://www.w3.org/2000/svg" font-family="Consolas,monospace" width="760" height="205" font-size="14px"><rect width="760" height="205" fill="#161b22" rx="12"/>
<text x="20" y="34" font-family="Consolas,monospace" font-size="14px" fill="#616e7f">- Working Hours  (last 30d) ———————————————————————————————————————————-—-</text>
<text x="20" y="50" font-family="Consolas,monospace" font-size="12px" fill="#616e7f">total 174h 24m | peak 4h 15:00-19:00 | busiest 16:00 (17h 14m) | tz Asia/Ho_Chi_Minh</text>
<defs>
<linearGradient id="hourFill" x1="0" y1="0" x2="1" y2="0">
<stop offset="0%" stop-color="#1d4ed8"/>
<stop offset="45%" stop-color="#7c3aed"/>
<stop offset="75%" stop-color="#db2777"/>
<stop offset="100%" stop-color="#facc15"/>
</linearGradient>
<linearGradient id="hourFade" x1="0" y1="0" x2="1" y2="0">
<stop offset="0%" stop-color="#1d4ed8" stop-opacity="0.42"/>
<stop offset="28%" stop-color="#2563eb" stop-opacity="0.5"/>
<stop offset="50%" stop-color="#7c3aed" stop-opacity="0.58"/>
<stop offset="70%" stop-color="#db2777" stop-opacity="0.62"/>
<stop offset="86%" stop-color="#f97316" stop-opacity="0.58"/>
<stop offset="100%" stop-color="#facc15" stop-opacity="0.48"/>
</linearGradient>
</defs>
<line x1="56" y1="156" x2="720" y2="156" stroke="#616e7f" stroke-width="1" opacity="0.35"/>
<line x1="56.00" y1="72" x2="56.00" y2="156" stroke="#616e7f" stroke-width="1" opacity="0.16"/>
<text x="56.00" y="174" text-anchor="middle" font-family="Consolas,monospace" font-size="8px" fill="#616e7f">00</text>
<line x1="84.87" y1="72" x2="84.87" y2="156" stroke="#616e7f" stroke-width="1" opacity="0.07"/>
<text x="84.87" y="174" text-anchor="middle" font-family="Consolas,monospace" font-size="8px" fill="#616e7f">01</text>
<line x1="113.74" y1="72" x2="113.74" y2="156" stroke="#616e7f" stroke-width="1" opacity="0.07"/>
<text x="113.74" y="174" text-anchor="middle" font-family="Consolas,monospace" font-size="8px" fill="#616e7f">02</text>
<line x1="142.61" y1="72" x2="142.61" y2="156" stroke="#616e7f" stroke-width="1" opacity="0.16"/>
<text x="142.61" y="174" text-anchor="middle" font-family="Consolas,monospace" font-size="8px" fill="#616e7f">03</text>
<line x1="171.48" y1="72" x2="171.48" y2="156" stroke="#616e7f" stroke-width="1" opacity="0.07"/>
<text x="171.48" y="174" text-anchor="middle" font-family="Consolas,monospace" font-size="8px" fill="#616e7f">04</text>
<line x1="200.35" y1="72" x2="200.35" y2="156" stroke="#616e7f" stroke-width="1" opacity="0.07"/>
<text x="200.35" y="174" text-anchor="middle" font-family="Consolas,monospace" font-size="8px" fill="#616e7f">05</text>
<line x1="229.22" y1="72" x2="229.22" y2="156" stroke="#616e7f" stroke-width="1" opacity="0.16"/>
<text x="229.22" y="174" text-anchor="middle" font-family="Consolas,monospace" font-size="8px" fill="#616e7f">06</text>
<line x1="258.09" y1="72" x2="258.09" y2="156" stroke="#616e7f" stroke-width="1" opacity="0.07"/>
<text x="258.09" y="174" text-anchor="middle" font-family="Consolas,monospace" font-size="8px" fill="#616e7f">07</text>
<line x1="286.96" y1="72" x2="286.96" y2="156" stroke="#616e7f" stroke-width="1" opacity="0.07"/>
<text x="286.96" y="174" text-anchor="middle" font-family="Consolas,monospace" font-size="8px" fill="#616e7f">08</text>
<line x1="315.83" y1="72" x2="315.83" y2="156" stroke="#616e7f" stroke-width="1" opacity="0.16"/>
<text x="315.83" y="174" text-anchor="middle" font-family="Consolas,monospace" font-size="8px" fill="#616e7f">09</text>
<line x1="344.70" y1="72" x2="344.70" y2="156" stroke="#616e7f" stroke-width="1" opacity="0.07"/>
<text x="344.70" y="174" text-anchor="middle" font-family="Consolas,monospace" font-size="8px" fill="#616e7f">10</text>
<line x1="373.57" y1="72" x2="373.57" y2="156" stroke="#616e7f" stroke-width="1" opacity="0.07"/>
<text x="373.57" y="174" text-anchor="middle" font-family="Consolas,monospace" font-size="8px" fill="#616e7f">11</text>
<line x1="402.43" y1="72" x2="402.43" y2="156" stroke="#616e7f" stroke-width="1" opacity="0.16"/>
<text x="402.43" y="174" text-anchor="middle" font-family="Consolas,monospace" font-size="8px" fill="#616e7f">12</text>
<line x1="431.30" y1="72" x2="431.30" y2="156" stroke="#616e7f" stroke-width="1" opacity="0.07"/>
<text x="431.30" y="174" text-anchor="middle" font-family="Consolas,monospace" font-size="8px" fill="#616e7f">13</text>
<line x1="460.17" y1="72" x2="460.17" y2="156" stroke="#616e7f" stroke-width="1" opacity="0.07"/>
<text x="460.17" y="174" text-anchor="middle" font-family="Consolas,monospace" font-size="8px" fill="#616e7f">14</text>
<line x1="489.04" y1="72" x2="489.04" y2="156" stroke="#616e7f" stroke-width="1" opacity="0.16"/>
<text x="489.04" y="174" text-anchor="middle" font-family="Consolas,monospace" font-size="8px" fill="#616e7f">15</text>
<line x1="517.91" y1="72" x2="517.91" y2="156" stroke="#616e7f" stroke-width="1" opacity="0.07"/>
<text x="517.91" y="174" text-anchor="middle" font-family="Consolas,monospace" font-size="8px" fill="#616e7f">16</text>
<line x1="546.78" y1="72" x2="546.78" y2="156" stroke="#616e7f" stroke-width="1" opacity="0.07"/>
<text x="546.78" y="174" text-anchor="middle" font-family="Consolas,monospace" font-size="8px" fill="#616e7f">17</text>
<line x1="575.65" y1="72" x2="575.65" y2="156" stroke="#616e7f" stroke-width="1" opacity="0.16"/>
<text x="575.65" y="174" text-anchor="middle" font-family="Consolas,monospace" font-size="8px" fill="#616e7f">18</text>
<line x1="604.52" y1="72" x2="604.52" y2="156" stroke="#616e7f" stroke-width="1" opacity="0.07"/>
<text x="604.52" y="174" text-anchor="middle" font-family="Consolas,monospace" font-size="8px" fill="#616e7f">19</text>
<line x1="633.39" y1="72" x2="633.39" y2="156" stroke="#616e7f" stroke-width="1" opacity="0.07"/>
<text x="633.39" y="174" text-anchor="middle" font-family="Consolas,monospace" font-size="8px" fill="#616e7f">20</text>
<line x1="662.26" y1="72" x2="662.26" y2="156" stroke="#616e7f" stroke-width="1" opacity="0.16"/>
<text x="662.26" y="174" text-anchor="middle" font-family="Consolas,monospace" font-size="8px" fill="#616e7f">21</text>
<line x1="691.13" y1="72" x2="691.13" y2="156" stroke="#616e7f" stroke-width="1" opacity="0.07"/>
<text x="691.13" y="174" text-anchor="middle" font-family="Consolas,monospace" font-size="8px" fill="#616e7f">22</text>
<line x1="720.00" y1="72" x2="720.00" y2="156" stroke="#616e7f" stroke-width="1" opacity="0.07"/>
<text x="720.00" y="174" text-anchor="middle" font-family="Consolas,monospace" font-size="8px" fill="#616e7f">23</text>
<path d="M 56.00 105.80 C 60.81 106.13, 75.25 104.84, 84.87 107.78 C 94.49 110.72, 104.12 118.60, 113.74 123.45 C 123.36 128.30, 132.99 132.87, 142.61 136.87 C 152.23 140.87, 161.86 145.21, 171.48 147.46 C 181.10 149.71, 190.72 149.74, 200.35 150.36 C 209.97 150.97, 219.59 150.99, 229.22 151.13 C 238.84 151.26, 248.46 151.87, 258.09 151.17 C 267.71 150.46, 277.33 147.05, 286.96 146.88 C 296.58 146.71, 306.20 149.22, 315.83 150.14 C 325.45 151.06, 335.07 152.42, 344.70 152.41 C 354.32 152.39, 363.94 151.96, 373.57 150.06 C 383.19 148.15, 392.81 145.44, 402.43 140.96 C 412.06 136.49, 421.68 127.48, 431.30 123.20 C 440.93 118.91, 450.55 121.17, 460.17 115.23 C 469.80 109.28, 479.42 94.74, 489.04 87.54 C 498.67 80.33, 508.29 72.23, 517.91 72.00 C 527.54 71.77, 537.16 82.22, 546.78 86.15 C 556.41 90.08, 566.03 92.91, 575.65 95.59 C 585.28 98.26, 594.90 102.22, 604.52 102.21 C 614.14 102.20, 623.77 96.19, 633.39 95.54 C 643.01 94.89, 652.64 97.04, 662.26 98.32 C 671.88 99.60, 681.51 102.81, 691.13 103.21 C 700.75 103.62, 715.19 101.17, 720.00 100.76 L 720.00 156.00 L 56.00 156.00 Z" fill="url(#hourFade)"/>
<path d="M 56.00 105.80 C 60.81 106.13, 75.25 104.84, 84.87 107.78 C 94.49 110.72, 104.12 118.60, 113.74 123.45 C 123.36 128.30, 132.99 132.87, 142.61 136.87 C 152.23 140.87, 161.86 145.21, 171.48 147.46 C 181.10 149.71, 190.72 149.74, 200.35 150.36 C 209.97 150.97, 219.59 150.99, 229.22 151.13 C 238.84 151.26, 248.46 151.87, 258.09 151.17 C 267.71 150.46, 277.33 147.05, 286.96 146.88 C 296.58 146.71, 306.20 149.22, 315.83 150.14 C 325.45 151.06, 335.07 152.42, 344.70 152.41 C 354.32 152.39, 363.94 151.96, 373.57 150.06 C 383.19 148.15, 392.81 145.44, 402.43 140.96 C 412.06 136.49, 421.68 127.48, 431.30 123.20 C 440.93 118.91, 450.55 121.17, 460.17 115.23 C 469.80 109.28, 479.42 94.74, 489.04 87.54 C 498.67 80.33, 508.29 72.23, 517.91 72.00 C 527.54 71.77, 537.16 82.22, 546.78 86.15 C 556.41 90.08, 566.03 92.91, 575.65 95.59 C 585.28 98.26, 594.90 102.22, 604.52 102.21 C 614.14 102.20, 623.77 96.19, 633.39 95.54 C 643.01 94.89, 652.64 97.04, 662.26 98.32 C 671.88 99.60, 681.51 102.81, 691.13 103.21 C 700.75 103.62, 715.19 101.17, 720.00 100.76" fill="none" stroke="url(#hourFill)" stroke-width="4" stroke-linecap="round"/>
<circle cx="56.00" cy="105.80" r="2.5" fill="#facc15" opacity="1"><title>00:00 - 10h 18m total</title></circle>
<circle cx="84.87" cy="107.78" r="2.5" fill="#facc15" opacity="1"><title>01:00 - 9h 53m total</title></circle>
<circle cx="113.74" cy="123.45" r="2.5" fill="#facc15" opacity="1"><title>02:00 - 6h 40m total</title></circle>
<circle cx="142.61" cy="136.87" r="2.5" fill="#facc15" opacity="1"><title>03:00 - 3h 55m total</title></circle>
<circle cx="171.48" cy="147.46" r="2.5" fill="#facc15" opacity="1"><title>04:00 - 1h 45m total</title></circle>
<circle cx="200.35" cy="150.36" r="2.5" fill="#facc15" opacity="1"><title>05:00 - 1h 9m total</title></circle>
<circle cx="229.22" cy="151.13" r="2.5" fill="#facc15" opacity="1"><title>06:00 - 1h 0m total</title></circle>
<circle cx="258.09" cy="151.17" r="2.5" fill="#facc15" opacity="1"><title>07:00 - 59m total</title></circle>
<circle cx="286.96" cy="146.88" r="2.5" fill="#facc15" opacity="1"><title>08:00 - 1h 52m total</title></circle>
<circle cx="315.83" cy="150.14" r="2.5" fill="#facc15" opacity="1"><title>09:00 - 1h 12m total</title></circle>
<circle cx="344.70" cy="152.41" r="2.5" fill="#facc15" opacity="1"><title>10:00 - 44m total</title></circle>
<circle cx="373.57" cy="150.06" r="2.5" fill="#facc15" opacity="1"><title>11:00 - 1h 13m total</title></circle>
<circle cx="402.43" cy="140.96" r="2.5" fill="#facc15" opacity="1"><title>12:00 - 3h 5m total</title></circle>
<circle cx="431.30" cy="123.20" r="2.5" fill="#facc15" opacity="1"><title>13:00 - 6h 43m total</title></circle>
<circle cx="460.17" cy="115.23" r="2.5" fill="#facc15" opacity="1"><title>14:00 - 8h 22m total</title></circle>
<circle cx="489.04" cy="87.54" r="2.5" fill="#facc15" opacity="1"><title>15:00 - 14h 3m total</title></circle>
<circle cx="517.91" cy="72.00" r="4" fill="#facc15" opacity="1"><title>16:00 - 17h 14m total</title></circle>
<circle cx="546.78" cy="86.15" r="2.5" fill="#facc15" opacity="1"><title>17:00 - 14h 20m total</title></circle>
<circle cx="575.65" cy="95.59" r="2.5" fill="#facc15" opacity="1"><title>18:00 - 12h 23m total</title></circle>
<circle cx="604.52" cy="102.21" r="2.5" fill="#facc15" opacity="1"><title>19:00 - 11h 2m total</title></circle>
<circle cx="633.39" cy="95.54" r="2.5" fill="#facc15" opacity="1"><title>20:00 - 12h 24m total</title></circle>
<circle cx="662.26" cy="98.32" r="2.5" fill="#facc15" opacity="1"><title>21:00 - 11h 50m total</title></circle>
<circle cx="691.13" cy="103.21" r="2.5" fill="#facc15" opacity="1"><title>22:00 - 10h 50m total</title></circle>
<circle cx="720.00" cy="100.76" r="2.5" fill="#facc15" opacity="1"><title>23:00 - 11h 20m total</title></circle>
<text x="20" y="191" font-family="Consolas,monospace" font-size="11px" fill="#616e7f">24-hour distribution across 30 days; higher curve = more coding time in that hour</text>
</svg>