<?xml version="1.0" encoding="UTF-8"?>
<svg xmlns="http://www.w3.org/2000/svg" font-family="Consolas,monospace" width="700px" height="382px" font-size="14px">
<style>.k{fill:#ffa657}.v{fill:#a5d6ff}.c{fill:#616e7f} text,tspan{white-space:pre}</style>
<rect width="700px" height="382px" fill="#161b22" rx="15"/>
<text x="15" y="28" font-size="16px" fill="#616e7f">- Languages (last 30d) ——————————————————————————————————————————-—-</text>
<rect x="15" y="48" width="8" height="8" fill="#58a6ff" rx="2"/>
<text x="27" y="57" font-size="13px" fill="#a5d6ff">TypeScript</text>
<rect x="130" y="46" width="380" height="14" fill="#616e7f" opacity="0.15" rx="3"/>
<rect x="130" y="46" width="180" height="14" fill="#58a6ff" rx="3" opacity="0.85"/>
<text x="518" y="57" font-size="12px" fill="#616e7f">47.6%  36 hrs 8 mins</text>
<rect x="15" y="74" width="8" height="8" fill="#3fb950" rx="2"/>
<text x="27" y="83" font-size="13px" fill="#a5d6ff">Markdown</text>
<rect x="130" y="72" width="380" height="14" fill="#616e7f" opacity="0.15" rx="3"/>
<rect x="130" y="72" width="46" height="14" fill="#3fb950" rx="3" opacity="0.85"/>
<text x="518" y="83" font-size="12px" fill="#616e7f">12.1%  9 hrs 13 mins</text>
<rect x="15" y="100" width="8" height="8" fill="#ffa657" rx="2"/>
<text x="27" y="109" font-size="13px" fill="#a5d6ff">Other</text>
<rect x="130" y="98" width="380" height="14" fill="#616e7f" opacity="0.15" rx="3"/>
<rect x="130" y="98" width="38" height="14" fill="#ffa657" rx="3" opacity="0.85"/>
<text x="518" y="109" font-size="12px" fill="#616e7f">10.1%  7 hrs 37 mins</text>
<rect x="15" y="126" width="8" height="8" fill="#f85149" rx="2"/>
<text x="27" y="135" font-size="13px" fill="#a5d6ff">Python</text>
<rect x="130" y="124" width="380" height="14" fill="#616e7f" opacity="0.15" rx="3"/>
<rect x="130" y="124" width="29" height="14" fill="#f85149" rx="3" opacity="0.85"/>
<text x="518" y="135" font-size="12px" fill="#616e7f">7.8%  5 hrs 54 mins</text>
<rect x="15" y="152" width="8" height="8" fill="#d2a8ff" rx="2"/>
<text x="27" y="161" font-size="13px" fill="#a5d6ff">JSON</text>
<rect x="130" y="150" width="380" height="14" fill="#616e7f" opacity="0.15" rx="3"/>
<rect x="130" y="150" width="28" height="14" fill="#d2a8ff" rx="3" opacity="0.85"/>
<text x="518" y="161" font-size="12px" fill="#616e7f">7.6%  5 hrs 44 mins</text>
<rect x="15" y="178" width="8" height="8" fill="#79c0ff" rx="2"/>
<text x="27" y="187" font-size="13px" fill="#a5d6ff">JavaScript</text>
<rect x="130" y="176" width="380" height="14" fill="#616e7f" opacity="0.15" rx="3"/>
<rect x="130" y="176" width="16" height="14" fill="#79c0ff" rx="3" opacity="0.85"/>
<text x="518" y="187" font-size="12px" fill="#616e7f">4.4%  3 hrs 21 mins</text>
<rect x="15" y="204" width="8" height="8" fill="#56d364" rx="2"/>
<text x="27" y="213" font-size="13px" fill="#a5d6ff">YAML</text>
<rect x="130" y="202" width="380" height="14" fill="#616e7f" opacity="0.15" rx="3"/>
<rect x="130" y="202" width="12" height="14" fill="#56d364" rx="3" opacity="0.85"/>
<text x="518" y="213" font-size="12px" fill="#616e7f">3.3%  2 hrs 30 mins</text>
<rect x="15" y="230" width="8" height="8" fill="#e3b341" rx="2"/>
<text x="27" y="239" font-size="13px" fill="#a5d6ff">Go</text>
<rect x="130" y="228" width="380" height="14" fill="#616e7f" opacity="0.15" rx="3"/>
<rect x="130" y="228" width="8" height="14" fill="#e3b341" rx="3" opacity="0.85"/>
<text x="518" y="239" font-size="12px" fill="#616e7f">2.1%  1 hr 37 mins</text>
<rect x="15" y="256" width="8" height="8" fill="#58a6ff" rx="2"/>
<text x="27" y="265" font-size="13px" fill="#a5d6ff">Makefile</text>
<rect x="130" y="254" width="380" height="14" fill="#616e7f" opacity="0.15" rx="3"/>
<rect x="130" y="254" width="2" height="14" fill="#58a6ff" rx="3" opacity="0.85"/>
<text x="518" y="265" font-size="12px" fill="#616e7f">0.8%  34 mins</text>
<rect x="15" y="282" width="8" height="8" fill="#3fb950" rx="2"/>
<text x="27" y="291" font-size="13px" fill="#a5d6ff">Bash</text>
<rect x="130" y="280" width="380" height="14" fill="#616e7f" opacity="0.15" rx="3"/>
<rect x="130" y="280" width="2" height="14" fill="#3fb950" rx="3" opacity="0.85"/>
<text x="518" y="291" font-size="12px" fill="#616e7f">0.6%  29 mins</text>
<rect x="15" y="308" width="8" height="8" fill="#ffa657" rx="2"/>
<text x="27" y="317" font-size="13px" fill="#a5d6ff">poefilter</text>
<rect x="130" y="306" width="380" height="14" fill="#616e7f" opacity="0.15" rx="3"/>
<rect x="130" y="306" width="1" height="14" fill="#ffa657" rx="3" opacity="0.85"/>
<text x="518" y="317" font-size="12px" fill="#616e7f">0.5%  23 mins</text>
<rect x="15" y="334" width="8" height="8" fill="#f85149" rx="2"/>
<text x="27" y="343" font-size="13px" fill="#a5d6ff">Other</text>
<rect x="130" y="332" width="380" height="14" fill="#616e7f" opacity="0.15" rx="3"/>
<rect x="130" y="332" width="11" height="14" fill="#f85149" rx="3" opacity="0.85"/>
<text x="518" y="343" font-size="12px" fill="#616e7f">3.1%  2h 21m</text>
</svg>