<svg xmlns="http://www.w3.org/2000/svg" font-family="Consolas,monospace" width="340" height="300" font-size="14px"><rect width="340" height="300" fill="#161b22" rx="12"/>
<text x="15" y="29" font-family="Consolas,monospace" font-size="14px" fill="#616e7f">- Editors  (last 30d) —————————-—-</text>
<path d="M 110.00 92.00 L 110.00 70.00 A 85 85 0 1 1 84.33 236.03 L 90.97 215.06 A 63 63 0 1 0 110.00 92.00 Z" fill="#58a6ff" stroke="#161b22" stroke-width="2"/>
<path d="M 90.97 215.06 L 84.33 236.03 A 85 85 0 0 1 29.08 181.03 L 50.03 174.29 A 63 63 0 0 0 90.97 215.06 Z" fill="#3fb950" stroke="#161b22" stroke-width="2"/>
<path d="M 50.03 174.29 L 29.08 181.03 A 85 85 0 0 1 34.80 115.38 L 54.26 125.64 A 63 63 0 0 0 50.03 174.29 Z" fill="#ffa657" stroke="#161b22" stroke-width="2"/>
<path d="M 54.26 125.64 L 34.80 115.38 A 85 85 0 0 1 66.82 81.78 L 78.00 100.73 A 63 63 0 0 0 54.26 125.64 Z" fill="#f85149" stroke="#161b22" stroke-width="2"/>
<path d="M 78.00 100.73 L 66.82 81.78 A 85 85 0 0 1 88.31 72.81 L 93.92 94.09 A 63 63 0 0 0 78.00 100.73 Z" fill="#d2a8ff" stroke="#161b22" stroke-width="2"/>
<path d="M 93.92 94.09 L 88.31 72.81 A 85 85 0 0 1 110.00 70.00 L 110.00 92.00 A 63 63 0 0 0 93.92 94.09 Z" fill="#79c0ff" stroke="#161b22" stroke-width="2"/>
<text x="110" y="147" text-anchor="middle" font-family="Consolas,monospace" font-size="11px" fill="#616e7f">avg/day</text>
<text x="110" y="167" text-anchor="middle" font-family="Consolas,monospace" font-size="16px" font-weight="bold" fill="#58a6ff">4h 1m</text>
<rect x="210" y="50" width="10" height="10" fill="#58a6ff" rx="2"/>
<text x="226" y="60" font-family="Consolas,monospace" font-size="13px" fill="#c9d1d9">Codex CLI</text>
<text x="226" y="73" font-family="Consolas,monospace" font-size="11px" fill="#616e7f">54.2%  40 hrs 20 mins</text>
<rect x="210" y="86" width="10" height="10" fill="#3fb950" rx="2"/>
<text x="226" y="96" font-family="Consolas,monospace" font-size="13px" fill="#c9d1d9">Neovim</text>
<text x="226" y="109" font-family="Consolas,monospace" font-size="11px" fill="#616e7f">15.0%  11 hrs 8 mins</text>
<rect x="210" y="122" width="10" height="10" fill="#ffa657" rx="2"/>
<text x="226" y="132" font-family="Consolas,monospace" font-size="13px" fill="#c9d1d9">Opencode Cli</text>
<text x="226" y="145" font-family="Consolas,monospace" font-size="11px" fill="#616e7f">12.5%  9 hrs 18 mins</text>
<rect x="210" y="158" width="10" height="10" fill="#f85149" rx="2"/>
<text x="226" y="168" font-family="Consolas,monospace" font-size="13px" fill="#c9d1d9">OpenCode</text>
<text x="226" y="181" font-family="Consolas,monospace" font-size="11px" fill="#616e7f">8.7%  6 hrs 28 mins</text>
<rect x="210" y="194" width="10" height="10" fill="#d2a8ff" rx="2"/>
<text x="226" y="204" font-family="Consolas,monospace" font-size="13px" fill="#c9d1d9">Kiro</text>
<text x="226" y="217" font-family="Consolas,monospace" font-size="11px" fill="#616e7f">4.3%  3 hrs 12 mins</text>
<rect x="210" y="230" width="10" height="10" fill="#79c0ff" rx="2"/>
<text x="226" y="240" font-family="Consolas,monospace" font-size="13px" fill="#c9d1d9">Antigravity CLI</text>
<text x="226" y="253" font-family="Consolas,monospace" font-size="11px" fill="#616e7f">4.0%  3 hrs 1 min</text>
</svg>