<svg xmlns="http://www.w3.org/2000/svg" font-family="Consolas,monospace" width="760" height="205" font-size="14px"><rect width="760" height="205" fill="#161b22" rx="12"/>
<text x="20" y="34" font-family="Consolas,monospace" font-size="14px" fill="#616e7f">- Working Hours  (last 30d) ———————————————————————————————————————————-—-</text>
<text x="20" y="50" font-family="Consolas,monospace" font-size="12px" fill="#616e7f">total 114h 14m | peak 4h 16:00-20:00 | busiest 17:00 (10h 39m) | tz Asia/Ho_Chi_Minh</text>
<defs>
<linearGradient id="hourFill" x1="0" y1="0" x2="1" y2="0">
<stop offset="0%" stop-color="#1d4ed8"/>
<stop offset="45%" stop-color="#7c3aed"/>
<stop offset="75%" stop-color="#db2777"/>
<stop offset="100%" stop-color="#facc15"/>
</linearGradient>
<linearGradient id="hourFade" x1="0" y1="0" x2="1" y2="0">
<stop offset="0%" stop-color="#1d4ed8" stop-opacity="0.42"/>
<stop offset="28%" stop-color="#2563eb" stop-opacity="0.5"/>
<stop offset="50%" stop-color="#7c3aed" stop-opacity="0.58"/>
<stop offset="70%" stop-color="#db2777" stop-opacity="0.62"/>
<stop offset="86%" stop-color="#f97316" stop-opacity="0.58"/>
<stop offset="100%" stop-color="#facc15" stop-opacity="0.48"/>
</linearGradient>
</defs>
<line x1="56" y1="156" x2="720" y2="156" stroke="#616e7f" stroke-width="1" opacity="0.35"/>
<line x1="56.00" y1="72" x2="56.00" y2="156" stroke="#616e7f" stroke-width="1" opacity="0.16"/>
<text x="56.00" y="174" text-anchor="middle" font-family="Consolas,monospace" font-size="8px" fill="#616e7f">00</text>
<line x1="84.87" y1="72" x2="84.87" y2="156" stroke="#616e7f" stroke-width="1" opacity="0.07"/>
<text x="84.87" y="174" text-anchor="middle" font-family="Consolas,monospace" font-size="8px" fill="#616e7f">01</text>
<line x1="113.74" y1="72" x2="113.74" y2="156" stroke="#616e7f" stroke-width="1" opacity="0.07"/>
<text x="113.74" y="174" text-anchor="middle" font-family="Consolas,monospace" font-size="8px" fill="#616e7f">02</text>
<line x1="142.61" y1="72" x2="142.61" y2="156" stroke="#616e7f" stroke-width="1" opacity="0.16"/>
<text x="142.61" y="174" text-anchor="middle" font-family="Consolas,monospace" font-size="8px" fill="#616e7f">03</text>
<line x1="171.48" y1="72" x2="171.48" y2="156" stroke="#616e7f" stroke-width="1" opacity="0.07"/>
<text x="171.48" y="174" text-anchor="middle" font-family="Consolas,monospace" font-size="8px" fill="#616e7f">04</text>
<line x1="200.35" y1="72" x2="200.35" y2="156" stroke="#616e7f" stroke-width="1" opacity="0.07"/>
<text x="200.35" y="174" text-anchor="middle" font-family="Consolas,monospace" font-size="8px" fill="#616e7f">05</text>
<line x1="229.22" y1="72" x2="229.22" y2="156" stroke="#616e7f" stroke-width="1" opacity="0.16"/>
<text x="229.22" y="174" text-anchor="middle" font-family="Consolas,monospace" font-size="8px" fill="#616e7f">06</text>
<line x1="258.09" y1="72" x2="258.09" y2="156" stroke="#616e7f" stroke-width="1" opacity="0.07"/>
<text x="258.09" y="174" text-anchor="middle" font-family="Consolas,monospace" font-size="8px" fill="#616e7f">07</text>
<line x1="286.96" y1="72" x2="286.96" y2="156" stroke="#616e7f" stroke-width="1" opacity="0.07"/>
<text x="286.96" y="174" text-anchor="middle" font-family="Consolas,monospace" font-size="8px" fill="#616e7f">08</text>
<line x1="315.83" y1="72" x2="315.83" y2="156" stroke="#616e7f" stroke-width="1" opacity="0.16"/>
<text x="315.83" y="174" text-anchor="middle" font-family="Consolas,monospace" font-size="8px" fill="#616e7f">09</text>
<line x1="344.70" y1="72" x2="344.70" y2="156" stroke="#616e7f" stroke-width="1" opacity="0.07"/>
<text x="344.70" y="174" text-anchor="middle" font-family="Consolas,monospace" font-size="8px" fill="#616e7f">10</text>
<line x1="373.57" y1="72" x2="373.57" y2="156" stroke="#616e7f" stroke-width="1" opacity="0.07"/>
<text x="373.57" y="174" text-anchor="middle" font-family="Consolas,monospace" font-size="8px" fill="#616e7f">11</text>
<line x1="402.43" y1="72" x2="402.43" y2="156" stroke="#616e7f" stroke-width="1" opacity="0.16"/>
<text x="402.43" y="174" text-anchor="middle" font-family="Consolas,monospace" font-size="8px" fill="#616e7f">12</text>
<line x1="431.30" y1="72" x2="431.30" y2="156" stroke="#616e7f" stroke-width="1" opacity="0.07"/>
<text x="431.30" y="174" text-anchor="middle" font-family="Consolas,monospace" font-size="8px" fill="#616e7f">13</text>
<line x1="460.17" y1="72" x2="460.17" y2="156" stroke="#616e7f" stroke-width="1" opacity="0.07"/>
<text x="460.17" y="174" text-anchor="middle" font-family="Consolas,monospace" font-size="8px" fill="#616e7f">14</text>
<line x1="489.04" y1="72" x2="489.04" y2="156" stroke="#616e7f" stroke-width="1" opacity="0.16"/>
<text x="489.04" y="174" text-anchor="middle" font-family="Consolas,monospace" font-size="8px" fill="#616e7f">15</text>
<line x1="517.91" y1="72" x2="517.91" y2="156" stroke="#616e7f" stroke-width="1" opacity="0.07"/>
<text x="517.91" y="174" text-anchor="middle" font-family="Consolas,monospace" font-size="8px" fill="#616e7f">16</text>
<line x1="546.78" y1="72" x2="546.78" y2="156" stroke="#616e7f" stroke-width="1" opacity="0.07"/>
<text x="546.78" y="174" text-anchor="middle" font-family="Consolas,monospace" font-size="8px" fill="#616e7f">17</text>
<line x1="575.65" y1="72" x2="575.65" y2="156" stroke="#616e7f" stroke-width="1" opacity="0.16"/>
<text x="575.65" y="174" text-anchor="middle" font-family="Consolas,monospace" font-size="8px" fill="#616e7f">18</text>
<line x1="604.52" y1="72" x2="604.52" y2="156" stroke="#616e7f" stroke-width="1" opacity="0.07"/>
<text x="604.52" y="174" text-anchor="middle" font-family="Consolas,monospace" font-size="8px" fill="#616e7f">19</text>
<line x1="633.39" y1="72" x2="633.39" y2="156" stroke="#616e7f" stroke-width="1" opacity="0.07"/>
<text x="633.39" y="174" text-anchor="middle" font-family="Consolas,monospace" font-size="8px" fill="#616e7f">20</text>
<line x1="662.26" y1="72" x2="662.26" y2="156" stroke="#616e7f" stroke-width="1" opacity="0.16"/>
<text x="662.26" y="174" text-anchor="middle" font-family="Consolas,monospace" font-size="8px" fill="#616e7f">21</text>
<line x1="691.13" y1="72" x2="691.13" y2="156" stroke="#616e7f" stroke-width="1" opacity="0.07"/>
<text x="691.13" y="174" text-anchor="middle" font-family="Consolas,monospace" font-size="8px" fill="#616e7f">22</text>
<line x1="720.00" y1="72" x2="720.00" y2="156" stroke="#616e7f" stroke-width="1" opacity="0.07"/>
<text x="720.00" y="174" text-anchor="middle" font-family="Consolas,monospace" font-size="8px" fill="#616e7f">23</text>
<path d="M 56.00 106.28 C 60.81 105.11, 75.25 101.12, 84.87 99.28 C 94.49 97.45, 104.12 93.28, 113.74 95.29 C 123.36 97.30, 132.99 104.10, 142.61 111.36 C 152.23 118.62, 161.86 132.71, 171.48 138.84 C 181.10 144.97, 190.72 145.81, 200.35 148.12 C 209.97 150.44, 219.59 151.41, 229.22 152.72 C 238.84 154.03, 248.46 155.45, 258.09 156.00 C 267.71 156.55, 277.33 156.00, 286.96 156.00 C 296.58 156.00, 306.20 156.22, 315.83 156.00 C 325.45 155.78, 335.07 155.49, 344.70 154.67 C 354.32 153.84, 363.94 152.16, 373.57 151.05 C 383.19 149.93, 392.81 151.69, 402.43 147.99 C 412.06 144.29, 421.68 135.50, 431.30 128.84 C 440.93 122.17, 450.55 113.65, 460.17 108.01 C 469.80 102.37, 479.42 99.09, 489.04 95.01 C 498.67 90.92, 508.29 87.33, 517.91 83.50 C 527.54 79.66, 537.16 72.48, 546.78 72.00 C 556.41 71.52, 566.03 77.39, 575.65 80.62 C 585.28 83.84, 594.90 90.18, 604.52 91.36 C 614.14 92.53, 623.77 86.88, 633.39 87.67 C 643.01 88.46, 652.64 91.00, 662.26 96.09 C 671.88 101.19, 681.51 116.09, 691.13 118.25 C 700.75 120.42, 715.19 110.62, 720.00 109.09 L 720.00 156.00 L 56.00 156.00 Z" fill="url(#hourFade)"/>
<path d="M 56.00 106.28 C 60.81 105.11, 75.25 101.12, 84.87 99.28 C 94.49 97.45, 104.12 93.28, 113.74 95.29 C 123.36 97.30, 132.99 104.10, 142.61 111.36 C 152.23 118.62, 161.86 132.71, 171.48 138.84 C 181.10 144.97, 190.72 145.81, 200.35 148.12 C 209.97 150.44, 219.59 151.41, 229.22 152.72 C 238.84 154.03, 248.46 155.45, 258.09 156.00 C 267.71 156.55, 277.33 156.00, 286.96 156.00 C 296.58 156.00, 306.20 156.22, 315.83 156.00 C 325.45 155.78, 335.07 155.49, 344.70 154.67 C 354.32 153.84, 363.94 152.16, 373.57 151.05 C 383.19 149.93, 392.81 151.69, 402.43 147.99 C 412.06 144.29, 421.68 135.50, 431.30 128.84 C 440.93 122.17, 450.55 113.65, 460.17 108.01 C 469.80 102.37, 479.42 99.09, 489.04 95.01 C 498.67 90.92, 508.29 87.33, 517.91 83.50 C 527.54 79.66, 537.16 72.48, 546.78 72.00 C 556.41 71.52, 566.03 77.39, 575.65 80.62 C 585.28 83.84, 594.90 90.18, 604.52 91.36 C 614.14 92.53, 623.77 86.88, 633.39 87.67 C 643.01 88.46, 652.64 91.00, 662.26 96.09 C 671.88 101.19, 681.51 116.09, 691.13 118.25 C 700.75 120.42, 715.19 110.62, 720.00 109.09" fill="none" stroke="url(#hourFill)" stroke-width="4" stroke-linecap="round"/>
<circle cx="56.00" cy="106.28" r="2.5" fill="#facc15" opacity="1"><title>00:00 - 6h 18m total</title></circle>
<circle cx="84.87" cy="99.28" r="2.5" fill="#facc15" opacity="1"><title>01:00 - 7h 11m total</title></circle>
<circle cx="113.74" cy="95.29" r="2.5" fill="#facc15" opacity="1"><title>02:00 - 7h 42m total</title></circle>
<circle cx="142.61" cy="111.36" r="2.5" fill="#facc15" opacity="1"><title>03:00 - 5h 40m total</title></circle>
<circle cx="171.48" cy="138.84" r="2.5" fill="#facc15" opacity="1"><title>04:00 - 2h 10m total</title></circle>
<circle cx="200.35" cy="148.12" r="2.5" fill="#facc15" opacity="1"><title>05:00 - 1h 0m total</title></circle>
<circle cx="229.22" cy="152.72" r="2.5" fill="#facc15" opacity="1"><title>06:00 - 24m total</title></circle>
<circle cx="258.09" cy="156.00" r="2.5" fill="#facc15" opacity="0.25"><title>07:00 - 0m total</title></circle>
<circle cx="286.96" cy="156.00" r="2.5" fill="#facc15" opacity="0.25"><title>08:00 - 0m total</title></circle>
<circle cx="315.83" cy="156.00" r="2.5" fill="#facc15" opacity="0.25"><title>09:00 - 0m total</title></circle>
<circle cx="344.70" cy="154.67" r="2.5" fill="#facc15" opacity="1"><title>10:00 - 10m total</title></circle>
<circle cx="373.57" cy="151.05" r="2.5" fill="#facc15" opacity="1"><title>11:00 - 37m total</title></circle>
<circle cx="402.43" cy="147.99" r="2.5" fill="#facc15" opacity="1"><title>12:00 - 1h 0m total</title></circle>
<circle cx="431.30" cy="128.84" r="2.5" fill="#facc15" opacity="1"><title>13:00 - 3h 26m total</title></circle>
<circle cx="460.17" cy="108.01" r="2.5" fill="#facc15" opacity="1"><title>14:00 - 6h 5m total</title></circle>
<circle cx="489.04" cy="95.01" r="2.5" fill="#facc15" opacity="1"><title>15:00 - 7h 44m total</title></circle>
<circle cx="517.91" cy="83.50" r="2.5" fill="#facc15" opacity="1"><title>16:00 - 9h 12m total</title></circle>
<circle cx="546.78" cy="72.00" r="4" fill="#facc15" opacity="1"><title>17:00 - 10h 39m total</title></circle>
<circle cx="575.65" cy="80.62" r="2.5" fill="#facc15" opacity="1"><title>18:00 - 9h 34m total</title></circle>
<circle cx="604.52" cy="91.36" r="2.5" fill="#facc15" opacity="1"><title>19:00 - 8h 12m total</title></circle>
<circle cx="633.39" cy="87.67" r="2.5" fill="#facc15" opacity="1"><title>20:00 - 8h 40m total</title></circle>
<circle cx="662.26" cy="96.09" r="2.5" fill="#facc15" opacity="1"><title>21:00 - 7h 36m total</title></circle>
<circle cx="691.13" cy="118.25" r="2.5" fill="#facc15" opacity="1"><title>22:00 - 4h 47m total</title></circle>
<circle cx="720.00" cy="109.09" r="2.5" fill="#facc15" opacity="1"><title>23:00 - 5h 57m total</title></circle>
<text x="20" y="191" font-family="Consolas,monospace" font-size="11px" fill="#616e7f">24-hour distribution across 30 days; higher curve = more coding time in that hour</text>
</svg>