<svg xmlns="http://www.w3.org/2000/svg" font-family="Consolas,monospace" width="340" height="300" font-size="14px"><rect width="340" height="300" fill="#161b22" rx="12"/>
<text x="15" y="29" font-family="Consolas,monospace" font-size="14px" fill="#616e7f">- Editors  (last 30d) —————————-—-</text>
<path d="M 110.00 92.00 L 110.00 70.00 A 85 85 0 0 1 129.28 237.78 L 124.29 216.36 A 63 63 0 0 0 110.00 92.00 Z" fill="#58a6ff" stroke="#161b22" stroke-width="2"/>
<path d="M 124.29 216.36 L 129.28 237.78 A 85 85 0 0 1 31.81 188.33 L 52.04 179.70 A 63 63 0 0 0 124.29 216.36 Z" fill="#3fb950" stroke="#161b22" stroke-width="2"/>
<path d="M 52.04 179.70 L 31.81 188.33 A 85 85 0 0 1 34.31 116.32 L 53.90 126.33 A 63 63 0 0 0 52.04 179.70 Z" fill="#ffa657" stroke="#161b22" stroke-width="2"/>
<path d="M 53.90 126.33 L 34.31 116.32 A 85 85 0 0 1 73.76 78.11 L 83.14 98.01 A 63 63 0 0 0 53.90 126.33 Z" fill="#f85149" stroke="#161b22" stroke-width="2"/>
<path d="M 83.14 98.01 L 73.76 78.11 A 85 85 0 0 1 92.01 71.93 L 96.66 93.43 A 63 63 0 0 0 83.14 98.01 Z" fill="#d2a8ff" stroke="#161b22" stroke-width="2"/>
<path d="M 96.66 93.43 L 92.01 71.93 A 85 85 0 0 1 110.00 70.00 L 110.00 92.00 A 63 63 0 0 0 96.66 93.43 Z" fill="#79c0ff" stroke="#161b22" stroke-width="2"/>
<text x="110" y="147" text-anchor="middle" font-family="Consolas,monospace" font-size="11px" fill="#616e7f">avg/day</text>
<text x="110" y="167" text-anchor="middle" font-family="Consolas,monospace" font-size="16px" font-weight="bold" fill="#58a6ff">4h 35m</text>
<rect x="210" y="50" width="10" height="10" fill="#58a6ff" rx="2"/>
<text x="226" y="60" font-family="Consolas,monospace" font-size="13px" fill="#c9d1d9">Codex CLI</text>
<text x="226" y="73" font-family="Consolas,monospace" font-size="11px" fill="#616e7f">45.9%  41 hrs 13 mins</text>
<rect x="210" y="86" width="10" height="10" fill="#3fb950" rx="2"/>
<text x="226" y="96" font-family="Consolas,monospace" font-size="13px" fill="#c9d1d9">Neovim</text>
<text x="226" y="109" font-family="Consolas,monospace" font-size="11px" fill="#616e7f">22.0%  19 hrs 46 mins</text>
<rect x="210" y="122" width="10" height="10" fill="#ffa657" rx="2"/>
<text x="226" y="132" font-family="Consolas,monospace" font-size="13px" fill="#c9d1d9">OpenCode</text>
<text x="226" y="145" font-family="Consolas,monospace" font-size="11px" fill="#616e7f">13.8%  12 hrs 23 mins</text>
<rect x="210" y="158" width="10" height="10" fill="#f85149" rx="2"/>
<text x="226" y="168" font-family="Consolas,monospace" font-size="13px" fill="#c9d1d9">Opencode Cli</text>
<text x="226" y="181" font-family="Consolas,monospace" font-size="11px" fill="#616e7f">10.4%  9 hrs 18 mins</text>
<rect x="210" y="194" width="10" height="10" fill="#d2a8ff" rx="2"/>
<text x="226" y="204" font-family="Consolas,monospace" font-size="13px" fill="#c9d1d9">Kiro</text>
<text x="226" y="217" font-family="Consolas,monospace" font-size="11px" fill="#616e7f">3.6%  3 hrs 12 mins</text>
<rect x="210" y="230" width="10" height="10" fill="#79c0ff" rx="2"/>
<text x="226" y="240" font-family="Consolas,monospace" font-size="13px" fill="#c9d1d9">Antigravity CLI</text>
<text x="226" y="253" font-family="Consolas,monospace" font-size="11px" fill="#616e7f">3.4%  3 hrs 1 min</text>
</svg>