<svg xmlns="http://www.w3.org/2000/svg" font-family="Consolas,monospace" width="760" height="260" font-size="14px"><rect width="760" height="260" fill="#161b22" rx="12"/>
<text x="20" y="34" font-family="Consolas,monospace" font-size="14px" fill="#616e7f">- Daily Activity  (last 30d) ——————————————————————————————————————————-—-</text>
<rect x="20" y="164" width="21" height="56" fill="#58a6ff" rx="2" opacity="0.85"/>
<text x="30" y="238" text-anchor="middle" font-family="Consolas,monospace" font-size="11px" fill="#616e7f">04/07</text>
<text x="30" y="160" text-anchor="middle" font-family="Consolas,monospace" font-size="10px" fill="#c9d1d9">4h 10m</text>
<rect x="44" y="180" width="21" height="40" fill="#58a6ff" rx="2" opacity="0.85"/>
<rect x="68" y="206" width="21" height="14" fill="#58a6ff" rx="2" opacity="0.85"/>
<rect x="92" y="121" width="21" height="99" fill="#58a6ff" rx="2" opacity="0.85"/>
<text x="102" y="117" text-anchor="middle" font-family="Consolas,monospace" font-size="10px" fill="#c9d1d9">7h 17m</text>
<rect x="116" y="116" width="21" height="104" fill="#58a6ff" rx="2" opacity="0.85"/>
<text x="126" y="112" text-anchor="middle" font-family="Consolas,monospace" font-size="10px" fill="#c9d1d9">7h 43m</text>
<rect x="140" y="60" width="21" height="160" fill="#58a6ff" rx="2" opacity="0.85"/>
<text x="150" y="238" text-anchor="middle" font-family="Consolas,monospace" font-size="11px" fill="#616e7f">04/12</text>
<text x="150" y="56" text-anchor="middle" font-family="Consolas,monospace" font-size="10px" fill="#c9d1d9">11h 46m</text>
<rect x="164" y="212" width="21" height="8" fill="#58a6ff" rx="2" opacity="0.85"/>
<rect x="188" y="96" width="21" height="124" fill="#58a6ff" rx="2" opacity="0.85"/>
<text x="198" y="92" text-anchor="middle" font-family="Consolas,monospace" font-size="10px" fill="#c9d1d9">9h 11m</text>
<rect x="212" y="100" width="21" height="120" fill="#58a6ff" rx="2" opacity="0.85"/>
<text x="222" y="96" text-anchor="middle" font-family="Consolas,monospace" font-size="10px" fill="#c9d1d9">8h 51m</text>
<rect x="236" y="168" width="21" height="52" fill="#58a6ff" rx="2" opacity="0.85"/>
<rect x="260" y="167" width="21" height="53" fill="#58a6ff" rx="2" opacity="0.85"/>
<text x="270" y="238" text-anchor="middle" font-family="Consolas,monospace" font-size="11px" fill="#616e7f">04/17</text>
<rect x="284" y="186" width="21" height="34" fill="#58a6ff" rx="2" opacity="0.85"/>
<rect x="308" y="153" width="21" height="67" fill="#58a6ff" rx="2" opacity="0.85"/>
<text x="318" y="149" text-anchor="middle" font-family="Consolas,monospace" font-size="10px" fill="#c9d1d9">4h 57m</text>
<rect x="332" y="205" width="21" height="15" fill="#58a6ff" rx="2" opacity="0.85"/>
<rect x="356" y="133" width="21" height="87" fill="#58a6ff" rx="2" opacity="0.85"/>
<text x="366" y="129" text-anchor="middle" font-family="Consolas,monospace" font-size="10px" fill="#c9d1d9">6h 27m</text>
<rect x="380" y="170" width="21" height="50" fill="#58a6ff" rx="2" opacity="0.85"/>
<text x="390" y="238" text-anchor="middle" font-family="Consolas,monospace" font-size="11px" fill="#616e7f">04/22</text>
<rect x="404" y="188" width="21" height="32" fill="#58a6ff" rx="2" opacity="0.85"/>
<rect x="428" y="195" width="21" height="25" fill="#58a6ff" rx="2" opacity="0.85"/>
<rect x="452" y="155" width="21" height="65" fill="#58a6ff" rx="2" opacity="0.85"/>
<text x="462" y="151" text-anchor="middle" font-family="Consolas,monospace" font-size="10px" fill="#c9d1d9">4h 48m</text>
<rect x="476" y="184" width="21" height="36" fill="#58a6ff" rx="2" opacity="0.85"/>
<rect x="500" y="197" width="21" height="23" fill="#58a6ff" rx="2" opacity="0.85"/>
<text x="510" y="238" text-anchor="middle" font-family="Consolas,monospace" font-size="11px" fill="#616e7f">04/27</text>
<rect x="524" y="84" width="21" height="136" fill="#58a6ff" rx="2" opacity="0.85"/>
<text x="534" y="80" text-anchor="middle" font-family="Consolas,monospace" font-size="10px" fill="#c9d1d9">10h 2m</text>
<rect x="548" y="125" width="21" height="95" fill="#58a6ff" rx="2" opacity="0.85"/>
<text x="558" y="121" text-anchor="middle" font-family="Consolas,monospace" font-size="10px" fill="#c9d1d9">7h 3m</text>
<rect x="572" y="186" width="21" height="34" fill="#58a6ff" rx="2" opacity="0.85"/>
<rect x="596" y="79" width="21" height="141" fill="#58a6ff" rx="2" opacity="0.85"/>
<text x="606" y="75" text-anchor="middle" font-family="Consolas,monospace" font-size="10px" fill="#c9d1d9">10h 25m</text>
<rect x="620" y="145" width="21" height="75" fill="#58a6ff" rx="2" opacity="0.85"/>
<text x="630" y="238" text-anchor="middle" font-family="Consolas,monospace" font-size="11px" fill="#616e7f">05/02</text>
<text x="630" y="141" text-anchor="middle" font-family="Consolas,monospace" font-size="10px" fill="#c9d1d9">5h 33m</text>
<rect x="644" y="175" width="21" height="45" fill="#58a6ff" rx="2" opacity="0.85"/>
<rect x="668" y="189" width="21" height="31" fill="#58a6ff" rx="2" opacity="0.85"/>
<rect x="692" y="104" width="21" height="116" fill="#58a6ff" rx="2" opacity="0.85"/>
<text x="702" y="100" text-anchor="middle" font-family="Consolas,monospace" font-size="10px" fill="#c9d1d9">8h 33m</text>
<rect x="716" y="169" width="21" height="51" fill="#58a6ff" rx="2" opacity="0.85"/>
<text x="726" y="238" text-anchor="middle" font-family="Consolas,monospace" font-size="11px" fill="#616e7f">05/06</text>
<line x1="20" y1="154" x2="740" y2="154" stroke="#f85149" stroke-width="1" stroke-dasharray="4,3" opacity="0.7"/>
<text x="738" y="150" text-anchor="end" font-family="Consolas,monospace" font-size="10px" fill="#f85149">avg 4h 54m</text>
</svg>