<svg xmlns="http://www.w3.org/2000/svg" font-family="Consolas,monospace" width="760" height="205" font-size="14px"><rect width="760" height="205" fill="#161b22" rx="12"/>
<text x="20" y="34" font-family="Consolas,monospace" font-size="14px" fill="#616e7f">- Working Hours  (last 30d) ———————————————————————————————————————————-—-</text>
<text x="20" y="50" font-family="Consolas,monospace" font-size="12px" fill="#616e7f">total 116h 21m | peak 4h 15:00-19:00 | busiest 17:00 (10h 52m) | tz Asia/Ho_Chi_Minh</text>
<defs>
<linearGradient id="hourFill" x1="0" y1="0" x2="1" y2="0">
<stop offset="0%" stop-color="#1d4ed8"/>
<stop offset="45%" stop-color="#7c3aed"/>
<stop offset="75%" stop-color="#db2777"/>
<stop offset="100%" stop-color="#facc15"/>
</linearGradient>
<linearGradient id="hourFade" x1="0" y1="0" x2="1" y2="0">
<stop offset="0%" stop-color="#1d4ed8" stop-opacity="0.42"/>
<stop offset="28%" stop-color="#2563eb" stop-opacity="0.5"/>
<stop offset="50%" stop-color="#7c3aed" stop-opacity="0.58"/>
<stop offset="70%" stop-color="#db2777" stop-opacity="0.62"/>
<stop offset="86%" stop-color="#f97316" stop-opacity="0.58"/>
<stop offset="100%" stop-color="#facc15" stop-opacity="0.48"/>
</linearGradient>
</defs>
<line x1="56" y1="156" x2="720" y2="156" stroke="#616e7f" stroke-width="1" opacity="0.35"/>
<line x1="56.00" y1="72" x2="56.00" y2="156" stroke="#616e7f" stroke-width="1" opacity="0.16"/>
<text x="56.00" y="174" text-anchor="middle" font-family="Consolas,monospace" font-size="8px" fill="#616e7f">00</text>
<line x1="84.87" y1="72" x2="84.87" y2="156" stroke="#616e7f" stroke-width="1" opacity="0.07"/>
<text x="84.87" y="174" text-anchor="middle" font-family="Consolas,monospace" font-size="8px" fill="#616e7f">01</text>
<line x1="113.74" y1="72" x2="113.74" y2="156" stroke="#616e7f" stroke-width="1" opacity="0.07"/>
<text x="113.74" y="174" text-anchor="middle" font-family="Consolas,monospace" font-size="8px" fill="#616e7f">02</text>
<line x1="142.61" y1="72" x2="142.61" y2="156" stroke="#616e7f" stroke-width="1" opacity="0.16"/>
<text x="142.61" y="174" text-anchor="middle" font-family="Consolas,monospace" font-size="8px" fill="#616e7f">03</text>
<line x1="171.48" y1="72" x2="171.48" y2="156" stroke="#616e7f" stroke-width="1" opacity="0.07"/>
<text x="171.48" y="174" text-anchor="middle" font-family="Consolas,monospace" font-size="8px" fill="#616e7f">04</text>
<line x1="200.35" y1="72" x2="200.35" y2="156" stroke="#616e7f" stroke-width="1" opacity="0.07"/>
<text x="200.35" y="174" text-anchor="middle" font-family="Consolas,monospace" font-size="8px" fill="#616e7f">05</text>
<line x1="229.22" y1="72" x2="229.22" y2="156" stroke="#616e7f" stroke-width="1" opacity="0.16"/>
<text x="229.22" y="174" text-anchor="middle" font-family="Consolas,monospace" font-size="8px" fill="#616e7f">06</text>
<line x1="258.09" y1="72" x2="258.09" y2="156" stroke="#616e7f" stroke-width="1" opacity="0.07"/>
<text x="258.09" y="174" text-anchor="middle" font-family="Consolas,monospace" font-size="8px" fill="#616e7f">07</text>
<line x1="286.96" y1="72" x2="286.96" y2="156" stroke="#616e7f" stroke-width="1" opacity="0.07"/>
<text x="286.96" y="174" text-anchor="middle" font-family="Consolas,monospace" font-size="8px" fill="#616e7f">08</text>
<line x1="315.83" y1="72" x2="315.83" y2="156" stroke="#616e7f" stroke-width="1" opacity="0.16"/>
<text x="315.83" y="174" text-anchor="middle" font-family="Consolas,monospace" font-size="8px" fill="#616e7f">09</text>
<line x1="344.70" y1="72" x2="344.70" y2="156" stroke="#616e7f" stroke-width="1" opacity="0.07"/>
<text x="344.70" y="174" text-anchor="middle" font-family="Consolas,monospace" font-size="8px" fill="#616e7f">10</text>
<line x1="373.57" y1="72" x2="373.57" y2="156" stroke="#616e7f" stroke-width="1" opacity="0.07"/>
<text x="373.57" y="174" text-anchor="middle" font-family="Consolas,monospace" font-size="8px" fill="#616e7f">11</text>
<line x1="402.43" y1="72" x2="402.43" y2="156" stroke="#616e7f" stroke-width="1" opacity="0.16"/>
<text x="402.43" y="174" text-anchor="middle" font-family="Consolas,monospace" font-size="8px" fill="#616e7f">12</text>
<line x1="431.30" y1="72" x2="431.30" y2="156" stroke="#616e7f" stroke-width="1" opacity="0.07"/>
<text x="431.30" y="174" text-anchor="middle" font-family="Consolas,monospace" font-size="8px" fill="#616e7f">13</text>
<line x1="460.17" y1="72" x2="460.17" y2="156" stroke="#616e7f" stroke-width="1" opacity="0.07"/>
<text x="460.17" y="174" text-anchor="middle" font-family="Consolas,monospace" font-size="8px" fill="#616e7f">14</text>
<line x1="489.04" y1="72" x2="489.04" y2="156" stroke="#616e7f" stroke-width="1" opacity="0.16"/>
<text x="489.04" y="174" text-anchor="middle" font-family="Consolas,monospace" font-size="8px" fill="#616e7f">15</text>
<line x1="517.91" y1="72" x2="517.91" y2="156" stroke="#616e7f" stroke-width="1" opacity="0.07"/>
<text x="517.91" y="174" text-anchor="middle" font-family="Consolas,monospace" font-size="8px" fill="#616e7f">16</text>
<line x1="546.78" y1="72" x2="546.78" y2="156" stroke="#616e7f" stroke-width="1" opacity="0.07"/>
<text x="546.78" y="174" text-anchor="middle" font-family="Consolas,monospace" font-size="8px" fill="#616e7f">17</text>
<line x1="575.65" y1="72" x2="575.65" y2="156" stroke="#616e7f" stroke-width="1" opacity="0.16"/>
<text x="575.65" y="174" text-anchor="middle" font-family="Consolas,monospace" font-size="8px" fill="#616e7f">18</text>
<line x1="604.52" y1="72" x2="604.52" y2="156" stroke="#616e7f" stroke-width="1" opacity="0.07"/>
<text x="604.52" y="174" text-anchor="middle" font-family="Consolas,monospace" font-size="8px" fill="#616e7f">19</text>
<line x1="633.39" y1="72" x2="633.39" y2="156" stroke="#616e7f" stroke-width="1" opacity="0.07"/>
<text x="633.39" y="174" text-anchor="middle" font-family="Consolas,monospace" font-size="8px" fill="#616e7f">20</text>
<line x1="662.26" y1="72" x2="662.26" y2="156" stroke="#616e7f" stroke-width="1" opacity="0.16"/>
<text x="662.26" y="174" text-anchor="middle" font-family="Consolas,monospace" font-size="8px" fill="#616e7f">21</text>
<line x1="691.13" y1="72" x2="691.13" y2="156" stroke="#616e7f" stroke-width="1" opacity="0.07"/>
<text x="691.13" y="174" text-anchor="middle" font-family="Consolas,monospace" font-size="8px" fill="#616e7f">22</text>
<line x1="720.00" y1="72" x2="720.00" y2="156" stroke="#616e7f" stroke-width="1" opacity="0.07"/>
<text x="720.00" y="174" text-anchor="middle" font-family="Consolas,monospace" font-size="8px" fill="#616e7f">23</text>
<path d="M 56.00 110.03 C 60.81 109.71, 75.25 108.98, 84.87 108.12 C 94.49 107.26, 104.12 102.61, 113.74 104.90 C 123.36 107.19, 132.99 115.18, 142.61 121.85 C 152.23 128.52, 161.86 140.70, 171.48 144.90 C 181.10 149.10, 190.72 145.74, 200.35 147.05 C 209.97 148.37, 219.59 151.29, 229.22 152.79 C 238.84 154.28, 248.46 155.46, 258.09 156.00 C 267.71 156.54, 277.33 156.00, 286.96 156.00 C 296.58 156.00, 306.20 156.22, 315.83 156.00 C 325.45 155.78, 335.07 155.50, 344.70 154.69 C 354.32 153.88, 363.94 152.23, 373.57 151.14 C 383.19 150.05, 392.81 151.87, 402.43 148.15 C 412.06 144.43, 421.68 136.65, 431.30 128.83 C 440.93 121.02, 450.55 109.87, 460.17 101.28 C 469.80 92.68, 479.42 82.10, 489.04 77.25 C 498.67 72.40, 508.29 73.07, 517.91 72.20 C 527.54 71.32, 537.16 70.62, 546.78 72.00 C 556.41 73.38, 566.03 76.43, 575.65 80.49 C 585.28 84.55, 594.90 94.38, 604.52 96.35 C 614.14 98.31, 623.77 93.31, 633.39 92.28 C 643.01 91.25, 652.64 86.85, 662.26 90.16 C 671.88 93.47, 681.51 108.74, 691.13 112.15 C 700.75 115.57, 715.19 110.89, 720.00 110.64 L 720.00 156.00 L 56.00 156.00 Z" fill="url(#hourFade)"/>
<path d="M 56.00 110.03 C 60.81 109.71, 75.25 108.98, 84.87 108.12 C 94.49 107.26, 104.12 102.61, 113.74 104.90 C 123.36 107.19, 132.99 115.18, 142.61 121.85 C 152.23 128.52, 161.86 140.70, 171.48 144.90 C 181.10 149.10, 190.72 145.74, 200.35 147.05 C 209.97 148.37, 219.59 151.29, 229.22 152.79 C 238.84 154.28, 248.46 155.46, 258.09 156.00 C 267.71 156.54, 277.33 156.00, 286.96 156.00 C 296.58 156.00, 306.20 156.22, 315.83 156.00 C 325.45 155.78, 335.07 155.50, 344.70 154.69 C 354.32 153.88, 363.94 152.23, 373.57 151.14 C 383.19 150.05, 392.81 151.87, 402.43 148.15 C 412.06 144.43, 421.68 136.65, 431.30 128.83 C 440.93 121.02, 450.55 109.87, 460.17 101.28 C 469.80 92.68, 479.42 82.10, 489.04 77.25 C 498.67 72.40, 508.29 73.07, 517.91 72.20 C 527.54 71.32, 537.16 70.62, 546.78 72.00 C 556.41 73.38, 566.03 76.43, 575.65 80.49 C 585.28 84.55, 594.90 94.38, 604.52 96.35 C 614.14 98.31, 623.77 93.31, 633.39 92.28 C 643.01 91.25, 652.64 86.85, 662.26 90.16 C 671.88 93.47, 681.51 108.74, 691.13 112.15 C 700.75 115.57, 715.19 110.89, 720.00 110.64" fill="none" stroke="url(#hourFill)" stroke-width="4" stroke-linecap="round"/>
<circle cx="56.00" cy="110.03" r="2.5" fill="#facc15" opacity="1"><title>00:00 - 5h 57m total</title></circle>
<circle cx="84.87" cy="108.12" r="2.5" fill="#facc15" opacity="1"><title>01:00 - 6h 11m total</title></circle>
<circle cx="113.74" cy="104.90" r="2.5" fill="#facc15" opacity="1"><title>02:00 - 6h 36m total</title></circle>
<circle cx="142.61" cy="121.85" r="2.5" fill="#facc15" opacity="1"><title>03:00 - 4h 25m total</title></circle>
<circle cx="171.48" cy="144.90" r="2.5" fill="#facc15" opacity="1"><title>04:00 - 1h 26m total</title></circle>
<circle cx="200.35" cy="147.05" r="2.5" fill="#facc15" opacity="1"><title>05:00 - 1h 9m total</title></circle>
<circle cx="229.22" cy="152.79" r="2.5" fill="#facc15" opacity="1"><title>06:00 - 24m total</title></circle>
<circle cx="258.09" cy="156.00" r="2.5" fill="#facc15" opacity="0.25"><title>07:00 - 0m total</title></circle>
<circle cx="286.96" cy="156.00" r="2.5" fill="#facc15" opacity="0.25"><title>08:00 - 0m total</title></circle>
<circle cx="315.83" cy="156.00" r="2.5" fill="#facc15" opacity="0.25"><title>09:00 - 0m total</title></circle>
<circle cx="344.70" cy="154.69" r="2.5" fill="#facc15" opacity="1"><title>10:00 - 10m total</title></circle>
<circle cx="373.57" cy="151.14" r="2.5" fill="#facc15" opacity="1"><title>11:00 - 37m total</title></circle>
<circle cx="402.43" cy="148.15" r="2.5" fill="#facc15" opacity="1"><title>12:00 - 1h 0m total</title></circle>
<circle cx="431.30" cy="128.83" r="2.5" fill="#facc15" opacity="1"><title>13:00 - 3h 31m total</title></circle>
<circle cx="460.17" cy="101.28" r="2.5" fill="#facc15" opacity="1"><title>14:00 - 7h 5m total</title></circle>
<circle cx="489.04" cy="77.25" r="2.5" fill="#facc15" opacity="1"><title>15:00 - 10h 11m total</title></circle>
<circle cx="517.91" cy="72.20" r="2.5" fill="#facc15" opacity="1"><title>16:00 - 10h 51m total</title></circle>
<circle cx="546.78" cy="72.00" r="4" fill="#facc15" opacity="1"><title>17:00 - 10h 52m total</title></circle>
<circle cx="575.65" cy="80.49" r="2.5" fill="#facc15" opacity="1"><title>18:00 - 9h 46m total</title></circle>
<circle cx="604.52" cy="96.35" r="2.5" fill="#facc15" opacity="1"><title>19:00 - 7h 43m total</title></circle>
<circle cx="633.39" cy="92.28" r="2.5" fill="#facc15" opacity="1"><title>20:00 - 8h 14m total</title></circle>
<circle cx="662.26" cy="90.16" r="2.5" fill="#facc15" opacity="1"><title>21:00 - 8h 31m total</title></circle>
<circle cx="691.13" cy="112.15" r="2.5" fill="#facc15" opacity="1"><title>22:00 - 5h 40m total</title></circle>
<circle cx="720.00" cy="110.64" r="2.5" fill="#facc15" opacity="1"><title>23:00 - 5h 52m total</title></circle>
<text x="20" y="191" font-family="Consolas,monospace" font-size="11px" fill="#616e7f">24-hour distribution across 30 days; higher curve = more coding time in that hour</text>
</svg>