<svg xmlns="http://www.w3.org/2000/svg" font-family="Consolas,monospace" width="760" height="260" font-size="14px"><rect width="760" height="260" fill="#161b22" rx="12"/>
<text x="20" y="34" font-family="Consolas,monospace" font-size="14px" fill="#616e7f">- Daily Activity  (last 30d) ——————————————————————————————————————————-—-</text>
<rect x="20" y="216" width="21" height="4" fill="#58a6ff" rx="2" opacity="0.85"/>
<text x="30" y="238" text-anchor="middle" font-family="Consolas,monospace" font-size="11px" fill="#616e7f">05/20</text>
<rect x="44" y="115" width="21" height="105" fill="#58a6ff" rx="2" opacity="0.85"/>
<text x="54" y="111" text-anchor="middle" font-family="Consolas,monospace" font-size="10px" fill="#c9d1d9">6h 52m</text>
<rect x="68" y="198" width="21" height="22" fill="#58a6ff" rx="2" opacity="0.85"/>
<rect x="92" y="180" width="21" height="40" fill="#58a6ff" rx="2" opacity="0.85"/>
<rect x="116" y="183" width="21" height="37" fill="#58a6ff" rx="2" opacity="0.85"/>
<rect x="140" y="172" width="21" height="48" fill="#58a6ff" rx="2" opacity="0.85"/>
<text x="150" y="238" text-anchor="middle" font-family="Consolas,monospace" font-size="11px" fill="#616e7f">05/25</text>
<rect x="164" y="138" width="21" height="82" fill="#58a6ff" rx="2" opacity="0.85"/>
<text x="174" y="134" text-anchor="middle" font-family="Consolas,monospace" font-size="10px" fill="#c9d1d9">5h 21m</text>
<rect x="188" y="177" width="21" height="43" fill="#58a6ff" rx="2" opacity="0.85"/>
<rect x="212" y="128" width="21" height="92" fill="#58a6ff" rx="2" opacity="0.85"/>
<text x="222" y="124" text-anchor="middle" font-family="Consolas,monospace" font-size="10px" fill="#c9d1d9">5h 59m</text>
<rect x="236" y="165" width="21" height="55" fill="#58a6ff" rx="2" opacity="0.85"/>
<rect x="260" y="215" width="21" height="5" fill="#58a6ff" rx="2" opacity="0.85"/>
<text x="270" y="238" text-anchor="middle" font-family="Consolas,monospace" font-size="11px" fill="#616e7f">05/30</text>
<rect x="284" y="119" width="21" height="101" fill="#58a6ff" rx="2" opacity="0.85"/>
<text x="294" y="115" text-anchor="middle" font-family="Consolas,monospace" font-size="10px" fill="#c9d1d9">6h 34m</text>
<rect x="308" y="167" width="21" height="53" fill="#58a6ff" rx="2" opacity="0.85"/>
<rect x="332" y="218" width="21" height="2" fill="#58a6ff" rx="2" opacity="0.85"/>
<rect x="356" y="100" width="21" height="120" fill="#58a6ff" rx="2" opacity="0.85"/>
<text x="366" y="96" text-anchor="middle" font-family="Consolas,monospace" font-size="10px" fill="#c9d1d9">7h 49m</text>
<rect x="380" y="60" width="21" height="160" fill="#58a6ff" rx="2" opacity="0.85"/>
<text x="390" y="238" text-anchor="middle" font-family="Consolas,monospace" font-size="11px" fill="#616e7f">06/04</text>
<text x="390" y="56" text-anchor="middle" font-family="Consolas,monospace" font-size="10px" fill="#c9d1d9">10h 23m</text>
<rect x="404" y="102" width="21" height="118" fill="#58a6ff" rx="2" opacity="0.85"/>
<text x="414" y="98" text-anchor="middle" font-family="Consolas,monospace" font-size="10px" fill="#c9d1d9">7h 41m</text>
<rect x="428" y="89" width="21" height="131" fill="#58a6ff" rx="2" opacity="0.85"/>
<text x="438" y="85" text-anchor="middle" font-family="Consolas,monospace" font-size="10px" fill="#c9d1d9">8h 31m</text>
<rect x="452" y="110" width="21" height="110" fill="#58a6ff" rx="2" opacity="0.85"/>
<text x="462" y="106" text-anchor="middle" font-family="Consolas,monospace" font-size="10px" fill="#c9d1d9">7h 12m</text>
<rect x="476" y="77" width="21" height="143" fill="#58a6ff" rx="2" opacity="0.85"/>
<text x="486" y="73" text-anchor="middle" font-family="Consolas,monospace" font-size="10px" fill="#c9d1d9">9h 19m</text>
<rect x="500" y="82" width="21" height="138" fill="#58a6ff" rx="2" opacity="0.85"/>
<text x="510" y="238" text-anchor="middle" font-family="Consolas,monospace" font-size="11px" fill="#616e7f">06/09</text>
<text x="510" y="78" text-anchor="middle" font-family="Consolas,monospace" font-size="10px" fill="#c9d1d9">8h 59m</text>
<rect x="524" y="91" width="21" height="129" fill="#58a6ff" rx="2" opacity="0.85"/>
<text x="534" y="87" text-anchor="middle" font-family="Consolas,monospace" font-size="10px" fill="#c9d1d9">8h 23m</text>
<rect x="548" y="133" width="21" height="87" fill="#58a6ff" rx="2" opacity="0.85"/>
<text x="558" y="129" text-anchor="middle" font-family="Consolas,monospace" font-size="10px" fill="#c9d1d9">5h 40m</text>
<rect x="572" y="197" width="21" height="23" fill="#58a6ff" rx="2" opacity="0.85"/>
<rect x="596" y="96" width="21" height="124" fill="#58a6ff" rx="2" opacity="0.85"/>
<text x="606" y="92" text-anchor="middle" font-family="Consolas,monospace" font-size="10px" fill="#c9d1d9">8h 4m</text>
<rect x="620" y="86" width="21" height="134" fill="#58a6ff" rx="2" opacity="0.85"/>
<text x="630" y="238" text-anchor="middle" font-family="Consolas,monospace" font-size="11px" fill="#616e7f">06/14</text>
<text x="630" y="82" text-anchor="middle" font-family="Consolas,monospace" font-size="10px" fill="#c9d1d9">8h 42m</text>
<rect x="644" y="69" width="21" height="151" fill="#58a6ff" rx="2" opacity="0.85"/>
<text x="654" y="65" text-anchor="middle" font-family="Consolas,monospace" font-size="10px" fill="#c9d1d9">9h 49m</text>
<rect x="668" y="144" width="21" height="76" fill="#58a6ff" rx="2" opacity="0.85"/>
<text x="678" y="140" text-anchor="middle" font-family="Consolas,monospace" font-size="10px" fill="#c9d1d9">4h 59m</text>
<rect x="692" y="83" width="21" height="137" fill="#58a6ff" rx="2" opacity="0.85"/>
<text x="702" y="79" text-anchor="middle" font-family="Consolas,monospace" font-size="10px" fill="#c9d1d9">8h 57m</text>
<rect x="716" y="191" width="21" height="29" fill="#58a6ff" rx="2" opacity="0.85"/>
<text x="726" y="238" text-anchor="middle" font-family="Consolas,monospace" font-size="11px" fill="#616e7f">06/18</text>
<line x1="20" y1="137" x2="740" y2="137" stroke="#f85149" stroke-width="1" stroke-dasharray="4,3" opacity="0.7"/>
<text x="738" y="133" text-anchor="end" font-family="Consolas,monospace" font-size="10px" fill="#f85149">avg 5h 26m</text>
</svg>