<svg xmlns="http://www.w3.org/2000/svg" font-family="Consolas,monospace" width="340" height="300" font-size="14px"><rect width="340" height="300" fill="#161b22" rx="12"/>
<text x="15" y="29" font-family="Consolas,monospace" font-size="14px" fill="#616e7f">- Editors  (last 30d) —————————-—-</text>
<path d="M 110.00 92.00 L 110.00 70.00 A 85 85 0 0 1 129.08 237.83 L 124.14 216.39 A 63 63 0 0 0 110.00 92.00 Z" fill="#58a6ff" stroke="#161b22" stroke-width="2"/>
<path d="M 124.14 216.39 L 129.08 237.83 A 85 85 0 0 1 51.31 216.49 L 66.50 200.57 A 63 63 0 0 0 124.14 216.39 Z" fill="#3fb950" stroke="#161b22" stroke-width="2"/>
<path d="M 66.50 200.57 L 51.31 216.49 A 85 85 0 0 1 25.89 142.74 L 47.66 145.91 A 63 63 0 0 0 66.50 200.57 Z" fill="#ffa657" stroke="#161b22" stroke-width="2"/>
<path d="M 47.66 145.91 L 25.89 142.74 A 85 85 0 0 1 61.77 85.01 L 74.25 103.12 A 63 63 0 0 0 47.66 145.91 Z" fill="#f85149" stroke="#161b22" stroke-width="2"/>
<path d="M 74.25 103.12 L 61.77 85.01 A 85 85 0 0 1 88.51 72.76 L 94.07 94.05 A 63 63 0 0 0 74.25 103.12 Z" fill="#d2a8ff" stroke="#161b22" stroke-width="2"/>
<path d="M 94.07 94.05 L 88.51 72.76 A 85 85 0 0 1 110.00 70.00 L 110.00 92.00 A 63 63 0 0 0 94.07 94.05 Z" fill="#79c0ff" stroke="#161b22" stroke-width="2"/>
<text x="110" y="147" text-anchor="middle" font-family="Consolas,monospace" font-size="11px" fill="#616e7f">avg/day</text>
<text x="110" y="167" text-anchor="middle" font-family="Consolas,monospace" font-size="16px" font-weight="bold" fill="#58a6ff">3h 45m</text>
<rect x="210" y="50" width="10" height="10" fill="#58a6ff" rx="2"/>
<text x="226" y="60" font-family="Consolas,monospace" font-size="13px" fill="#c9d1d9">Opencode Cli</text>
<text x="226" y="73" font-family="Consolas,monospace" font-size="11px" fill="#616e7f">44.7%  57 hrs 52 mins</text>
<rect x="210" y="86" width="10" height="10" fill="#3fb950" rx="2"/>
<text x="226" y="96" font-family="Consolas,monospace" font-size="13px" fill="#c9d1d9">Neovim</text>
<text x="226" y="109" font-family="Consolas,monospace" font-size="11px" fill="#616e7f">15.2%  19 hrs 37 mins</text>
<rect x="210" y="122" width="10" height="10" fill="#ffa657" rx="2"/>
<text x="226" y="132" font-family="Consolas,monospace" font-size="13px" fill="#c9d1d9">Zed</text>
<text x="226" y="145" font-family="Consolas,monospace" font-size="11px" fill="#616e7f">14.6%  18 hrs 55 mins</text>
<rect x="210" y="158" width="10" height="10" fill="#f85149" rx="2"/>
<text x="226" y="168" font-family="Consolas,monospace" font-size="13px" fill="#c9d1d9">OpenCode</text>
<text x="226" y="181" font-family="Consolas,monospace" font-size="11px" fill="#616e7f">12.6%  16 hrs 20 mins</text>
<rect x="210" y="194" width="10" height="10" fill="#d2a8ff" rx="2"/>
<text x="226" y="204" font-family="Consolas,monospace" font-size="13px" fill="#c9d1d9">VS Code</text>
<text x="226" y="217" font-family="Consolas,monospace" font-size="11px" fill="#616e7f">5.3%  6 hrs 54 mins</text>
<rect x="210" y="230" width="10" height="10" fill="#79c0ff" rx="2"/>
<text x="226" y="240" font-family="Consolas,monospace" font-size="13px" fill="#c9d1d9">Unknown Editor</text>
<text x="226" y="253" font-family="Consolas,monospace" font-size="11px" fill="#616e7f">3.9%  5 hrs 4 mins</text>
</svg>