<svg xmlns="http://www.w3.org/2000/svg" font-family="Consolas,monospace" width="760" height="205" font-size="14px"><rect width="760" height="205" fill="#161b22" rx="12"/>
<text x="20" y="34" font-family="Consolas,monospace" font-size="14px" fill="#616e7f">- Working Hours  (last 30d) ———————————————————————————————————————————-—-</text>
<text x="20" y="50" font-family="Consolas,monospace" font-size="12px" fill="#616e7f">total 139h 23m | peak 4h 15:00-19:00 | busiest 16:00 (12h 37m) | tz Asia/Ho_Chi_Minh</text>
<defs>
<linearGradient id="hourFill" x1="0" y1="0" x2="1" y2="0">
<stop offset="0%" stop-color="#1d4ed8"/>
<stop offset="45%" stop-color="#7c3aed"/>
<stop offset="75%" stop-color="#db2777"/>
<stop offset="100%" stop-color="#facc15"/>
</linearGradient>
<linearGradient id="hourFade" x1="0" y1="0" x2="1" y2="0">
<stop offset="0%" stop-color="#1d4ed8" stop-opacity="0.42"/>
<stop offset="28%" stop-color="#2563eb" stop-opacity="0.5"/>
<stop offset="50%" stop-color="#7c3aed" stop-opacity="0.58"/>
<stop offset="70%" stop-color="#db2777" stop-opacity="0.62"/>
<stop offset="86%" stop-color="#f97316" stop-opacity="0.58"/>
<stop offset="100%" stop-color="#facc15" stop-opacity="0.48"/>
</linearGradient>
</defs>
<line x1="56" y1="156" x2="720" y2="156" stroke="#616e7f" stroke-width="1" opacity="0.35"/>
<line x1="56.00" y1="72" x2="56.00" y2="156" stroke="#616e7f" stroke-width="1" opacity="0.16"/>
<text x="56.00" y="174" text-anchor="middle" font-family="Consolas,monospace" font-size="8px" fill="#616e7f">00</text>
<line x1="84.87" y1="72" x2="84.87" y2="156" stroke="#616e7f" stroke-width="1" opacity="0.07"/>
<text x="84.87" y="174" text-anchor="middle" font-family="Consolas,monospace" font-size="8px" fill="#616e7f">01</text>
<line x1="113.74" y1="72" x2="113.74" y2="156" stroke="#616e7f" stroke-width="1" opacity="0.07"/>
<text x="113.74" y="174" text-anchor="middle" font-family="Consolas,monospace" font-size="8px" fill="#616e7f">02</text>
<line x1="142.61" y1="72" x2="142.61" y2="156" stroke="#616e7f" stroke-width="1" opacity="0.16"/>
<text x="142.61" y="174" text-anchor="middle" font-family="Consolas,monospace" font-size="8px" fill="#616e7f">03</text>
<line x1="171.48" y1="72" x2="171.48" y2="156" stroke="#616e7f" stroke-width="1" opacity="0.07"/>
<text x="171.48" y="174" text-anchor="middle" font-family="Consolas,monospace" font-size="8px" fill="#616e7f">04</text>
<line x1="200.35" y1="72" x2="200.35" y2="156" stroke="#616e7f" stroke-width="1" opacity="0.07"/>
<text x="200.35" y="174" text-anchor="middle" font-family="Consolas,monospace" font-size="8px" fill="#616e7f">05</text>
<line x1="229.22" y1="72" x2="229.22" y2="156" stroke="#616e7f" stroke-width="1" opacity="0.16"/>
<text x="229.22" y="174" text-anchor="middle" font-family="Consolas,monospace" font-size="8px" fill="#616e7f">06</text>
<line x1="258.09" y1="72" x2="258.09" y2="156" stroke="#616e7f" stroke-width="1" opacity="0.07"/>
<text x="258.09" y="174" text-anchor="middle" font-family="Consolas,monospace" font-size="8px" fill="#616e7f">07</text>
<line x1="286.96" y1="72" x2="286.96" y2="156" stroke="#616e7f" stroke-width="1" opacity="0.07"/>
<text x="286.96" y="174" text-anchor="middle" font-family="Consolas,monospace" font-size="8px" fill="#616e7f">08</text>
<line x1="315.83" y1="72" x2="315.83" y2="156" stroke="#616e7f" stroke-width="1" opacity="0.16"/>
<text x="315.83" y="174" text-anchor="middle" font-family="Consolas,monospace" font-size="8px" fill="#616e7f">09</text>
<line x1="344.70" y1="72" x2="344.70" y2="156" stroke="#616e7f" stroke-width="1" opacity="0.07"/>
<text x="344.70" y="174" text-anchor="middle" font-family="Consolas,monospace" font-size="8px" fill="#616e7f">10</text>
<line x1="373.57" y1="72" x2="373.57" y2="156" stroke="#616e7f" stroke-width="1" opacity="0.07"/>
<text x="373.57" y="174" text-anchor="middle" font-family="Consolas,monospace" font-size="8px" fill="#616e7f">11</text>
<line x1="402.43" y1="72" x2="402.43" y2="156" stroke="#616e7f" stroke-width="1" opacity="0.16"/>
<text x="402.43" y="174" text-anchor="middle" font-family="Consolas,monospace" font-size="8px" fill="#616e7f">12</text>
<line x1="431.30" y1="72" x2="431.30" y2="156" stroke="#616e7f" stroke-width="1" opacity="0.07"/>
<text x="431.30" y="174" text-anchor="middle" font-family="Consolas,monospace" font-size="8px" fill="#616e7f">13</text>
<line x1="460.17" y1="72" x2="460.17" y2="156" stroke="#616e7f" stroke-width="1" opacity="0.07"/>
<text x="460.17" y="174" text-anchor="middle" font-family="Consolas,monospace" font-size="8px" fill="#616e7f">14</text>
<line x1="489.04" y1="72" x2="489.04" y2="156" stroke="#616e7f" stroke-width="1" opacity="0.16"/>
<text x="489.04" y="174" text-anchor="middle" font-family="Consolas,monospace" font-size="8px" fill="#616e7f">15</text>
<line x1="517.91" y1="72" x2="517.91" y2="156" stroke="#616e7f" stroke-width="1" opacity="0.07"/>
<text x="517.91" y="174" text-anchor="middle" font-family="Consolas,monospace" font-size="8px" fill="#616e7f">16</text>
<line x1="546.78" y1="72" x2="546.78" y2="156" stroke="#616e7f" stroke-width="1" opacity="0.07"/>
<text x="546.78" y="174" text-anchor="middle" font-family="Consolas,monospace" font-size="8px" fill="#616e7f">17</text>
<line x1="575.65" y1="72" x2="575.65" y2="156" stroke="#616e7f" stroke-width="1" opacity="0.16"/>
<text x="575.65" y="174" text-anchor="middle" font-family="Consolas,monospace" font-size="8px" fill="#616e7f">18</text>
<line x1="604.52" y1="72" x2="604.52" y2="156" stroke="#616e7f" stroke-width="1" opacity="0.07"/>
<text x="604.52" y="174" text-anchor="middle" font-family="Consolas,monospace" font-size="8px" fill="#616e7f">19</text>
<line x1="633.39" y1="72" x2="633.39" y2="156" stroke="#616e7f" stroke-width="1" opacity="0.07"/>
<text x="633.39" y="174" text-anchor="middle" font-family="Consolas,monospace" font-size="8px" fill="#616e7f">20</text>
<line x1="662.26" y1="72" x2="662.26" y2="156" stroke="#616e7f" stroke-width="1" opacity="0.16"/>
<text x="662.26" y="174" text-anchor="middle" font-family="Consolas,monospace" font-size="8px" fill="#616e7f">21</text>
<line x1="691.13" y1="72" x2="691.13" y2="156" stroke="#616e7f" stroke-width="1" opacity="0.07"/>
<text x="691.13" y="174" text-anchor="middle" font-family="Consolas,monospace" font-size="8px" fill="#616e7f">22</text>
<line x1="720.00" y1="72" x2="720.00" y2="156" stroke="#616e7f" stroke-width="1" opacity="0.07"/>
<text x="720.00" y="174" text-anchor="middle" font-family="Consolas,monospace" font-size="8px" fill="#616e7f">23</text>
<path d="M 56.00 103.13 C 60.81 102.92, 75.25 102.64, 84.87 101.90 C 94.49 101.17, 104.12 96.11, 113.74 98.72 C 123.36 101.33, 132.99 110.72, 142.61 117.57 C 152.23 124.41, 161.86 135.78, 171.48 139.79 C 181.10 143.81, 190.72 140.52, 200.35 141.65 C 209.97 142.78, 219.59 145.24, 229.22 146.58 C 238.84 147.93, 248.46 148.57, 258.09 149.70 C 267.71 150.83, 277.33 152.36, 286.96 153.36 C 296.58 154.36, 306.20 155.81, 315.83 155.71 C 325.45 155.61, 335.07 153.70, 344.70 152.75 C 354.32 151.80, 363.94 150.60, 373.57 150.02 C 383.19 149.43, 392.81 152.75, 402.43 149.24 C 412.06 145.73, 421.68 136.79, 431.30 128.96 C 440.93 121.13, 450.55 110.14, 460.17 102.24 C 469.80 94.34, 479.42 86.59, 489.04 81.55 C 498.67 76.51, 508.29 72.13, 517.91 72.00 C 527.54 71.87, 537.16 78.72, 546.78 80.78 C 556.41 82.85, 566.03 81.50, 575.65 84.37 C 585.28 87.24, 594.90 97.37, 604.52 98.00 C 614.14 98.63, 623.77 88.85, 633.39 88.14 C 643.01 87.44, 652.64 89.45, 662.26 93.78 C 671.88 98.11, 681.51 110.92, 691.13 114.14 C 700.75 117.36, 715.19 113.25, 720.00 113.07 L 720.00 156.00 L 56.00 156.00 Z" fill="url(#hourFade)"/>
<path d="M 56.00 103.13 C 60.81 102.92, 75.25 102.64, 84.87 101.90 C 94.49 101.17, 104.12 96.11, 113.74 98.72 C 123.36 101.33, 132.99 110.72, 142.61 117.57 C 152.23 124.41, 161.86 135.78, 171.48 139.79 C 181.10 143.81, 190.72 140.52, 200.35 141.65 C 209.97 142.78, 219.59 145.24, 229.22 146.58 C 238.84 147.93, 248.46 148.57, 258.09 149.70 C 267.71 150.83, 277.33 152.36, 286.96 153.36 C 296.58 154.36, 306.20 155.81, 315.83 155.71 C 325.45 155.61, 335.07 153.70, 344.70 152.75 C 354.32 151.80, 363.94 150.60, 373.57 150.02 C 383.19 149.43, 392.81 152.75, 402.43 149.24 C 412.06 145.73, 421.68 136.79, 431.30 128.96 C 440.93 121.13, 450.55 110.14, 460.17 102.24 C 469.80 94.34, 479.42 86.59, 489.04 81.55 C 498.67 76.51, 508.29 72.13, 517.91 72.00 C 527.54 71.87, 537.16 78.72, 546.78 80.78 C 556.41 82.85, 566.03 81.50, 575.65 84.37 C 585.28 87.24, 594.90 97.37, 604.52 98.00 C 614.14 98.63, 623.77 88.85, 633.39 88.14 C 643.01 87.44, 652.64 89.45, 662.26 93.78 C 671.88 98.11, 681.51 110.92, 691.13 114.14 C 700.75 117.36, 715.19 113.25, 720.00 113.07" fill="none" stroke="url(#hourFill)" stroke-width="4" stroke-linecap="round"/>
<circle cx="56.00" cy="103.13" r="2.5" fill="#facc15" opacity="1"><title>00:00 - 7h 57m total</title></circle>
<circle cx="84.87" cy="101.90" r="2.5" fill="#facc15" opacity="1"><title>01:00 - 8h 8m total</title></circle>
<circle cx="113.74" cy="98.72" r="2.5" fill="#facc15" opacity="1"><title>02:00 - 8h 36m total</title></circle>
<circle cx="142.61" cy="117.57" r="2.5" fill="#facc15" opacity="1"><title>03:00 - 5h 46m total</title></circle>
<circle cx="171.48" cy="139.79" r="2.5" fill="#facc15" opacity="1"><title>04:00 - 2h 26m total</title></circle>
<circle cx="200.35" cy="141.65" r="2.5" fill="#facc15" opacity="1"><title>05:00 - 2h 9m total</title></circle>
<circle cx="229.22" cy="146.58" r="2.5" fill="#facc15" opacity="1"><title>06:00 - 1h 24m total</title></circle>
<circle cx="258.09" cy="149.70" r="2.5" fill="#facc15" opacity="1"><title>07:00 - 56m total</title></circle>
<circle cx="286.96" cy="153.36" r="2.5" fill="#facc15" opacity="1"><title>08:00 - 23m total</title></circle>
<circle cx="315.83" cy="155.71" r="2.5" fill="#facc15" opacity="1"><title>09:00 - 2m total</title></circle>
<circle cx="344.70" cy="152.75" r="2.5" fill="#facc15" opacity="1"><title>10:00 - 29m total</title></circle>
<circle cx="373.57" cy="150.02" r="2.5" fill="#facc15" opacity="1"><title>11:00 - 53m total</title></circle>
<circle cx="402.43" cy="149.24" r="2.5" fill="#facc15" opacity="1"><title>12:00 - 1h 0m total</title></circle>
<circle cx="431.30" cy="128.96" r="2.5" fill="#facc15" opacity="1"><title>13:00 - 4h 3m total</title></circle>
<circle cx="460.17" cy="102.24" r="2.5" fill="#facc15" opacity="1"><title>14:00 - 8h 5m total</title></circle>
<circle cx="489.04" cy="81.55" r="2.5" fill="#facc15" opacity="1"><title>15:00 - 11h 11m total</title></circle>
<circle cx="517.91" cy="72.00" r="4" fill="#facc15" opacity="1"><title>16:00 - 12h 37m total</title></circle>
<circle cx="546.78" cy="80.78" r="2.5" fill="#facc15" opacity="1"><title>17:00 - 11h 18m total</title></circle>
<circle cx="575.65" cy="84.37" r="2.5" fill="#facc15" opacity="1"><title>18:00 - 10h 46m total</title></circle>
<circle cx="604.52" cy="98.00" r="2.5" fill="#facc15" opacity="1"><title>19:00 - 8h 43m total</title></circle>
<circle cx="633.39" cy="88.14" r="2.5" fill="#facc15" opacity="1"><title>20:00 - 10h 12m total</title></circle>
<circle cx="662.26" cy="93.78" r="2.5" fill="#facc15" opacity="1"><title>21:00 - 9h 21m total</title></circle>
<circle cx="691.13" cy="114.14" r="2.5" fill="#facc15" opacity="1"><title>22:00 - 6h 17m total</title></circle>
<circle cx="720.00" cy="113.07" r="2.5" fill="#facc15" opacity="1"><title>23:00 - 6h 27m total</title></circle>
<text x="20" y="191" font-family="Consolas,monospace" font-size="11px" fill="#616e7f">24-hour distribution across 30 days; higher curve = more coding time in that hour</text>
</svg>