<svg xmlns="http://www.w3.org/2000/svg" font-family="Consolas,monospace" width="340" height="300" font-size="14px"><rect width="340" height="300" fill="#161b22" rx="12"/>
<text x="15" y="29" font-family="Consolas,monospace" font-size="14px" fill="#616e7f">- Editors  (last 30d) —————————-—-</text>
<path d="M 110.00 92.00 L 110.00 70.00 A 85 85 0 0 1 141.01 234.14 L 132.99 213.66 A 63 63 0 0 0 110.00 92.00 Z" fill="#58a6ff" stroke="#161b22" stroke-width="2"/>
<path d="M 132.99 213.66 L 141.01 234.14 A 85 85 0 0 1 26.12 141.24 L 47.83 144.80 A 63 63 0 0 0 132.99 213.66 Z" fill="#3fb950" stroke="#161b22" stroke-width="2"/>
<path d="M 47.83 144.80 L 26.12 141.24 A 85 85 0 0 1 86.84 73.21 L 92.84 94.38 A 63 63 0 0 0 47.83 144.80 Z" fill="#ffa657" stroke="#161b22" stroke-width="2"/>
<path d="M 92.84 94.38 L 86.84 73.21 A 85 85 0 0 1 98.58 70.77 L 101.54 92.57 A 63 63 0 0 0 92.84 94.38 Z" fill="#f85149" stroke="#161b22" stroke-width="2"/>
<path d="M 101.54 92.57 L 98.58 70.77 A 85 85 0 0 1 110.00 70.00 L 110.00 92.00 A 63 63 0 0 0 101.54 92.57 Z" fill="#d2a8ff" stroke="#161b22" stroke-width="2"/>
<text x="110" y="147" text-anchor="middle" font-family="Consolas,monospace" font-size="11px" fill="#616e7f">avg/day</text>
<text x="110" y="167" text-anchor="middle" font-family="Consolas,monospace" font-size="16px" font-weight="bold" fill="#58a6ff">3h 15m</text>
<rect x="210" y="50" width="10" height="10" fill="#58a6ff" rx="2"/>
<text x="226" y="60" font-family="Consolas,monospace" font-size="13px" fill="#c9d1d9">Claude Code</text>
<text x="226" y="73" font-family="Consolas,monospace" font-size="11px" fill="#616e7f">44.1%  63 hrs 10 mins</text>
<rect x="210" y="86" width="10" height="10" fill="#3fb950" rx="2"/>
<text x="226" y="96" font-family="Consolas,monospace" font-size="13px" fill="#c9d1d9">Neovim</text>
<text x="226" y="109" font-family="Consolas,monospace" font-size="11px" fill="#616e7f">33.5%  48 hrs 4 mins</text>
<rect x="210" y="122" width="10" height="10" fill="#ffa657" rx="2"/>
<text x="226" y="132" font-family="Consolas,monospace" font-size="13px" fill="#c9d1d9">VS Code</text>
<text x="226" y="145" font-family="Consolas,monospace" font-size="11px" fill="#616e7f">18.0%  25 hrs 50 mins</text>
<rect x="210" y="158" width="10" height="10" fill="#f85149" rx="2"/>
<text x="226" y="168" font-family="Consolas,monospace" font-size="13px" fill="#c9d1d9">Unknown Editor</text>
<text x="226" y="181" font-family="Consolas,monospace" font-size="11px" fill="#616e7f">2.2%  3 hrs 13 mins</text>
<rect x="210" y="194" width="10" height="10" fill="#d2a8ff" rx="2"/>
<text x="226" y="204" font-family="Consolas,monospace" font-size="13px" fill="#c9d1d9">Vim</text>
<text x="226" y="217" font-family="Consolas,monospace" font-size="11px" fill="#616e7f">2.1%  3 hrs 4 mins</text>
</svg>