<svg xmlns="http://www.w3.org/2000/svg" font-family="Consolas,monospace" width="760" height="205" font-size="14px"><rect width="760" height="205" fill="#161b22" rx="12"/>
<text x="20" y="34" font-family="Consolas,monospace" font-size="14px" fill="#616e7f">- Working Hours  (last 30d) ———————————————————————————————————————————-—-</text>
<text x="20" y="50" font-family="Consolas,monospace" font-size="12px" fill="#616e7f">total 142h 53m | peak 4h 15:00-19:00 | busiest 16:00 (12h 47m) | tz Asia/Ho_Chi_Minh</text>
<defs>
<linearGradient id="hourFill" x1="0" y1="0" x2="1" y2="0">
<stop offset="0%" stop-color="#1d4ed8"/>
<stop offset="45%" stop-color="#7c3aed"/>
<stop offset="75%" stop-color="#db2777"/>
<stop offset="100%" stop-color="#facc15"/>
</linearGradient>
<linearGradient id="hourFade" x1="0" y1="0" x2="1" y2="0">
<stop offset="0%" stop-color="#1d4ed8" stop-opacity="0.42"/>
<stop offset="28%" stop-color="#2563eb" stop-opacity="0.5"/>
<stop offset="50%" stop-color="#7c3aed" stop-opacity="0.58"/>
<stop offset="70%" stop-color="#db2777" stop-opacity="0.62"/>
<stop offset="86%" stop-color="#f97316" stop-opacity="0.58"/>
<stop offset="100%" stop-color="#facc15" stop-opacity="0.48"/>
</linearGradient>
</defs>
<line x1="56" y1="156" x2="720" y2="156" stroke="#616e7f" stroke-width="1" opacity="0.35"/>
<line x1="56.00" y1="72" x2="56.00" y2="156" stroke="#616e7f" stroke-width="1" opacity="0.16"/>
<text x="56.00" y="174" text-anchor="middle" font-family="Consolas,monospace" font-size="8px" fill="#616e7f">00</text>
<line x1="84.87" y1="72" x2="84.87" y2="156" stroke="#616e7f" stroke-width="1" opacity="0.07"/>
<text x="84.87" y="174" text-anchor="middle" font-family="Consolas,monospace" font-size="8px" fill="#616e7f">01</text>
<line x1="113.74" y1="72" x2="113.74" y2="156" stroke="#616e7f" stroke-width="1" opacity="0.07"/>
<text x="113.74" y="174" text-anchor="middle" font-family="Consolas,monospace" font-size="8px" fill="#616e7f">02</text>
<line x1="142.61" y1="72" x2="142.61" y2="156" stroke="#616e7f" stroke-width="1" opacity="0.16"/>
<text x="142.61" y="174" text-anchor="middle" font-family="Consolas,monospace" font-size="8px" fill="#616e7f">03</text>
<line x1="171.48" y1="72" x2="171.48" y2="156" stroke="#616e7f" stroke-width="1" opacity="0.07"/>
<text x="171.48" y="174" text-anchor="middle" font-family="Consolas,monospace" font-size="8px" fill="#616e7f">04</text>
<line x1="200.35" y1="72" x2="200.35" y2="156" stroke="#616e7f" stroke-width="1" opacity="0.07"/>
<text x="200.35" y="174" text-anchor="middle" font-family="Consolas,monospace" font-size="8px" fill="#616e7f">05</text>
<line x1="229.22" y1="72" x2="229.22" y2="156" stroke="#616e7f" stroke-width="1" opacity="0.16"/>
<text x="229.22" y="174" text-anchor="middle" font-family="Consolas,monospace" font-size="8px" fill="#616e7f">06</text>
<line x1="258.09" y1="72" x2="258.09" y2="156" stroke="#616e7f" stroke-width="1" opacity="0.07"/>
<text x="258.09" y="174" text-anchor="middle" font-family="Consolas,monospace" font-size="8px" fill="#616e7f">07</text>
<line x1="286.96" y1="72" x2="286.96" y2="156" stroke="#616e7f" stroke-width="1" opacity="0.07"/>
<text x="286.96" y="174" text-anchor="middle" font-family="Consolas,monospace" font-size="8px" fill="#616e7f">08</text>
<line x1="315.83" y1="72" x2="315.83" y2="156" stroke="#616e7f" stroke-width="1" opacity="0.16"/>
<text x="315.83" y="174" text-anchor="middle" font-family="Consolas,monospace" font-size="8px" fill="#616e7f">09</text>
<line x1="344.70" y1="72" x2="344.70" y2="156" stroke="#616e7f" stroke-width="1" opacity="0.07"/>
<text x="344.70" y="174" text-anchor="middle" font-family="Consolas,monospace" font-size="8px" fill="#616e7f">10</text>
<line x1="373.57" y1="72" x2="373.57" y2="156" stroke="#616e7f" stroke-width="1" opacity="0.07"/>
<text x="373.57" y="174" text-anchor="middle" font-family="Consolas,monospace" font-size="8px" fill="#616e7f">11</text>
<line x1="402.43" y1="72" x2="402.43" y2="156" stroke="#616e7f" stroke-width="1" opacity="0.16"/>
<text x="402.43" y="174" text-anchor="middle" font-family="Consolas,monospace" font-size="8px" fill="#616e7f">12</text>
<line x1="431.30" y1="72" x2="431.30" y2="156" stroke="#616e7f" stroke-width="1" opacity="0.07"/>
<text x="431.30" y="174" text-anchor="middle" font-family="Consolas,monospace" font-size="8px" fill="#616e7f">13</text>
<line x1="460.17" y1="72" x2="460.17" y2="156" stroke="#616e7f" stroke-width="1" opacity="0.07"/>
<text x="460.17" y="174" text-anchor="middle" font-family="Consolas,monospace" font-size="8px" fill="#616e7f">14</text>
<line x1="489.04" y1="72" x2="489.04" y2="156" stroke="#616e7f" stroke-width="1" opacity="0.16"/>
<text x="489.04" y="174" text-anchor="middle" font-family="Consolas,monospace" font-size="8px" fill="#616e7f">15</text>
<line x1="517.91" y1="72" x2="517.91" y2="156" stroke="#616e7f" stroke-width="1" opacity="0.07"/>
<text x="517.91" y="174" text-anchor="middle" font-family="Consolas,monospace" font-size="8px" fill="#616e7f">16</text>
<line x1="546.78" y1="72" x2="546.78" y2="156" stroke="#616e7f" stroke-width="1" opacity="0.07"/>
<text x="546.78" y="174" text-anchor="middle" font-family="Consolas,monospace" font-size="8px" fill="#616e7f">17</text>
<line x1="575.65" y1="72" x2="575.65" y2="156" stroke="#616e7f" stroke-width="1" opacity="0.16"/>
<text x="575.65" y="174" text-anchor="middle" font-family="Consolas,monospace" font-size="8px" fill="#616e7f">18</text>
<line x1="604.52" y1="72" x2="604.52" y2="156" stroke="#616e7f" stroke-width="1" opacity="0.07"/>
<text x="604.52" y="174" text-anchor="middle" font-family="Consolas,monospace" font-size="8px" fill="#616e7f">19</text>
<line x1="633.39" y1="72" x2="633.39" y2="156" stroke="#616e7f" stroke-width="1" opacity="0.07"/>
<text x="633.39" y="174" text-anchor="middle" font-family="Consolas,monospace" font-size="8px" fill="#616e7f">20</text>
<line x1="662.26" y1="72" x2="662.26" y2="156" stroke="#616e7f" stroke-width="1" opacity="0.16"/>
<text x="662.26" y="174" text-anchor="middle" font-family="Consolas,monospace" font-size="8px" fill="#616e7f">21</text>
<line x1="691.13" y1="72" x2="691.13" y2="156" stroke="#616e7f" stroke-width="1" opacity="0.07"/>
<text x="691.13" y="174" text-anchor="middle" font-family="Consolas,monospace" font-size="8px" fill="#616e7f">22</text>
<line x1="720.00" y1="72" x2="720.00" y2="156" stroke="#616e7f" stroke-width="1" opacity="0.07"/>
<text x="720.00" y="174" text-anchor="middle" font-family="Consolas,monospace" font-size="8px" fill="#616e7f">23</text>
<path d="M 56.00 101.05 C 60.81 100.91, 75.25 100.59, 84.87 100.24 C 94.49 99.90, 104.12 96.01, 113.74 98.98 C 123.36 101.94, 132.99 111.20, 142.61 118.03 C 152.23 124.87, 161.86 136.03, 171.48 139.99 C 181.10 143.95, 190.72 140.70, 200.35 141.82 C 209.97 142.94, 219.59 145.37, 229.22 146.70 C 238.84 148.02, 248.46 148.66, 258.09 149.78 C 267.71 150.89, 277.33 152.40, 286.96 153.39 C 296.58 154.38, 306.20 155.81, 315.83 155.71 C 325.45 155.61, 335.07 153.73, 344.70 152.79 C 354.32 151.85, 363.94 150.67, 373.57 150.09 C 383.19 149.51, 392.81 152.79, 402.43 149.32 C 412.06 145.86, 421.68 136.34, 431.30 129.29 C 440.93 122.23, 450.55 114.51, 460.17 106.98 C 469.80 99.45, 479.42 89.93, 489.04 84.10 C 498.67 78.27, 508.29 72.69, 517.91 72.00 C 527.54 71.31, 537.16 77.74, 546.78 79.95 C 556.41 82.15, 566.03 82.11, 575.65 85.23 C 585.28 88.36, 594.90 98.21, 604.52 98.70 C 614.14 99.19, 623.77 89.97, 633.39 88.18 C 643.01 86.39, 652.64 84.65, 662.26 87.96 C 671.88 91.28, 681.51 104.90, 691.13 108.08 C 700.75 111.25, 715.19 107.20, 720.00 107.03 L 720.00 156.00 L 56.00 156.00 Z" fill="url(#hourFade)"/>
<path d="M 56.00 101.05 C 60.81 100.91, 75.25 100.59, 84.87 100.24 C 94.49 99.90, 104.12 96.01, 113.74 98.98 C 123.36 101.94, 132.99 111.20, 142.61 118.03 C 152.23 124.87, 161.86 136.03, 171.48 139.99 C 181.10 143.95, 190.72 140.70, 200.35 141.82 C 209.97 142.94, 219.59 145.37, 229.22 146.70 C 238.84 148.02, 248.46 148.66, 258.09 149.78 C 267.71 150.89, 277.33 152.40, 286.96 153.39 C 296.58 154.38, 306.20 155.81, 315.83 155.71 C 325.45 155.61, 335.07 153.73, 344.70 152.79 C 354.32 151.85, 363.94 150.67, 373.57 150.09 C 383.19 149.51, 392.81 152.79, 402.43 149.32 C 412.06 145.86, 421.68 136.34, 431.30 129.29 C 440.93 122.23, 450.55 114.51, 460.17 106.98 C 469.80 99.45, 479.42 89.93, 489.04 84.10 C 498.67 78.27, 508.29 72.69, 517.91 72.00 C 527.54 71.31, 537.16 77.74, 546.78 79.95 C 556.41 82.15, 566.03 82.11, 575.65 85.23 C 585.28 88.36, 594.90 98.21, 604.52 98.70 C 614.14 99.19, 623.77 89.97, 633.39 88.18 C 643.01 86.39, 652.64 84.65, 662.26 87.96 C 671.88 91.28, 681.51 104.90, 691.13 108.08 C 700.75 111.25, 715.19 107.20, 720.00 107.03" fill="none" stroke="url(#hourFill)" stroke-width="4" stroke-linecap="round"/>
<circle cx="56.00" cy="101.05" r="2.5" fill="#facc15" opacity="1"><title>00:00 - 8h 21m total</title></circle>
<circle cx="84.87" cy="100.24" r="2.5" fill="#facc15" opacity="1"><title>01:00 - 8h 29m total</title></circle>
<circle cx="113.74" cy="98.98" r="2.5" fill="#facc15" opacity="1"><title>02:00 - 8h 40m total</title></circle>
<circle cx="142.61" cy="118.03" r="2.5" fill="#facc15" opacity="1"><title>03:00 - 5h 46m total</title></circle>
<circle cx="171.48" cy="139.99" r="2.5" fill="#facc15" opacity="1"><title>04:00 - 2h 26m total</title></circle>
<circle cx="200.35" cy="141.82" r="2.5" fill="#facc15" opacity="1"><title>05:00 - 2h 9m total</title></circle>
<circle cx="229.22" cy="146.70" r="2.5" fill="#facc15" opacity="1"><title>06:00 - 1h 24m total</title></circle>
<circle cx="258.09" cy="149.78" r="2.5" fill="#facc15" opacity="1"><title>07:00 - 56m total</title></circle>
<circle cx="286.96" cy="153.39" r="2.5" fill="#facc15" opacity="1"><title>08:00 - 23m total</title></circle>
<circle cx="315.83" cy="155.71" r="2.5" fill="#facc15" opacity="1"><title>09:00 - 2m total</title></circle>
<circle cx="344.70" cy="152.79" r="2.5" fill="#facc15" opacity="1"><title>10:00 - 29m total</title></circle>
<circle cx="373.57" cy="150.09" r="2.5" fill="#facc15" opacity="1"><title>11:00 - 53m total</title></circle>
<circle cx="402.43" cy="149.32" r="2.5" fill="#facc15" opacity="1"><title>12:00 - 1h 0m total</title></circle>
<circle cx="431.30" cy="129.29" r="2.5" fill="#facc15" opacity="1"><title>13:00 - 4h 3m total</title></circle>
<circle cx="460.17" cy="106.98" r="2.5" fill="#facc15" opacity="1"><title>14:00 - 7h 27m total</title></circle>
<circle cx="489.04" cy="84.10" r="2.5" fill="#facc15" opacity="1"><title>15:00 - 10h 56m total</title></circle>
<circle cx="517.91" cy="72.00" r="4" fill="#facc15" opacity="1"><title>16:00 - 12h 47m total</title></circle>
<circle cx="546.78" cy="79.95" r="2.5" fill="#facc15" opacity="1"><title>17:00 - 11h 34m total</title></circle>
<circle cx="575.65" cy="85.23" r="2.5" fill="#facc15" opacity="1"><title>18:00 - 10h 46m total</title></circle>
<circle cx="604.52" cy="98.70" r="2.5" fill="#facc15" opacity="1"><title>19:00 - 8h 43m total</title></circle>
<circle cx="633.39" cy="88.18" r="2.5" fill="#facc15" opacity="1"><title>20:00 - 10h 19m total</title></circle>
<circle cx="662.26" cy="87.96" r="2.5" fill="#facc15" opacity="1"><title>21:00 - 10h 21m total</title></circle>
<circle cx="691.13" cy="108.08" r="2.5" fill="#facc15" opacity="1"><title>22:00 - 7h 17m total</title></circle>
<circle cx="720.00" cy="107.03" r="2.5" fill="#facc15" opacity="1"><title>23:00 - 7h 27m total</title></circle>
<text x="20" y="191" font-family="Consolas,monospace" font-size="11px" fill="#616e7f">24-hour distribution across 30 days; higher curve = more coding time in that hour</text>
</svg>