<svg xmlns="http://www.w3.org/2000/svg" font-family="Consolas,monospace" width="760" height="205" font-size="14px"><rect width="760" height="205" fill="#161b22" rx="12"/>
<text x="20" y="34" font-family="Consolas,monospace" font-size="14px" fill="#616e7f">- Working Hours  (last 30d) ———————————————————————————————————————————-—-</text>
<text x="20" y="50" font-family="Consolas,monospace" font-size="12px" fill="#616e7f">total 133h 10m | peak 4h 23:00-03:00 | busiest 00:00 (11h 48m) | tz Asia/Ho_Chi_Minh</text>
<defs>
<linearGradient id="hourFill" x1="0" y1="0" x2="1" y2="0">
<stop offset="0%" stop-color="#1d4ed8"/>
<stop offset="45%" stop-color="#7c3aed"/>
<stop offset="75%" stop-color="#db2777"/>
<stop offset="100%" stop-color="#facc15"/>
</linearGradient>
<linearGradient id="hourFade" x1="0" y1="0" x2="1" y2="0">
<stop offset="0%" stop-color="#1d4ed8" stop-opacity="0.42"/>
<stop offset="28%" stop-color="#2563eb" stop-opacity="0.5"/>
<stop offset="50%" stop-color="#7c3aed" stop-opacity="0.58"/>
<stop offset="70%" stop-color="#db2777" stop-opacity="0.62"/>
<stop offset="86%" stop-color="#f97316" stop-opacity="0.58"/>
<stop offset="100%" stop-color="#facc15" stop-opacity="0.48"/>
</linearGradient>
</defs>
<line x1="56" y1="156" x2="720" y2="156" stroke="#616e7f" stroke-width="1" opacity="0.35"/>
<line x1="56.00" y1="72" x2="56.00" y2="156" stroke="#616e7f" stroke-width="1" opacity="0.16"/>
<text x="56.00" y="174" text-anchor="middle" font-family="Consolas,monospace" font-size="8px" fill="#616e7f">00</text>
<line x1="84.87" y1="72" x2="84.87" y2="156" stroke="#616e7f" stroke-width="1" opacity="0.07"/>
<text x="84.87" y="174" text-anchor="middle" font-family="Consolas,monospace" font-size="8px" fill="#616e7f">01</text>
<line x1="113.74" y1="72" x2="113.74" y2="156" stroke="#616e7f" stroke-width="1" opacity="0.07"/>
<text x="113.74" y="174" text-anchor="middle" font-family="Consolas,monospace" font-size="8px" fill="#616e7f">02</text>
<line x1="142.61" y1="72" x2="142.61" y2="156" stroke="#616e7f" stroke-width="1" opacity="0.16"/>
<text x="142.61" y="174" text-anchor="middle" font-family="Consolas,monospace" font-size="8px" fill="#616e7f">03</text>
<line x1="171.48" y1="72" x2="171.48" y2="156" stroke="#616e7f" stroke-width="1" opacity="0.07"/>
<text x="171.48" y="174" text-anchor="middle" font-family="Consolas,monospace" font-size="8px" fill="#616e7f">04</text>
<line x1="200.35" y1="72" x2="200.35" y2="156" stroke="#616e7f" stroke-width="1" opacity="0.07"/>
<text x="200.35" y="174" text-anchor="middle" font-family="Consolas,monospace" font-size="8px" fill="#616e7f">05</text>
<line x1="229.22" y1="72" x2="229.22" y2="156" stroke="#616e7f" stroke-width="1" opacity="0.16"/>
<text x="229.22" y="174" text-anchor="middle" font-family="Consolas,monospace" font-size="8px" fill="#616e7f">06</text>
<line x1="258.09" y1="72" x2="258.09" y2="156" stroke="#616e7f" stroke-width="1" opacity="0.07"/>
<text x="258.09" y="174" text-anchor="middle" font-family="Consolas,monospace" font-size="8px" fill="#616e7f">07</text>
<line x1="286.96" y1="72" x2="286.96" y2="156" stroke="#616e7f" stroke-width="1" opacity="0.07"/>
<text x="286.96" y="174" text-anchor="middle" font-family="Consolas,monospace" font-size="8px" fill="#616e7f">08</text>
<line x1="315.83" y1="72" x2="315.83" y2="156" stroke="#616e7f" stroke-width="1" opacity="0.16"/>
<text x="315.83" y="174" text-anchor="middle" font-family="Consolas,monospace" font-size="8px" fill="#616e7f">09</text>
<line x1="344.70" y1="72" x2="344.70" y2="156" stroke="#616e7f" stroke-width="1" opacity="0.07"/>
<text x="344.70" y="174" text-anchor="middle" font-family="Consolas,monospace" font-size="8px" fill="#616e7f">10</text>
<line x1="373.57" y1="72" x2="373.57" y2="156" stroke="#616e7f" stroke-width="1" opacity="0.07"/>
<text x="373.57" y="174" text-anchor="middle" font-family="Consolas,monospace" font-size="8px" fill="#616e7f">11</text>
<line x1="402.43" y1="72" x2="402.43" y2="156" stroke="#616e7f" stroke-width="1" opacity="0.16"/>
<text x="402.43" y="174" text-anchor="middle" font-family="Consolas,monospace" font-size="8px" fill="#616e7f">12</text>
<line x1="431.30" y1="72" x2="431.30" y2="156" stroke="#616e7f" stroke-width="1" opacity="0.07"/>
<text x="431.30" y="174" text-anchor="middle" font-family="Consolas,monospace" font-size="8px" fill="#616e7f">13</text>
<line x1="460.17" y1="72" x2="460.17" y2="156" stroke="#616e7f" stroke-width="1" opacity="0.07"/>
<text x="460.17" y="174" text-anchor="middle" font-family="Consolas,monospace" font-size="8px" fill="#616e7f">14</text>
<line x1="489.04" y1="72" x2="489.04" y2="156" stroke="#616e7f" stroke-width="1" opacity="0.16"/>
<text x="489.04" y="174" text-anchor="middle" font-family="Consolas,monospace" font-size="8px" fill="#616e7f">15</text>
<line x1="517.91" y1="72" x2="517.91" y2="156" stroke="#616e7f" stroke-width="1" opacity="0.07"/>
<text x="517.91" y="174" text-anchor="middle" font-family="Consolas,monospace" font-size="8px" fill="#616e7f">16</text>
<line x1="546.78" y1="72" x2="546.78" y2="156" stroke="#616e7f" stroke-width="1" opacity="0.07"/>
<text x="546.78" y="174" text-anchor="middle" font-family="Consolas,monospace" font-size="8px" fill="#616e7f">17</text>
<line x1="575.65" y1="72" x2="575.65" y2="156" stroke="#616e7f" stroke-width="1" opacity="0.16"/>
<text x="575.65" y="174" text-anchor="middle" font-family="Consolas,monospace" font-size="8px" fill="#616e7f">18</text>
<line x1="604.52" y1="72" x2="604.52" y2="156" stroke="#616e7f" stroke-width="1" opacity="0.07"/>
<text x="604.52" y="174" text-anchor="middle" font-family="Consolas,monospace" font-size="8px" fill="#616e7f">19</text>
<line x1="633.39" y1="72" x2="633.39" y2="156" stroke="#616e7f" stroke-width="1" opacity="0.07"/>
<text x="633.39" y="174" text-anchor="middle" font-family="Consolas,monospace" font-size="8px" fill="#616e7f">20</text>
<line x1="662.26" y1="72" x2="662.26" y2="156" stroke="#616e7f" stroke-width="1" opacity="0.16"/>
<text x="662.26" y="174" text-anchor="middle" font-family="Consolas,monospace" font-size="8px" fill="#616e7f">21</text>
<line x1="691.13" y1="72" x2="691.13" y2="156" stroke="#616e7f" stroke-width="1" opacity="0.07"/>
<text x="691.13" y="174" text-anchor="middle" font-family="Consolas,monospace" font-size="8px" fill="#616e7f">22</text>
<line x1="720.00" y1="72" x2="720.00" y2="156" stroke="#616e7f" stroke-width="1" opacity="0.07"/>
<text x="720.00" y="174" text-anchor="middle" font-family="Consolas,monospace" font-size="8px" fill="#616e7f">23</text>
<path d="M 56.00 72.00 C 60.81 74.57, 75.25 82.29, 84.87 87.43 C 94.49 92.58, 104.12 98.93, 113.74 102.87 C 123.36 106.80, 132.99 104.97, 142.61 111.03 C 152.23 117.10, 161.86 133.95, 171.48 139.28 C 181.10 144.60, 190.72 140.56, 200.35 142.99 C 209.97 145.41, 219.59 152.85, 229.22 153.84 C 238.84 154.82, 248.46 150.03, 258.09 148.89 C 267.71 147.74, 277.33 147.89, 286.96 146.98 C 296.58 146.06, 306.20 144.65, 315.83 143.38 C 325.45 142.11, 335.07 138.76, 344.70 139.36 C 354.32 139.95, 363.94 144.95, 373.57 146.95 C 383.19 148.95, 392.81 153.03, 402.43 151.34 C 412.06 149.65, 421.68 143.08, 431.30 136.81 C 440.93 130.53, 450.55 121.50, 460.17 113.70 C 469.80 105.89, 479.42 96.27, 489.04 89.98 C 498.67 83.69, 508.29 75.39, 517.91 75.97 C 527.54 76.55, 537.16 89.54, 546.78 93.45 C 556.41 97.35, 566.03 98.44, 575.65 99.38 C 585.28 100.32, 594.90 99.42, 604.52 99.12 C 614.14 98.81, 623.77 96.65, 633.39 97.57 C 643.01 98.50, 652.64 102.28, 662.26 104.66 C 671.88 107.04, 681.51 114.65, 691.13 111.86 C 700.75 109.07, 715.19 91.93, 720.00 87.95 L 720.00 156.00 L 56.00 156.00 Z" fill="url(#hourFade)"/>
<path d="M 56.00 72.00 C 60.81 74.57, 75.25 82.29, 84.87 87.43 C 94.49 92.58, 104.12 98.93, 113.74 102.87 C 123.36 106.80, 132.99 104.97, 142.61 111.03 C 152.23 117.10, 161.86 133.95, 171.48 139.28 C 181.10 144.60, 190.72 140.56, 200.35 142.99 C 209.97 145.41, 219.59 152.85, 229.22 153.84 C 238.84 154.82, 248.46 150.03, 258.09 148.89 C 267.71 147.74, 277.33 147.89, 286.96 146.98 C 296.58 146.06, 306.20 144.65, 315.83 143.38 C 325.45 142.11, 335.07 138.76, 344.70 139.36 C 354.32 139.95, 363.94 144.95, 373.57 146.95 C 383.19 148.95, 392.81 153.03, 402.43 151.34 C 412.06 149.65, 421.68 143.08, 431.30 136.81 C 440.93 130.53, 450.55 121.50, 460.17 113.70 C 469.80 105.89, 479.42 96.27, 489.04 89.98 C 498.67 83.69, 508.29 75.39, 517.91 75.97 C 527.54 76.55, 537.16 89.54, 546.78 93.45 C 556.41 97.35, 566.03 98.44, 575.65 99.38 C 585.28 100.32, 594.90 99.42, 604.52 99.12 C 614.14 98.81, 623.77 96.65, 633.39 97.57 C 643.01 98.50, 652.64 102.28, 662.26 104.66 C 671.88 107.04, 681.51 114.65, 691.13 111.86 C 700.75 109.07, 715.19 91.93, 720.00 87.95" fill="none" stroke="url(#hourFill)" stroke-width="4" stroke-linecap="round"/>
<circle cx="56.00" cy="72.00" r="4" fill="#facc15" opacity="1"><title>00:00 - 11h 48m total</title></circle>
<circle cx="84.87" cy="87.43" r="2.5" fill="#facc15" opacity="1"><title>01:00 - 9h 38m total</title></circle>
<circle cx="113.74" cy="102.87" r="2.5" fill="#facc15" opacity="1"><title>02:00 - 7h 28m total</title></circle>
<circle cx="142.61" cy="111.03" r="2.5" fill="#facc15" opacity="1"><title>03:00 - 6h 19m total</title></circle>
<circle cx="171.48" cy="139.28" r="2.5" fill="#facc15" opacity="1"><title>04:00 - 2h 21m total</title></circle>
<circle cx="200.35" cy="142.99" r="2.5" fill="#facc15" opacity="1"><title>05:00 - 1h 49m total</title></circle>
<circle cx="229.22" cy="153.84" r="2.5" fill="#facc15" opacity="1"><title>06:00 - 18m total</title></circle>
<circle cx="258.09" cy="148.89" r="2.5" fill="#facc15" opacity="1"><title>07:00 - 1h 0m total</title></circle>
<circle cx="286.96" cy="146.98" r="2.5" fill="#facc15" opacity="1"><title>08:00 - 1h 16m total</title></circle>
<circle cx="315.83" cy="143.38" r="2.5" fill="#facc15" opacity="1"><title>09:00 - 1h 46m total</title></circle>
<circle cx="344.70" cy="139.36" r="2.5" fill="#facc15" opacity="1"><title>10:00 - 2h 20m total</title></circle>
<circle cx="373.57" cy="146.95" r="2.5" fill="#facc15" opacity="1"><title>11:00 - 1h 16m total</title></circle>
<circle cx="402.43" cy="151.34" r="2.5" fill="#facc15" opacity="1"><title>12:00 - 39m total</title></circle>
<circle cx="431.30" cy="136.81" r="2.5" fill="#facc15" opacity="1"><title>13:00 - 2h 41m total</title></circle>
<circle cx="460.17" cy="113.70" r="2.5" fill="#facc15" opacity="1"><title>14:00 - 5h 56m total</title></circle>
<circle cx="489.04" cy="89.98" r="2.5" fill="#facc15" opacity="1"><title>15:00 - 9h 16m total</title></circle>
<circle cx="517.91" cy="75.97" r="2.5" fill="#facc15" opacity="1"><title>16:00 - 11h 15m total</title></circle>
<circle cx="546.78" cy="93.45" r="2.5" fill="#facc15" opacity="1"><title>17:00 - 8h 47m total</title></circle>
<circle cx="575.65" cy="99.38" r="2.5" fill="#facc15" opacity="1"><title>18:00 - 7h 57m total</title></circle>
<circle cx="604.52" cy="99.12" r="2.5" fill="#facc15" opacity="1"><title>19:00 - 7h 59m total</title></circle>
<circle cx="633.39" cy="97.57" r="2.5" fill="#facc15" opacity="1"><title>20:00 - 8h 12m total</title></circle>
<circle cx="662.26" cy="104.66" r="2.5" fill="#facc15" opacity="1"><title>21:00 - 7h 13m total</title></circle>
<circle cx="691.13" cy="111.86" r="2.5" fill="#facc15" opacity="1"><title>22:00 - 6h 12m total</title></circle>
<circle cx="720.00" cy="87.95" r="2.5" fill="#facc15" opacity="1"><title>23:00 - 9h 34m total</title></circle>
<text x="20" y="191" font-family="Consolas,monospace" font-size="11px" fill="#616e7f">24-hour distribution across 30 days; higher curve = more coding time in that hour</text>
</svg>