<svg xmlns="http://www.w3.org/2000/svg" font-family="Consolas,monospace" width="760" height="260" font-size="14px"><rect width="760" height="260" fill="#161b22" rx="12"/>
<text x="20" y="34" font-family="Consolas,monospace" font-size="14px" fill="#616e7f">- Daily Activity  (last 30d) ——————————————————————————————————————————-—-</text>
<rect x="20" y="164" width="21" height="56" fill="#58a6ff" rx="2" opacity="0.85"/>
<text x="30" y="238" text-anchor="middle" font-family="Consolas,monospace" font-size="11px" fill="#616e7f">04/17</text>
<text x="30" y="160" text-anchor="middle" font-family="Consolas,monospace" font-size="10px" fill="#c9d1d9">3h 55m</text>
<rect x="44" y="184" width="21" height="36" fill="#58a6ff" rx="2" opacity="0.85"/>
<rect x="68" y="149" width="21" height="71" fill="#58a6ff" rx="2" opacity="0.85"/>
<text x="78" y="145" text-anchor="middle" font-family="Consolas,monospace" font-size="10px" fill="#c9d1d9">4h 57m</text>
<rect x="92" y="204" width="21" height="16" fill="#58a6ff" rx="2" opacity="0.85"/>
<rect x="116" y="127" width="21" height="93" fill="#58a6ff" rx="2" opacity="0.85"/>
<text x="126" y="123" text-anchor="middle" font-family="Consolas,monospace" font-size="10px" fill="#c9d1d9">6h 27m</text>
<rect x="140" y="167" width="21" height="53" fill="#58a6ff" rx="2" opacity="0.85"/>
<text x="150" y="238" text-anchor="middle" font-family="Consolas,monospace" font-size="11px" fill="#616e7f">04/22</text>
<rect x="164" y="186" width="21" height="34" fill="#58a6ff" rx="2" opacity="0.85"/>
<rect x="188" y="193" width="21" height="27" fill="#58a6ff" rx="2" opacity="0.85"/>
<rect x="212" y="151" width="21" height="69" fill="#58a6ff" rx="2" opacity="0.85"/>
<text x="222" y="147" text-anchor="middle" font-family="Consolas,monospace" font-size="10px" fill="#c9d1d9">4h 48m</text>
<rect x="236" y="182" width="21" height="38" fill="#58a6ff" rx="2" opacity="0.85"/>
<rect x="260" y="195" width="21" height="25" fill="#58a6ff" rx="2" opacity="0.85"/>
<text x="270" y="238" text-anchor="middle" font-family="Consolas,monospace" font-size="11px" fill="#616e7f">04/27</text>
<rect x="284" y="76" width="21" height="144" fill="#58a6ff" rx="2" opacity="0.85"/>
<text x="294" y="72" text-anchor="middle" font-family="Consolas,monospace" font-size="10px" fill="#c9d1d9">10h 2m</text>
<rect x="308" y="119" width="21" height="101" fill="#58a6ff" rx="2" opacity="0.85"/>
<text x="318" y="115" text-anchor="middle" font-family="Consolas,monospace" font-size="10px" fill="#c9d1d9">7h 3m</text>
<rect x="332" y="184" width="21" height="36" fill="#58a6ff" rx="2" opacity="0.85"/>
<rect x="356" y="70" width="21" height="150" fill="#58a6ff" rx="2" opacity="0.85"/>
<text x="366" y="66" text-anchor="middle" font-family="Consolas,monospace" font-size="10px" fill="#c9d1d9">10h 25m</text>
<rect x="380" y="141" width="21" height="79" fill="#58a6ff" rx="2" opacity="0.85"/>
<text x="390" y="238" text-anchor="middle" font-family="Consolas,monospace" font-size="11px" fill="#616e7f">05/02</text>
<text x="390" y="137" text-anchor="middle" font-family="Consolas,monospace" font-size="10px" fill="#c9d1d9">5h 33m</text>
<rect x="404" y="172" width="21" height="48" fill="#58a6ff" rx="2" opacity="0.85"/>
<rect x="428" y="187" width="21" height="33" fill="#58a6ff" rx="2" opacity="0.85"/>
<rect x="452" y="97" width="21" height="123" fill="#58a6ff" rx="2" opacity="0.85"/>
<text x="462" y="93" text-anchor="middle" font-family="Consolas,monospace" font-size="10px" fill="#c9d1d9">8h 33m</text>
<rect x="476" y="108" width="21" height="112" fill="#58a6ff" rx="2" opacity="0.85"/>
<text x="486" y="104" text-anchor="middle" font-family="Consolas,monospace" font-size="10px" fill="#c9d1d9">7h 50m</text>
<rect x="500" y="193" width="21" height="27" fill="#58a6ff" rx="2" opacity="0.85"/>
<text x="510" y="238" text-anchor="middle" font-family="Consolas,monospace" font-size="11px" fill="#616e7f">05/07</text>
<rect x="524" y="175" width="21" height="45" fill="#58a6ff" rx="2" opacity="0.85"/>
<rect x="548" y="206" width="21" height="14" fill="#58a6ff" rx="2" opacity="0.85"/>
<rect x="572" y="205" width="21" height="15" fill="#58a6ff" rx="2" opacity="0.85"/>
<rect x="596" y="122" width="21" height="98" fill="#58a6ff" rx="2" opacity="0.85"/>
<text x="606" y="118" text-anchor="middle" font-family="Consolas,monospace" font-size="10px" fill="#c9d1d9">6h 48m</text>
<rect x="620" y="75" width="21" height="145" fill="#58a6ff" rx="2" opacity="0.85"/>
<text x="630" y="238" text-anchor="middle" font-family="Consolas,monospace" font-size="11px" fill="#616e7f">05/12</text>
<text x="630" y="71" text-anchor="middle" font-family="Consolas,monospace" font-size="10px" fill="#c9d1d9">10h 6m</text>
<rect x="644" y="115" width="21" height="105" fill="#58a6ff" rx="2" opacity="0.85"/>
<text x="654" y="111" text-anchor="middle" font-family="Consolas,monospace" font-size="10px" fill="#c9d1d9">7h 17m</text>
<rect x="668" y="166" width="21" height="54" fill="#58a6ff" rx="2" opacity="0.85"/>
<rect x="692" y="60" width="21" height="160" fill="#58a6ff" rx="2" opacity="0.85"/>
<text x="702" y="56" text-anchor="middle" font-family="Consolas,monospace" font-size="10px" fill="#c9d1d9">11h 6m</text>
<rect x="716" y="217" width="21" height="3" fill="#58a6ff" rx="2" opacity="0.85"/>
<text x="726" y="238" text-anchor="middle" font-family="Consolas,monospace" font-size="11px" fill="#616e7f">05/16</text>
<line x1="20" y1="153" x2="740" y2="153" stroke="#f85149" stroke-width="1" stroke-dasharray="4,3" opacity="0.7"/>
<text x="738" y="149" text-anchor="end" font-family="Consolas,monospace" font-size="10px" fill="#f85149">avg 4h 40m</text>
</svg>