<svg xmlns="http://www.w3.org/2000/svg" font-family="Consolas,monospace" width="760" height="205" font-size="14px"><rect width="760" height="205" fill="#161b22" rx="12"/>
<text x="20" y="34" font-family="Consolas,monospace" font-size="14px" fill="#616e7f">- Working Hours  (last 30d) ———————————————————————————————————————————-—-</text>
<text x="20" y="50" font-family="Consolas,monospace" font-size="12px" fill="#616e7f">total 74h 27m | peak 4h 16:00-20:00 | busiest 17:00 (7h 56m) | tz Asia/Ho_Chi_Minh</text>
<defs>
<linearGradient id="hourFill" x1="0" y1="0" x2="1" y2="0">
<stop offset="0%" stop-color="#1d4ed8"/>
<stop offset="45%" stop-color="#7c3aed"/>
<stop offset="75%" stop-color="#db2777"/>
<stop offset="100%" stop-color="#facc15"/>
</linearGradient>
<linearGradient id="hourFade" x1="0" y1="0" x2="1" y2="0">
<stop offset="0%" stop-color="#1d4ed8" stop-opacity="0.42"/>
<stop offset="28%" stop-color="#2563eb" stop-opacity="0.5"/>
<stop offset="50%" stop-color="#7c3aed" stop-opacity="0.58"/>
<stop offset="70%" stop-color="#db2777" stop-opacity="0.62"/>
<stop offset="86%" stop-color="#f97316" stop-opacity="0.58"/>
<stop offset="100%" stop-color="#facc15" stop-opacity="0.48"/>
</linearGradient>
</defs>
<line x1="56" y1="156" x2="720" y2="156" stroke="#616e7f" stroke-width="1" opacity="0.35"/>
<line x1="56.00" y1="72" x2="56.00" y2="156" stroke="#616e7f" stroke-width="1" opacity="0.16"/>
<text x="56.00" y="174" text-anchor="middle" font-family="Consolas,monospace" font-size="8px" fill="#616e7f">00</text>
<line x1="84.87" y1="72" x2="84.87" y2="156" stroke="#616e7f" stroke-width="1" opacity="0.07"/>
<text x="84.87" y="174" text-anchor="middle" font-family="Consolas,monospace" font-size="8px" fill="#616e7f">01</text>
<line x1="113.74" y1="72" x2="113.74" y2="156" stroke="#616e7f" stroke-width="1" opacity="0.07"/>
<text x="113.74" y="174" text-anchor="middle" font-family="Consolas,monospace" font-size="8px" fill="#616e7f">02</text>
<line x1="142.61" y1="72" x2="142.61" y2="156" stroke="#616e7f" stroke-width="1" opacity="0.16"/>
<text x="142.61" y="174" text-anchor="middle" font-family="Consolas,monospace" font-size="8px" fill="#616e7f">03</text>
<line x1="171.48" y1="72" x2="171.48" y2="156" stroke="#616e7f" stroke-width="1" opacity="0.07"/>
<text x="171.48" y="174" text-anchor="middle" font-family="Consolas,monospace" font-size="8px" fill="#616e7f">04</text>
<line x1="200.35" y1="72" x2="200.35" y2="156" stroke="#616e7f" stroke-width="1" opacity="0.07"/>
<text x="200.35" y="174" text-anchor="middle" font-family="Consolas,monospace" font-size="8px" fill="#616e7f">05</text>
<line x1="229.22" y1="72" x2="229.22" y2="156" stroke="#616e7f" stroke-width="1" opacity="0.16"/>
<text x="229.22" y="174" text-anchor="middle" font-family="Consolas,monospace" font-size="8px" fill="#616e7f">06</text>
<line x1="258.09" y1="72" x2="258.09" y2="156" stroke="#616e7f" stroke-width="1" opacity="0.07"/>
<text x="258.09" y="174" text-anchor="middle" font-family="Consolas,monospace" font-size="8px" fill="#616e7f">07</text>
<line x1="286.96" y1="72" x2="286.96" y2="156" stroke="#616e7f" stroke-width="1" opacity="0.07"/>
<text x="286.96" y="174" text-anchor="middle" font-family="Consolas,monospace" font-size="8px" fill="#616e7f">08</text>
<line x1="315.83" y1="72" x2="315.83" y2="156" stroke="#616e7f" stroke-width="1" opacity="0.16"/>
<text x="315.83" y="174" text-anchor="middle" font-family="Consolas,monospace" font-size="8px" fill="#616e7f">09</text>
<line x1="344.70" y1="72" x2="344.70" y2="156" stroke="#616e7f" stroke-width="1" opacity="0.07"/>
<text x="344.70" y="174" text-anchor="middle" font-family="Consolas,monospace" font-size="8px" fill="#616e7f">10</text>
<line x1="373.57" y1="72" x2="373.57" y2="156" stroke="#616e7f" stroke-width="1" opacity="0.07"/>
<text x="373.57" y="174" text-anchor="middle" font-family="Consolas,monospace" font-size="8px" fill="#616e7f">11</text>
<line x1="402.43" y1="72" x2="402.43" y2="156" stroke="#616e7f" stroke-width="1" opacity="0.16"/>
<text x="402.43" y="174" text-anchor="middle" font-family="Consolas,monospace" font-size="8px" fill="#616e7f">12</text>
<line x1="431.30" y1="72" x2="431.30" y2="156" stroke="#616e7f" stroke-width="1" opacity="0.07"/>
<text x="431.30" y="174" text-anchor="middle" font-family="Consolas,monospace" font-size="8px" fill="#616e7f">13</text>
<line x1="460.17" y1="72" x2="460.17" y2="156" stroke="#616e7f" stroke-width="1" opacity="0.07"/>
<text x="460.17" y="174" text-anchor="middle" font-family="Consolas,monospace" font-size="8px" fill="#616e7f">14</text>
<line x1="489.04" y1="72" x2="489.04" y2="156" stroke="#616e7f" stroke-width="1" opacity="0.16"/>
<text x="489.04" y="174" text-anchor="middle" font-family="Consolas,monospace" font-size="8px" fill="#616e7f">15</text>
<line x1="517.91" y1="72" x2="517.91" y2="156" stroke="#616e7f" stroke-width="1" opacity="0.07"/>
<text x="517.91" y="174" text-anchor="middle" font-family="Consolas,monospace" font-size="8px" fill="#616e7f">16</text>
<line x1="546.78" y1="72" x2="546.78" y2="156" stroke="#616e7f" stroke-width="1" opacity="0.07"/>
<text x="546.78" y="174" text-anchor="middle" font-family="Consolas,monospace" font-size="8px" fill="#616e7f">17</text>
<line x1="575.65" y1="72" x2="575.65" y2="156" stroke="#616e7f" stroke-width="1" opacity="0.16"/>
<text x="575.65" y="174" text-anchor="middle" font-family="Consolas,monospace" font-size="8px" fill="#616e7f">18</text>
<line x1="604.52" y1="72" x2="604.52" y2="156" stroke="#616e7f" stroke-width="1" opacity="0.07"/>
<text x="604.52" y="174" text-anchor="middle" font-family="Consolas,monospace" font-size="8px" fill="#616e7f">19</text>
<line x1="633.39" y1="72" x2="633.39" y2="156" stroke="#616e7f" stroke-width="1" opacity="0.07"/>
<text x="633.39" y="174" text-anchor="middle" font-family="Consolas,monospace" font-size="8px" fill="#616e7f">20</text>
<line x1="662.26" y1="72" x2="662.26" y2="156" stroke="#616e7f" stroke-width="1" opacity="0.16"/>
<text x="662.26" y="174" text-anchor="middle" font-family="Consolas,monospace" font-size="8px" fill="#616e7f">21</text>
<line x1="691.13" y1="72" x2="691.13" y2="156" stroke="#616e7f" stroke-width="1" opacity="0.07"/>
<text x="691.13" y="174" text-anchor="middle" font-family="Consolas,monospace" font-size="8px" fill="#616e7f">22</text>
<line x1="720.00" y1="72" x2="720.00" y2="156" stroke="#616e7f" stroke-width="1" opacity="0.07"/>
<text x="720.00" y="174" text-anchor="middle" font-family="Consolas,monospace" font-size="8px" fill="#616e7f">23</text>
<path d="M 56.00 110.36 C 60.81 107.89, 75.25 97.35, 84.87 95.54 C 94.49 93.73, 104.12 94.93, 113.74 99.50 C 123.36 104.06, 132.99 114.80, 142.61 122.91 C 152.23 131.02, 161.86 142.64, 171.48 148.16 C 181.10 153.67, 190.72 154.69, 200.35 156.00 C 209.97 157.31, 219.59 156.00, 229.22 156.00 C 238.84 156.00, 248.46 156.00, 258.09 156.00 C 267.71 156.00, 277.33 156.00, 286.96 156.00 C 296.58 156.00, 306.20 156.00, 315.83 156.00 C 325.45 156.00, 335.07 156.00, 344.70 156.00 C 354.32 156.00, 363.94 156.52, 373.57 156.00 C 383.19 155.48, 392.81 156.78, 402.43 152.90 C 412.06 149.01, 421.68 140.42, 431.30 132.70 C 440.93 124.98, 450.55 111.58, 460.17 106.58 C 469.80 101.58, 479.42 105.14, 489.04 102.69 C 498.67 100.25, 508.29 97.02, 517.91 91.90 C 527.54 86.79, 537.16 73.67, 546.78 72.00 C 556.41 70.33, 566.03 79.58, 575.65 81.86 C 585.28 84.13, 594.90 82.31, 604.52 85.64 C 614.14 88.97, 623.77 96.99, 633.39 101.83 C 643.01 106.68, 652.64 109.97, 662.26 114.72 C 671.88 119.47, 681.51 130.43, 691.13 130.34 C 700.75 130.24, 715.19 116.85, 720.00 114.15 L 720.00 156.00 L 56.00 156.00 Z" fill="url(#hourFade)"/>
<path d="M 56.00 110.36 C 60.81 107.89, 75.25 97.35, 84.87 95.54 C 94.49 93.73, 104.12 94.93, 113.74 99.50 C 123.36 104.06, 132.99 114.80, 142.61 122.91 C 152.23 131.02, 161.86 142.64, 171.48 148.16 C 181.10 153.67, 190.72 154.69, 200.35 156.00 C 209.97 157.31, 219.59 156.00, 229.22 156.00 C 238.84 156.00, 248.46 156.00, 258.09 156.00 C 267.71 156.00, 277.33 156.00, 286.96 156.00 C 296.58 156.00, 306.20 156.00, 315.83 156.00 C 325.45 156.00, 335.07 156.00, 344.70 156.00 C 354.32 156.00, 363.94 156.52, 373.57 156.00 C 383.19 155.48, 392.81 156.78, 402.43 152.90 C 412.06 149.01, 421.68 140.42, 431.30 132.70 C 440.93 124.98, 450.55 111.58, 460.17 106.58 C 469.80 101.58, 479.42 105.14, 489.04 102.69 C 498.67 100.25, 508.29 97.02, 517.91 91.90 C 527.54 86.79, 537.16 73.67, 546.78 72.00 C 556.41 70.33, 566.03 79.58, 575.65 81.86 C 585.28 84.13, 594.90 82.31, 604.52 85.64 C 614.14 88.97, 623.77 96.99, 633.39 101.83 C 643.01 106.68, 652.64 109.97, 662.26 114.72 C 671.88 119.47, 681.51 130.43, 691.13 130.34 C 700.75 130.24, 715.19 116.85, 720.00 114.15" fill="none" stroke="url(#hourFill)" stroke-width="4" stroke-linecap="round"/>
<circle cx="56.00" cy="110.36" r="2.5" fill="#facc15" opacity="1"><title>00:00 - 4h 18m total</title></circle>
<circle cx="84.87" cy="95.54" r="2.5" fill="#facc15" opacity="1"><title>01:00 - 5h 42m total</title></circle>
<circle cx="113.74" cy="99.50" r="2.5" fill="#facc15" opacity="1"><title>02:00 - 5h 20m total</title></circle>
<circle cx="142.61" cy="122.91" r="2.5" fill="#facc15" opacity="1"><title>03:00 - 3h 7m total</title></circle>
<circle cx="171.48" cy="148.16" r="2.5" fill="#facc15" opacity="1"><title>04:00 - 44m total</title></circle>
<circle cx="200.35" cy="156.00" r="2.5" fill="#facc15" opacity="0.25"><title>05:00 - 0m total</title></circle>
<circle cx="229.22" cy="156.00" r="2.5" fill="#facc15" opacity="0.25"><title>06:00 - 0m total</title></circle>
<circle cx="258.09" cy="156.00" r="2.5" fill="#facc15" opacity="0.25"><title>07:00 - 0m total</title></circle>
<circle cx="286.96" cy="156.00" r="2.5" fill="#facc15" opacity="0.25"><title>08:00 - 0m total</title></circle>
<circle cx="315.83" cy="156.00" r="2.5" fill="#facc15" opacity="0.25"><title>09:00 - 0m total</title></circle>
<circle cx="344.70" cy="156.00" r="2.5" fill="#facc15" opacity="0.25"><title>10:00 - 0m total</title></circle>
<circle cx="373.57" cy="156.00" r="2.5" fill="#facc15" opacity="0.25"><title>11:00 - 0m total</title></circle>
<circle cx="402.43" cy="152.90" r="2.5" fill="#facc15" opacity="1"><title>12:00 - 17m total</title></circle>
<circle cx="431.30" cy="132.70" r="2.5" fill="#facc15" opacity="1"><title>13:00 - 2h 12m total</title></circle>
<circle cx="460.17" cy="106.58" r="2.5" fill="#facc15" opacity="1"><title>14:00 - 4h 40m total</title></circle>
<circle cx="489.04" cy="102.69" r="2.5" fill="#facc15" opacity="1"><title>15:00 - 5h 2m total</title></circle>
<circle cx="517.91" cy="91.90" r="2.5" fill="#facc15" opacity="1"><title>16:00 - 6h 3m total</title></circle>
<circle cx="546.78" cy="72.00" r="4" fill="#facc15" opacity="1"><title>17:00 - 7h 56m total</title></circle>
<circle cx="575.65" cy="81.86" r="2.5" fill="#facc15" opacity="1"><title>18:00 - 7h 0m total</title></circle>
<circle cx="604.52" cy="85.64" r="2.5" fill="#facc15" opacity="1"><title>19:00 - 6h 38m total</title></circle>
<circle cx="633.39" cy="101.83" r="2.5" fill="#facc15" opacity="1"><title>20:00 - 5h 7m total</title></circle>
<circle cx="662.26" cy="114.72" r="2.5" fill="#facc15" opacity="1"><title>21:00 - 3h 53m total</title></circle>
<circle cx="691.13" cy="130.34" r="2.5" fill="#facc15" opacity="1"><title>22:00 - 2h 25m total</title></circle>
<circle cx="720.00" cy="114.15" r="2.5" fill="#facc15" opacity="1"><title>23:00 - 3h 57m total</title></circle>
<text x="20" y="191" font-family="Consolas,monospace" font-size="11px" fill="#616e7f">24-hour distribution across 30 days; higher curve = more coding time in that hour</text>
</svg>