<svg xmlns="http://www.w3.org/2000/svg" font-family="Consolas,monospace" width="340" height="170" font-size="14px"><rect width="340" height="170" fill="#161b22" rx="12"/>
<text x="15" y="29" font-family="Consolas,monospace" font-size="14px" fill="#616e7f">- Coding Activity  (last 30d) —-—-</text>
<rect x="15" y="55" width="262" height="36" fill="#58a6ff" rx="4 0 0 4"/>
<rect x="277" y="55" width="39" height="36" fill="#3fb950" rx="0"/>
<rect x="316" y="55" width="5" height="36" fill="#ffa657" rx="0"/>
<rect x="321" y="55" width="1" height="36" fill="#f85149" rx="0 4 4 0"/>
<rect x="15" y="102" width="8" height="8" fill="#58a6ff" rx="2"/>
<text x="27" y="111" font-family="Consolas,monospace" font-size="12px" fill="#c9d1d9">AI Coding: 84.8%  110 hrs 1 min</text>
<rect x="15" y="122" width="8" height="8" fill="#3fb950" rx="2"/>
<text x="27" y="131" font-family="Consolas,monospace" font-size="12px" fill="#c9d1d9">Coding: 12.8%  16 hrs 36 mins</text>
<rect x="238" y="122" width="8" height="8" fill="#ffa657" rx="2"/>
<text x="250" y="131" font-family="Consolas,monospace" font-size="12px" fill="#c9d1d9">Writing Docs: 1.8%  2 hrs 21 mins</text>
<rect x="15" y="142" width="8" height="8" fill="#f85149" rx="2"/>
<text x="27" y="151" font-family="Consolas,monospace" font-size="12px" fill="#c9d1d9">Writing Tests: 0.6%  44 mins</text>
</svg>