<svg xmlns="http://www.w3.org/2000/svg" font-family="Consolas,monospace" width="760" height="205" font-size="14px"><rect width="760" height="205" fill="#161b22" rx="12"/>
<text x="20" y="34" font-family="Consolas,monospace" font-size="14px" fill="#616e7f">- Working Hours  (last 30d) ———————————————————————————————————————————-—-</text>
<text x="20" y="50" font-family="Consolas,monospace" font-size="12px" fill="#616e7f">total 119h 16m | peak 4h 15:00-19:00 | busiest 16:00 (11h 9m) | tz Asia/Ho_Chi_Minh</text>
<defs>
<linearGradient id="hourFill" x1="0" y1="0" x2="1" y2="0">
<stop offset="0%" stop-color="#1d4ed8"/>
<stop offset="45%" stop-color="#7c3aed"/>
<stop offset="75%" stop-color="#db2777"/>
<stop offset="100%" stop-color="#facc15"/>
</linearGradient>
<linearGradient id="hourFade" x1="0" y1="0" x2="1" y2="0">
<stop offset="0%" stop-color="#1d4ed8" stop-opacity="0.42"/>
<stop offset="28%" stop-color="#2563eb" stop-opacity="0.5"/>
<stop offset="50%" stop-color="#7c3aed" stop-opacity="0.58"/>
<stop offset="70%" stop-color="#db2777" stop-opacity="0.62"/>
<stop offset="86%" stop-color="#f97316" stop-opacity="0.58"/>
<stop offset="100%" stop-color="#facc15" stop-opacity="0.48"/>
</linearGradient>
</defs>
<line x1="56" y1="156" x2="720" y2="156" stroke="#616e7f" stroke-width="1" opacity="0.35"/>
<line x1="56.00" y1="72" x2="56.00" y2="156" stroke="#616e7f" stroke-width="1" opacity="0.16"/>
<text x="56.00" y="174" text-anchor="middle" font-family="Consolas,monospace" font-size="8px" fill="#616e7f">00</text>
<line x1="84.87" y1="72" x2="84.87" y2="156" stroke="#616e7f" stroke-width="1" opacity="0.07"/>
<text x="84.87" y="174" text-anchor="middle" font-family="Consolas,monospace" font-size="8px" fill="#616e7f">01</text>
<line x1="113.74" y1="72" x2="113.74" y2="156" stroke="#616e7f" stroke-width="1" opacity="0.07"/>
<text x="113.74" y="174" text-anchor="middle" font-family="Consolas,monospace" font-size="8px" fill="#616e7f">02</text>
<line x1="142.61" y1="72" x2="142.61" y2="156" stroke="#616e7f" stroke-width="1" opacity="0.16"/>
<text x="142.61" y="174" text-anchor="middle" font-family="Consolas,monospace" font-size="8px" fill="#616e7f">03</text>
<line x1="171.48" y1="72" x2="171.48" y2="156" stroke="#616e7f" stroke-width="1" opacity="0.07"/>
<text x="171.48" y="174" text-anchor="middle" font-family="Consolas,monospace" font-size="8px" fill="#616e7f">04</text>
<line x1="200.35" y1="72" x2="200.35" y2="156" stroke="#616e7f" stroke-width="1" opacity="0.07"/>
<text x="200.35" y="174" text-anchor="middle" font-family="Consolas,monospace" font-size="8px" fill="#616e7f">05</text>
<line x1="229.22" y1="72" x2="229.22" y2="156" stroke="#616e7f" stroke-width="1" opacity="0.16"/>
<text x="229.22" y="174" text-anchor="middle" font-family="Consolas,monospace" font-size="8px" fill="#616e7f">06</text>
<line x1="258.09" y1="72" x2="258.09" y2="156" stroke="#616e7f" stroke-width="1" opacity="0.07"/>
<text x="258.09" y="174" text-anchor="middle" font-family="Consolas,monospace" font-size="8px" fill="#616e7f">07</text>
<line x1="286.96" y1="72" x2="286.96" y2="156" stroke="#616e7f" stroke-width="1" opacity="0.07"/>
<text x="286.96" y="174" text-anchor="middle" font-family="Consolas,monospace" font-size="8px" fill="#616e7f">08</text>
<line x1="315.83" y1="72" x2="315.83" y2="156" stroke="#616e7f" stroke-width="1" opacity="0.16"/>
<text x="315.83" y="174" text-anchor="middle" font-family="Consolas,monospace" font-size="8px" fill="#616e7f">09</text>
<line x1="344.70" y1="72" x2="344.70" y2="156" stroke="#616e7f" stroke-width="1" opacity="0.07"/>
<text x="344.70" y="174" text-anchor="middle" font-family="Consolas,monospace" font-size="8px" fill="#616e7f">10</text>
<line x1="373.57" y1="72" x2="373.57" y2="156" stroke="#616e7f" stroke-width="1" opacity="0.07"/>
<text x="373.57" y="174" text-anchor="middle" font-family="Consolas,monospace" font-size="8px" fill="#616e7f">11</text>
<line x1="402.43" y1="72" x2="402.43" y2="156" stroke="#616e7f" stroke-width="1" opacity="0.16"/>
<text x="402.43" y="174" text-anchor="middle" font-family="Consolas,monospace" font-size="8px" fill="#616e7f">12</text>
<line x1="431.30" y1="72" x2="431.30" y2="156" stroke="#616e7f" stroke-width="1" opacity="0.07"/>
<text x="431.30" y="174" text-anchor="middle" font-family="Consolas,monospace" font-size="8px" fill="#616e7f">13</text>
<line x1="460.17" y1="72" x2="460.17" y2="156" stroke="#616e7f" stroke-width="1" opacity="0.07"/>
<text x="460.17" y="174" text-anchor="middle" font-family="Consolas,monospace" font-size="8px" fill="#616e7f">14</text>
<line x1="489.04" y1="72" x2="489.04" y2="156" stroke="#616e7f" stroke-width="1" opacity="0.16"/>
<text x="489.04" y="174" text-anchor="middle" font-family="Consolas,monospace" font-size="8px" fill="#616e7f">15</text>
<line x1="517.91" y1="72" x2="517.91" y2="156" stroke="#616e7f" stroke-width="1" opacity="0.07"/>
<text x="517.91" y="174" text-anchor="middle" font-family="Consolas,monospace" font-size="8px" fill="#616e7f">16</text>
<line x1="546.78" y1="72" x2="546.78" y2="156" stroke="#616e7f" stroke-width="1" opacity="0.07"/>
<text x="546.78" y="174" text-anchor="middle" font-family="Consolas,monospace" font-size="8px" fill="#616e7f">17</text>
<line x1="575.65" y1="72" x2="575.65" y2="156" stroke="#616e7f" stroke-width="1" opacity="0.16"/>
<text x="575.65" y="174" text-anchor="middle" font-family="Consolas,monospace" font-size="8px" fill="#616e7f">18</text>
<line x1="604.52" y1="72" x2="604.52" y2="156" stroke="#616e7f" stroke-width="1" opacity="0.07"/>
<text x="604.52" y="174" text-anchor="middle" font-family="Consolas,monospace" font-size="8px" fill="#616e7f">19</text>
<line x1="633.39" y1="72" x2="633.39" y2="156" stroke="#616e7f" stroke-width="1" opacity="0.07"/>
<text x="633.39" y="174" text-anchor="middle" font-family="Consolas,monospace" font-size="8px" fill="#616e7f">20</text>
<line x1="662.26" y1="72" x2="662.26" y2="156" stroke="#616e7f" stroke-width="1" opacity="0.16"/>
<text x="662.26" y="174" text-anchor="middle" font-family="Consolas,monospace" font-size="8px" fill="#616e7f">21</text>
<line x1="691.13" y1="72" x2="691.13" y2="156" stroke="#616e7f" stroke-width="1" opacity="0.07"/>
<text x="691.13" y="174" text-anchor="middle" font-family="Consolas,monospace" font-size="8px" fill="#616e7f">22</text>
<line x1="720.00" y1="72" x2="720.00" y2="156" stroke="#616e7f" stroke-width="1" opacity="0.07"/>
<text x="720.00" y="174" text-anchor="middle" font-family="Consolas,monospace" font-size="8px" fill="#616e7f">23</text>
<path d="M 56.00 107.15 C 60.81 106.35, 75.25 100.30, 84.87 102.34 C 94.49 104.39, 104.12 116.63, 113.74 119.43 C 123.36 122.22, 132.99 115.70, 142.61 119.13 C 152.23 122.55, 161.86 136.14, 171.48 139.99 C 181.10 143.84, 190.72 139.75, 200.35 142.23 C 209.97 144.71, 219.59 152.57, 229.22 154.86 C 238.84 157.16, 248.46 156.74, 258.09 156.00 C 267.71 155.26, 277.33 151.82, 286.96 150.41 C 296.58 149.00, 306.20 147.54, 315.83 147.54 C 325.45 147.53, 335.07 149.29, 344.70 150.36 C 354.32 151.43, 363.94 154.67, 373.57 153.95 C 383.19 153.24, 392.81 151.68, 402.43 146.07 C 412.06 140.46, 421.68 125.70, 431.30 120.29 C 440.93 114.88, 450.55 120.56, 460.17 113.60 C 469.80 106.64, 479.42 85.44, 489.04 78.50 C 498.67 71.57, 508.29 70.55, 517.91 72.00 C 527.54 73.45, 537.16 82.85, 546.78 87.21 C 556.41 91.57, 566.03 97.63, 575.65 98.13 C 585.28 98.64, 594.90 92.66, 604.52 90.27 C 614.14 87.87, 623.77 79.79, 633.39 83.75 C 643.01 87.70, 652.64 110.44, 662.26 114.01 C 671.88 117.58, 681.51 108.51, 691.13 105.16 C 700.75 101.81, 715.19 95.79, 720.00 93.91 L 720.00 156.00 L 56.00 156.00 Z" fill="url(#hourFade)"/>
<path d="M 56.00 107.15 C 60.81 106.35, 75.25 100.30, 84.87 102.34 C 94.49 104.39, 104.12 116.63, 113.74 119.43 C 123.36 122.22, 132.99 115.70, 142.61 119.13 C 152.23 122.55, 161.86 136.14, 171.48 139.99 C 181.10 143.84, 190.72 139.75, 200.35 142.23 C 209.97 144.71, 219.59 152.57, 229.22 154.86 C 238.84 157.16, 248.46 156.74, 258.09 156.00 C 267.71 155.26, 277.33 151.82, 286.96 150.41 C 296.58 149.00, 306.20 147.54, 315.83 147.54 C 325.45 147.53, 335.07 149.29, 344.70 150.36 C 354.32 151.43, 363.94 154.67, 373.57 153.95 C 383.19 153.24, 392.81 151.68, 402.43 146.07 C 412.06 140.46, 421.68 125.70, 431.30 120.29 C 440.93 114.88, 450.55 120.56, 460.17 113.60 C 469.80 106.64, 479.42 85.44, 489.04 78.50 C 498.67 71.57, 508.29 70.55, 517.91 72.00 C 527.54 73.45, 537.16 82.85, 546.78 87.21 C 556.41 91.57, 566.03 97.63, 575.65 98.13 C 585.28 98.64, 594.90 92.66, 604.52 90.27 C 614.14 87.87, 623.77 79.79, 633.39 83.75 C 643.01 87.70, 652.64 110.44, 662.26 114.01 C 671.88 117.58, 681.51 108.51, 691.13 105.16 C 700.75 101.81, 715.19 95.79, 720.00 93.91" fill="none" stroke="url(#hourFill)" stroke-width="4" stroke-linecap="round"/>
<circle cx="56.00" cy="107.15" r="2.5" fill="#facc15" opacity="1"><title>00:00 - 6h 29m total</title></circle>
<circle cx="84.87" cy="102.34" r="2.5" fill="#facc15" opacity="1"><title>01:00 - 7h 7m total</title></circle>
<circle cx="113.74" cy="119.43" r="2.5" fill="#facc15" opacity="1"><title>02:00 - 4h 51m total</title></circle>
<circle cx="142.61" cy="119.13" r="2.5" fill="#facc15" opacity="1"><title>03:00 - 4h 53m total</title></circle>
<circle cx="171.48" cy="139.99" r="2.5" fill="#facc15" opacity="1"><title>04:00 - 2h 7m total</title></circle>
<circle cx="200.35" cy="142.23" r="2.5" fill="#facc15" opacity="1"><title>05:00 - 1h 49m total</title></circle>
<circle cx="229.22" cy="154.86" r="2.5" fill="#facc15" opacity="1"><title>06:00 - 9m total</title></circle>
<circle cx="258.09" cy="156.00" r="2.5" fill="#facc15" opacity="0.25"><title>07:00 - 0m total</title></circle>
<circle cx="286.96" cy="150.41" r="2.5" fill="#facc15" opacity="1"><title>08:00 - 44m total</title></circle>
<circle cx="315.83" cy="147.54" r="2.5" fill="#facc15" opacity="1"><title>09:00 - 1h 7m total</title></circle>
<circle cx="344.70" cy="150.36" r="2.5" fill="#facc15" opacity="1"><title>10:00 - 44m total</title></circle>
<circle cx="373.57" cy="153.95" r="2.5" fill="#facc15" opacity="1"><title>11:00 - 16m total</title></circle>
<circle cx="402.43" cy="146.07" r="2.5" fill="#facc15" opacity="1"><title>12:00 - 1h 19m total</title></circle>
<circle cx="431.30" cy="120.29" r="2.5" fill="#facc15" opacity="1"><title>13:00 - 4h 44m total</title></circle>
<circle cx="460.17" cy="113.60" r="2.5" fill="#facc15" opacity="1"><title>14:00 - 5h 38m total</title></circle>
<circle cx="489.04" cy="78.50" r="2.5" fill="#facc15" opacity="1"><title>15:00 - 10h 17m total</title></circle>
<circle cx="517.91" cy="72.00" r="4" fill="#facc15" opacity="1"><title>16:00 - 11h 9m total</title></circle>
<circle cx="546.78" cy="87.21" r="2.5" fill="#facc15" opacity="1"><title>17:00 - 9h 8m total</title></circle>
<circle cx="575.65" cy="98.13" r="2.5" fill="#facc15" opacity="1"><title>18:00 - 7h 41m total</title></circle>
<circle cx="604.52" cy="90.27" r="2.5" fill="#facc15" opacity="1"><title>19:00 - 8h 44m total</title></circle>
<circle cx="633.39" cy="83.75" r="2.5" fill="#facc15" opacity="1"><title>20:00 - 9h 36m total</title></circle>
<circle cx="662.26" cy="114.01" r="2.5" fill="#facc15" opacity="1"><title>21:00 - 5h 34m total</title></circle>
<circle cx="691.13" cy="105.16" r="2.5" fill="#facc15" opacity="1"><title>22:00 - 6h 45m total</title></circle>
<circle cx="720.00" cy="93.91" r="2.5" fill="#facc15" opacity="1"><title>23:00 - 8h 14m total</title></circle>
<text x="20" y="191" font-family="Consolas,monospace" font-size="11px" fill="#616e7f">24-hour distribution across 30 days; higher curve = more coding time in that hour</text>
</svg>