<svg xmlns="http://www.w3.org/2000/svg" font-family="Consolas,monospace" width="340" height="300" font-size="14px"><rect width="340" height="300" fill="#161b22" rx="12"/>
<text x="15" y="29" font-family="Consolas,monospace" font-size="14px" fill="#616e7f">- Editors  (last 30d) —————————-—-</text>
<path d="M 110.00 92.00 L 110.00 70.00 A 85 85 0 0 1 112.98 239.95 L 112.21 217.96 A 63 63 0 0 0 110.00 92.00 Z" fill="#58a6ff" stroke="#161b22" stroke-width="2"/>
<path d="M 112.21 217.96 L 112.98 239.95 A 85 85 0 0 1 26.09 141.40 L 47.81 144.92 A 63 63 0 0 0 112.21 217.96 Z" fill="#3fb950" stroke="#161b22" stroke-width="2"/>
<path d="M 47.81 144.92 L 26.09 141.40 A 85 85 0 0 1 46.91 98.04 L 63.24 112.78 A 63 63 0 0 0 47.81 144.92 Z" fill="#ffa657" stroke="#161b22" stroke-width="2"/>
<path d="M 63.24 112.78 L 46.91 98.04 A 85 85 0 0 1 73.75 78.12 L 83.13 98.02 A 63 63 0 0 0 63.24 112.78 Z" fill="#f85149" stroke="#161b22" stroke-width="2"/>
<path d="M 83.13 98.02 L 73.75 78.12 A 85 85 0 0 1 95.81 71.19 L 99.48 92.88 A 63 63 0 0 0 83.13 98.02 Z" fill="#d2a8ff" stroke="#161b22" stroke-width="2"/>
<path d="M 99.48 92.88 L 95.81 71.19 A 85 85 0 0 1 110.00 70.00 L 110.00 92.00 A 63 63 0 0 0 99.48 92.88 Z" fill="#79c0ff" stroke="#161b22" stroke-width="2"/>
<text x="110" y="147" text-anchor="middle" font-family="Consolas,monospace" font-size="11px" fill="#616e7f">avg/day</text>
<text x="110" y="167" text-anchor="middle" font-family="Consolas,monospace" font-size="16px" font-weight="bold" fill="#58a6ff">5h 6m</text>
<rect x="210" y="50" width="10" height="10" fill="#58a6ff" rx="2"/>
<text x="226" y="60" font-family="Consolas,monospace" font-size="13px" fill="#c9d1d9">Codex CLI</text>
<text x="226" y="73" font-family="Consolas,monospace" font-size="11px" fill="#616e7f">48.6%  52 hrs</text>
<rect x="210" y="86" width="10" height="10" fill="#3fb950" rx="2"/>
<text x="226" y="96" font-family="Consolas,monospace" font-size="13px" fill="#c9d1d9">Kiro</text>
<text x="226" y="109" font-family="Consolas,monospace" font-size="11px" fill="#616e7f">27.7%  29 hrs 34 mins</text>
<rect x="210" y="122" width="10" height="10" fill="#ffa657" rx="2"/>
<text x="226" y="132" font-family="Consolas,monospace" font-size="13px" fill="#c9d1d9">Opencode Cli</text>
<text x="226" y="145" font-family="Consolas,monospace" font-size="11px" fill="#616e7f">9.0%  9 hrs 36 mins</text>
<rect x="210" y="158" width="10" height="10" fill="#f85149" rx="2"/>
<text x="226" y="168" font-family="Consolas,monospace" font-size="13px" fill="#c9d1d9">OpenCode</text>
<text x="226" y="181" font-family="Consolas,monospace" font-size="11px" fill="#616e7f">6.2%  6 hrs 37 mins</text>
<rect x="210" y="194" width="10" height="10" fill="#d2a8ff" rx="2"/>
<text x="226" y="204" font-family="Consolas,monospace" font-size="13px" fill="#c9d1d9">Neovim</text>
<text x="226" y="217" font-family="Consolas,monospace" font-size="11px" fill="#616e7f">4.3%  4 hrs 34 mins</text>
<rect x="210" y="230" width="10" height="10" fill="#79c0ff" rx="2"/>
<text x="226" y="240" font-family="Consolas,monospace" font-size="13px" fill="#c9d1d9">Kiro Cli</text>
<text x="226" y="253" font-family="Consolas,monospace" font-size="11px" fill="#616e7f">2.6%  2 hrs 48 mins</text>
</svg>