<svg xmlns="http://www.w3.org/2000/svg" font-family="Consolas,monospace" width="760" height="205" font-size="14px"><rect width="760" height="205" fill="#161b22" rx="12"/>
<text x="20" y="34" font-family="Consolas,monospace" font-size="14px" fill="#616e7f">- Working Hours  (last 30d) ———————————————————————————————————————————-—-</text>
<text x="20" y="50" font-family="Consolas,monospace" font-size="12px" fill="#616e7f">total 130h 33m | peak 4h 23:00-03:00 | busiest 00:00 (10h 45m) | tz Asia/Ho_Chi_Minh</text>
<defs>
<linearGradient id="hourFill" x1="0" y1="0" x2="1" y2="0">
<stop offset="0%" stop-color="#1d4ed8"/>
<stop offset="45%" stop-color="#7c3aed"/>
<stop offset="75%" stop-color="#db2777"/>
<stop offset="100%" stop-color="#facc15"/>
</linearGradient>
<linearGradient id="hourFade" x1="0" y1="0" x2="1" y2="0">
<stop offset="0%" stop-color="#1d4ed8" stop-opacity="0.42"/>
<stop offset="28%" stop-color="#2563eb" stop-opacity="0.5"/>
<stop offset="50%" stop-color="#7c3aed" stop-opacity="0.58"/>
<stop offset="70%" stop-color="#db2777" stop-opacity="0.62"/>
<stop offset="86%" stop-color="#f97316" stop-opacity="0.58"/>
<stop offset="100%" stop-color="#facc15" stop-opacity="0.48"/>
</linearGradient>
</defs>
<line x1="56" y1="156" x2="720" y2="156" stroke="#616e7f" stroke-width="1" opacity="0.35"/>
<line x1="56.00" y1="72" x2="56.00" y2="156" stroke="#616e7f" stroke-width="1" opacity="0.16"/>
<text x="56.00" y="174" text-anchor="middle" font-family="Consolas,monospace" font-size="8px" fill="#616e7f">00</text>
<line x1="84.87" y1="72" x2="84.87" y2="156" stroke="#616e7f" stroke-width="1" opacity="0.07"/>
<text x="84.87" y="174" text-anchor="middle" font-family="Consolas,monospace" font-size="8px" fill="#616e7f">01</text>
<line x1="113.74" y1="72" x2="113.74" y2="156" stroke="#616e7f" stroke-width="1" opacity="0.07"/>
<text x="113.74" y="174" text-anchor="middle" font-family="Consolas,monospace" font-size="8px" fill="#616e7f">02</text>
<line x1="142.61" y1="72" x2="142.61" y2="156" stroke="#616e7f" stroke-width="1" opacity="0.16"/>
<text x="142.61" y="174" text-anchor="middle" font-family="Consolas,monospace" font-size="8px" fill="#616e7f">03</text>
<line x1="171.48" y1="72" x2="171.48" y2="156" stroke="#616e7f" stroke-width="1" opacity="0.07"/>
<text x="171.48" y="174" text-anchor="middle" font-family="Consolas,monospace" font-size="8px" fill="#616e7f">04</text>
<line x1="200.35" y1="72" x2="200.35" y2="156" stroke="#616e7f" stroke-width="1" opacity="0.07"/>
<text x="200.35" y="174" text-anchor="middle" font-family="Consolas,monospace" font-size="8px" fill="#616e7f">05</text>
<line x1="229.22" y1="72" x2="229.22" y2="156" stroke="#616e7f" stroke-width="1" opacity="0.16"/>
<text x="229.22" y="174" text-anchor="middle" font-family="Consolas,monospace" font-size="8px" fill="#616e7f">06</text>
<line x1="258.09" y1="72" x2="258.09" y2="156" stroke="#616e7f" stroke-width="1" opacity="0.07"/>
<text x="258.09" y="174" text-anchor="middle" font-family="Consolas,monospace" font-size="8px" fill="#616e7f">07</text>
<line x1="286.96" y1="72" x2="286.96" y2="156" stroke="#616e7f" stroke-width="1" opacity="0.07"/>
<text x="286.96" y="174" text-anchor="middle" font-family="Consolas,monospace" font-size="8px" fill="#616e7f">08</text>
<line x1="315.83" y1="72" x2="315.83" y2="156" stroke="#616e7f" stroke-width="1" opacity="0.16"/>
<text x="315.83" y="174" text-anchor="middle" font-family="Consolas,monospace" font-size="8px" fill="#616e7f">09</text>
<line x1="344.70" y1="72" x2="344.70" y2="156" stroke="#616e7f" stroke-width="1" opacity="0.07"/>
<text x="344.70" y="174" text-anchor="middle" font-family="Consolas,monospace" font-size="8px" fill="#616e7f">10</text>
<line x1="373.57" y1="72" x2="373.57" y2="156" stroke="#616e7f" stroke-width="1" opacity="0.07"/>
<text x="373.57" y="174" text-anchor="middle" font-family="Consolas,monospace" font-size="8px" fill="#616e7f">11</text>
<line x1="402.43" y1="72" x2="402.43" y2="156" stroke="#616e7f" stroke-width="1" opacity="0.16"/>
<text x="402.43" y="174" text-anchor="middle" font-family="Consolas,monospace" font-size="8px" fill="#616e7f">12</text>
<line x1="431.30" y1="72" x2="431.30" y2="156" stroke="#616e7f" stroke-width="1" opacity="0.07"/>
<text x="431.30" y="174" text-anchor="middle" font-family="Consolas,monospace" font-size="8px" fill="#616e7f">13</text>
<line x1="460.17" y1="72" x2="460.17" y2="156" stroke="#616e7f" stroke-width="1" opacity="0.07"/>
<text x="460.17" y="174" text-anchor="middle" font-family="Consolas,monospace" font-size="8px" fill="#616e7f">14</text>
<line x1="489.04" y1="72" x2="489.04" y2="156" stroke="#616e7f" stroke-width="1" opacity="0.16"/>
<text x="489.04" y="174" text-anchor="middle" font-family="Consolas,monospace" font-size="8px" fill="#616e7f">15</text>
<line x1="517.91" y1="72" x2="517.91" y2="156" stroke="#616e7f" stroke-width="1" opacity="0.07"/>
<text x="517.91" y="174" text-anchor="middle" font-family="Consolas,monospace" font-size="8px" fill="#616e7f">16</text>
<line x1="546.78" y1="72" x2="546.78" y2="156" stroke="#616e7f" stroke-width="1" opacity="0.07"/>
<text x="546.78" y="174" text-anchor="middle" font-family="Consolas,monospace" font-size="8px" fill="#616e7f">17</text>
<line x1="575.65" y1="72" x2="575.65" y2="156" stroke="#616e7f" stroke-width="1" opacity="0.16"/>
<text x="575.65" y="174" text-anchor="middle" font-family="Consolas,monospace" font-size="8px" fill="#616e7f">18</text>
<line x1="604.52" y1="72" x2="604.52" y2="156" stroke="#616e7f" stroke-width="1" opacity="0.07"/>
<text x="604.52" y="174" text-anchor="middle" font-family="Consolas,monospace" font-size="8px" fill="#616e7f">19</text>
<line x1="633.39" y1="72" x2="633.39" y2="156" stroke="#616e7f" stroke-width="1" opacity="0.07"/>
<text x="633.39" y="174" text-anchor="middle" font-family="Consolas,monospace" font-size="8px" fill="#616e7f">20</text>
<line x1="662.26" y1="72" x2="662.26" y2="156" stroke="#616e7f" stroke-width="1" opacity="0.16"/>
<text x="662.26" y="174" text-anchor="middle" font-family="Consolas,monospace" font-size="8px" fill="#616e7f">21</text>
<line x1="691.13" y1="72" x2="691.13" y2="156" stroke="#616e7f" stroke-width="1" opacity="0.07"/>
<text x="691.13" y="174" text-anchor="middle" font-family="Consolas,monospace" font-size="8px" fill="#616e7f">22</text>
<line x1="720.00" y1="72" x2="720.00" y2="156" stroke="#616e7f" stroke-width="1" opacity="0.07"/>
<text x="720.00" y="174" text-anchor="middle" font-family="Consolas,monospace" font-size="8px" fill="#616e7f">23</text>
<path d="M 56.00 72.00 C 60.81 72.72, 75.25 72.08, 84.87 76.34 C 94.49 80.61, 104.12 92.52, 113.74 97.60 C 123.36 102.68, 132.99 100.14, 142.61 106.81 C 152.23 113.48, 161.86 131.82, 171.48 137.64 C 181.10 143.46, 190.72 139.05, 200.35 141.71 C 209.97 144.38, 219.59 152.54, 229.22 153.62 C 238.84 154.70, 248.46 149.45, 258.09 148.19 C 267.71 146.94, 277.33 146.61, 286.96 146.09 C 296.58 145.58, 306.20 145.19, 315.83 145.10 C 325.45 145.00, 335.07 144.07, 344.70 145.54 C 354.32 147.00, 363.94 153.42, 373.57 153.88 C 383.19 154.34, 392.81 151.06, 402.43 148.29 C 412.06 145.52, 421.68 142.78, 431.30 137.23 C 440.93 131.69, 450.55 123.74, 460.17 115.02 C 469.80 106.30, 479.42 92.04, 489.04 84.92 C 498.67 77.80, 508.29 72.73, 517.91 72.28 C 527.54 71.84, 537.16 79.53, 546.78 82.26 C 556.41 84.98, 566.03 86.21, 575.65 88.65 C 585.28 91.08, 594.90 96.58, 604.52 96.88 C 614.14 97.19, 623.77 89.56, 633.39 90.47 C 643.01 91.38, 652.64 100.78, 662.26 102.33 C 671.88 103.87, 681.51 103.14, 691.13 99.73 C 700.75 96.33, 715.19 84.87, 720.00 81.90 L 720.00 156.00 L 56.00 156.00 Z" fill="url(#hourFade)"/>
<path d="M 56.00 72.00 C 60.81 72.72, 75.25 72.08, 84.87 76.34 C 94.49 80.61, 104.12 92.52, 113.74 97.60 C 123.36 102.68, 132.99 100.14, 142.61 106.81 C 152.23 113.48, 161.86 131.82, 171.48 137.64 C 181.10 143.46, 190.72 139.05, 200.35 141.71 C 209.97 144.38, 219.59 152.54, 229.22 153.62 C 238.84 154.70, 248.46 149.45, 258.09 148.19 C 267.71 146.94, 277.33 146.61, 286.96 146.09 C 296.58 145.58, 306.20 145.19, 315.83 145.10 C 325.45 145.00, 335.07 144.07, 344.70 145.54 C 354.32 147.00, 363.94 153.42, 373.57 153.88 C 383.19 154.34, 392.81 151.06, 402.43 148.29 C 412.06 145.52, 421.68 142.78, 431.30 137.23 C 440.93 131.69, 450.55 123.74, 460.17 115.02 C 469.80 106.30, 479.42 92.04, 489.04 84.92 C 498.67 77.80, 508.29 72.73, 517.91 72.28 C 527.54 71.84, 537.16 79.53, 546.78 82.26 C 556.41 84.98, 566.03 86.21, 575.65 88.65 C 585.28 91.08, 594.90 96.58, 604.52 96.88 C 614.14 97.19, 623.77 89.56, 633.39 90.47 C 643.01 91.38, 652.64 100.78, 662.26 102.33 C 671.88 103.87, 681.51 103.14, 691.13 99.73 C 700.75 96.33, 715.19 84.87, 720.00 81.90" fill="none" stroke="url(#hourFill)" stroke-width="4" stroke-linecap="round"/>
<circle cx="56.00" cy="72.00" r="4" fill="#facc15" opacity="1"><title>00:00 - 10h 45m total</title></circle>
<circle cx="84.87" cy="76.34" r="2.5" fill="#facc15" opacity="1"><title>01:00 - 10h 12m total</title></circle>
<circle cx="113.74" cy="97.60" r="2.5" fill="#facc15" opacity="1"><title>02:00 - 7h 28m total</title></circle>
<circle cx="142.61" cy="106.81" r="2.5" fill="#facc15" opacity="1"><title>03:00 - 6h 17m total</title></circle>
<circle cx="171.48" cy="137.64" r="2.5" fill="#facc15" opacity="1"><title>04:00 - 2h 21m total</title></circle>
<circle cx="200.35" cy="141.71" r="2.5" fill="#facc15" opacity="1"><title>05:00 - 1h 49m total</title></circle>
<circle cx="229.22" cy="153.62" r="2.5" fill="#facc15" opacity="1"><title>06:00 - 18m total</title></circle>
<circle cx="258.09" cy="148.19" r="2.5" fill="#facc15" opacity="1"><title>07:00 - 1h 0m total</title></circle>
<circle cx="286.96" cy="146.09" r="2.5" fill="#facc15" opacity="1"><title>08:00 - 1h 16m total</title></circle>
<circle cx="315.83" cy="145.10" r="2.5" fill="#facc15" opacity="1"><title>09:00 - 1h 23m total</title></circle>
<circle cx="344.70" cy="145.54" r="2.5" fill="#facc15" opacity="1"><title>10:00 - 1h 20m total</title></circle>
<circle cx="373.57" cy="153.88" r="2.5" fill="#facc15" opacity="1"><title>11:00 - 16m total</title></circle>
<circle cx="402.43" cy="148.29" r="2.5" fill="#facc15" opacity="1"><title>12:00 - 59m total</title></circle>
<circle cx="431.30" cy="137.23" r="2.5" fill="#facc15" opacity="1"><title>13:00 - 2h 24m total</title></circle>
<circle cx="460.17" cy="115.02" r="2.5" fill="#facc15" opacity="1"><title>14:00 - 5h 14m total</title></circle>
<circle cx="489.04" cy="84.92" r="2.5" fill="#facc15" opacity="1"><title>15:00 - 9h 6m total</title></circle>
<circle cx="517.91" cy="72.28" r="2.5" fill="#facc15" opacity="1"><title>16:00 - 10h 43m total</title></circle>
<circle cx="546.78" cy="82.26" r="2.5" fill="#facc15" opacity="1"><title>17:00 - 9h 26m total</title></circle>
<circle cx="575.65" cy="88.65" r="2.5" fill="#facc15" opacity="1"><title>18:00 - 8h 37m total</title></circle>
<circle cx="604.52" cy="96.88" r="2.5" fill="#facc15" opacity="1"><title>19:00 - 7h 34m total</title></circle>
<circle cx="633.39" cy="90.47" r="2.5" fill="#facc15" opacity="1"><title>20:00 - 8h 23m total</title></circle>
<circle cx="662.26" cy="102.33" r="2.5" fill="#facc15" opacity="1"><title>21:00 - 6h 52m total</title></circle>
<circle cx="691.13" cy="99.73" r="2.5" fill="#facc15" opacity="1"><title>22:00 - 7h 12m total</title></circle>
<circle cx="720.00" cy="81.90" r="2.5" fill="#facc15" opacity="1"><title>23:00 - 9h 29m total</title></circle>
<text x="20" y="191" font-family="Consolas,monospace" font-size="11px" fill="#616e7f">24-hour distribution across 30 days; higher curve = more coding time in that hour</text>
</svg>