<svg xmlns="http://www.w3.org/2000/svg" font-family="Consolas,monospace" width="760" height="205" font-size="14px"><rect width="760" height="205" fill="#161b22" rx="12"/>
<text x="20" y="34" font-family="Consolas,monospace" font-size="14px" fill="#616e7f">- Working Hours  (last 30d) ———————————————————————————————————————————-—-</text>
<text x="20" y="50" font-family="Consolas,monospace" font-size="12px" fill="#616e7f">total 156h 24m | peak 4h 15:00-19:00 | busiest 16:00 (14h 15m) | tz Asia/Ho_Chi_Minh</text>
<defs>
<linearGradient id="hourFill" x1="0" y1="0" x2="1" y2="0">
<stop offset="0%" stop-color="#1d4ed8"/>
<stop offset="45%" stop-color="#7c3aed"/>
<stop offset="75%" stop-color="#db2777"/>
<stop offset="100%" stop-color="#facc15"/>
</linearGradient>
<linearGradient id="hourFade" x1="0" y1="0" x2="1" y2="0">
<stop offset="0%" stop-color="#1d4ed8" stop-opacity="0.42"/>
<stop offset="28%" stop-color="#2563eb" stop-opacity="0.5"/>
<stop offset="50%" stop-color="#7c3aed" stop-opacity="0.58"/>
<stop offset="70%" stop-color="#db2777" stop-opacity="0.62"/>
<stop offset="86%" stop-color="#f97316" stop-opacity="0.58"/>
<stop offset="100%" stop-color="#facc15" stop-opacity="0.48"/>
</linearGradient>
</defs>
<line x1="56" y1="156" x2="720" y2="156" stroke="#616e7f" stroke-width="1" opacity="0.35"/>
<line x1="56.00" y1="72" x2="56.00" y2="156" stroke="#616e7f" stroke-width="1" opacity="0.16"/>
<text x="56.00" y="174" text-anchor="middle" font-family="Consolas,monospace" font-size="8px" fill="#616e7f">00</text>
<line x1="84.87" y1="72" x2="84.87" y2="156" stroke="#616e7f" stroke-width="1" opacity="0.07"/>
<text x="84.87" y="174" text-anchor="middle" font-family="Consolas,monospace" font-size="8px" fill="#616e7f">01</text>
<line x1="113.74" y1="72" x2="113.74" y2="156" stroke="#616e7f" stroke-width="1" opacity="0.07"/>
<text x="113.74" y="174" text-anchor="middle" font-family="Consolas,monospace" font-size="8px" fill="#616e7f">02</text>
<line x1="142.61" y1="72" x2="142.61" y2="156" stroke="#616e7f" stroke-width="1" opacity="0.16"/>
<text x="142.61" y="174" text-anchor="middle" font-family="Consolas,monospace" font-size="8px" fill="#616e7f">03</text>
<line x1="171.48" y1="72" x2="171.48" y2="156" stroke="#616e7f" stroke-width="1" opacity="0.07"/>
<text x="171.48" y="174" text-anchor="middle" font-family="Consolas,monospace" font-size="8px" fill="#616e7f">04</text>
<line x1="200.35" y1="72" x2="200.35" y2="156" stroke="#616e7f" stroke-width="1" opacity="0.07"/>
<text x="200.35" y="174" text-anchor="middle" font-family="Consolas,monospace" font-size="8px" fill="#616e7f">05</text>
<line x1="229.22" y1="72" x2="229.22" y2="156" stroke="#616e7f" stroke-width="1" opacity="0.16"/>
<text x="229.22" y="174" text-anchor="middle" font-family="Consolas,monospace" font-size="8px" fill="#616e7f">06</text>
<line x1="258.09" y1="72" x2="258.09" y2="156" stroke="#616e7f" stroke-width="1" opacity="0.07"/>
<text x="258.09" y="174" text-anchor="middle" font-family="Consolas,monospace" font-size="8px" fill="#616e7f">07</text>
<line x1="286.96" y1="72" x2="286.96" y2="156" stroke="#616e7f" stroke-width="1" opacity="0.07"/>
<text x="286.96" y="174" text-anchor="middle" font-family="Consolas,monospace" font-size="8px" fill="#616e7f">08</text>
<line x1="315.83" y1="72" x2="315.83" y2="156" stroke="#616e7f" stroke-width="1" opacity="0.16"/>
<text x="315.83" y="174" text-anchor="middle" font-family="Consolas,monospace" font-size="8px" fill="#616e7f">09</text>
<line x1="344.70" y1="72" x2="344.70" y2="156" stroke="#616e7f" stroke-width="1" opacity="0.07"/>
<text x="344.70" y="174" text-anchor="middle" font-family="Consolas,monospace" font-size="8px" fill="#616e7f">10</text>
<line x1="373.57" y1="72" x2="373.57" y2="156" stroke="#616e7f" stroke-width="1" opacity="0.07"/>
<text x="373.57" y="174" text-anchor="middle" font-family="Consolas,monospace" font-size="8px" fill="#616e7f">11</text>
<line x1="402.43" y1="72" x2="402.43" y2="156" stroke="#616e7f" stroke-width="1" opacity="0.16"/>
<text x="402.43" y="174" text-anchor="middle" font-family="Consolas,monospace" font-size="8px" fill="#616e7f">12</text>
<line x1="431.30" y1="72" x2="431.30" y2="156" stroke="#616e7f" stroke-width="1" opacity="0.07"/>
<text x="431.30" y="174" text-anchor="middle" font-family="Consolas,monospace" font-size="8px" fill="#616e7f">13</text>
<line x1="460.17" y1="72" x2="460.17" y2="156" stroke="#616e7f" stroke-width="1" opacity="0.07"/>
<text x="460.17" y="174" text-anchor="middle" font-family="Consolas,monospace" font-size="8px" fill="#616e7f">14</text>
<line x1="489.04" y1="72" x2="489.04" y2="156" stroke="#616e7f" stroke-width="1" opacity="0.16"/>
<text x="489.04" y="174" text-anchor="middle" font-family="Consolas,monospace" font-size="8px" fill="#616e7f">15</text>
<line x1="517.91" y1="72" x2="517.91" y2="156" stroke="#616e7f" stroke-width="1" opacity="0.07"/>
<text x="517.91" y="174" text-anchor="middle" font-family="Consolas,monospace" font-size="8px" fill="#616e7f">16</text>
<line x1="546.78" y1="72" x2="546.78" y2="156" stroke="#616e7f" stroke-width="1" opacity="0.07"/>
<text x="546.78" y="174" text-anchor="middle" font-family="Consolas,monospace" font-size="8px" fill="#616e7f">17</text>
<line x1="575.65" y1="72" x2="575.65" y2="156" stroke="#616e7f" stroke-width="1" opacity="0.16"/>
<text x="575.65" y="174" text-anchor="middle" font-family="Consolas,monospace" font-size="8px" fill="#616e7f">18</text>
<line x1="604.52" y1="72" x2="604.52" y2="156" stroke="#616e7f" stroke-width="1" opacity="0.07"/>
<text x="604.52" y="174" text-anchor="middle" font-family="Consolas,monospace" font-size="8px" fill="#616e7f">19</text>
<line x1="633.39" y1="72" x2="633.39" y2="156" stroke="#616e7f" stroke-width="1" opacity="0.07"/>
<text x="633.39" y="174" text-anchor="middle" font-family="Consolas,monospace" font-size="8px" fill="#616e7f">20</text>
<line x1="662.26" y1="72" x2="662.26" y2="156" stroke="#616e7f" stroke-width="1" opacity="0.16"/>
<text x="662.26" y="174" text-anchor="middle" font-family="Consolas,monospace" font-size="8px" fill="#616e7f">21</text>
<line x1="691.13" y1="72" x2="691.13" y2="156" stroke="#616e7f" stroke-width="1" opacity="0.07"/>
<text x="691.13" y="174" text-anchor="middle" font-family="Consolas,monospace" font-size="8px" fill="#616e7f">22</text>
<line x1="720.00" y1="72" x2="720.00" y2="156" stroke="#616e7f" stroke-width="1" opacity="0.07"/>
<text x="720.00" y="174" text-anchor="middle" font-family="Consolas,monospace" font-size="8px" fill="#616e7f">23</text>
<path d="M 56.00 96.44 C 60.81 96.99, 75.25 99.08, 84.87 99.77 C 94.49 100.46, 104.12 96.89, 113.74 100.59 C 123.36 104.28, 132.99 115.09, 142.61 121.93 C 152.23 128.77, 161.86 138.08, 171.48 141.63 C 181.10 145.19, 190.72 142.28, 200.35 143.28 C 209.97 144.28, 219.59 146.51, 229.22 147.65 C 238.84 148.80, 248.46 150.13, 258.09 150.15 C 267.71 150.17, 277.33 147.47, 286.96 147.76 C 296.58 148.06, 306.20 151.04, 315.83 151.91 C 325.45 152.77, 335.07 153.18, 344.70 152.98 C 354.32 152.78, 363.94 151.57, 373.57 150.70 C 383.19 149.83, 392.81 151.34, 402.43 147.76 C 412.06 144.18, 421.68 135.68, 431.30 129.22 C 440.93 122.76, 450.55 116.29, 460.17 109.02 C 469.80 101.75, 479.42 91.76, 489.04 85.59 C 498.67 79.42, 508.29 71.16, 517.91 72.00 C 527.54 72.84, 537.16 87.00, 546.78 90.63 C 556.41 94.26, 566.03 91.75, 575.65 93.78 C 585.28 95.81, 594.90 103.20, 604.52 102.80 C 614.14 102.40, 623.77 93.63, 633.39 91.37 C 643.01 89.12, 652.64 87.10, 662.26 89.30 C 671.88 91.50, 681.51 102.59, 691.13 104.58 C 700.75 106.57, 715.19 101.78, 720.00 101.22 L 720.00 156.00 L 56.00 156.00 Z" fill="url(#hourFade)"/>
<path d="M 56.00 96.44 C 60.81 96.99, 75.25 99.08, 84.87 99.77 C 94.49 100.46, 104.12 96.89, 113.74 100.59 C 123.36 104.28, 132.99 115.09, 142.61 121.93 C 152.23 128.77, 161.86 138.08, 171.48 141.63 C 181.10 145.19, 190.72 142.28, 200.35 143.28 C 209.97 144.28, 219.59 146.51, 229.22 147.65 C 238.84 148.80, 248.46 150.13, 258.09 150.15 C 267.71 150.17, 277.33 147.47, 286.96 147.76 C 296.58 148.06, 306.20 151.04, 315.83 151.91 C 325.45 152.77, 335.07 153.18, 344.70 152.98 C 354.32 152.78, 363.94 151.57, 373.57 150.70 C 383.19 149.83, 392.81 151.34, 402.43 147.76 C 412.06 144.18, 421.68 135.68, 431.30 129.22 C 440.93 122.76, 450.55 116.29, 460.17 109.02 C 469.80 101.75, 479.42 91.76, 489.04 85.59 C 498.67 79.42, 508.29 71.16, 517.91 72.00 C 527.54 72.84, 537.16 87.00, 546.78 90.63 C 556.41 94.26, 566.03 91.75, 575.65 93.78 C 585.28 95.81, 594.90 103.20, 604.52 102.80 C 614.14 102.40, 623.77 93.63, 633.39 91.37 C 643.01 89.12, 652.64 87.10, 662.26 89.30 C 671.88 91.50, 681.51 102.59, 691.13 104.58 C 700.75 106.57, 715.19 101.78, 720.00 101.22" fill="none" stroke="url(#hourFill)" stroke-width="4" stroke-linecap="round"/>
<circle cx="56.00" cy="96.44" r="2.5" fill="#facc15" opacity="1"><title>00:00 - 10h 6m total</title></circle>
<circle cx="84.87" cy="99.77" r="2.5" fill="#facc15" opacity="1"><title>01:00 - 9h 32m total</title></circle>
<circle cx="113.74" cy="100.59" r="2.5" fill="#facc15" opacity="1"><title>02:00 - 9h 24m total</title></circle>
<circle cx="142.61" cy="121.93" r="2.5" fill="#facc15" opacity="1"><title>03:00 - 5h 46m total</title></circle>
<circle cx="171.48" cy="141.63" r="2.5" fill="#facc15" opacity="1"><title>04:00 - 2h 26m total</title></circle>
<circle cx="200.35" cy="143.28" r="2.5" fill="#facc15" opacity="1"><title>05:00 - 2h 9m total</title></circle>
<circle cx="229.22" cy="147.65" r="2.5" fill="#facc15" opacity="1"><title>06:00 - 1h 24m total</title></circle>
<circle cx="258.09" cy="150.15" r="2.5" fill="#facc15" opacity="1"><title>07:00 - 59m total</title></circle>
<circle cx="286.96" cy="147.76" r="2.5" fill="#facc15" opacity="1"><title>08:00 - 1h 23m total</title></circle>
<circle cx="315.83" cy="151.91" r="2.5" fill="#facc15" opacity="1"><title>09:00 - 41m total</title></circle>
<circle cx="344.70" cy="152.98" r="2.5" fill="#facc15" opacity="1"><title>10:00 - 30m total</title></circle>
<circle cx="373.57" cy="150.70" r="2.5" fill="#facc15" opacity="1"><title>11:00 - 53m total</title></circle>
<circle cx="402.43" cy="147.76" r="2.5" fill="#facc15" opacity="1"><title>12:00 - 1h 23m total</title></circle>
<circle cx="431.30" cy="129.22" r="2.5" fill="#facc15" opacity="1"><title>13:00 - 4h 32m total</title></circle>
<circle cx="460.17" cy="109.02" r="2.5" fill="#facc15" opacity="1"><title>14:00 - 7h 58m total</title></circle>
<circle cx="489.04" cy="85.59" r="2.5" fill="#facc15" opacity="1"><title>15:00 - 11h 56m total</title></circle>
<circle cx="517.91" cy="72.00" r="4" fill="#facc15" opacity="1"><title>16:00 - 14h 15m total</title></circle>
<circle cx="546.78" cy="90.63" r="2.5" fill="#facc15" opacity="1"><title>17:00 - 11h 5m total</title></circle>
<circle cx="575.65" cy="93.78" r="2.5" fill="#facc15" opacity="1"><title>18:00 - 10h 33m total</title></circle>
<circle cx="604.52" cy="102.80" r="2.5" fill="#facc15" opacity="1"><title>19:00 - 9h 1m total</title></circle>
<circle cx="633.39" cy="91.37" r="2.5" fill="#facc15" opacity="1"><title>20:00 - 10h 57m total</title></circle>
<circle cx="662.26" cy="89.30" r="2.5" fill="#facc15" opacity="1"><title>21:00 - 11h 18m total</title></circle>
<circle cx="691.13" cy="104.58" r="2.5" fill="#facc15" opacity="1"><title>22:00 - 8h 43m total</title></circle>
<circle cx="720.00" cy="101.22" r="2.5" fill="#facc15" opacity="1"><title>23:00 - 9h 17m total</title></circle>
<text x="20" y="191" font-family="Consolas,monospace" font-size="11px" fill="#616e7f">24-hour distribution across 30 days; higher curve = more coding time in that hour</text>
</svg>