<svg xmlns="http://www.w3.org/2000/svg" font-family="Consolas,monospace" width="760" height="205" font-size="14px"><rect width="760" height="205" fill="#161b22" rx="12"/>
<text x="20" y="34" font-family="Consolas,monospace" font-size="14px" fill="#616e7f">- Working Hours  (last 30d) ———————————————————————————————————————————-—-</text>
<text x="20" y="50" font-family="Consolas,monospace" font-size="12px" fill="#616e7f">total 193h 37m | peak 4h 15:00-19:00 | busiest 16:00 (17h 53m) | tz Asia/Ho_Chi_Minh</text>
<defs>
<linearGradient id="hourFill" x1="0" y1="0" x2="1" y2="0">
<stop offset="0%" stop-color="#1d4ed8"/>
<stop offset="45%" stop-color="#7c3aed"/>
<stop offset="75%" stop-color="#db2777"/>
<stop offset="100%" stop-color="#facc15"/>
</linearGradient>
<linearGradient id="hourFade" x1="0" y1="0" x2="1" y2="0">
<stop offset="0%" stop-color="#1d4ed8" stop-opacity="0.42"/>
<stop offset="28%" stop-color="#2563eb" stop-opacity="0.5"/>
<stop offset="50%" stop-color="#7c3aed" stop-opacity="0.58"/>
<stop offset="70%" stop-color="#db2777" stop-opacity="0.62"/>
<stop offset="86%" stop-color="#f97316" stop-opacity="0.58"/>
<stop offset="100%" stop-color="#facc15" stop-opacity="0.48"/>
</linearGradient>
</defs>
<line x1="56" y1="156" x2="720" y2="156" stroke="#616e7f" stroke-width="1" opacity="0.35"/>
<line x1="56.00" y1="72" x2="56.00" y2="156" stroke="#616e7f" stroke-width="1" opacity="0.16"/>
<text x="56.00" y="174" text-anchor="middle" font-family="Consolas,monospace" font-size="8px" fill="#616e7f">00</text>
<line x1="84.87" y1="72" x2="84.87" y2="156" stroke="#616e7f" stroke-width="1" opacity="0.07"/>
<text x="84.87" y="174" text-anchor="middle" font-family="Consolas,monospace" font-size="8px" fill="#616e7f">01</text>
<line x1="113.74" y1="72" x2="113.74" y2="156" stroke="#616e7f" stroke-width="1" opacity="0.07"/>
<text x="113.74" y="174" text-anchor="middle" font-family="Consolas,monospace" font-size="8px" fill="#616e7f">02</text>
<line x1="142.61" y1="72" x2="142.61" y2="156" stroke="#616e7f" stroke-width="1" opacity="0.16"/>
<text x="142.61" y="174" text-anchor="middle" font-family="Consolas,monospace" font-size="8px" fill="#616e7f">03</text>
<line x1="171.48" y1="72" x2="171.48" y2="156" stroke="#616e7f" stroke-width="1" opacity="0.07"/>
<text x="171.48" y="174" text-anchor="middle" font-family="Consolas,monospace" font-size="8px" fill="#616e7f">04</text>
<line x1="200.35" y1="72" x2="200.35" y2="156" stroke="#616e7f" stroke-width="1" opacity="0.07"/>
<text x="200.35" y="174" text-anchor="middle" font-family="Consolas,monospace" font-size="8px" fill="#616e7f">05</text>
<line x1="229.22" y1="72" x2="229.22" y2="156" stroke="#616e7f" stroke-width="1" opacity="0.16"/>
<text x="229.22" y="174" text-anchor="middle" font-family="Consolas,monospace" font-size="8px" fill="#616e7f">06</text>
<line x1="258.09" y1="72" x2="258.09" y2="156" stroke="#616e7f" stroke-width="1" opacity="0.07"/>
<text x="258.09" y="174" text-anchor="middle" font-family="Consolas,monospace" font-size="8px" fill="#616e7f">07</text>
<line x1="286.96" y1="72" x2="286.96" y2="156" stroke="#616e7f" stroke-width="1" opacity="0.07"/>
<text x="286.96" y="174" text-anchor="middle" font-family="Consolas,monospace" font-size="8px" fill="#616e7f">08</text>
<line x1="315.83" y1="72" x2="315.83" y2="156" stroke="#616e7f" stroke-width="1" opacity="0.16"/>
<text x="315.83" y="174" text-anchor="middle" font-family="Consolas,monospace" font-size="8px" fill="#616e7f">09</text>
<line x1="344.70" y1="72" x2="344.70" y2="156" stroke="#616e7f" stroke-width="1" opacity="0.07"/>
<text x="344.70" y="174" text-anchor="middle" font-family="Consolas,monospace" font-size="8px" fill="#616e7f">10</text>
<line x1="373.57" y1="72" x2="373.57" y2="156" stroke="#616e7f" stroke-width="1" opacity="0.07"/>
<text x="373.57" y="174" text-anchor="middle" font-family="Consolas,monospace" font-size="8px" fill="#616e7f">11</text>
<line x1="402.43" y1="72" x2="402.43" y2="156" stroke="#616e7f" stroke-width="1" opacity="0.16"/>
<text x="402.43" y="174" text-anchor="middle" font-family="Consolas,monospace" font-size="8px" fill="#616e7f">12</text>
<line x1="431.30" y1="72" x2="431.30" y2="156" stroke="#616e7f" stroke-width="1" opacity="0.07"/>
<text x="431.30" y="174" text-anchor="middle" font-family="Consolas,monospace" font-size="8px" fill="#616e7f">13</text>
<line x1="460.17" y1="72" x2="460.17" y2="156" stroke="#616e7f" stroke-width="1" opacity="0.07"/>
<text x="460.17" y="174" text-anchor="middle" font-family="Consolas,monospace" font-size="8px" fill="#616e7f">14</text>
<line x1="489.04" y1="72" x2="489.04" y2="156" stroke="#616e7f" stroke-width="1" opacity="0.16"/>
<text x="489.04" y="174" text-anchor="middle" font-family="Consolas,monospace" font-size="8px" fill="#616e7f">15</text>
<line x1="517.91" y1="72" x2="517.91" y2="156" stroke="#616e7f" stroke-width="1" opacity="0.07"/>
<text x="517.91" y="174" text-anchor="middle" font-family="Consolas,monospace" font-size="8px" fill="#616e7f">16</text>
<line x1="546.78" y1="72" x2="546.78" y2="156" stroke="#616e7f" stroke-width="1" opacity="0.07"/>
<text x="546.78" y="174" text-anchor="middle" font-family="Consolas,monospace" font-size="8px" fill="#616e7f">17</text>
<line x1="575.65" y1="72" x2="575.65" y2="156" stroke="#616e7f" stroke-width="1" opacity="0.16"/>
<text x="575.65" y="174" text-anchor="middle" font-family="Consolas,monospace" font-size="8px" fill="#616e7f">18</text>
<line x1="604.52" y1="72" x2="604.52" y2="156" stroke="#616e7f" stroke-width="1" opacity="0.07"/>
<text x="604.52" y="174" text-anchor="middle" font-family="Consolas,monospace" font-size="8px" fill="#616e7f">19</text>
<line x1="633.39" y1="72" x2="633.39" y2="156" stroke="#616e7f" stroke-width="1" opacity="0.07"/>
<text x="633.39" y="174" text-anchor="middle" font-family="Consolas,monospace" font-size="8px" fill="#616e7f">20</text>
<line x1="662.26" y1="72" x2="662.26" y2="156" stroke="#616e7f" stroke-width="1" opacity="0.16"/>
<text x="662.26" y="174" text-anchor="middle" font-family="Consolas,monospace" font-size="8px" fill="#616e7f">21</text>
<line x1="691.13" y1="72" x2="691.13" y2="156" stroke="#616e7f" stroke-width="1" opacity="0.07"/>
<text x="691.13" y="174" text-anchor="middle" font-family="Consolas,monospace" font-size="8px" fill="#616e7f">22</text>
<line x1="720.00" y1="72" x2="720.00" y2="156" stroke="#616e7f" stroke-width="1" opacity="0.07"/>
<text x="720.00" y="174" text-anchor="middle" font-family="Consolas,monospace" font-size="8px" fill="#616e7f">23</text>
<path d="M 56.00 100.38 C 60.81 100.54, 75.25 99.52, 84.87 101.34 C 94.49 103.16, 104.12 106.85, 113.74 111.29 C 123.36 115.74, 132.99 122.67, 142.61 128.00 C 152.23 133.33, 161.86 140.29, 171.48 143.27 C 181.10 146.25, 190.72 144.86, 200.35 145.87 C 209.97 146.88, 219.59 148.44, 229.22 149.35 C 238.84 150.27, 248.46 151.33, 258.09 151.34 C 267.71 151.36, 277.33 149.21, 286.96 149.44 C 296.58 149.67, 306.20 152.05, 315.83 152.74 C 325.45 153.43, 335.07 154.01, 344.70 153.59 C 354.32 153.18, 363.94 151.78, 373.57 150.28 C 383.19 148.77, 392.81 148.76, 402.43 144.56 C 412.06 140.36, 421.68 130.70, 431.30 125.08 C 440.93 119.46, 450.55 117.55, 460.17 110.83 C 469.80 104.11, 479.42 91.26, 489.04 84.78 C 498.67 78.31, 508.29 71.67, 517.91 72.00 C 527.54 72.33, 537.16 83.62, 546.78 86.77 C 556.41 89.92, 566.03 88.86, 575.65 90.89 C 585.28 92.91, 594.90 98.73, 604.52 98.94 C 614.14 99.15, 623.77 93.37, 633.39 92.14 C 643.01 90.92, 652.64 90.06, 662.26 91.61 C 671.88 93.15, 681.51 100.13, 691.13 101.41 C 700.75 102.70, 715.19 99.66, 720.00 99.32 L 720.00 156.00 L 56.00 156.00 Z" fill="url(#hourFade)"/>
<path d="M 56.00 100.38 C 60.81 100.54, 75.25 99.52, 84.87 101.34 C 94.49 103.16, 104.12 106.85, 113.74 111.29 C 123.36 115.74, 132.99 122.67, 142.61 128.00 C 152.23 133.33, 161.86 140.29, 171.48 143.27 C 181.10 146.25, 190.72 144.86, 200.35 145.87 C 209.97 146.88, 219.59 148.44, 229.22 149.35 C 238.84 150.27, 248.46 151.33, 258.09 151.34 C 267.71 151.36, 277.33 149.21, 286.96 149.44 C 296.58 149.67, 306.20 152.05, 315.83 152.74 C 325.45 153.43, 335.07 154.01, 344.70 153.59 C 354.32 153.18, 363.94 151.78, 373.57 150.28 C 383.19 148.77, 392.81 148.76, 402.43 144.56 C 412.06 140.36, 421.68 130.70, 431.30 125.08 C 440.93 119.46, 450.55 117.55, 460.17 110.83 C 469.80 104.11, 479.42 91.26, 489.04 84.78 C 498.67 78.31, 508.29 71.67, 517.91 72.00 C 527.54 72.33, 537.16 83.62, 546.78 86.77 C 556.41 89.92, 566.03 88.86, 575.65 90.89 C 585.28 92.91, 594.90 98.73, 604.52 98.94 C 614.14 99.15, 623.77 93.37, 633.39 92.14 C 643.01 90.92, 652.64 90.06, 662.26 91.61 C 671.88 93.15, 681.51 100.13, 691.13 101.41 C 700.75 102.70, 715.19 99.66, 720.00 99.32" fill="none" stroke="url(#hourFill)" stroke-width="4" stroke-linecap="round"/>
<circle cx="56.00" cy="100.38" r="2.5" fill="#facc15" opacity="1"><title>00:00 - 11h 51m total</title></circle>
<circle cx="84.87" cy="101.34" r="2.5" fill="#facc15" opacity="1"><title>01:00 - 11h 38m total</title></circle>
<circle cx="113.74" cy="111.29" r="2.5" fill="#facc15" opacity="1"><title>02:00 - 9h 31m total</title></circle>
<circle cx="142.61" cy="128.00" r="2.5" fill="#facc15" opacity="1"><title>03:00 - 5h 57m total</title></circle>
<circle cx="171.48" cy="143.27" r="2.5" fill="#facc15" opacity="1"><title>04:00 - 2h 42m total</title></circle>
<circle cx="200.35" cy="145.87" r="2.5" fill="#facc15" opacity="1"><title>05:00 - 2h 9m total</title></circle>
<circle cx="229.22" cy="149.35" r="2.5" fill="#facc15" opacity="1"><title>06:00 - 1h 24m total</title></circle>
<circle cx="258.09" cy="151.34" r="2.5" fill="#facc15" opacity="1"><title>07:00 - 59m total</title></circle>
<circle cx="286.96" cy="149.44" r="2.5" fill="#facc15" opacity="1"><title>08:00 - 1h 23m total</title></circle>
<circle cx="315.83" cy="152.74" r="2.5" fill="#facc15" opacity="1"><title>09:00 - 41m total</title></circle>
<circle cx="344.70" cy="153.59" r="2.5" fill="#facc15" opacity="1"><title>10:00 - 30m total</title></circle>
<circle cx="373.57" cy="150.28" r="2.5" fill="#facc15" opacity="1"><title>11:00 - 1h 13m total</title></circle>
<circle cx="402.43" cy="144.56" r="2.5" fill="#facc15" opacity="1"><title>12:00 - 2h 26m total</title></circle>
<circle cx="431.30" cy="125.08" r="2.5" fill="#facc15" opacity="1"><title>13:00 - 6h 35m total</title></circle>
<circle cx="460.17" cy="110.83" r="2.5" fill="#facc15" opacity="1"><title>14:00 - 9h 37m total</title></circle>
<circle cx="489.04" cy="84.78" r="2.5" fill="#facc15" opacity="1"><title>15:00 - 15h 10m total</title></circle>
<circle cx="517.91" cy="72.00" r="4" fill="#facc15" opacity="1"><title>16:00 - 17h 53m total</title></circle>
<circle cx="546.78" cy="86.77" r="2.5" fill="#facc15" opacity="1"><title>17:00 - 14h 44m total</title></circle>
<circle cx="575.65" cy="90.89" r="2.5" fill="#facc15" opacity="1"><title>18:00 - 13h 52m total</title></circle>
<circle cx="604.52" cy="98.94" r="2.5" fill="#facc15" opacity="1"><title>19:00 - 12h 9m total</title></circle>
<circle cx="633.39" cy="92.14" r="2.5" fill="#facc15" opacity="1"><title>20:00 - 13h 36m total</title></circle>
<circle cx="662.26" cy="91.61" r="2.5" fill="#facc15" opacity="1"><title>21:00 - 13h 43m total</title></circle>
<circle cx="691.13" cy="101.41" r="2.5" fill="#facc15" opacity="1"><title>22:00 - 11h 37m total</title></circle>
<circle cx="720.00" cy="99.32" r="2.5" fill="#facc15" opacity="1"><title>23:00 - 12h 4m total</title></circle>
<text x="20" y="191" font-family="Consolas,monospace" font-size="11px" fill="#616e7f">24-hour distribution across 30 days; higher curve = more coding time in that hour</text>
</svg>