<svg xmlns="http://www.w3.org/2000/svg" font-family="Consolas,monospace" width="760" height="205" font-size="14px"><rect width="760" height="205" fill="#161b22" rx="12"/>
<text x="20" y="34" font-family="Consolas,monospace" font-size="14px" fill="#616e7f">- Working Hours  (last 30d) ———————————————————————————————————————————-—-</text>
<text x="20" y="50" font-family="Consolas,monospace" font-size="12px" fill="#616e7f">total 124h 53m | peak 4h 15:00-19:00 | busiest 16:00 (11h 39m) | tz Asia/Ho_Chi_Minh</text>
<defs>
<linearGradient id="hourFill" x1="0" y1="0" x2="1" y2="0">
<stop offset="0%" stop-color="#1d4ed8"/>
<stop offset="45%" stop-color="#7c3aed"/>
<stop offset="75%" stop-color="#db2777"/>
<stop offset="100%" stop-color="#facc15"/>
</linearGradient>
<linearGradient id="hourFade" x1="0" y1="0" x2="1" y2="0">
<stop offset="0%" stop-color="#1d4ed8" stop-opacity="0.42"/>
<stop offset="28%" stop-color="#2563eb" stop-opacity="0.5"/>
<stop offset="50%" stop-color="#7c3aed" stop-opacity="0.58"/>
<stop offset="70%" stop-color="#db2777" stop-opacity="0.62"/>
<stop offset="86%" stop-color="#f97316" stop-opacity="0.58"/>
<stop offset="100%" stop-color="#facc15" stop-opacity="0.48"/>
</linearGradient>
</defs>
<line x1="56" y1="156" x2="720" y2="156" stroke="#616e7f" stroke-width="1" opacity="0.35"/>
<line x1="56.00" y1="72" x2="56.00" y2="156" stroke="#616e7f" stroke-width="1" opacity="0.16"/>
<text x="56.00" y="174" text-anchor="middle" font-family="Consolas,monospace" font-size="8px" fill="#616e7f">00</text>
<line x1="84.87" y1="72" x2="84.87" y2="156" stroke="#616e7f" stroke-width="1" opacity="0.07"/>
<text x="84.87" y="174" text-anchor="middle" font-family="Consolas,monospace" font-size="8px" fill="#616e7f">01</text>
<line x1="113.74" y1="72" x2="113.74" y2="156" stroke="#616e7f" stroke-width="1" opacity="0.07"/>
<text x="113.74" y="174" text-anchor="middle" font-family="Consolas,monospace" font-size="8px" fill="#616e7f">02</text>
<line x1="142.61" y1="72" x2="142.61" y2="156" stroke="#616e7f" stroke-width="1" opacity="0.16"/>
<text x="142.61" y="174" text-anchor="middle" font-family="Consolas,monospace" font-size="8px" fill="#616e7f">03</text>
<line x1="171.48" y1="72" x2="171.48" y2="156" stroke="#616e7f" stroke-width="1" opacity="0.07"/>
<text x="171.48" y="174" text-anchor="middle" font-family="Consolas,monospace" font-size="8px" fill="#616e7f">04</text>
<line x1="200.35" y1="72" x2="200.35" y2="156" stroke="#616e7f" stroke-width="1" opacity="0.07"/>
<text x="200.35" y="174" text-anchor="middle" font-family="Consolas,monospace" font-size="8px" fill="#616e7f">05</text>
<line x1="229.22" y1="72" x2="229.22" y2="156" stroke="#616e7f" stroke-width="1" opacity="0.16"/>
<text x="229.22" y="174" text-anchor="middle" font-family="Consolas,monospace" font-size="8px" fill="#616e7f">06</text>
<line x1="258.09" y1="72" x2="258.09" y2="156" stroke="#616e7f" stroke-width="1" opacity="0.07"/>
<text x="258.09" y="174" text-anchor="middle" font-family="Consolas,monospace" font-size="8px" fill="#616e7f">07</text>
<line x1="286.96" y1="72" x2="286.96" y2="156" stroke="#616e7f" stroke-width="1" opacity="0.07"/>
<text x="286.96" y="174" text-anchor="middle" font-family="Consolas,monospace" font-size="8px" fill="#616e7f">08</text>
<line x1="315.83" y1="72" x2="315.83" y2="156" stroke="#616e7f" stroke-width="1" opacity="0.16"/>
<text x="315.83" y="174" text-anchor="middle" font-family="Consolas,monospace" font-size="8px" fill="#616e7f">09</text>
<line x1="344.70" y1="72" x2="344.70" y2="156" stroke="#616e7f" stroke-width="1" opacity="0.07"/>
<text x="344.70" y="174" text-anchor="middle" font-family="Consolas,monospace" font-size="8px" fill="#616e7f">10</text>
<line x1="373.57" y1="72" x2="373.57" y2="156" stroke="#616e7f" stroke-width="1" opacity="0.07"/>
<text x="373.57" y="174" text-anchor="middle" font-family="Consolas,monospace" font-size="8px" fill="#616e7f">11</text>
<line x1="402.43" y1="72" x2="402.43" y2="156" stroke="#616e7f" stroke-width="1" opacity="0.16"/>
<text x="402.43" y="174" text-anchor="middle" font-family="Consolas,monospace" font-size="8px" fill="#616e7f">12</text>
<line x1="431.30" y1="72" x2="431.30" y2="156" stroke="#616e7f" stroke-width="1" opacity="0.07"/>
<text x="431.30" y="174" text-anchor="middle" font-family="Consolas,monospace" font-size="8px" fill="#616e7f">13</text>
<line x1="460.17" y1="72" x2="460.17" y2="156" stroke="#616e7f" stroke-width="1" opacity="0.07"/>
<text x="460.17" y="174" text-anchor="middle" font-family="Consolas,monospace" font-size="8px" fill="#616e7f">14</text>
<line x1="489.04" y1="72" x2="489.04" y2="156" stroke="#616e7f" stroke-width="1" opacity="0.16"/>
<text x="489.04" y="174" text-anchor="middle" font-family="Consolas,monospace" font-size="8px" fill="#616e7f">15</text>
<line x1="517.91" y1="72" x2="517.91" y2="156" stroke="#616e7f" stroke-width="1" opacity="0.07"/>
<text x="517.91" y="174" text-anchor="middle" font-family="Consolas,monospace" font-size="8px" fill="#616e7f">16</text>
<line x1="546.78" y1="72" x2="546.78" y2="156" stroke="#616e7f" stroke-width="1" opacity="0.07"/>
<text x="546.78" y="174" text-anchor="middle" font-family="Consolas,monospace" font-size="8px" fill="#616e7f">17</text>
<line x1="575.65" y1="72" x2="575.65" y2="156" stroke="#616e7f" stroke-width="1" opacity="0.16"/>
<text x="575.65" y="174" text-anchor="middle" font-family="Consolas,monospace" font-size="8px" fill="#616e7f">18</text>
<line x1="604.52" y1="72" x2="604.52" y2="156" stroke="#616e7f" stroke-width="1" opacity="0.07"/>
<text x="604.52" y="174" text-anchor="middle" font-family="Consolas,monospace" font-size="8px" fill="#616e7f">19</text>
<line x1="633.39" y1="72" x2="633.39" y2="156" stroke="#616e7f" stroke-width="1" opacity="0.07"/>
<text x="633.39" y="174" text-anchor="middle" font-family="Consolas,monospace" font-size="8px" fill="#616e7f">20</text>
<line x1="662.26" y1="72" x2="662.26" y2="156" stroke="#616e7f" stroke-width="1" opacity="0.16"/>
<text x="662.26" y="174" text-anchor="middle" font-family="Consolas,monospace" font-size="8px" fill="#616e7f">21</text>
<line x1="691.13" y1="72" x2="691.13" y2="156" stroke="#616e7f" stroke-width="1" opacity="0.07"/>
<text x="691.13" y="174" text-anchor="middle" font-family="Consolas,monospace" font-size="8px" fill="#616e7f">22</text>
<line x1="720.00" y1="72" x2="720.00" y2="156" stroke="#616e7f" stroke-width="1" opacity="0.07"/>
<text x="720.00" y="174" text-anchor="middle" font-family="Consolas,monospace" font-size="8px" fill="#616e7f">23</text>
<path d="M 56.00 103.50 C 60.81 103.56, 75.25 101.65, 84.87 103.88 C 94.49 106.11, 104.12 114.89, 113.74 116.88 C 123.36 118.88, 132.99 111.88, 142.61 115.85 C 152.23 119.81, 161.86 136.18, 171.48 140.68 C 181.10 145.18, 190.72 140.64, 200.35 142.82 C 209.97 145.01, 219.59 152.81, 229.22 153.81 C 238.84 154.80, 248.46 150.53, 258.09 148.80 C 267.71 147.07, 277.33 144.80, 286.96 143.45 C 296.58 142.10, 306.20 140.53, 315.83 140.70 C 325.45 140.87, 335.07 142.26, 344.70 144.48 C 354.32 146.71, 363.94 153.31, 373.57 154.04 C 383.19 154.78, 392.81 153.12, 402.43 148.89 C 412.06 144.67, 421.68 134.30, 431.30 128.69 C 440.93 123.07, 450.55 122.51, 460.17 115.19 C 469.80 107.86, 479.42 91.91, 489.04 84.72 C 498.67 77.52, 508.29 72.30, 517.91 72.00 C 527.54 71.70, 537.16 78.71, 546.78 82.94 C 556.41 87.17, 566.03 96.13, 575.65 97.39 C 585.28 98.64, 594.90 91.60, 604.52 90.48 C 614.14 89.35, 623.77 86.54, 633.39 90.66 C 643.01 94.78, 652.64 111.58, 662.26 115.19 C 671.88 118.79, 681.51 115.25, 691.13 112.27 C 700.75 109.29, 715.19 99.81, 720.00 97.32 L 720.00 156.00 L 56.00 156.00 Z" fill="url(#hourFade)"/>
<path d="M 56.00 103.50 C 60.81 103.56, 75.25 101.65, 84.87 103.88 C 94.49 106.11, 104.12 114.89, 113.74 116.88 C 123.36 118.88, 132.99 111.88, 142.61 115.85 C 152.23 119.81, 161.86 136.18, 171.48 140.68 C 181.10 145.18, 190.72 140.64, 200.35 142.82 C 209.97 145.01, 219.59 152.81, 229.22 153.81 C 238.84 154.80, 248.46 150.53, 258.09 148.80 C 267.71 147.07, 277.33 144.80, 286.96 143.45 C 296.58 142.10, 306.20 140.53, 315.83 140.70 C 325.45 140.87, 335.07 142.26, 344.70 144.48 C 354.32 146.71, 363.94 153.31, 373.57 154.04 C 383.19 154.78, 392.81 153.12, 402.43 148.89 C 412.06 144.67, 421.68 134.30, 431.30 128.69 C 440.93 123.07, 450.55 122.51, 460.17 115.19 C 469.80 107.86, 479.42 91.91, 489.04 84.72 C 498.67 77.52, 508.29 72.30, 517.91 72.00 C 527.54 71.70, 537.16 78.71, 546.78 82.94 C 556.41 87.17, 566.03 96.13, 575.65 97.39 C 585.28 98.64, 594.90 91.60, 604.52 90.48 C 614.14 89.35, 623.77 86.54, 633.39 90.66 C 643.01 94.78, 652.64 111.58, 662.26 115.19 C 671.88 118.79, 681.51 115.25, 691.13 112.27 C 700.75 109.29, 715.19 99.81, 720.00 97.32" fill="none" stroke="url(#hourFill)" stroke-width="4" stroke-linecap="round"/>
<circle cx="56.00" cy="103.50" r="2.5" fill="#facc15" opacity="1"><title>00:00 - 7h 17m total</title></circle>
<circle cx="84.87" cy="103.88" r="2.5" fill="#facc15" opacity="1"><title>01:00 - 7h 14m total</title></circle>
<circle cx="113.74" cy="116.88" r="2.5" fill="#facc15" opacity="1"><title>02:00 - 5h 25m total</title></circle>
<circle cx="142.61" cy="115.85" r="2.5" fill="#facc15" opacity="1"><title>03:00 - 5h 34m total</title></circle>
<circle cx="171.48" cy="140.68" r="2.5" fill="#facc15" opacity="1"><title>04:00 - 2h 7m total</title></circle>
<circle cx="200.35" cy="142.82" r="2.5" fill="#facc15" opacity="1"><title>05:00 - 1h 49m total</title></circle>
<circle cx="229.22" cy="153.81" r="2.5" fill="#facc15" opacity="1"><title>06:00 - 18m total</title></circle>
<circle cx="258.09" cy="148.80" r="2.5" fill="#facc15" opacity="1"><title>07:00 - 1h 0m total</title></circle>
<circle cx="286.96" cy="143.45" r="2.5" fill="#facc15" opacity="1"><title>08:00 - 1h 44m total</title></circle>
<circle cx="315.83" cy="140.70" r="2.5" fill="#facc15" opacity="1"><title>09:00 - 2h 7m total</title></circle>
<circle cx="344.70" cy="144.48" r="2.5" fill="#facc15" opacity="1"><title>10:00 - 1h 35m total</title></circle>
<circle cx="373.57" cy="154.04" r="2.5" fill="#facc15" opacity="1"><title>11:00 - 16m total</title></circle>
<circle cx="402.43" cy="148.89" r="2.5" fill="#facc15" opacity="1"><title>12:00 - 59m total</title></circle>
<circle cx="431.30" cy="128.69" r="2.5" fill="#facc15" opacity="1"><title>13:00 - 3h 47m total</title></circle>
<circle cx="460.17" cy="115.19" r="2.5" fill="#facc15" opacity="1"><title>14:00 - 5h 40m total</title></circle>
<circle cx="489.04" cy="84.72" r="2.5" fill="#facc15" opacity="1"><title>15:00 - 9h 53m total</title></circle>
<circle cx="517.91" cy="72.00" r="4" fill="#facc15" opacity="1"><title>16:00 - 11h 39m total</title></circle>
<circle cx="546.78" cy="82.94" r="2.5" fill="#facc15" opacity="1"><title>17:00 - 10h 8m total</title></circle>
<circle cx="575.65" cy="97.39" r="2.5" fill="#facc15" opacity="1"><title>18:00 - 8h 8m total</title></circle>
<circle cx="604.52" cy="90.48" r="2.5" fill="#facc15" opacity="1"><title>19:00 - 9h 5m total</title></circle>
<circle cx="633.39" cy="90.66" r="2.5" fill="#facc15" opacity="1"><title>20:00 - 9h 4m total</title></circle>
<circle cx="662.26" cy="115.19" r="2.5" fill="#facc15" opacity="1"><title>21:00 - 5h 40m total</title></circle>
<circle cx="691.13" cy="112.27" r="2.5" fill="#facc15" opacity="1"><title>22:00 - 6h 4m total</title></circle>
<circle cx="720.00" cy="97.32" r="2.5" fill="#facc15" opacity="1"><title>23:00 - 8h 8m total</title></circle>
<text x="20" y="191" font-family="Consolas,monospace" font-size="11px" fill="#616e7f">24-hour distribution across 30 days; higher curve = more coding time in that hour</text>
</svg>