<svg xmlns="http://www.w3.org/2000/svg" font-family="Consolas,monospace" width="760" height="205" font-size="14px"><rect width="760" height="205" fill="#161b22" rx="12"/>
<text x="20" y="34" font-family="Consolas,monospace" font-size="14px" fill="#616e7f">- Working Hours  (last 30d) ———————————————————————————————————————————-—-</text>
<text x="20" y="50" font-family="Consolas,monospace" font-size="12px" fill="#616e7f">total 184h 19m | peak 4h 15:00-19:00 | busiest 16:00 (16h 47m) | tz Asia/Ho_Chi_Minh</text>
<defs>
<linearGradient id="hourFill" x1="0" y1="0" x2="1" y2="0">
<stop offset="0%" stop-color="#1d4ed8"/>
<stop offset="45%" stop-color="#7c3aed"/>
<stop offset="75%" stop-color="#db2777"/>
<stop offset="100%" stop-color="#facc15"/>
</linearGradient>
<linearGradient id="hourFade" x1="0" y1="0" x2="1" y2="0">
<stop offset="0%" stop-color="#1d4ed8" stop-opacity="0.42"/>
<stop offset="28%" stop-color="#2563eb" stop-opacity="0.5"/>
<stop offset="50%" stop-color="#7c3aed" stop-opacity="0.58"/>
<stop offset="70%" stop-color="#db2777" stop-opacity="0.62"/>
<stop offset="86%" stop-color="#f97316" stop-opacity="0.58"/>
<stop offset="100%" stop-color="#facc15" stop-opacity="0.48"/>
</linearGradient>
</defs>
<line x1="56" y1="156" x2="720" y2="156" stroke="#616e7f" stroke-width="1" opacity="0.35"/>
<line x1="56.00" y1="72" x2="56.00" y2="156" stroke="#616e7f" stroke-width="1" opacity="0.16"/>
<text x="56.00" y="174" text-anchor="middle" font-family="Consolas,monospace" font-size="8px" fill="#616e7f">00</text>
<line x1="84.87" y1="72" x2="84.87" y2="156" stroke="#616e7f" stroke-width="1" opacity="0.07"/>
<text x="84.87" y="174" text-anchor="middle" font-family="Consolas,monospace" font-size="8px" fill="#616e7f">01</text>
<line x1="113.74" y1="72" x2="113.74" y2="156" stroke="#616e7f" stroke-width="1" opacity="0.07"/>
<text x="113.74" y="174" text-anchor="middle" font-family="Consolas,monospace" font-size="8px" fill="#616e7f">02</text>
<line x1="142.61" y1="72" x2="142.61" y2="156" stroke="#616e7f" stroke-width="1" opacity="0.16"/>
<text x="142.61" y="174" text-anchor="middle" font-family="Consolas,monospace" font-size="8px" fill="#616e7f">03</text>
<line x1="171.48" y1="72" x2="171.48" y2="156" stroke="#616e7f" stroke-width="1" opacity="0.07"/>
<text x="171.48" y="174" text-anchor="middle" font-family="Consolas,monospace" font-size="8px" fill="#616e7f">04</text>
<line x1="200.35" y1="72" x2="200.35" y2="156" stroke="#616e7f" stroke-width="1" opacity="0.07"/>
<text x="200.35" y="174" text-anchor="middle" font-family="Consolas,monospace" font-size="8px" fill="#616e7f">05</text>
<line x1="229.22" y1="72" x2="229.22" y2="156" stroke="#616e7f" stroke-width="1" opacity="0.16"/>
<text x="229.22" y="174" text-anchor="middle" font-family="Consolas,monospace" font-size="8px" fill="#616e7f">06</text>
<line x1="258.09" y1="72" x2="258.09" y2="156" stroke="#616e7f" stroke-width="1" opacity="0.07"/>
<text x="258.09" y="174" text-anchor="middle" font-family="Consolas,monospace" font-size="8px" fill="#616e7f">07</text>
<line x1="286.96" y1="72" x2="286.96" y2="156" stroke="#616e7f" stroke-width="1" opacity="0.07"/>
<text x="286.96" y="174" text-anchor="middle" font-family="Consolas,monospace" font-size="8px" fill="#616e7f">08</text>
<line x1="315.83" y1="72" x2="315.83" y2="156" stroke="#616e7f" stroke-width="1" opacity="0.16"/>
<text x="315.83" y="174" text-anchor="middle" font-family="Consolas,monospace" font-size="8px" fill="#616e7f">09</text>
<line x1="344.70" y1="72" x2="344.70" y2="156" stroke="#616e7f" stroke-width="1" opacity="0.07"/>
<text x="344.70" y="174" text-anchor="middle" font-family="Consolas,monospace" font-size="8px" fill="#616e7f">10</text>
<line x1="373.57" y1="72" x2="373.57" y2="156" stroke="#616e7f" stroke-width="1" opacity="0.07"/>
<text x="373.57" y="174" text-anchor="middle" font-family="Consolas,monospace" font-size="8px" fill="#616e7f">11</text>
<line x1="402.43" y1="72" x2="402.43" y2="156" stroke="#616e7f" stroke-width="1" opacity="0.16"/>
<text x="402.43" y="174" text-anchor="middle" font-family="Consolas,monospace" font-size="8px" fill="#616e7f">12</text>
<line x1="431.30" y1="72" x2="431.30" y2="156" stroke="#616e7f" stroke-width="1" opacity="0.07"/>
<text x="431.30" y="174" text-anchor="middle" font-family="Consolas,monospace" font-size="8px" fill="#616e7f">13</text>
<line x1="460.17" y1="72" x2="460.17" y2="156" stroke="#616e7f" stroke-width="1" opacity="0.07"/>
<text x="460.17" y="174" text-anchor="middle" font-family="Consolas,monospace" font-size="8px" fill="#616e7f">14</text>
<line x1="489.04" y1="72" x2="489.04" y2="156" stroke="#616e7f" stroke-width="1" opacity="0.16"/>
<text x="489.04" y="174" text-anchor="middle" font-family="Consolas,monospace" font-size="8px" fill="#616e7f">15</text>
<line x1="517.91" y1="72" x2="517.91" y2="156" stroke="#616e7f" stroke-width="1" opacity="0.07"/>
<text x="517.91" y="174" text-anchor="middle" font-family="Consolas,monospace" font-size="8px" fill="#616e7f">16</text>
<line x1="546.78" y1="72" x2="546.78" y2="156" stroke="#616e7f" stroke-width="1" opacity="0.07"/>
<text x="546.78" y="174" text-anchor="middle" font-family="Consolas,monospace" font-size="8px" fill="#616e7f">17</text>
<line x1="575.65" y1="72" x2="575.65" y2="156" stroke="#616e7f" stroke-width="1" opacity="0.16"/>
<text x="575.65" y="174" text-anchor="middle" font-family="Consolas,monospace" font-size="8px" fill="#616e7f">18</text>
<line x1="604.52" y1="72" x2="604.52" y2="156" stroke="#616e7f" stroke-width="1" opacity="0.07"/>
<text x="604.52" y="174" text-anchor="middle" font-family="Consolas,monospace" font-size="8px" fill="#616e7f">19</text>
<line x1="633.39" y1="72" x2="633.39" y2="156" stroke="#616e7f" stroke-width="1" opacity="0.07"/>
<text x="633.39" y="174" text-anchor="middle" font-family="Consolas,monospace" font-size="8px" fill="#616e7f">20</text>
<line x1="662.26" y1="72" x2="662.26" y2="156" stroke="#616e7f" stroke-width="1" opacity="0.16"/>
<text x="662.26" y="174" text-anchor="middle" font-family="Consolas,monospace" font-size="8px" fill="#616e7f">21</text>
<line x1="691.13" y1="72" x2="691.13" y2="156" stroke="#616e7f" stroke-width="1" opacity="0.07"/>
<text x="691.13" y="174" text-anchor="middle" font-family="Consolas,monospace" font-size="8px" fill="#616e7f">22</text>
<line x1="720.00" y1="72" x2="720.00" y2="156" stroke="#616e7f" stroke-width="1" opacity="0.07"/>
<text x="720.00" y="174" text-anchor="middle" font-family="Consolas,monospace" font-size="8px" fill="#616e7f">23</text>
<path d="M 56.00 101.42 C 60.81 101.38, 75.25 100.04, 84.87 101.20 C 94.49 102.35, 104.12 104.28, 113.74 108.35 C 123.36 112.42, 132.99 119.94, 142.61 125.62 C 152.23 131.30, 161.86 139.17, 171.48 142.43 C 181.10 145.69, 190.72 144.12, 200.35 145.20 C 209.97 146.28, 219.59 147.94, 229.22 148.92 C 238.84 149.89, 248.46 151.02, 258.09 151.04 C 267.71 151.05, 277.33 148.76, 286.96 149.01 C 296.58 149.26, 306.20 151.79, 315.83 152.52 C 325.45 153.26, 335.07 153.87, 344.70 153.44 C 354.32 153.00, 363.94 151.75, 373.57 149.90 C 383.19 148.05, 392.81 146.80, 402.43 142.34 C 412.06 137.89, 421.68 128.99, 431.30 123.18 C 440.93 117.37, 450.55 114.09, 460.17 107.49 C 469.80 100.89, 479.42 89.49, 489.04 83.57 C 498.67 77.66, 508.29 71.39, 517.91 72.00 C 527.54 72.61, 537.16 84.31, 546.78 87.21 C 556.41 90.12, 566.03 87.11, 575.65 89.44 C 585.28 91.76, 594.90 100.58, 604.52 101.19 C 614.14 101.79, 623.77 94.73, 633.39 93.08 C 643.01 91.42, 652.64 89.63, 662.26 91.25 C 671.88 92.88, 681.51 101.50, 691.13 102.83 C 700.75 104.16, 715.19 99.83, 720.00 99.23 L 720.00 156.00 L 56.00 156.00 Z" fill="url(#hourFade)"/>
<path d="M 56.00 101.42 C 60.81 101.38, 75.25 100.04, 84.87 101.20 C 94.49 102.35, 104.12 104.28, 113.74 108.35 C 123.36 112.42, 132.99 119.94, 142.61 125.62 C 152.23 131.30, 161.86 139.17, 171.48 142.43 C 181.10 145.69, 190.72 144.12, 200.35 145.20 C 209.97 146.28, 219.59 147.94, 229.22 148.92 C 238.84 149.89, 248.46 151.02, 258.09 151.04 C 267.71 151.05, 277.33 148.76, 286.96 149.01 C 296.58 149.26, 306.20 151.79, 315.83 152.52 C 325.45 153.26, 335.07 153.87, 344.70 153.44 C 354.32 153.00, 363.94 151.75, 373.57 149.90 C 383.19 148.05, 392.81 146.80, 402.43 142.34 C 412.06 137.89, 421.68 128.99, 431.30 123.18 C 440.93 117.37, 450.55 114.09, 460.17 107.49 C 469.80 100.89, 479.42 89.49, 489.04 83.57 C 498.67 77.66, 508.29 71.39, 517.91 72.00 C 527.54 72.61, 537.16 84.31, 546.78 87.21 C 556.41 90.12, 566.03 87.11, 575.65 89.44 C 585.28 91.76, 594.90 100.58, 604.52 101.19 C 614.14 101.79, 623.77 94.73, 633.39 93.08 C 643.01 91.42, 652.64 89.63, 662.26 91.25 C 671.88 92.88, 681.51 101.50, 691.13 102.83 C 700.75 104.16, 715.19 99.83, 720.00 99.23" fill="none" stroke="url(#hourFill)" stroke-width="4" stroke-linecap="round"/>
<circle cx="56.00" cy="101.42" r="2.5" fill="#facc15" opacity="1"><title>00:00 - 10h 54m total</title></circle>
<circle cx="84.87" cy="101.20" r="2.5" fill="#facc15" opacity="1"><title>01:00 - 10h 57m total</title></circle>
<circle cx="113.74" cy="108.35" r="2.5" fill="#facc15" opacity="1"><title>02:00 - 9h 31m total</title></circle>
<circle cx="142.61" cy="125.62" r="2.5" fill="#facc15" opacity="1"><title>03:00 - 6h 4m total</title></circle>
<circle cx="171.48" cy="142.43" r="2.5" fill="#facc15" opacity="1"><title>04:00 - 2h 42m total</title></circle>
<circle cx="200.35" cy="145.20" r="2.5" fill="#facc15" opacity="1"><title>05:00 - 2h 9m total</title></circle>
<circle cx="229.22" cy="148.92" r="2.5" fill="#facc15" opacity="1"><title>06:00 - 1h 24m total</title></circle>
<circle cx="258.09" cy="151.04" r="2.5" fill="#facc15" opacity="1"><title>07:00 - 59m total</title></circle>
<circle cx="286.96" cy="149.01" r="2.5" fill="#facc15" opacity="1"><title>08:00 - 1h 23m total</title></circle>
<circle cx="315.83" cy="152.52" r="2.5" fill="#facc15" opacity="1"><title>09:00 - 41m total</title></circle>
<circle cx="344.70" cy="153.44" r="2.5" fill="#facc15" opacity="1"><title>10:00 - 30m total</title></circle>
<circle cx="373.57" cy="149.90" r="2.5" fill="#facc15" opacity="1"><title>11:00 - 1h 13m total</title></circle>
<circle cx="402.43" cy="142.34" r="2.5" fill="#facc15" opacity="1"><title>12:00 - 2h 43m total</title></circle>
<circle cx="431.30" cy="123.18" r="2.5" fill="#facc15" opacity="1"><title>13:00 - 6h 33m total</title></circle>
<circle cx="460.17" cy="107.49" r="2.5" fill="#facc15" opacity="1"><title>14:00 - 9h 41m total</title></circle>
<circle cx="489.04" cy="83.57" r="2.5" fill="#facc15" opacity="1"><title>15:00 - 14h 28m total</title></circle>
<circle cx="517.91" cy="72.00" r="4" fill="#facc15" opacity="1"><title>16:00 - 16h 47m total</title></circle>
<circle cx="546.78" cy="87.21" r="2.5" fill="#facc15" opacity="1"><title>17:00 - 13h 44m total</title></circle>
<circle cx="575.65" cy="89.44" r="2.5" fill="#facc15" opacity="1"><title>18:00 - 13h 18m total</title></circle>
<circle cx="604.52" cy="101.19" r="2.5" fill="#facc15" opacity="1"><title>19:00 - 10h 57m total</title></circle>
<circle cx="633.39" cy="93.08" r="2.5" fill="#facc15" opacity="1"><title>20:00 - 12h 34m total</title></circle>
<circle cx="662.26" cy="91.25" r="2.5" fill="#facc15" opacity="1"><title>21:00 - 12h 56m total</title></circle>
<circle cx="691.13" cy="102.83" r="2.5" fill="#facc15" opacity="1"><title>22:00 - 10h 37m total</title></circle>
<circle cx="720.00" cy="99.23" r="2.5" fill="#facc15" opacity="1"><title>23:00 - 11h 20m total</title></circle>
<text x="20" y="191" font-family="Consolas,monospace" font-size="11px" fill="#616e7f">24-hour distribution across 30 days; higher curve = more coding time in that hour</text>
</svg>