<svg xmlns="http://www.w3.org/2000/svg" font-family="Consolas,monospace" width="760" height="260" font-size="14px"><rect width="760" height="260" fill="#161b22" rx="12"/>
<text x="20" y="34" font-family="Consolas,monospace" font-size="14px" fill="#616e7f">- Daily Activity  (last 30d) ——————————————————————————————————————————-—-</text>
<rect x="20" y="187" width="21" height="33" fill="#58a6ff" rx="2" opacity="0.85"/>
<text x="30" y="238" text-anchor="middle" font-family="Consolas,monospace" font-size="11px" fill="#616e7f">05/23</text>
<rect x="44" y="189" width="21" height="31" fill="#58a6ff" rx="2" opacity="0.85"/>
<rect x="68" y="169" width="21" height="51" fill="#58a6ff" rx="2" opacity="0.85"/>
<rect x="92" y="128" width="21" height="92" fill="#58a6ff" rx="2" opacity="0.85"/>
<text x="102" y="124" text-anchor="middle" font-family="Consolas,monospace" font-size="10px" fill="#c9d1d9">7h 8m</text>
<rect x="116" y="184" width="21" height="36" fill="#58a6ff" rx="2" opacity="0.85"/>
<rect x="140" y="142" width="21" height="78" fill="#58a6ff" rx="2" opacity="0.85"/>
<text x="150" y="238" text-anchor="middle" font-family="Consolas,monospace" font-size="11px" fill="#616e7f">05/28</text>
<text x="150" y="138" text-anchor="middle" font-family="Consolas,monospace" font-size="10px" fill="#c9d1d9">5h 59m</text>
<rect x="164" y="174" width="21" height="46" fill="#58a6ff" rx="2" opacity="0.85"/>
<rect x="188" y="216" width="21" height="4" fill="#58a6ff" rx="2" opacity="0.85"/>
<rect x="212" y="135" width="21" height="85" fill="#58a6ff" rx="2" opacity="0.85"/>
<text x="222" y="131" text-anchor="middle" font-family="Consolas,monospace" font-size="10px" fill="#c9d1d9">6h 34m</text>
<rect x="236" y="175" width="21" height="45" fill="#58a6ff" rx="2" opacity="0.85"/>
<rect x="260" y="218" width="21" height="2" fill="#58a6ff" rx="2" opacity="0.85"/>
<text x="270" y="238" text-anchor="middle" font-family="Consolas,monospace" font-size="11px" fill="#616e7f">06/02</text>
<rect x="284" y="119" width="21" height="101" fill="#58a6ff" rx="2" opacity="0.85"/>
<text x="294" y="115" text-anchor="middle" font-family="Consolas,monospace" font-size="10px" fill="#c9d1d9">7h 49m</text>
<rect x="308" y="85" width="21" height="135" fill="#58a6ff" rx="2" opacity="0.85"/>
<text x="318" y="81" text-anchor="middle" font-family="Consolas,monospace" font-size="10px" fill="#c9d1d9">10h 23m</text>
<rect x="332" y="116" width="21" height="104" fill="#58a6ff" rx="2" opacity="0.85"/>
<text x="342" y="112" text-anchor="middle" font-family="Consolas,monospace" font-size="10px" fill="#c9d1d9">8h 0m</text>
<rect x="356" y="105" width="21" height="115" fill="#58a6ff" rx="2" opacity="0.85"/>
<text x="366" y="101" text-anchor="middle" font-family="Consolas,monospace" font-size="10px" fill="#c9d1d9">8h 50m</text>
<rect x="380" y="127" width="21" height="93" fill="#58a6ff" rx="2" opacity="0.85"/>
<text x="390" y="238" text-anchor="middle" font-family="Consolas,monospace" font-size="11px" fill="#616e7f">06/07</text>
<text x="390" y="123" text-anchor="middle" font-family="Consolas,monospace" font-size="10px" fill="#c9d1d9">7h 12m</text>
<rect x="404" y="99" width="21" height="121" fill="#58a6ff" rx="2" opacity="0.85"/>
<text x="414" y="95" text-anchor="middle" font-family="Consolas,monospace" font-size="10px" fill="#c9d1d9">9h 19m</text>
<rect x="428" y="103" width="21" height="117" fill="#58a6ff" rx="2" opacity="0.85"/>
<text x="438" y="99" text-anchor="middle" font-family="Consolas,monospace" font-size="10px" fill="#c9d1d9">8h 59m</text>
<rect x="452" y="111" width="21" height="109" fill="#58a6ff" rx="2" opacity="0.85"/>
<text x="462" y="107" text-anchor="middle" font-family="Consolas,monospace" font-size="10px" fill="#c9d1d9">8h 23m</text>
<rect x="476" y="143" width="21" height="77" fill="#58a6ff" rx="2" opacity="0.85"/>
<text x="486" y="139" text-anchor="middle" font-family="Consolas,monospace" font-size="10px" fill="#c9d1d9">5h 57m</text>
<rect x="500" y="200" width="21" height="20" fill="#58a6ff" rx="2" opacity="0.85"/>
<text x="510" y="238" text-anchor="middle" font-family="Consolas,monospace" font-size="11px" fill="#616e7f">06/12</text>
<rect x="524" y="115" width="21" height="105" fill="#58a6ff" rx="2" opacity="0.85"/>
<text x="534" y="111" text-anchor="middle" font-family="Consolas,monospace" font-size="10px" fill="#c9d1d9">8h 4m</text>
<rect x="548" y="107" width="21" height="113" fill="#58a6ff" rx="2" opacity="0.85"/>
<text x="558" y="103" text-anchor="middle" font-family="Consolas,monospace" font-size="10px" fill="#c9d1d9">8h 42m</text>
<rect x="572" y="93" width="21" height="127" fill="#58a6ff" rx="2" opacity="0.85"/>
<text x="582" y="89" text-anchor="middle" font-family="Consolas,monospace" font-size="10px" fill="#c9d1d9">9h 49m</text>
<rect x="596" y="155" width="21" height="65" fill="#58a6ff" rx="2" opacity="0.85"/>
<text x="606" y="151" text-anchor="middle" font-family="Consolas,monospace" font-size="10px" fill="#c9d1d9">5h 2m</text>
<rect x="620" y="104" width="21" height="116" fill="#58a6ff" rx="2" opacity="0.85"/>
<text x="630" y="238" text-anchor="middle" font-family="Consolas,monospace" font-size="11px" fill="#616e7f">06/17</text>
<text x="630" y="100" text-anchor="middle" font-family="Consolas,monospace" font-size="10px" fill="#c9d1d9">8h 57m</text>
<rect x="644" y="60" width="21" height="160" fill="#58a6ff" rx="2" opacity="0.85"/>
<text x="654" y="56" text-anchor="middle" font-family="Consolas,monospace" font-size="10px" fill="#c9d1d9">12h 17m</text>
<rect x="668" y="146" width="21" height="74" fill="#58a6ff" rx="2" opacity="0.85"/>
<text x="678" y="142" text-anchor="middle" font-family="Consolas,monospace" font-size="10px" fill="#c9d1d9">5h 43m</text>
<rect x="692" y="141" width="21" height="79" fill="#58a6ff" rx="2" opacity="0.85"/>
<text x="702" y="137" text-anchor="middle" font-family="Consolas,monospace" font-size="10px" fill="#c9d1d9">6h 7m</text>
<rect x="716" y="125" width="21" height="95" fill="#58a6ff" rx="2" opacity="0.85"/>
<text x="726" y="238" text-anchor="middle" font-family="Consolas,monospace" font-size="11px" fill="#616e7f">06/21</text>
<text x="726" y="121" text-anchor="middle" font-family="Consolas,monospace" font-size="10px" fill="#c9d1d9">7h 18m</text>
<line x1="20" y1="139" x2="740" y2="139" stroke="#f85149" stroke-width="1" stroke-dasharray="4,3" opacity="0.7"/>
<text x="738" y="135" text-anchor="end" font-family="Consolas,monospace" font-size="10px" fill="#f85149">avg 6h 15m</text>
</svg>