<svg xmlns="http://www.w3.org/2000/svg" font-family="Consolas,monospace" width="760" height="205" font-size="14px"><rect width="760" height="205" fill="#161b22" rx="12"/>
<text x="20" y="34" font-family="Consolas,monospace" font-size="14px" fill="#616e7f">- Working Hours  (last 30d) ———————————————————————————————————————————-—-</text>
<text x="20" y="50" font-family="Consolas,monospace" font-size="12px" fill="#616e7f">total 204h 44m | peak 4h 15:00-19:00 | busiest 16:00 (18h 53m) | tz Asia/Ho_Chi_Minh</text>
<defs>
<linearGradient id="hourFill" x1="0" y1="0" x2="1" y2="0">
<stop offset="0%" stop-color="#1d4ed8"/>
<stop offset="45%" stop-color="#7c3aed"/>
<stop offset="75%" stop-color="#db2777"/>
<stop offset="100%" stop-color="#facc15"/>
</linearGradient>
<linearGradient id="hourFade" x1="0" y1="0" x2="1" y2="0">
<stop offset="0%" stop-color="#1d4ed8" stop-opacity="0.42"/>
<stop offset="28%" stop-color="#2563eb" stop-opacity="0.5"/>
<stop offset="50%" stop-color="#7c3aed" stop-opacity="0.58"/>
<stop offset="70%" stop-color="#db2777" stop-opacity="0.62"/>
<stop offset="86%" stop-color="#f97316" stop-opacity="0.58"/>
<stop offset="100%" stop-color="#facc15" stop-opacity="0.48"/>
</linearGradient>
</defs>
<line x1="56" y1="156" x2="720" y2="156" stroke="#616e7f" stroke-width="1" opacity="0.35"/>
<line x1="56.00" y1="72" x2="56.00" y2="156" stroke="#616e7f" stroke-width="1" opacity="0.16"/>
<text x="56.00" y="174" text-anchor="middle" font-family="Consolas,monospace" font-size="8px" fill="#616e7f">00</text>
<line x1="84.87" y1="72" x2="84.87" y2="156" stroke="#616e7f" stroke-width="1" opacity="0.07"/>
<text x="84.87" y="174" text-anchor="middle" font-family="Consolas,monospace" font-size="8px" fill="#616e7f">01</text>
<line x1="113.74" y1="72" x2="113.74" y2="156" stroke="#616e7f" stroke-width="1" opacity="0.07"/>
<text x="113.74" y="174" text-anchor="middle" font-family="Consolas,monospace" font-size="8px" fill="#616e7f">02</text>
<line x1="142.61" y1="72" x2="142.61" y2="156" stroke="#616e7f" stroke-width="1" opacity="0.16"/>
<text x="142.61" y="174" text-anchor="middle" font-family="Consolas,monospace" font-size="8px" fill="#616e7f">03</text>
<line x1="171.48" y1="72" x2="171.48" y2="156" stroke="#616e7f" stroke-width="1" opacity="0.07"/>
<text x="171.48" y="174" text-anchor="middle" font-family="Consolas,monospace" font-size="8px" fill="#616e7f">04</text>
<line x1="200.35" y1="72" x2="200.35" y2="156" stroke="#616e7f" stroke-width="1" opacity="0.07"/>
<text x="200.35" y="174" text-anchor="middle" font-family="Consolas,monospace" font-size="8px" fill="#616e7f">05</text>
<line x1="229.22" y1="72" x2="229.22" y2="156" stroke="#616e7f" stroke-width="1" opacity="0.16"/>
<text x="229.22" y="174" text-anchor="middle" font-family="Consolas,monospace" font-size="8px" fill="#616e7f">06</text>
<line x1="258.09" y1="72" x2="258.09" y2="156" stroke="#616e7f" stroke-width="1" opacity="0.07"/>
<text x="258.09" y="174" text-anchor="middle" font-family="Consolas,monospace" font-size="8px" fill="#616e7f">07</text>
<line x1="286.96" y1="72" x2="286.96" y2="156" stroke="#616e7f" stroke-width="1" opacity="0.07"/>
<text x="286.96" y="174" text-anchor="middle" font-family="Consolas,monospace" font-size="8px" fill="#616e7f">08</text>
<line x1="315.83" y1="72" x2="315.83" y2="156" stroke="#616e7f" stroke-width="1" opacity="0.16"/>
<text x="315.83" y="174" text-anchor="middle" font-family="Consolas,monospace" font-size="8px" fill="#616e7f">09</text>
<line x1="344.70" y1="72" x2="344.70" y2="156" stroke="#616e7f" stroke-width="1" opacity="0.07"/>
<text x="344.70" y="174" text-anchor="middle" font-family="Consolas,monospace" font-size="8px" fill="#616e7f">10</text>
<line x1="373.57" y1="72" x2="373.57" y2="156" stroke="#616e7f" stroke-width="1" opacity="0.07"/>
<text x="373.57" y="174" text-anchor="middle" font-family="Consolas,monospace" font-size="8px" fill="#616e7f">11</text>
<line x1="402.43" y1="72" x2="402.43" y2="156" stroke="#616e7f" stroke-width="1" opacity="0.16"/>
<text x="402.43" y="174" text-anchor="middle" font-family="Consolas,monospace" font-size="8px" fill="#616e7f">12</text>
<line x1="431.30" y1="72" x2="431.30" y2="156" stroke="#616e7f" stroke-width="1" opacity="0.07"/>
<text x="431.30" y="174" text-anchor="middle" font-family="Consolas,monospace" font-size="8px" fill="#616e7f">13</text>
<line x1="460.17" y1="72" x2="460.17" y2="156" stroke="#616e7f" stroke-width="1" opacity="0.07"/>
<text x="460.17" y="174" text-anchor="middle" font-family="Consolas,monospace" font-size="8px" fill="#616e7f">14</text>
<line x1="489.04" y1="72" x2="489.04" y2="156" stroke="#616e7f" stroke-width="1" opacity="0.16"/>
<text x="489.04" y="174" text-anchor="middle" font-family="Consolas,monospace" font-size="8px" fill="#616e7f">15</text>
<line x1="517.91" y1="72" x2="517.91" y2="156" stroke="#616e7f" stroke-width="1" opacity="0.07"/>
<text x="517.91" y="174" text-anchor="middle" font-family="Consolas,monospace" font-size="8px" fill="#616e7f">16</text>
<line x1="546.78" y1="72" x2="546.78" y2="156" stroke="#616e7f" stroke-width="1" opacity="0.07"/>
<text x="546.78" y="174" text-anchor="middle" font-family="Consolas,monospace" font-size="8px" fill="#616e7f">17</text>
<line x1="575.65" y1="72" x2="575.65" y2="156" stroke="#616e7f" stroke-width="1" opacity="0.16"/>
<text x="575.65" y="174" text-anchor="middle" font-family="Consolas,monospace" font-size="8px" fill="#616e7f">18</text>
<line x1="604.52" y1="72" x2="604.52" y2="156" stroke="#616e7f" stroke-width="1" opacity="0.07"/>
<text x="604.52" y="174" text-anchor="middle" font-family="Consolas,monospace" font-size="8px" fill="#616e7f">19</text>
<line x1="633.39" y1="72" x2="633.39" y2="156" stroke="#616e7f" stroke-width="1" opacity="0.07"/>
<text x="633.39" y="174" text-anchor="middle" font-family="Consolas,monospace" font-size="8px" fill="#616e7f">20</text>
<line x1="662.26" y1="72" x2="662.26" y2="156" stroke="#616e7f" stroke-width="1" opacity="0.16"/>
<text x="662.26" y="174" text-anchor="middle" font-family="Consolas,monospace" font-size="8px" fill="#616e7f">21</text>
<line x1="691.13" y1="72" x2="691.13" y2="156" stroke="#616e7f" stroke-width="1" opacity="0.07"/>
<text x="691.13" y="174" text-anchor="middle" font-family="Consolas,monospace" font-size="8px" fill="#616e7f">22</text>
<line x1="720.00" y1="72" x2="720.00" y2="156" stroke="#616e7f" stroke-width="1" opacity="0.07"/>
<text x="720.00" y="174" text-anchor="middle" font-family="Consolas,monospace" font-size="8px" fill="#616e7f">23</text>
<path d="M 56.00 102.36 C 60.81 102.40, 75.25 100.75, 84.87 102.59 C 94.49 104.43, 104.12 109.14, 113.74 113.42 C 123.36 117.70, 132.99 123.19, 142.61 128.25 C 152.23 133.31, 161.86 140.74, 171.48 143.76 C 181.10 146.79, 190.72 145.42, 200.35 146.41 C 209.97 147.40, 219.59 148.84, 229.22 149.70 C 238.84 150.57, 248.46 151.93, 258.09 151.59 C 267.71 151.25, 277.33 148.00, 286.96 147.68 C 296.58 147.36, 306.20 148.82, 315.83 149.66 C 325.45 150.50, 335.07 152.57, 344.70 152.72 C 354.32 152.88, 363.94 151.84, 373.57 150.58 C 383.19 149.32, 392.81 149.20, 402.43 145.17 C 412.06 141.14, 421.68 131.73, 431.30 126.41 C 440.93 121.08, 450.55 120.02, 460.17 113.22 C 469.80 106.42, 479.42 92.50, 489.04 85.63 C 498.67 78.76, 508.29 71.85, 517.91 72.00 C 527.54 72.15, 537.16 83.18, 546.78 86.50 C 556.41 89.83, 566.03 89.75, 575.65 91.95 C 585.28 94.14, 594.90 99.64, 604.52 99.67 C 614.14 99.71, 623.77 94.42, 633.39 92.16 C 643.01 89.90, 652.64 85.27, 662.26 86.12 C 671.88 86.98, 681.51 95.16, 691.13 97.31 C 700.75 99.45, 715.19 98.71, 720.00 99.00 L 720.00 156.00 L 56.00 156.00 Z" fill="url(#hourFade)"/>
<path d="M 56.00 102.36 C 60.81 102.40, 75.25 100.75, 84.87 102.59 C 94.49 104.43, 104.12 109.14, 113.74 113.42 C 123.36 117.70, 132.99 123.19, 142.61 128.25 C 152.23 133.31, 161.86 140.74, 171.48 143.76 C 181.10 146.79, 190.72 145.42, 200.35 146.41 C 209.97 147.40, 219.59 148.84, 229.22 149.70 C 238.84 150.57, 248.46 151.93, 258.09 151.59 C 267.71 151.25, 277.33 148.00, 286.96 147.68 C 296.58 147.36, 306.20 148.82, 315.83 149.66 C 325.45 150.50, 335.07 152.57, 344.70 152.72 C 354.32 152.88, 363.94 151.84, 373.57 150.58 C 383.19 149.32, 392.81 149.20, 402.43 145.17 C 412.06 141.14, 421.68 131.73, 431.30 126.41 C 440.93 121.08, 450.55 120.02, 460.17 113.22 C 469.80 106.42, 479.42 92.50, 489.04 85.63 C 498.67 78.76, 508.29 71.85, 517.91 72.00 C 527.54 72.15, 537.16 83.18, 546.78 86.50 C 556.41 89.83, 566.03 89.75, 575.65 91.95 C 585.28 94.14, 594.90 99.64, 604.52 99.67 C 614.14 99.71, 623.77 94.42, 633.39 92.16 C 643.01 89.90, 652.64 85.27, 662.26 86.12 C 671.88 86.98, 681.51 95.16, 691.13 97.31 C 700.75 99.45, 715.19 98.71, 720.00 99.00" fill="none" stroke="url(#hourFill)" stroke-width="4" stroke-linecap="round"/>
<circle cx="56.00" cy="102.36" r="2.5" fill="#facc15" opacity="1"><title>00:00 - 12h 3m total</title></circle>
<circle cx="84.87" cy="102.59" r="2.5" fill="#facc15" opacity="1"><title>01:00 - 12h 0m total</title></circle>
<circle cx="113.74" cy="113.42" r="2.5" fill="#facc15" opacity="1"><title>02:00 - 9h 34m total</title></circle>
<circle cx="142.61" cy="128.25" r="2.5" fill="#facc15" opacity="1"><title>03:00 - 6h 14m total</title></circle>
<circle cx="171.48" cy="143.76" r="2.5" fill="#facc15" opacity="1"><title>04:00 - 2h 45m total</title></circle>
<circle cx="200.35" cy="146.41" r="2.5" fill="#facc15" opacity="1"><title>05:00 - 2h 9m total</title></circle>
<circle cx="229.22" cy="149.70" r="2.5" fill="#facc15" opacity="1"><title>06:00 - 1h 24m total</title></circle>
<circle cx="258.09" cy="151.59" r="2.5" fill="#facc15" opacity="1"><title>07:00 - 59m total</title></circle>
<circle cx="286.96" cy="147.68" r="2.5" fill="#facc15" opacity="1"><title>08:00 - 1h 52m total</title></circle>
<circle cx="315.83" cy="149.66" r="2.5" fill="#facc15" opacity="1"><title>09:00 - 1h 25m total</title></circle>
<circle cx="344.70" cy="152.72" r="2.5" fill="#facc15" opacity="1"><title>10:00 - 44m total</title></circle>
<circle cx="373.57" cy="150.58" r="2.5" fill="#facc15" opacity="1"><title>11:00 - 1h 13m total</title></circle>
<circle cx="402.43" cy="145.17" r="2.5" fill="#facc15" opacity="1"><title>12:00 - 2h 26m total</title></circle>
<circle cx="431.30" cy="126.41" r="2.5" fill="#facc15" opacity="1"><title>13:00 - 6h 39m total</title></circle>
<circle cx="460.17" cy="113.22" r="2.5" fill="#facc15" opacity="1"><title>14:00 - 9h 37m total</title></circle>
<circle cx="489.04" cy="85.63" r="2.5" fill="#facc15" opacity="1"><title>15:00 - 15h 49m total</title></circle>
<circle cx="517.91" cy="72.00" r="4" fill="#facc15" opacity="1"><title>16:00 - 18h 53m total</title></circle>
<circle cx="546.78" cy="86.50" r="2.5" fill="#facc15" opacity="1"><title>17:00 - 15h 38m total</title></circle>
<circle cx="575.65" cy="91.95" r="2.5" fill="#facc15" opacity="1"><title>18:00 - 14h 24m total</title></circle>
<circle cx="604.52" cy="99.67" r="2.5" fill="#facc15" opacity="1"><title>19:00 - 12h 40m total</title></circle>
<circle cx="633.39" cy="92.16" r="2.5" fill="#facc15" opacity="1"><title>20:00 - 14h 21m total</title></circle>
<circle cx="662.26" cy="86.12" r="2.5" fill="#facc15" opacity="1"><title>21:00 - 15h 43m total</title></circle>
<circle cx="691.13" cy="97.31" r="2.5" fill="#facc15" opacity="1"><title>22:00 - 13h 12m total</title></circle>
<circle cx="720.00" cy="99.00" r="2.5" fill="#facc15" opacity="1"><title>23:00 - 12h 49m total</title></circle>
<text x="20" y="191" font-family="Consolas,monospace" font-size="11px" fill="#616e7f">24-hour distribution across 30 days; higher curve = more coding time in that hour</text>
</svg>