<svg xmlns="http://www.w3.org/2000/svg" font-family="Consolas,monospace" width="760" height="205" font-size="14px"><rect width="760" height="205" fill="#161b22" rx="12"/>
<text x="20" y="34" font-family="Consolas,monospace" font-size="14px" fill="#616e7f">- Working Hours  (last 30d) ———————————————————————————————————————————-—-</text>
<text x="20" y="50" font-family="Consolas,monospace" font-size="12px" fill="#616e7f">total 140h 58m | peak 4h 22:00-02:00 | busiest 16:00 (13h 18m) | tz Asia/Ho_Chi_Minh</text>
<defs>
<linearGradient id="hourFill" x1="0" y1="0" x2="1" y2="0">
<stop offset="0%" stop-color="#1d4ed8"/>
<stop offset="45%" stop-color="#7c3aed"/>
<stop offset="75%" stop-color="#db2777"/>
<stop offset="100%" stop-color="#facc15"/>
</linearGradient>
<linearGradient id="hourFade" x1="0" y1="0" x2="1" y2="0">
<stop offset="0%" stop-color="#1d4ed8" stop-opacity="0.42"/>
<stop offset="28%" stop-color="#2563eb" stop-opacity="0.5"/>
<stop offset="50%" stop-color="#7c3aed" stop-opacity="0.58"/>
<stop offset="70%" stop-color="#db2777" stop-opacity="0.62"/>
<stop offset="86%" stop-color="#f97316" stop-opacity="0.58"/>
<stop offset="100%" stop-color="#facc15" stop-opacity="0.48"/>
</linearGradient>
</defs>
<line x1="56" y1="156" x2="720" y2="156" stroke="#616e7f" stroke-width="1" opacity="0.35"/>
<line x1="56.00" y1="72" x2="56.00" y2="156" stroke="#616e7f" stroke-width="1" opacity="0.16"/>
<text x="56.00" y="174" text-anchor="middle" font-family="Consolas,monospace" font-size="8px" fill="#616e7f">00</text>
<line x1="84.87" y1="72" x2="84.87" y2="156" stroke="#616e7f" stroke-width="1" opacity="0.07"/>
<text x="84.87" y="174" text-anchor="middle" font-family="Consolas,monospace" font-size="8px" fill="#616e7f">01</text>
<line x1="113.74" y1="72" x2="113.74" y2="156" stroke="#616e7f" stroke-width="1" opacity="0.07"/>
<text x="113.74" y="174" text-anchor="middle" font-family="Consolas,monospace" font-size="8px" fill="#616e7f">02</text>
<line x1="142.61" y1="72" x2="142.61" y2="156" stroke="#616e7f" stroke-width="1" opacity="0.16"/>
<text x="142.61" y="174" text-anchor="middle" font-family="Consolas,monospace" font-size="8px" fill="#616e7f">03</text>
<line x1="171.48" y1="72" x2="171.48" y2="156" stroke="#616e7f" stroke-width="1" opacity="0.07"/>
<text x="171.48" y="174" text-anchor="middle" font-family="Consolas,monospace" font-size="8px" fill="#616e7f">04</text>
<line x1="200.35" y1="72" x2="200.35" y2="156" stroke="#616e7f" stroke-width="1" opacity="0.07"/>
<text x="200.35" y="174" text-anchor="middle" font-family="Consolas,monospace" font-size="8px" fill="#616e7f">05</text>
<line x1="229.22" y1="72" x2="229.22" y2="156" stroke="#616e7f" stroke-width="1" opacity="0.16"/>
<text x="229.22" y="174" text-anchor="middle" font-family="Consolas,monospace" font-size="8px" fill="#616e7f">06</text>
<line x1="258.09" y1="72" x2="258.09" y2="156" stroke="#616e7f" stroke-width="1" opacity="0.07"/>
<text x="258.09" y="174" text-anchor="middle" font-family="Consolas,monospace" font-size="8px" fill="#616e7f">07</text>
<line x1="286.96" y1="72" x2="286.96" y2="156" stroke="#616e7f" stroke-width="1" opacity="0.07"/>
<text x="286.96" y="174" text-anchor="middle" font-family="Consolas,monospace" font-size="8px" fill="#616e7f">08</text>
<line x1="315.83" y1="72" x2="315.83" y2="156" stroke="#616e7f" stroke-width="1" opacity="0.16"/>
<text x="315.83" y="174" text-anchor="middle" font-family="Consolas,monospace" font-size="8px" fill="#616e7f">09</text>
<line x1="344.70" y1="72" x2="344.70" y2="156" stroke="#616e7f" stroke-width="1" opacity="0.07"/>
<text x="344.70" y="174" text-anchor="middle" font-family="Consolas,monospace" font-size="8px" fill="#616e7f">10</text>
<line x1="373.57" y1="72" x2="373.57" y2="156" stroke="#616e7f" stroke-width="1" opacity="0.07"/>
<text x="373.57" y="174" text-anchor="middle" font-family="Consolas,monospace" font-size="8px" fill="#616e7f">11</text>
<line x1="402.43" y1="72" x2="402.43" y2="156" stroke="#616e7f" stroke-width="1" opacity="0.16"/>
<text x="402.43" y="174" text-anchor="middle" font-family="Consolas,monospace" font-size="8px" fill="#616e7f">12</text>
<line x1="431.30" y1="72" x2="431.30" y2="156" stroke="#616e7f" stroke-width="1" opacity="0.07"/>
<text x="431.30" y="174" text-anchor="middle" font-family="Consolas,monospace" font-size="8px" fill="#616e7f">13</text>
<line x1="460.17" y1="72" x2="460.17" y2="156" stroke="#616e7f" stroke-width="1" opacity="0.07"/>
<text x="460.17" y="174" text-anchor="middle" font-family="Consolas,monospace" font-size="8px" fill="#616e7f">14</text>
<line x1="489.04" y1="72" x2="489.04" y2="156" stroke="#616e7f" stroke-width="1" opacity="0.16"/>
<text x="489.04" y="174" text-anchor="middle" font-family="Consolas,monospace" font-size="8px" fill="#616e7f">15</text>
<line x1="517.91" y1="72" x2="517.91" y2="156" stroke="#616e7f" stroke-width="1" opacity="0.07"/>
<text x="517.91" y="174" text-anchor="middle" font-family="Consolas,monospace" font-size="8px" fill="#616e7f">16</text>
<line x1="546.78" y1="72" x2="546.78" y2="156" stroke="#616e7f" stroke-width="1" opacity="0.07"/>
<text x="546.78" y="174" text-anchor="middle" font-family="Consolas,monospace" font-size="8px" fill="#616e7f">17</text>
<line x1="575.65" y1="72" x2="575.65" y2="156" stroke="#616e7f" stroke-width="1" opacity="0.16"/>
<text x="575.65" y="174" text-anchor="middle" font-family="Consolas,monospace" font-size="8px" fill="#616e7f">18</text>
<line x1="604.52" y1="72" x2="604.52" y2="156" stroke="#616e7f" stroke-width="1" opacity="0.07"/>
<text x="604.52" y="174" text-anchor="middle" font-family="Consolas,monospace" font-size="8px" fill="#616e7f">19</text>
<line x1="633.39" y1="72" x2="633.39" y2="156" stroke="#616e7f" stroke-width="1" opacity="0.07"/>
<text x="633.39" y="174" text-anchor="middle" font-family="Consolas,monospace" font-size="8px" fill="#616e7f">20</text>
<line x1="662.26" y1="72" x2="662.26" y2="156" stroke="#616e7f" stroke-width="1" opacity="0.16"/>
<text x="662.26" y="174" text-anchor="middle" font-family="Consolas,monospace" font-size="8px" fill="#616e7f">21</text>
<line x1="691.13" y1="72" x2="691.13" y2="156" stroke="#616e7f" stroke-width="1" opacity="0.07"/>
<text x="691.13" y="174" text-anchor="middle" font-family="Consolas,monospace" font-size="8px" fill="#616e7f">22</text>
<line x1="720.00" y1="72" x2="720.00" y2="156" stroke="#616e7f" stroke-width="1" opacity="0.07"/>
<text x="720.00" y="174" text-anchor="middle" font-family="Consolas,monospace" font-size="8px" fill="#616e7f">23</text>
<path d="M 56.00 76.77 C 60.81 78.53, 75.25 82.50, 84.87 87.30 C 94.49 92.11, 104.12 96.27, 113.74 105.62 C 123.36 114.97, 132.99 135.29, 142.61 143.41 C 152.23 151.53, 161.86 152.23, 171.48 154.33 C 181.10 156.43, 190.72 155.88, 200.35 156.00 C 209.97 156.12, 219.59 156.09, 229.22 155.03 C 238.84 153.98, 248.46 150.58, 258.09 149.68 C 267.71 148.79, 277.33 150.12, 286.96 149.68 C 296.58 149.25, 306.20 147.91, 315.83 147.05 C 325.45 146.20, 335.07 145.00, 344.70 144.53 C 354.32 144.06, 363.94 143.24, 373.57 144.24 C 383.19 145.24, 392.81 151.94, 402.43 150.52 C 412.06 149.10, 421.68 142.09, 431.30 135.71 C 440.93 129.33, 450.55 121.45, 460.17 112.26 C 469.80 103.08, 479.42 87.31, 489.04 80.60 C 498.67 73.89, 508.29 68.87, 517.91 72.00 C 527.54 75.13, 537.16 94.64, 546.78 99.41 C 556.41 104.18, 566.03 98.92, 575.65 100.62 C 585.28 102.33, 594.90 107.14, 604.52 109.62 C 614.14 112.11, 623.77 118.92, 633.39 115.54 C 643.01 112.17, 652.64 94.17, 662.26 89.40 C 671.88 84.63, 681.51 87.27, 691.13 86.94 C 700.75 86.61, 715.19 87.34, 720.00 87.42 L 720.00 156.00 L 56.00 156.00 Z" fill="url(#hourFade)"/>
<path d="M 56.00 76.77 C 60.81 78.53, 75.25 82.50, 84.87 87.30 C 94.49 92.11, 104.12 96.27, 113.74 105.62 C 123.36 114.97, 132.99 135.29, 142.61 143.41 C 152.23 151.53, 161.86 152.23, 171.48 154.33 C 181.10 156.43, 190.72 155.88, 200.35 156.00 C 209.97 156.12, 219.59 156.09, 229.22 155.03 C 238.84 153.98, 248.46 150.58, 258.09 149.68 C 267.71 148.79, 277.33 150.12, 286.96 149.68 C 296.58 149.25, 306.20 147.91, 315.83 147.05 C 325.45 146.20, 335.07 145.00, 344.70 144.53 C 354.32 144.06, 363.94 143.24, 373.57 144.24 C 383.19 145.24, 392.81 151.94, 402.43 150.52 C 412.06 149.10, 421.68 142.09, 431.30 135.71 C 440.93 129.33, 450.55 121.45, 460.17 112.26 C 469.80 103.08, 479.42 87.31, 489.04 80.60 C 498.67 73.89, 508.29 68.87, 517.91 72.00 C 527.54 75.13, 537.16 94.64, 546.78 99.41 C 556.41 104.18, 566.03 98.92, 575.65 100.62 C 585.28 102.33, 594.90 107.14, 604.52 109.62 C 614.14 112.11, 623.77 118.92, 633.39 115.54 C 643.01 112.17, 652.64 94.17, 662.26 89.40 C 671.88 84.63, 681.51 87.27, 691.13 86.94 C 700.75 86.61, 715.19 87.34, 720.00 87.42" fill="none" stroke="url(#hourFill)" stroke-width="4" stroke-linecap="round"/>
<circle cx="56.00" cy="76.77" r="2.5" fill="#facc15" opacity="1"><title>00:00 - 12h 32m total</title></circle>
<circle cx="84.87" cy="87.30" r="2.5" fill="#facc15" opacity="1"><title>01:00 - 10h 52m total</title></circle>
<circle cx="113.74" cy="105.62" r="2.5" fill="#facc15" opacity="1"><title>02:00 - 7h 58m total</title></circle>
<circle cx="142.61" cy="143.41" r="2.5" fill="#facc15" opacity="1"><title>03:00 - 1h 59m total</title></circle>
<circle cx="171.48" cy="154.33" r="2.5" fill="#facc15" opacity="1"><title>04:00 - 15m total</title></circle>
<circle cx="200.35" cy="156.00" r="2.5" fill="#facc15" opacity="0.25"><title>05:00 - 0m total</title></circle>
<circle cx="229.22" cy="155.03" r="2.5" fill="#facc15" opacity="1"><title>06:00 - 9m total</title></circle>
<circle cx="258.09" cy="149.68" r="2.5" fill="#facc15" opacity="1"><title>07:00 - 1h 0m total</title></circle>
<circle cx="286.96" cy="149.68" r="2.5" fill="#facc15" opacity="1"><title>08:00 - 1h 0m total</title></circle>
<circle cx="315.83" cy="147.05" r="2.5" fill="#facc15" opacity="1"><title>09:00 - 1h 24m total</title></circle>
<circle cx="344.70" cy="144.53" r="2.5" fill="#facc15" opacity="1"><title>10:00 - 1h 48m total</title></circle>
<circle cx="373.57" cy="144.24" r="2.5" fill="#facc15" opacity="1"><title>11:00 - 1h 51m total</title></circle>
<circle cx="402.43" cy="150.52" r="2.5" fill="#facc15" opacity="1"><title>12:00 - 52m total</title></circle>
<circle cx="431.30" cy="135.71" r="2.5" fill="#facc15" opacity="1"><title>13:00 - 3h 12m total</title></circle>
<circle cx="460.17" cy="112.26" r="2.5" fill="#facc15" opacity="1"><title>14:00 - 6h 55m total</title></circle>
<circle cx="489.04" cy="80.60" r="2.5" fill="#facc15" opacity="1"><title>15:00 - 11h 56m total</title></circle>
<circle cx="517.91" cy="72.00" r="4" fill="#facc15" opacity="1"><title>16:00 - 13h 18m total</title></circle>
<circle cx="546.78" cy="99.41" r="2.5" fill="#facc15" opacity="1"><title>17:00 - 8h 57m total</title></circle>
<circle cx="575.65" cy="100.62" r="2.5" fill="#facc15" opacity="1"><title>18:00 - 8h 46m total</title></circle>
<circle cx="604.52" cy="109.62" r="2.5" fill="#facc15" opacity="1"><title>19:00 - 7h 20m total</title></circle>
<circle cx="633.39" cy="115.54" r="2.5" fill="#facc15" opacity="1"><title>20:00 - 6h 24m total</title></circle>
<circle cx="662.26" cy="89.40" r="2.5" fill="#facc15" opacity="1"><title>21:00 - 10h 32m total</title></circle>
<circle cx="691.13" cy="86.94" r="2.5" fill="#facc15" opacity="1"><title>22:00 - 10h 56m total</title></circle>
<circle cx="720.00" cy="87.42" r="2.5" fill="#facc15" opacity="1"><title>23:00 - 10h 51m total</title></circle>
<text x="20" y="191" font-family="Consolas,monospace" font-size="11px" fill="#616e7f">24-hour distribution across 30 days; higher curve = more coding time in that hour</text>
</svg>