<svg xmlns="http://www.w3.org/2000/svg" font-family="Consolas,monospace" width="760" height="205" font-size="14px"><rect width="760" height="205" fill="#161b22" rx="12"/>
<text x="20" y="34" font-family="Consolas,monospace" font-size="14px" fill="#616e7f">- Working Hours  (last 30d) ———————————————————————————————————————————-—-</text>
<text x="20" y="50" font-family="Consolas,monospace" font-size="12px" fill="#616e7f">total 122h 27m | peak 4h 15:00-19:00 | busiest 16:00 (12h 7m) | tz Asia/Ho_Chi_Minh</text>
<defs>
<linearGradient id="hourFill" x1="0" y1="0" x2="1" y2="0">
<stop offset="0%" stop-color="#1d4ed8"/>
<stop offset="45%" stop-color="#7c3aed"/>
<stop offset="75%" stop-color="#db2777"/>
<stop offset="100%" stop-color="#facc15"/>
</linearGradient>
<linearGradient id="hourFade" x1="0" y1="0" x2="1" y2="0">
<stop offset="0%" stop-color="#1d4ed8" stop-opacity="0.42"/>
<stop offset="28%" stop-color="#2563eb" stop-opacity="0.5"/>
<stop offset="50%" stop-color="#7c3aed" stop-opacity="0.58"/>
<stop offset="70%" stop-color="#db2777" stop-opacity="0.62"/>
<stop offset="86%" stop-color="#f97316" stop-opacity="0.58"/>
<stop offset="100%" stop-color="#facc15" stop-opacity="0.48"/>
</linearGradient>
</defs>
<line x1="56" y1="156" x2="720" y2="156" stroke="#616e7f" stroke-width="1" opacity="0.35"/>
<line x1="56.00" y1="72" x2="56.00" y2="156" stroke="#616e7f" stroke-width="1" opacity="0.16"/>
<text x="56.00" y="174" text-anchor="middle" font-family="Consolas,monospace" font-size="8px" fill="#616e7f">00</text>
<line x1="84.87" y1="72" x2="84.87" y2="156" stroke="#616e7f" stroke-width="1" opacity="0.07"/>
<text x="84.87" y="174" text-anchor="middle" font-family="Consolas,monospace" font-size="8px" fill="#616e7f">01</text>
<line x1="113.74" y1="72" x2="113.74" y2="156" stroke="#616e7f" stroke-width="1" opacity="0.07"/>
<text x="113.74" y="174" text-anchor="middle" font-family="Consolas,monospace" font-size="8px" fill="#616e7f">02</text>
<line x1="142.61" y1="72" x2="142.61" y2="156" stroke="#616e7f" stroke-width="1" opacity="0.16"/>
<text x="142.61" y="174" text-anchor="middle" font-family="Consolas,monospace" font-size="8px" fill="#616e7f">03</text>
<line x1="171.48" y1="72" x2="171.48" y2="156" stroke="#616e7f" stroke-width="1" opacity="0.07"/>
<text x="171.48" y="174" text-anchor="middle" font-family="Consolas,monospace" font-size="8px" fill="#616e7f">04</text>
<line x1="200.35" y1="72" x2="200.35" y2="156" stroke="#616e7f" stroke-width="1" opacity="0.07"/>
<text x="200.35" y="174" text-anchor="middle" font-family="Consolas,monospace" font-size="8px" fill="#616e7f">05</text>
<line x1="229.22" y1="72" x2="229.22" y2="156" stroke="#616e7f" stroke-width="1" opacity="0.16"/>
<text x="229.22" y="174" text-anchor="middle" font-family="Consolas,monospace" font-size="8px" fill="#616e7f">06</text>
<line x1="258.09" y1="72" x2="258.09" y2="156" stroke="#616e7f" stroke-width="1" opacity="0.07"/>
<text x="258.09" y="174" text-anchor="middle" font-family="Consolas,monospace" font-size="8px" fill="#616e7f">07</text>
<line x1="286.96" y1="72" x2="286.96" y2="156" stroke="#616e7f" stroke-width="1" opacity="0.07"/>
<text x="286.96" y="174" text-anchor="middle" font-family="Consolas,monospace" font-size="8px" fill="#616e7f">08</text>
<line x1="315.83" y1="72" x2="315.83" y2="156" stroke="#616e7f" stroke-width="1" opacity="0.16"/>
<text x="315.83" y="174" text-anchor="middle" font-family="Consolas,monospace" font-size="8px" fill="#616e7f">09</text>
<line x1="344.70" y1="72" x2="344.70" y2="156" stroke="#616e7f" stroke-width="1" opacity="0.07"/>
<text x="344.70" y="174" text-anchor="middle" font-family="Consolas,monospace" font-size="8px" fill="#616e7f">10</text>
<line x1="373.57" y1="72" x2="373.57" y2="156" stroke="#616e7f" stroke-width="1" opacity="0.07"/>
<text x="373.57" y="174" text-anchor="middle" font-family="Consolas,monospace" font-size="8px" fill="#616e7f">11</text>
<line x1="402.43" y1="72" x2="402.43" y2="156" stroke="#616e7f" stroke-width="1" opacity="0.16"/>
<text x="402.43" y="174" text-anchor="middle" font-family="Consolas,monospace" font-size="8px" fill="#616e7f">12</text>
<line x1="431.30" y1="72" x2="431.30" y2="156" stroke="#616e7f" stroke-width="1" opacity="0.07"/>
<text x="431.30" y="174" text-anchor="middle" font-family="Consolas,monospace" font-size="8px" fill="#616e7f">13</text>
<line x1="460.17" y1="72" x2="460.17" y2="156" stroke="#616e7f" stroke-width="1" opacity="0.07"/>
<text x="460.17" y="174" text-anchor="middle" font-family="Consolas,monospace" font-size="8px" fill="#616e7f">14</text>
<line x1="489.04" y1="72" x2="489.04" y2="156" stroke="#616e7f" stroke-width="1" opacity="0.16"/>
<text x="489.04" y="174" text-anchor="middle" font-family="Consolas,monospace" font-size="8px" fill="#616e7f">15</text>
<line x1="517.91" y1="72" x2="517.91" y2="156" stroke="#616e7f" stroke-width="1" opacity="0.07"/>
<text x="517.91" y="174" text-anchor="middle" font-family="Consolas,monospace" font-size="8px" fill="#616e7f">16</text>
<line x1="546.78" y1="72" x2="546.78" y2="156" stroke="#616e7f" stroke-width="1" opacity="0.07"/>
<text x="546.78" y="174" text-anchor="middle" font-family="Consolas,monospace" font-size="8px" fill="#616e7f">17</text>
<line x1="575.65" y1="72" x2="575.65" y2="156" stroke="#616e7f" stroke-width="1" opacity="0.16"/>
<text x="575.65" y="174" text-anchor="middle" font-family="Consolas,monospace" font-size="8px" fill="#616e7f">18</text>
<line x1="604.52" y1="72" x2="604.52" y2="156" stroke="#616e7f" stroke-width="1" opacity="0.07"/>
<text x="604.52" y="174" text-anchor="middle" font-family="Consolas,monospace" font-size="8px" fill="#616e7f">19</text>
<line x1="633.39" y1="72" x2="633.39" y2="156" stroke="#616e7f" stroke-width="1" opacity="0.07"/>
<text x="633.39" y="174" text-anchor="middle" font-family="Consolas,monospace" font-size="8px" fill="#616e7f">20</text>
<line x1="662.26" y1="72" x2="662.26" y2="156" stroke="#616e7f" stroke-width="1" opacity="0.16"/>
<text x="662.26" y="174" text-anchor="middle" font-family="Consolas,monospace" font-size="8px" fill="#616e7f">21</text>
<line x1="691.13" y1="72" x2="691.13" y2="156" stroke="#616e7f" stroke-width="1" opacity="0.07"/>
<text x="691.13" y="174" text-anchor="middle" font-family="Consolas,monospace" font-size="8px" fill="#616e7f">22</text>
<line x1="720.00" y1="72" x2="720.00" y2="156" stroke="#616e7f" stroke-width="1" opacity="0.07"/>
<text x="720.00" y="174" text-anchor="middle" font-family="Consolas,monospace" font-size="8px" fill="#616e7f">23</text>
<path d="M 56.00 112.35 C 60.81 112.00, 75.25 107.92, 84.87 110.25 C 94.49 112.58, 104.12 122.46, 113.74 126.34 C 123.36 130.22, 132.99 130.13, 142.61 133.54 C 152.23 136.95, 161.86 143.99, 171.48 146.78 C 181.10 149.57, 190.72 148.87, 200.35 150.26 C 209.97 151.64, 219.59 154.21, 229.22 155.12 C 238.84 156.02, 248.46 157.55, 258.09 155.69 C 267.71 153.83, 277.33 145.63, 286.96 143.93 C 296.58 142.23, 306.20 144.38, 315.83 145.50 C 325.45 146.62, 335.07 149.58, 344.70 150.65 C 354.32 151.72, 363.94 154.12, 373.57 151.90 C 383.19 149.67, 392.81 143.82, 402.43 137.30 C 412.06 130.78, 421.68 117.54, 431.30 112.79 C 440.93 108.05, 450.55 113.41, 460.17 108.82 C 469.80 104.24, 479.42 91.41, 489.04 85.28 C 498.67 79.14, 508.29 72.44, 517.91 72.00 C 527.54 71.56, 537.16 79.02, 546.78 82.62 C 556.41 86.21, 566.03 90.64, 575.65 93.57 C 585.28 96.51, 594.90 99.37, 604.52 100.24 C 614.14 101.12, 623.77 96.38, 633.39 98.83 C 643.01 101.27, 652.64 113.22, 662.26 114.89 C 671.88 116.56, 681.51 111.59, 691.13 108.86 C 700.75 106.12, 715.19 100.21, 720.00 98.48 L 720.00 156.00 L 56.00 156.00 Z" fill="url(#hourFade)"/>
<path d="M 56.00 112.35 C 60.81 112.00, 75.25 107.92, 84.87 110.25 C 94.49 112.58, 104.12 122.46, 113.74 126.34 C 123.36 130.22, 132.99 130.13, 142.61 133.54 C 152.23 136.95, 161.86 143.99, 171.48 146.78 C 181.10 149.57, 190.72 148.87, 200.35 150.26 C 209.97 151.64, 219.59 154.21, 229.22 155.12 C 238.84 156.02, 248.46 157.55, 258.09 155.69 C 267.71 153.83, 277.33 145.63, 286.96 143.93 C 296.58 142.23, 306.20 144.38, 315.83 145.50 C 325.45 146.62, 335.07 149.58, 344.70 150.65 C 354.32 151.72, 363.94 154.12, 373.57 151.90 C 383.19 149.67, 392.81 143.82, 402.43 137.30 C 412.06 130.78, 421.68 117.54, 431.30 112.79 C 440.93 108.05, 450.55 113.41, 460.17 108.82 C 469.80 104.24, 479.42 91.41, 489.04 85.28 C 498.67 79.14, 508.29 72.44, 517.91 72.00 C 527.54 71.56, 537.16 79.02, 546.78 82.62 C 556.41 86.21, 566.03 90.64, 575.65 93.57 C 585.28 96.51, 594.90 99.37, 604.52 100.24 C 614.14 101.12, 623.77 96.38, 633.39 98.83 C 643.01 101.27, 652.64 113.22, 662.26 114.89 C 671.88 116.56, 681.51 111.59, 691.13 108.86 C 700.75 106.12, 715.19 100.21, 720.00 98.48" fill="none" stroke="url(#hourFill)" stroke-width="4" stroke-linecap="round"/>
<circle cx="56.00" cy="112.35" r="2.5" fill="#facc15" opacity="1"><title>00:00 - 6h 18m total</title></circle>
<circle cx="84.87" cy="110.25" r="2.5" fill="#facc15" opacity="1"><title>01:00 - 6h 36m total</title></circle>
<circle cx="113.74" cy="126.34" r="2.5" fill="#facc15" opacity="1"><title>02:00 - 4h 16m total</title></circle>
<circle cx="142.61" cy="133.54" r="2.5" fill="#facc15" opacity="1"><title>03:00 - 3h 14m total</title></circle>
<circle cx="171.48" cy="146.78" r="2.5" fill="#facc15" opacity="1"><title>04:00 - 1h 19m total</title></circle>
<circle cx="200.35" cy="150.26" r="2.5" fill="#facc15" opacity="1"><title>05:00 - 49m total</title></circle>
<circle cx="229.22" cy="155.12" r="2.5" fill="#facc15" opacity="1"><title>06:00 - 7m total</title></circle>
<circle cx="258.09" cy="155.69" r="2.5" fill="#facc15" opacity="1"><title>07:00 - 2m total</title></circle>
<circle cx="286.96" cy="143.93" r="2.5" fill="#facc15" opacity="1"><title>08:00 - 1h 44m total</title></circle>
<circle cx="315.83" cy="145.50" r="2.5" fill="#facc15" opacity="1"><title>09:00 - 1h 30m total</title></circle>
<circle cx="344.70" cy="150.65" r="2.5" fill="#facc15" opacity="1"><title>10:00 - 46m total</title></circle>
<circle cx="373.57" cy="151.90" r="2.5" fill="#facc15" opacity="1"><title>11:00 - 35m total</title></circle>
<circle cx="402.43" cy="137.30" r="2.5" fill="#facc15" opacity="1"><title>12:00 - 2h 42m total</title></circle>
<circle cx="431.30" cy="112.79" r="2.5" fill="#facc15" opacity="1"><title>13:00 - 6h 14m total</title></circle>
<circle cx="460.17" cy="108.82" r="2.5" fill="#facc15" opacity="1"><title>14:00 - 6h 48m total</title></circle>
<circle cx="489.04" cy="85.28" r="2.5" fill="#facc15" opacity="1"><title>15:00 - 10h 12m total</title></circle>
<circle cx="517.91" cy="72.00" r="4" fill="#facc15" opacity="1"><title>16:00 - 12h 7m total</title></circle>
<circle cx="546.78" cy="82.62" r="2.5" fill="#facc15" opacity="1"><title>17:00 - 10h 35m total</title></circle>
<circle cx="575.65" cy="93.57" r="2.5" fill="#facc15" opacity="1"><title>18:00 - 9h 0m total</title></circle>
<circle cx="604.52" cy="100.24" r="2.5" fill="#facc15" opacity="1"><title>19:00 - 8h 3m total</title></circle>
<circle cx="633.39" cy="98.83" r="2.5" fill="#facc15" opacity="1"><title>20:00 - 8h 15m total</title></circle>
<circle cx="662.26" cy="114.89" r="2.5" fill="#facc15" opacity="1"><title>21:00 - 5h 56m total</title></circle>
<circle cx="691.13" cy="108.86" r="2.5" fill="#facc15" opacity="1"><title>22:00 - 6h 48m total</title></circle>
<circle cx="720.00" cy="98.48" r="2.5" fill="#facc15" opacity="1"><title>23:00 - 8h 18m total</title></circle>
<text x="20" y="191" font-family="Consolas,monospace" font-size="11px" fill="#616e7f">24-hour distribution across 30 days; higher curve = more coding time in that hour</text>
</svg>