<svg xmlns="http://www.w3.org/2000/svg" font-family="Consolas,monospace" width="760" height="260" font-size="14px"><rect width="760" height="260" fill="#161b22" rx="12"/>
<text x="20" y="34" font-family="Consolas,monospace" font-size="14px" fill="#616e7f">- Daily Activity  (last 30d) ——————————————————————————————————————————-—-</text>
<rect x="20" y="175" width="21" height="45" fill="#58a6ff" rx="2" opacity="0.85"/>
<text x="30" y="238" text-anchor="middle" font-family="Consolas,monospace" font-size="11px" fill="#616e7f">03/30</text>
<rect x="44" y="206" width="21" height="14" fill="#58a6ff" rx="2" opacity="0.85"/>
<rect x="68" y="142" width="21" height="78" fill="#58a6ff" rx="2" opacity="0.85"/>
<text x="78" y="138" text-anchor="middle" font-family="Consolas,monospace" font-size="10px" fill="#c9d1d9">5h 45m</text>
<rect x="92" y="90" width="21" height="130" fill="#58a6ff" rx="2" opacity="0.85"/>
<text x="102" y="86" text-anchor="middle" font-family="Consolas,monospace" font-size="10px" fill="#c9d1d9">9h 36m</text>
<rect x="116" y="149" width="21" height="71" fill="#58a6ff" rx="2" opacity="0.85"/>
<text x="126" y="145" text-anchor="middle" font-family="Consolas,monospace" font-size="10px" fill="#c9d1d9">5h 15m</text>
<rect x="140" y="211" width="21" height="9" fill="#58a6ff" rx="2" opacity="0.85"/>
<text x="150" y="238" text-anchor="middle" font-family="Consolas,monospace" font-size="11px" fill="#616e7f">04/04</text>
<rect x="164" y="102" width="21" height="118" fill="#58a6ff" rx="2" opacity="0.85"/>
<text x="174" y="98" text-anchor="middle" font-family="Consolas,monospace" font-size="10px" fill="#c9d1d9">8h 41m</text>
<rect x="188" y="207" width="21" height="13" fill="#58a6ff" rx="2" opacity="0.85"/>
<rect x="212" y="164" width="21" height="56" fill="#58a6ff" rx="2" opacity="0.85"/>
<text x="222" y="160" text-anchor="middle" font-family="Consolas,monospace" font-size="10px" fill="#c9d1d9">4h 10m</text>
<rect x="236" y="181" width="21" height="39" fill="#58a6ff" rx="2" opacity="0.85"/>
<rect x="260" y="206" width="21" height="14" fill="#58a6ff" rx="2" opacity="0.85"/>
<text x="270" y="238" text-anchor="middle" font-family="Consolas,monospace" font-size="11px" fill="#616e7f">04/09</text>
<rect x="284" y="121" width="21" height="99" fill="#58a6ff" rx="2" opacity="0.85"/>
<text x="294" y="117" text-anchor="middle" font-family="Consolas,monospace" font-size="10px" fill="#c9d1d9">7h 17m</text>
<rect x="308" y="116" width="21" height="104" fill="#58a6ff" rx="2" opacity="0.85"/>
<text x="318" y="112" text-anchor="middle" font-family="Consolas,monospace" font-size="10px" fill="#c9d1d9">7h 40m</text>
<rect x="332" y="60" width="21" height="160" fill="#58a6ff" rx="2" opacity="0.85"/>
<text x="342" y="56" text-anchor="middle" font-family="Consolas,monospace" font-size="10px" fill="#c9d1d9">11h 46m</text>
<rect x="356" y="212" width="21" height="8" fill="#58a6ff" rx="2" opacity="0.85"/>
<rect x="380" y="101" width="21" height="119" fill="#58a6ff" rx="2" opacity="0.85"/>
<text x="390" y="238" text-anchor="middle" font-family="Consolas,monospace" font-size="11px" fill="#616e7f">04/14</text>
<text x="390" y="97" text-anchor="middle" font-family="Consolas,monospace" font-size="10px" fill="#c9d1d9">8h 47m</text>
<rect x="404" y="100" width="21" height="120" fill="#58a6ff" rx="2" opacity="0.85"/>
<text x="414" y="96" text-anchor="middle" font-family="Consolas,monospace" font-size="10px" fill="#c9d1d9">8h 51m</text>
<rect x="428" y="168" width="21" height="52" fill="#58a6ff" rx="2" opacity="0.85"/>
<rect x="452" y="167" width="21" height="53" fill="#58a6ff" rx="2" opacity="0.85"/>
<rect x="476" y="186" width="21" height="34" fill="#58a6ff" rx="2" opacity="0.85"/>
<rect x="500" y="157" width="21" height="63" fill="#58a6ff" rx="2" opacity="0.85"/>
<text x="510" y="238" text-anchor="middle" font-family="Consolas,monospace" font-size="11px" fill="#616e7f">04/19</text>
<text x="510" y="153" text-anchor="middle" font-family="Consolas,monospace" font-size="10px" fill="#c9d1d9">4h 39m</text>
<rect x="524" y="206" width="21" height="14" fill="#58a6ff" rx="2" opacity="0.85"/>
<rect x="548" y="133" width="21" height="87" fill="#58a6ff" rx="2" opacity="0.85"/>
<text x="558" y="129" text-anchor="middle" font-family="Consolas,monospace" font-size="10px" fill="#c9d1d9">6h 27m</text>
<rect x="572" y="170" width="21" height="50" fill="#58a6ff" rx="2" opacity="0.85"/>
<rect x="596" y="188" width="21" height="32" fill="#58a6ff" rx="2" opacity="0.85"/>
<rect x="620" y="195" width="21" height="25" fill="#58a6ff" rx="2" opacity="0.85"/>
<text x="630" y="238" text-anchor="middle" font-family="Consolas,monospace" font-size="11px" fill="#616e7f">04/24</text>
<rect x="644" y="160" width="21" height="60" fill="#58a6ff" rx="2" opacity="0.85"/>
<text x="654" y="156" text-anchor="middle" font-family="Consolas,monospace" font-size="10px" fill="#c9d1d9">4h 28m</text>
<rect x="668" y="184" width="21" height="36" fill="#58a6ff" rx="2" opacity="0.85"/>
<rect x="692" y="197" width="21" height="23" fill="#58a6ff" rx="2" opacity="0.85"/>
<rect x="716" y="163" width="21" height="57" fill="#58a6ff" rx="2" opacity="0.85"/>
<text x="726" y="238" text-anchor="middle" font-family="Consolas,monospace" font-size="11px" fill="#616e7f">04/28</text>
<text x="726" y="159" text-anchor="middle" font-family="Consolas,monospace" font-size="10px" fill="#c9d1d9">4h 13m</text>
<line x1="20" y1="161" x2="740" y2="161" stroke="#f85149" stroke-width="1" stroke-dasharray="4,3" opacity="0.7"/>
<text x="738" y="157" text-anchor="end" font-family="Consolas,monospace" font-size="10px" fill="#f85149">avg 4h 24m</text>
</svg>