<svg xmlns="http://www.w3.org/2000/svg" font-family="Consolas,monospace" width="760" height="205" font-size="14px"><rect width="760" height="205" fill="#161b22" rx="12"/>
<text x="20" y="34" font-family="Consolas,monospace" font-size="14px" fill="#616e7f">- Working Hours  (last 30d) ———————————————————————————————————————————-—-</text>
<text x="20" y="50" font-family="Consolas,monospace" font-size="12px" fill="#616e7f">total 137h 11m | peak 4h 15:00-19:00 | busiest 16:00 (13h 55m) | tz Asia/Ho_Chi_Minh</text>
<defs>
<linearGradient id="hourFill" x1="0" y1="0" x2="1" y2="0">
<stop offset="0%" stop-color="#1d4ed8"/>
<stop offset="45%" stop-color="#7c3aed"/>
<stop offset="75%" stop-color="#db2777"/>
<stop offset="100%" stop-color="#facc15"/>
</linearGradient>
<linearGradient id="hourFade" x1="0" y1="0" x2="1" y2="0">
<stop offset="0%" stop-color="#1d4ed8" stop-opacity="0.42"/>
<stop offset="28%" stop-color="#2563eb" stop-opacity="0.5"/>
<stop offset="50%" stop-color="#7c3aed" stop-opacity="0.58"/>
<stop offset="70%" stop-color="#db2777" stop-opacity="0.62"/>
<stop offset="86%" stop-color="#f97316" stop-opacity="0.58"/>
<stop offset="100%" stop-color="#facc15" stop-opacity="0.48"/>
</linearGradient>
</defs>
<line x1="56" y1="156" x2="720" y2="156" stroke="#616e7f" stroke-width="1" opacity="0.35"/>
<line x1="56.00" y1="72" x2="56.00" y2="156" stroke="#616e7f" stroke-width="1" opacity="0.16"/>
<text x="56.00" y="174" text-anchor="middle" font-family="Consolas,monospace" font-size="8px" fill="#616e7f">00</text>
<line x1="84.87" y1="72" x2="84.87" y2="156" stroke="#616e7f" stroke-width="1" opacity="0.07"/>
<text x="84.87" y="174" text-anchor="middle" font-family="Consolas,monospace" font-size="8px" fill="#616e7f">01</text>
<line x1="113.74" y1="72" x2="113.74" y2="156" stroke="#616e7f" stroke-width="1" opacity="0.07"/>
<text x="113.74" y="174" text-anchor="middle" font-family="Consolas,monospace" font-size="8px" fill="#616e7f">02</text>
<line x1="142.61" y1="72" x2="142.61" y2="156" stroke="#616e7f" stroke-width="1" opacity="0.16"/>
<text x="142.61" y="174" text-anchor="middle" font-family="Consolas,monospace" font-size="8px" fill="#616e7f">03</text>
<line x1="171.48" y1="72" x2="171.48" y2="156" stroke="#616e7f" stroke-width="1" opacity="0.07"/>
<text x="171.48" y="174" text-anchor="middle" font-family="Consolas,monospace" font-size="8px" fill="#616e7f">04</text>
<line x1="200.35" y1="72" x2="200.35" y2="156" stroke="#616e7f" stroke-width="1" opacity="0.07"/>
<text x="200.35" y="174" text-anchor="middle" font-family="Consolas,monospace" font-size="8px" fill="#616e7f">05</text>
<line x1="229.22" y1="72" x2="229.22" y2="156" stroke="#616e7f" stroke-width="1" opacity="0.16"/>
<text x="229.22" y="174" text-anchor="middle" font-family="Consolas,monospace" font-size="8px" fill="#616e7f">06</text>
<line x1="258.09" y1="72" x2="258.09" y2="156" stroke="#616e7f" stroke-width="1" opacity="0.07"/>
<text x="258.09" y="174" text-anchor="middle" font-family="Consolas,monospace" font-size="8px" fill="#616e7f">07</text>
<line x1="286.96" y1="72" x2="286.96" y2="156" stroke="#616e7f" stroke-width="1" opacity="0.07"/>
<text x="286.96" y="174" text-anchor="middle" font-family="Consolas,monospace" font-size="8px" fill="#616e7f">08</text>
<line x1="315.83" y1="72" x2="315.83" y2="156" stroke="#616e7f" stroke-width="1" opacity="0.16"/>
<text x="315.83" y="174" text-anchor="middle" font-family="Consolas,monospace" font-size="8px" fill="#616e7f">09</text>
<line x1="344.70" y1="72" x2="344.70" y2="156" stroke="#616e7f" stroke-width="1" opacity="0.07"/>
<text x="344.70" y="174" text-anchor="middle" font-family="Consolas,monospace" font-size="8px" fill="#616e7f">10</text>
<line x1="373.57" y1="72" x2="373.57" y2="156" stroke="#616e7f" stroke-width="1" opacity="0.07"/>
<text x="373.57" y="174" text-anchor="middle" font-family="Consolas,monospace" font-size="8px" fill="#616e7f">11</text>
<line x1="402.43" y1="72" x2="402.43" y2="156" stroke="#616e7f" stroke-width="1" opacity="0.16"/>
<text x="402.43" y="174" text-anchor="middle" font-family="Consolas,monospace" font-size="8px" fill="#616e7f">12</text>
<line x1="431.30" y1="72" x2="431.30" y2="156" stroke="#616e7f" stroke-width="1" opacity="0.07"/>
<text x="431.30" y="174" text-anchor="middle" font-family="Consolas,monospace" font-size="8px" fill="#616e7f">13</text>
<line x1="460.17" y1="72" x2="460.17" y2="156" stroke="#616e7f" stroke-width="1" opacity="0.07"/>
<text x="460.17" y="174" text-anchor="middle" font-family="Consolas,monospace" font-size="8px" fill="#616e7f">14</text>
<line x1="489.04" y1="72" x2="489.04" y2="156" stroke="#616e7f" stroke-width="1" opacity="0.16"/>
<text x="489.04" y="174" text-anchor="middle" font-family="Consolas,monospace" font-size="8px" fill="#616e7f">15</text>
<line x1="517.91" y1="72" x2="517.91" y2="156" stroke="#616e7f" stroke-width="1" opacity="0.07"/>
<text x="517.91" y="174" text-anchor="middle" font-family="Consolas,monospace" font-size="8px" fill="#616e7f">16</text>
<line x1="546.78" y1="72" x2="546.78" y2="156" stroke="#616e7f" stroke-width="1" opacity="0.07"/>
<text x="546.78" y="174" text-anchor="middle" font-family="Consolas,monospace" font-size="8px" fill="#616e7f">17</text>
<line x1="575.65" y1="72" x2="575.65" y2="156" stroke="#616e7f" stroke-width="1" opacity="0.16"/>
<text x="575.65" y="174" text-anchor="middle" font-family="Consolas,monospace" font-size="8px" fill="#616e7f">18</text>
<line x1="604.52" y1="72" x2="604.52" y2="156" stroke="#616e7f" stroke-width="1" opacity="0.07"/>
<text x="604.52" y="174" text-anchor="middle" font-family="Consolas,monospace" font-size="8px" fill="#616e7f">19</text>
<line x1="633.39" y1="72" x2="633.39" y2="156" stroke="#616e7f" stroke-width="1" opacity="0.07"/>
<text x="633.39" y="174" text-anchor="middle" font-family="Consolas,monospace" font-size="8px" fill="#616e7f">20</text>
<line x1="662.26" y1="72" x2="662.26" y2="156" stroke="#616e7f" stroke-width="1" opacity="0.16"/>
<text x="662.26" y="174" text-anchor="middle" font-family="Consolas,monospace" font-size="8px" fill="#616e7f">21</text>
<line x1="691.13" y1="72" x2="691.13" y2="156" stroke="#616e7f" stroke-width="1" opacity="0.07"/>
<text x="691.13" y="174" text-anchor="middle" font-family="Consolas,monospace" font-size="8px" fill="#616e7f">22</text>
<line x1="720.00" y1="72" x2="720.00" y2="156" stroke="#616e7f" stroke-width="1" opacity="0.07"/>
<text x="720.00" y="174" text-anchor="middle" font-family="Consolas,monospace" font-size="8px" fill="#616e7f">23</text>
<path d="M 56.00 105.95 C 60.81 105.84, 75.25 101.29, 84.87 105.30 C 94.49 109.31, 104.12 123.65, 113.74 130.00 C 123.36 136.36, 132.99 140.44, 142.61 143.45 C 152.23 146.46, 161.86 146.98, 171.48 148.07 C 181.10 149.15, 190.72 149.65, 200.35 149.97 C 209.97 150.29, 219.59 149.96, 229.22 149.97 C 238.84 149.98, 248.46 150.89, 258.09 150.02 C 267.71 149.14, 277.33 144.96, 286.96 144.72 C 296.58 144.47, 306.20 147.24, 315.83 148.55 C 325.45 149.86, 335.07 151.93, 344.70 152.58 C 354.32 153.23, 363.94 154.24, 373.57 152.44 C 383.19 150.63, 392.81 146.32, 402.43 141.76 C 412.06 137.20, 421.68 128.32, 431.30 125.08 C 440.93 121.84, 450.55 129.23, 460.17 122.30 C 469.80 115.37, 479.42 91.88, 489.04 83.50 C 498.67 75.11, 508.29 71.02, 517.91 72.00 C 527.54 72.98, 537.16 85.20, 546.78 89.39 C 556.41 93.57, 566.03 94.91, 575.65 97.10 C 585.28 99.29, 594.90 101.60, 604.52 102.55 C 614.14 103.49, 623.77 102.27, 633.39 102.75 C 643.01 103.23, 652.64 106.35, 662.26 105.43 C 671.88 104.50, 681.51 98.64, 691.13 97.21 C 700.75 95.78, 715.19 96.90, 720.00 96.84 L 720.00 156.00 L 56.00 156.00 Z" fill="url(#hourFade)"/>
<path d="M 56.00 105.95 C 60.81 105.84, 75.25 101.29, 84.87 105.30 C 94.49 109.31, 104.12 123.65, 113.74 130.00 C 123.36 136.36, 132.99 140.44, 142.61 143.45 C 152.23 146.46, 161.86 146.98, 171.48 148.07 C 181.10 149.15, 190.72 149.65, 200.35 149.97 C 209.97 150.29, 219.59 149.96, 229.22 149.97 C 238.84 149.98, 248.46 150.89, 258.09 150.02 C 267.71 149.14, 277.33 144.96, 286.96 144.72 C 296.58 144.47, 306.20 147.24, 315.83 148.55 C 325.45 149.86, 335.07 151.93, 344.70 152.58 C 354.32 153.23, 363.94 154.24, 373.57 152.44 C 383.19 150.63, 392.81 146.32, 402.43 141.76 C 412.06 137.20, 421.68 128.32, 431.30 125.08 C 440.93 121.84, 450.55 129.23, 460.17 122.30 C 469.80 115.37, 479.42 91.88, 489.04 83.50 C 498.67 75.11, 508.29 71.02, 517.91 72.00 C 527.54 72.98, 537.16 85.20, 546.78 89.39 C 556.41 93.57, 566.03 94.91, 575.65 97.10 C 585.28 99.29, 594.90 101.60, 604.52 102.55 C 614.14 103.49, 623.77 102.27, 633.39 102.75 C 643.01 103.23, 652.64 106.35, 662.26 105.43 C 671.88 104.50, 681.51 98.64, 691.13 97.21 C 700.75 95.78, 715.19 96.90, 720.00 96.84" fill="none" stroke="url(#hourFill)" stroke-width="4" stroke-linecap="round"/>
<circle cx="56.00" cy="105.95" r="2.5" fill="#facc15" opacity="1"><title>00:00 - 8h 18m total</title></circle>
<circle cx="84.87" cy="105.30" r="2.5" fill="#facc15" opacity="1"><title>01:00 - 8h 24m total</title></circle>
<circle cx="113.74" cy="130.00" r="2.5" fill="#facc15" opacity="1"><title>02:00 - 4h 18m total</title></circle>
<circle cx="142.61" cy="143.45" r="2.5" fill="#facc15" opacity="1"><title>03:00 - 2h 4m total</title></circle>
<circle cx="171.48" cy="148.07" r="2.5" fill="#facc15" opacity="1"><title>04:00 - 1h 18m total</title></circle>
<circle cx="200.35" cy="149.97" r="2.5" fill="#facc15" opacity="1"><title>05:00 - 1h 0m total</title></circle>
<circle cx="229.22" cy="149.97" r="2.5" fill="#facc15" opacity="1"><title>06:00 - 1h 0m total</title></circle>
<circle cx="258.09" cy="150.02" r="2.5" fill="#facc15" opacity="1"><title>07:00 - 59m total</title></circle>
<circle cx="286.96" cy="144.72" r="2.5" fill="#facc15" opacity="1"><title>08:00 - 1h 52m total</title></circle>
<circle cx="315.83" cy="148.55" r="2.5" fill="#facc15" opacity="1"><title>09:00 - 1h 14m total</title></circle>
<circle cx="344.70" cy="152.58" r="2.5" fill="#facc15" opacity="1"><title>10:00 - 34m total</title></circle>
<circle cx="373.57" cy="152.44" r="2.5" fill="#facc15" opacity="1"><title>11:00 - 35m total</title></circle>
<circle cx="402.43" cy="141.76" r="2.5" fill="#facc15" opacity="1"><title>12:00 - 2h 21m total</title></circle>
<circle cx="431.30" cy="125.08" r="2.5" fill="#facc15" opacity="1"><title>13:00 - 5h 7m total</title></circle>
<circle cx="460.17" cy="122.30" r="2.5" fill="#facc15" opacity="1"><title>14:00 - 5h 35m total</title></circle>
<circle cx="489.04" cy="83.50" r="2.5" fill="#facc15" opacity="1"><title>15:00 - 12h 1m total</title></circle>
<circle cx="517.91" cy="72.00" r="4" fill="#facc15" opacity="1"><title>16:00 - 13h 55m total</title></circle>
<circle cx="546.78" cy="89.39" r="2.5" fill="#facc15" opacity="1"><title>17:00 - 11h 2m total</title></circle>
<circle cx="575.65" cy="97.10" r="2.5" fill="#facc15" opacity="1"><title>18:00 - 9h 46m total</title></circle>
<circle cx="604.52" cy="102.55" r="2.5" fill="#facc15" opacity="1"><title>19:00 - 8h 51m total</title></circle>
<circle cx="633.39" cy="102.75" r="2.5" fill="#facc15" opacity="1"><title>20:00 - 8h 49m total</title></circle>
<circle cx="662.26" cy="105.43" r="2.5" fill="#facc15" opacity="1"><title>21:00 - 8h 23m total</title></circle>
<circle cx="691.13" cy="97.21" r="2.5" fill="#facc15" opacity="1"><title>22:00 - 9h 45m total</title></circle>
<circle cx="720.00" cy="96.84" r="2.5" fill="#facc15" opacity="1"><title>23:00 - 9h 48m total</title></circle>
<text x="20" y="191" font-family="Consolas,monospace" font-size="11px" fill="#616e7f">24-hour distribution across 30 days; higher curve = more coding time in that hour</text>
</svg>