<svg xmlns="http://www.w3.org/2000/svg" font-family="Consolas,monospace" width="420" height="320" font-size="14px"><rect width="420" height="320" fill="#161b22" rx="12"/>
<text x="20" y="34" font-family="Consolas,monospace" font-size="14px" fill="#616e7f">- Lang Distribution —————————————————————-—-</text>
<path d="M 130 170 L 130.00 60.00 A 110 110 0 0 1 227.31 221.29 Z" fill="#58a6ff" stroke="#161b22" stroke-width="2"/>
<path d="M 130 170 L 227.31 221.29 A 110 110 0 0 1 151.39 277.90 Z" fill="#3fb950" stroke="#161b22" stroke-width="2"/>
<path d="M 130 170 L 151.39 277.90 A 110 110 0 0 1 76.28 265.99 Z" fill="#ffa657" stroke="#161b22" stroke-width="2"/>
<path d="M 130 170 L 76.28 265.99 A 110 110 0 0 1 28.27 211.86 Z" fill="#f85149" stroke="#161b22" stroke-width="2"/>
<path d="M 130 170 L 28.27 211.86 A 110 110 0 0 1 20.12 175.22 Z" fill="#d2a8ff" stroke="#161b22" stroke-width="2"/>
<path d="M 130 170 L 20.12 175.22 A 110 110 0 0 1 24.38 139.28 Z" fill="#79c0ff" stroke="#161b22" stroke-width="2"/>
<path d="M 130 170 L 24.38 139.28 A 110 110 0 0 1 34.60 115.23 Z" fill="#56d364" stroke="#161b22" stroke-width="2"/>
<path d="M 130 170 L 34.60 115.23 A 110 110 0 0 1 45.13 100.02 Z" fill="#e3b341" stroke="#161b22" stroke-width="2"/>
<path d="M 130 170 L 45.13 100.02 A 110 110 0 0 1 56.80 87.89 Z" fill="#58a6ff" stroke="#161b22" stroke-width="2"/>
<path d="M 130 170 L 56.80 87.89 A 110 110 0 0 1 65.36 80.99 Z" fill="#3fb950" stroke="#161b22" stroke-width="2"/>
<path d="M 130 170 L 65.36 80.99 A 110 110 0 0 1 71.39 76.91 Z" fill="#ffa657" stroke="#161b22" stroke-width="2"/>
<path d="M 130 170 L 71.39 76.91 A 110 110 0 0 1 77.18 73.51 Z" fill="#f85149" stroke="#161b22" stroke-width="2"/>
<path d="M 130 170 L 77.18 73.51 A 110 110 0 0 1 83.11 70.50 Z" fill="#d2a8ff" stroke="#161b22" stroke-width="2"/>
<path d="M 130 170 L 83.11 70.50 A 110 110 0 0 1 89.07 67.90 Z" fill="#79c0ff" stroke="#161b22" stroke-width="2"/>
<path d="M 130 170 L 89.07 67.90 A 110 110 0 0 1 94.64 65.84 Z" fill="#56d364" stroke="#161b22" stroke-width="2"/>
<path d="M 130 170 L 94.64 65.84 A 110 110 0 0 1 100.01 64.17 Z" fill="#e3b341" stroke="#161b22" stroke-width="2"/>
<path d="M 130 170 L 100.01 64.17 A 110 110 0 0 1 104.96 62.89 Z" fill="#58a6ff" stroke="#161b22" stroke-width="2"/>
<path d="M 130 170 L 104.96 62.89 A 110 110 0 0 1 109.84 61.86 Z" fill="#3fb950" stroke="#161b22" stroke-width="2"/>
<path d="M 130 170 L 109.84 61.86 A 110 110 0 0 1 130.00 60.00 Z" fill="#ffa657" stroke="#161b22" stroke-width="2"/>
<circle cx="130" cy="170" r="44" fill="#161b22"/>
<text x="130" y="175" text-anchor="middle" font-family="Consolas,monospace" font-size="12px" fill="#616e7f">19 langs</text>
<rect x="270" y="50" width="8" height="8" fill="#58a6ff" rx="2"/>
<text x="282" y="59" font-family="Consolas,monospace" font-size="11px" fill="#c9d1d9">Other  32.7%</text>
<rect x="270" y="68" width="8" height="8" fill="#3fb950" rx="2"/>
<text x="282" y="77" font-family="Consolas,monospace" font-size="11px" fill="#c9d1d9">TypeScript  14.2%</text>
<rect x="270" y="86" width="8" height="8" fill="#ffa657" rx="2"/>
<text x="282" y="95" font-family="Consolas,monospace" font-size="11px" fill="#c9d1d9">Go  11.2%</text>
<rect x="270" y="104" width="8" height="8" fill="#f85149" rx="2"/>
<text x="282" y="113" font-family="Consolas,monospace" font-size="11px" fill="#c9d1d9">Markdown  10.7%</text>
<rect x="270" y="122" width="8" height="8" fill="#d2a8ff" rx="2"/>
<text x="282" y="131" font-family="Consolas,monospace" font-size="11px" fill="#c9d1d9">Vue.js  5.5%</text>
<rect x="270" y="140" width="8" height="8" fill="#79c0ff" rx="2"/>
<text x="282" y="149" font-family="Consolas,monospace" font-size="11px" fill="#c9d1d9">JSON  5.3%</text>
<rect x="270" y="158" width="8" height="8" fill="#56d364" rx="2"/>
<text x="282" y="167" font-family="Consolas,monospace" font-size="11px" fill="#c9d1d9">YAML  3.8%</text>
<rect x="270" y="176" width="8" height="8" fill="#e3b341" rx="2"/>
<text x="282" y="185" font-family="Consolas,monospace" font-size="11px" fill="#c9d1d9">Bash  2.7%</text>
<rect x="270" y="194" width="8" height="8" fill="#58a6ff" rx="2"/>
<text x="282" y="203" font-family="Consolas,monospace" font-size="11px" fill="#c9d1d9">C#  2.4%</text>
<rect x="270" y="212" width="8" height="8" fill="#3fb950" rx="2"/>
<text x="282" y="221" font-family="Consolas,monospace" font-size="11px" fill="#c9d1d9">Java  1.6%</text>
<rect x="270" y="230" width="8" height="8" fill="#ffa657" rx="2"/>
<text x="282" y="239" font-family="Consolas,monospace" font-size="11px" fill="#c9d1d9">hyprlang  1.1%</text>
<rect x="270" y="248" width="8" height="8" fill="#f85149" rx="2"/>
<text x="282" y="257" font-family="Consolas,monospace" font-size="11px" fill="#c9d1d9">SQL  1.0%</text>
<rect x="270" y="266" width="8" height="8" fill="#d2a8ff" rx="2"/>
<text x="282" y="275" font-family="Consolas,monospace" font-size="11px" fill="#c9d1d9">Prisma  1.0%</text>
<rect x="270" y="284" width="8" height="8" fill="#79c0ff" rx="2"/>
<text x="282" y="293" font-family="Consolas,monospace" font-size="11px" fill="#c9d1d9">PlantUML  0.9%</text>
<rect x="270" y="302" width="8" height="8" fill="#56d364" rx="2"/>
<text x="282" y="311" font-family="Consolas,monospace" font-size="11px" fill="#c9d1d9">TeX  0.9%</text>
<rect x="270" y="320" width="8" height="8" fill="#e3b341" rx="2"/>
<text x="282" y="329" font-family="Consolas,monospace" font-size="11px" fill="#c9d1d9">gitignore  0.8%</text>
<rect x="270" y="338" width="8" height="8" fill="#58a6ff" rx="2"/>
<text x="282" y="347" font-family="Consolas,monospace" font-size="11px" fill="#c9d1d9">CSS  0.7%</text>
<rect x="270" y="356" width="8" height="8" fill="#3fb950" rx="2"/>
<text x="282" y="365" font-family="Consolas,monospace" font-size="11px" fill="#c9d1d9">conf  0.7%</text>
<rect x="270" y="374" width="8" height="8" fill="#ffa657" rx="2"/>
<text x="282" y="383" font-family="Consolas,monospace" font-size="11px" fill="#c9d1d9">Other  2.9%</text>
</svg>