<svg xmlns="http://www.w3.org/2000/svg" font-family="Consolas,monospace" width="760" height="260" font-size="14px"><rect width="760" height="260" fill="#161b22" rx="12"/>
<text x="20" y="34" font-family="Consolas,monospace" font-size="14px" fill="#616e7f">- Daily Activity  (last 30d) ——————————————————————————————————————————-—-</text>
<rect x="20" y="60" width="21" height="160" fill="#58a6ff" rx="2" opacity="0.85"/>
<text x="30" y="238" text-anchor="middle" font-family="Consolas,monospace" font-size="11px" fill="#616e7f">06/21</text>
<text x="30" y="56" text-anchor="middle" font-family="Consolas,monospace" font-size="10px" fill="#c9d1d9">15h 25m</text>
<rect x="44" y="109" width="21" height="111" fill="#58a6ff" rx="2" opacity="0.85"/>
<text x="54" y="105" text-anchor="middle" font-family="Consolas,monospace" font-size="10px" fill="#c9d1d9">10h 45m</text>
<rect x="68" y="184" width="21" height="36" fill="#58a6ff" rx="2" opacity="0.85"/>
<rect x="92" y="218" width="21" height="2" fill="#58a6ff" rx="2" opacity="0.85"/>
<rect x="116" y="219" width="21" height="1" fill="#58a6ff" rx="2" opacity="0.85"/>
<rect x="140" y="216" width="21" height="4" fill="#58a6ff" rx="2" opacity="0.85"/>
<text x="150" y="238" text-anchor="middle" font-family="Consolas,monospace" font-size="11px" fill="#616e7f">06/26</text>
<rect x="164" y="219" width="21" height="1" fill="#58a6ff" rx="2" opacity="0.85"/>
<rect x="188" y="218" width="21" height="2" fill="#58a6ff" rx="2" opacity="0.85"/>
<rect x="212" y="193" width="21" height="27" fill="#58a6ff" rx="2" opacity="0.85"/>
<rect x="236" y="218" width="21" height="2" fill="#58a6ff" rx="2" opacity="0.85"/>
<rect x="260" y="218" width="21" height="2" fill="#58a6ff" rx="2" opacity="0.85"/>
<text x="270" y="238" text-anchor="middle" font-family="Consolas,monospace" font-size="11px" fill="#616e7f">07/01</text>
<rect x="284" y="218" width="21" height="2" fill="#58a6ff" rx="2" opacity="0.85"/>
<rect x="308" y="220" width="21" height="0" fill="#58a6ff" rx="2" opacity="0.85"/>
<rect x="332" y="184" width="21" height="36" fill="#58a6ff" rx="2" opacity="0.85"/>
<rect x="356" y="218" width="21" height="2" fill="#58a6ff" rx="2" opacity="0.85"/>
<rect x="380" y="194" width="21" height="26" fill="#58a6ff" rx="2" opacity="0.85"/>
<text x="390" y="238" text-anchor="middle" font-family="Consolas,monospace" font-size="11px" fill="#616e7f">07/06</text>
<rect x="404" y="176" width="21" height="44" fill="#58a6ff" rx="2" opacity="0.85"/>
<rect x="428" y="214" width="21" height="6" fill="#58a6ff" rx="2" opacity="0.85"/>
<rect x="452" y="218" width="21" height="2" fill="#58a6ff" rx="2" opacity="0.85"/>
<rect x="476" y="218" width="21" height="2" fill="#58a6ff" rx="2" opacity="0.85"/>
<rect x="500" y="218" width="21" height="2" fill="#58a6ff" rx="2" opacity="0.85"/>
<text x="510" y="238" text-anchor="middle" font-family="Consolas,monospace" font-size="11px" fill="#616e7f">07/11</text>
<rect x="524" y="160" width="21" height="60" fill="#58a6ff" rx="2" opacity="0.85"/>
<text x="534" y="156" text-anchor="middle" font-family="Consolas,monospace" font-size="10px" fill="#c9d1d9">5h 52m</text>
<rect x="548" y="148" width="21" height="72" fill="#58a6ff" rx="2" opacity="0.85"/>
<text x="558" y="144" text-anchor="middle" font-family="Consolas,monospace" font-size="10px" fill="#c9d1d9">7h 0m</text>
<rect x="572" y="144" width="21" height="76" fill="#58a6ff" rx="2" opacity="0.85"/>
<text x="582" y="140" text-anchor="middle" font-family="Consolas,monospace" font-size="10px" fill="#c9d1d9">7h 23m</text>
<rect x="596" y="85" width="21" height="135" fill="#58a6ff" rx="2" opacity="0.85"/>
<text x="606" y="81" text-anchor="middle" font-family="Consolas,monospace" font-size="10px" fill="#c9d1d9">13h 4m</text>
<rect x="620" y="92" width="21" height="128" fill="#58a6ff" rx="2" opacity="0.85"/>
<text x="630" y="238" text-anchor="middle" font-family="Consolas,monospace" font-size="11px" fill="#616e7f">07/16</text>
<text x="630" y="88" text-anchor="middle" font-family="Consolas,monospace" font-size="10px" fill="#c9d1d9">12h 25m</text>
<rect x="644" y="218" width="21" height="2" fill="#58a6ff" rx="2" opacity="0.85"/>
<rect x="668" y="218" width="21" height="2" fill="#58a6ff" rx="2" opacity="0.85"/>
<rect x="692" y="218" width="21" height="2" fill="#58a6ff" rx="2" opacity="0.85"/>
<rect x="716" y="218" width="21" height="2" fill="#58a6ff" rx="2" opacity="0.85"/>
<text x="726" y="238" text-anchor="middle" font-family="Consolas,monospace" font-size="11px" fill="#616e7f">07/20</text>
<line x1="20" y1="189" x2="740" y2="189" stroke="#f85149" stroke-width="1" stroke-dasharray="4,3" opacity="0.7"/>
<text x="738" y="185" text-anchor="end" font-family="Consolas,monospace" font-size="10px" fill="#f85149">avg 2h 59m</text>
</svg>