<?xml version="1.0" encoding="UTF-8"?>
<svg xmlns="http://www.w3.org/2000/svg" font-family="Consolas,monospace" width="700px" height="226px" font-size="14px">
<style>.k{fill:#ffa657}.v{fill:#a5d6ff}.c{fill:#616e7f} text,tspan{white-space:pre}</style>
<rect width="700px" height="226px" fill="#161b22" rx="15"/>
<text x="15" y="28" font-size="16px" fill="#616e7f">- Languages (last 30d) ——————————————————————————————————————————-—-</text>
<rect x="15" y="48" width="8" height="8" fill="#58a6ff" rx="2"/>
<text x="27" y="57" font-size="13px" fill="#a5d6ff">Python</text>
<rect x="130" y="46" width="380" height="14" fill="#616e7f" opacity="0.15" rx="3"/>
<rect x="130" y="46" width="133" height="14" fill="#58a6ff" rx="3" opacity="0.85"/>
<text x="518" y="57" font-size="12px" fill="#616e7f">35.2%  35h 12m</text>
<rect x="15" y="74" width="8" height="8" fill="#3fb950" rx="2"/>
<text x="27" y="83" font-size="13px" fill="#a5d6ff">TypeScript</text>
<rect x="130" y="72" width="380" height="14" fill="#616e7f" opacity="0.15" rx="3"/>
<rect x="130" y="72" width="83" height="14" fill="#3fb950" rx="3" opacity="0.85"/>
<text x="518" y="83" font-size="12px" fill="#616e7f">22.1%  22h 6m</text>
<rect x="15" y="100" width="8" height="8" fill="#ffa657" rx="2"/>
<text x="27" y="109" font-size="13px" fill="#a5d6ff">JavaScript</text>
<rect x="130" y="98" width="380" height="14" fill="#616e7f" opacity="0.15" rx="3"/>
<rect x="130" y="98" width="58" height="14" fill="#ffa657" rx="3" opacity="0.85"/>
<text x="518" y="109" font-size="12px" fill="#616e7f">15.4%  15h 24m</text>
<rect x="15" y="126" width="8" height="8" fill="#f85149" rx="2"/>
<text x="27" y="135" font-size="13px" fill="#a5d6ff">Rust</text>
<rect x="130" y="124" width="380" height="14" fill="#616e7f" opacity="0.15" rx="3"/>
<rect x="130" y="124" width="39" height="14" fill="#f85149" rx="3" opacity="0.85"/>
<text x="518" y="135" font-size="12px" fill="#616e7f">10.3%  10h 18m</text>
<rect x="15" y="152" width="8" height="8" fill="#d2a8ff" rx="2"/>
<text x="27" y="161" font-size="13px" fill="#a5d6ff">Java</text>
<rect x="130" y="150" width="380" height="14" fill="#616e7f" opacity="0.15" rx="3"/>
<rect x="130" y="150" width="32" height="14" fill="#d2a8ff" rx="3" opacity="0.85"/>
<text x="518" y="161" font-size="12px" fill="#616e7f">8.5%  8h 30m</text>
<rect x="15" y="178" width="8" height="8" fill="#79c0ff" rx="2"/>
<text x="27" y="187" font-size="13px" fill="#a5d6ff">Other</text>
<rect x="130" y="176" width="380" height="14" fill="#616e7f" opacity="0.15" rx="3"/>
<rect x="130" y="176" width="32" height="14" fill="#79c0ff" rx="3" opacity="0.85"/>
<text x="518" y="187" font-size="12px" fill="#616e7f">8.5%  8h 30m</text>
</svg>