<svg xmlns="http://www.w3.org/2000/svg" font-family="Consolas,monospace" width="760" height="205" font-size="14px"><rect width="760" height="205" fill="#161b22" rx="12"/>
<text x="20" y="34" font-family="Consolas,monospace" font-size="14px" fill="#616e7f">- Working Hours  (last 30d) ———————————————————————————————————————————-—-</text>
<text x="20" y="50" font-family="Consolas,monospace" font-size="12px" fill="#616e7f">total 86h 56m | peak 4h 16:00-20:00 | busiest 17:00 (7h 55m) | tz Asia/Ho_Chi_Minh</text>
<defs>
<linearGradient id="hourFill" x1="0" y1="0" x2="1" y2="0">
<stop offset="0%" stop-color="#1d4ed8"/>
<stop offset="45%" stop-color="#7c3aed"/>
<stop offset="75%" stop-color="#db2777"/>
<stop offset="100%" stop-color="#facc15"/>
</linearGradient>
<linearGradient id="hourFade" x1="0" y1="0" x2="1" y2="0">
<stop offset="0%" stop-color="#1d4ed8" stop-opacity="0.42"/>
<stop offset="28%" stop-color="#2563eb" stop-opacity="0.5"/>
<stop offset="50%" stop-color="#7c3aed" stop-opacity="0.58"/>
<stop offset="70%" stop-color="#db2777" stop-opacity="0.62"/>
<stop offset="86%" stop-color="#f97316" stop-opacity="0.58"/>
<stop offset="100%" stop-color="#facc15" stop-opacity="0.48"/>
</linearGradient>
</defs>
<line x1="56" y1="156" x2="720" y2="156" stroke="#616e7f" stroke-width="1" opacity="0.35"/>
<line x1="56.00" y1="72" x2="56.00" y2="156" stroke="#616e7f" stroke-width="1" opacity="0.16"/>
<text x="56.00" y="174" text-anchor="middle" font-family="Consolas,monospace" font-size="8px" fill="#616e7f">00</text>
<line x1="84.87" y1="72" x2="84.87" y2="156" stroke="#616e7f" stroke-width="1" opacity="0.07"/>
<text x="84.87" y="174" text-anchor="middle" font-family="Consolas,monospace" font-size="8px" fill="#616e7f">01</text>
<line x1="113.74" y1="72" x2="113.74" y2="156" stroke="#616e7f" stroke-width="1" opacity="0.07"/>
<text x="113.74" y="174" text-anchor="middle" font-family="Consolas,monospace" font-size="8px" fill="#616e7f">02</text>
<line x1="142.61" y1="72" x2="142.61" y2="156" stroke="#616e7f" stroke-width="1" opacity="0.16"/>
<text x="142.61" y="174" text-anchor="middle" font-family="Consolas,monospace" font-size="8px" fill="#616e7f">03</text>
<line x1="171.48" y1="72" x2="171.48" y2="156" stroke="#616e7f" stroke-width="1" opacity="0.07"/>
<text x="171.48" y="174" text-anchor="middle" font-family="Consolas,monospace" font-size="8px" fill="#616e7f">04</text>
<line x1="200.35" y1="72" x2="200.35" y2="156" stroke="#616e7f" stroke-width="1" opacity="0.07"/>
<text x="200.35" y="174" text-anchor="middle" font-family="Consolas,monospace" font-size="8px" fill="#616e7f">05</text>
<line x1="229.22" y1="72" x2="229.22" y2="156" stroke="#616e7f" stroke-width="1" opacity="0.16"/>
<text x="229.22" y="174" text-anchor="middle" font-family="Consolas,monospace" font-size="8px" fill="#616e7f">06</text>
<line x1="258.09" y1="72" x2="258.09" y2="156" stroke="#616e7f" stroke-width="1" opacity="0.07"/>
<text x="258.09" y="174" text-anchor="middle" font-family="Consolas,monospace" font-size="8px" fill="#616e7f">07</text>
<line x1="286.96" y1="72" x2="286.96" y2="156" stroke="#616e7f" stroke-width="1" opacity="0.07"/>
<text x="286.96" y="174" text-anchor="middle" font-family="Consolas,monospace" font-size="8px" fill="#616e7f">08</text>
<line x1="315.83" y1="72" x2="315.83" y2="156" stroke="#616e7f" stroke-width="1" opacity="0.16"/>
<text x="315.83" y="174" text-anchor="middle" font-family="Consolas,monospace" font-size="8px" fill="#616e7f">09</text>
<line x1="344.70" y1="72" x2="344.70" y2="156" stroke="#616e7f" stroke-width="1" opacity="0.07"/>
<text x="344.70" y="174" text-anchor="middle" font-family="Consolas,monospace" font-size="8px" fill="#616e7f">10</text>
<line x1="373.57" y1="72" x2="373.57" y2="156" stroke="#616e7f" stroke-width="1" opacity="0.07"/>
<text x="373.57" y="174" text-anchor="middle" font-family="Consolas,monospace" font-size="8px" fill="#616e7f">11</text>
<line x1="402.43" y1="72" x2="402.43" y2="156" stroke="#616e7f" stroke-width="1" opacity="0.16"/>
<text x="402.43" y="174" text-anchor="middle" font-family="Consolas,monospace" font-size="8px" fill="#616e7f">12</text>
<line x1="431.30" y1="72" x2="431.30" y2="156" stroke="#616e7f" stroke-width="1" opacity="0.07"/>
<text x="431.30" y="174" text-anchor="middle" font-family="Consolas,monospace" font-size="8px" fill="#616e7f">13</text>
<line x1="460.17" y1="72" x2="460.17" y2="156" stroke="#616e7f" stroke-width="1" opacity="0.07"/>
<text x="460.17" y="174" text-anchor="middle" font-family="Consolas,monospace" font-size="8px" fill="#616e7f">14</text>
<line x1="489.04" y1="72" x2="489.04" y2="156" stroke="#616e7f" stroke-width="1" opacity="0.16"/>
<text x="489.04" y="174" text-anchor="middle" font-family="Consolas,monospace" font-size="8px" fill="#616e7f">15</text>
<line x1="517.91" y1="72" x2="517.91" y2="156" stroke="#616e7f" stroke-width="1" opacity="0.07"/>
<text x="517.91" y="174" text-anchor="middle" font-family="Consolas,monospace" font-size="8px" fill="#616e7f">16</text>
<line x1="546.78" y1="72" x2="546.78" y2="156" stroke="#616e7f" stroke-width="1" opacity="0.07"/>
<text x="546.78" y="174" text-anchor="middle" font-family="Consolas,monospace" font-size="8px" fill="#616e7f">17</text>
<line x1="575.65" y1="72" x2="575.65" y2="156" stroke="#616e7f" stroke-width="1" opacity="0.16"/>
<text x="575.65" y="174" text-anchor="middle" font-family="Consolas,monospace" font-size="8px" fill="#616e7f">18</text>
<line x1="604.52" y1="72" x2="604.52" y2="156" stroke="#616e7f" stroke-width="1" opacity="0.07"/>
<text x="604.52" y="174" text-anchor="middle" font-family="Consolas,monospace" font-size="8px" fill="#616e7f">19</text>
<line x1="633.39" y1="72" x2="633.39" y2="156" stroke="#616e7f" stroke-width="1" opacity="0.07"/>
<text x="633.39" y="174" text-anchor="middle" font-family="Consolas,monospace" font-size="8px" fill="#616e7f">20</text>
<line x1="662.26" y1="72" x2="662.26" y2="156" stroke="#616e7f" stroke-width="1" opacity="0.16"/>
<text x="662.26" y="174" text-anchor="middle" font-family="Consolas,monospace" font-size="8px" fill="#616e7f">21</text>
<line x1="691.13" y1="72" x2="691.13" y2="156" stroke="#616e7f" stroke-width="1" opacity="0.07"/>
<text x="691.13" y="174" text-anchor="middle" font-family="Consolas,monospace" font-size="8px" fill="#616e7f">22</text>
<line x1="720.00" y1="72" x2="720.00" y2="156" stroke="#616e7f" stroke-width="1" opacity="0.07"/>
<text x="720.00" y="174" text-anchor="middle" font-family="Consolas,monospace" font-size="8px" fill="#616e7f">23</text>
<path d="M 56.00 113.64 C 60.81 112.67, 75.25 108.16, 84.87 107.85 C 94.49 107.55, 104.12 108.56, 113.74 111.81 C 123.36 115.07, 132.99 124.37, 142.61 127.38 C 152.23 130.39, 161.86 126.87, 171.48 129.88 C 181.10 132.88, 190.72 142.82, 200.35 145.41 C 209.97 147.99, 219.59 145.41, 229.22 145.41 C 238.84 145.41, 248.46 145.41, 258.09 145.41 C 267.71 145.41, 277.33 145.41, 286.96 145.41 C 296.58 145.41, 306.20 146.83, 315.83 145.41 C 325.45 143.98, 335.07 136.24, 344.70 136.84 C 354.32 137.43, 363.94 146.29, 373.57 148.97 C 383.19 151.64, 392.81 156.00, 402.43 152.90 C 412.06 149.79, 421.68 138.74, 431.30 130.33 C 440.93 121.92, 450.55 109.10, 460.17 102.44 C 469.80 95.79, 479.42 94.27, 489.04 90.38 C 498.67 86.50, 508.29 82.17, 517.91 79.11 C 527.54 76.05, 537.16 71.36, 546.78 72.00 C 556.41 72.64, 566.03 82.41, 575.65 82.96 C 585.28 83.50, 594.90 74.49, 604.52 75.27 C 614.14 76.06, 623.77 82.35, 633.39 87.68 C 643.01 93.02, 652.64 101.75, 662.26 107.28 C 671.88 112.81, 681.51 119.05, 691.13 120.88 C 700.75 122.71, 715.19 118.69, 720.00 118.26 L 720.00 156.00 L 56.00 156.00 Z" fill="url(#hourFade)"/>
<path d="M 56.00 113.64 C 60.81 112.67, 75.25 108.16, 84.87 107.85 C 94.49 107.55, 104.12 108.56, 113.74 111.81 C 123.36 115.07, 132.99 124.37, 142.61 127.38 C 152.23 130.39, 161.86 126.87, 171.48 129.88 C 181.10 132.88, 190.72 142.82, 200.35 145.41 C 209.97 147.99, 219.59 145.41, 229.22 145.41 C 238.84 145.41, 248.46 145.41, 258.09 145.41 C 267.71 145.41, 277.33 145.41, 286.96 145.41 C 296.58 145.41, 306.20 146.83, 315.83 145.41 C 325.45 143.98, 335.07 136.24, 344.70 136.84 C 354.32 137.43, 363.94 146.29, 373.57 148.97 C 383.19 151.64, 392.81 156.00, 402.43 152.90 C 412.06 149.79, 421.68 138.74, 431.30 130.33 C 440.93 121.92, 450.55 109.10, 460.17 102.44 C 469.80 95.79, 479.42 94.27, 489.04 90.38 C 498.67 86.50, 508.29 82.17, 517.91 79.11 C 527.54 76.05, 537.16 71.36, 546.78 72.00 C 556.41 72.64, 566.03 82.41, 575.65 82.96 C 585.28 83.50, 594.90 74.49, 604.52 75.27 C 614.14 76.06, 623.77 82.35, 633.39 87.68 C 643.01 93.02, 652.64 101.75, 662.26 107.28 C 671.88 112.81, 681.51 119.05, 691.13 120.88 C 700.75 122.71, 715.19 118.69, 720.00 118.26" fill="none" stroke="url(#hourFill)" stroke-width="4" stroke-linecap="round"/>
<circle cx="56.00" cy="113.64" r="2.5" fill="#facc15" opacity="1"><title>00:00 - 3h 59m total</title></circle>
<circle cx="84.87" cy="107.85" r="2.5" fill="#facc15" opacity="1"><title>01:00 - 4h 32m total</title></circle>
<circle cx="113.74" cy="111.81" r="2.5" fill="#facc15" opacity="1"><title>02:00 - 4h 10m total</title></circle>
<circle cx="142.61" cy="127.38" r="2.5" fill="#facc15" opacity="1"><title>03:00 - 2h 42m total</title></circle>
<circle cx="171.48" cy="129.88" r="2.5" fill="#facc15" opacity="1"><title>04:00 - 2h 27m total</title></circle>
<circle cx="200.35" cy="145.41" r="2.5" fill="#facc15" opacity="1"><title>05:00 - 1h 0m total</title></circle>
<circle cx="229.22" cy="145.41" r="2.5" fill="#facc15" opacity="1"><title>06:00 - 1h 0m total</title></circle>
<circle cx="258.09" cy="145.41" r="2.5" fill="#facc15" opacity="1"><title>07:00 - 1h 0m total</title></circle>
<circle cx="286.96" cy="145.41" r="2.5" fill="#facc15" opacity="1"><title>08:00 - 1h 0m total</title></circle>
<circle cx="315.83" cy="145.41" r="2.5" fill="#facc15" opacity="1"><title>09:00 - 1h 0m total</title></circle>
<circle cx="344.70" cy="136.84" r="2.5" fill="#facc15" opacity="1"><title>10:00 - 1h 48m total</title></circle>
<circle cx="373.57" cy="148.97" r="2.5" fill="#facc15" opacity="1"><title>11:00 - 39m total</title></circle>
<circle cx="402.43" cy="152.90" r="2.5" fill="#facc15" opacity="1"><title>12:00 - 17m total</title></circle>
<circle cx="431.30" cy="130.33" r="2.5" fill="#facc15" opacity="1"><title>13:00 - 2h 25m total</title></circle>
<circle cx="460.17" cy="102.44" r="2.5" fill="#facc15" opacity="1"><title>14:00 - 5h 3m total</title></circle>
<circle cx="489.04" cy="90.38" r="2.5" fill="#facc15" opacity="1"><title>15:00 - 6h 11m total</title></circle>
<circle cx="517.91" cy="79.11" r="2.5" fill="#facc15" opacity="1"><title>16:00 - 7h 15m total</title></circle>
<circle cx="546.78" cy="72.00" r="4" fill="#facc15" opacity="1"><title>17:00 - 7h 55m total</title></circle>
<circle cx="575.65" cy="82.96" r="2.5" fill="#facc15" opacity="1"><title>18:00 - 6h 53m total</title></circle>
<circle cx="604.52" cy="75.27" r="2.5" fill="#facc15" opacity="1"><title>19:00 - 7h 37m total</title></circle>
<circle cx="633.39" cy="87.68" r="2.5" fill="#facc15" opacity="1"><title>20:00 - 6h 26m total</title></circle>
<circle cx="662.26" cy="107.28" r="2.5" fill="#facc15" opacity="1"><title>21:00 - 4h 35m total</title></circle>
<circle cx="691.13" cy="120.88" r="2.5" fill="#facc15" opacity="1"><title>22:00 - 3h 18m total</title></circle>
<circle cx="720.00" cy="118.26" r="2.5" fill="#facc15" opacity="1"><title>23:00 - 3h 33m total</title></circle>
<text x="20" y="191" font-family="Consolas,monospace" font-size="11px" fill="#616e7f">24-hour distribution across 30 days; higher curve = more coding time in that hour</text>
</svg>