<svg xmlns="http://www.w3.org/2000/svg" font-family="Consolas,monospace" width="340" height="300" font-size="14px"><rect width="340" height="300" fill="#161b22" rx="12"/>
<text x="15" y="29" font-family="Consolas,monospace" font-size="14px" fill="#616e7f">- Editors  (last 30d) —————————-—-</text>
<path d="M 110.00 92.00 L 110.00 70.00 A 85 85 0 0 1 177.75 206.33 L 160.22 193.04 A 63 63 0 0 0 110.00 92.00 Z" fill="#58a6ff" stroke="#161b22" stroke-width="2"/>
<path d="M 160.22 193.04 L 177.75 206.33 A 85 85 0 0 1 65.40 227.36 L 76.94 208.63 A 63 63 0 0 0 160.22 193.04 Z" fill="#3fb950" stroke="#161b22" stroke-width="2"/>
<path d="M 76.94 208.63 L 65.40 227.36 A 85 85 0 0 1 25.08 158.59 L 47.06 157.66 A 63 63 0 0 0 76.94 208.63 Z" fill="#ffa657" stroke="#161b22" stroke-width="2"/>
<path d="M 47.06 157.66 L 25.08 158.59 A 85 85 0 0 1 49.61 95.18 L 65.24 110.66 A 63 63 0 0 0 47.06 157.66 Z" fill="#f85149" stroke="#161b22" stroke-width="2"/>
<path d="M 65.24 110.66 L 49.61 95.18 A 85 85 0 0 1 89.87 72.42 L 95.08 93.79 A 63 63 0 0 0 65.24 110.66 Z" fill="#d2a8ff" stroke="#161b22" stroke-width="2"/>
<path d="M 95.08 93.79 L 89.87 72.42 A 85 85 0 0 1 110.00 70.00 L 110.00 92.00 A 63 63 0 0 0 95.08 93.79 Z" fill="#79c0ff" stroke="#161b22" stroke-width="2"/>
<text x="110" y="147" text-anchor="middle" font-family="Consolas,monospace" font-size="11px" fill="#616e7f">avg/day</text>
<text x="110" y="167" text-anchor="middle" font-family="Consolas,monospace" font-size="16px" font-weight="bold" fill="#58a6ff">4h 50m</text>
<rect x="210" y="50" width="10" height="10" fill="#58a6ff" rx="2"/>
<text x="226" y="60" font-family="Consolas,monospace" font-size="13px" fill="#c9d1d9">Claude Code</text>
<text x="226" y="73" font-family="Consolas,monospace" font-size="11px" fill="#616e7f">32.8%  49 hrs 43 mins</text>
<rect x="210" y="86" width="10" height="10" fill="#3fb950" rx="2"/>
<text x="226" y="96" font-family="Consolas,monospace" font-size="13px" fill="#c9d1d9">Codex CLI</text>
<text x="226" y="109" font-family="Consolas,monospace" font-size="11px" fill="#616e7f">21.8%  33 hrs 2 mins</text>
<rect x="210" y="122" width="10" height="10" fill="#ffa657" rx="2"/>
<text x="226" y="132" font-family="Consolas,monospace" font-size="13px" fill="#c9d1d9">OpenCode</text>
<text x="226" y="145" font-family="Consolas,monospace" font-size="11px" fill="#616e7f">14.4%  21 hrs 52 mins</text>
<rect x="210" y="158" width="10" height="10" fill="#f85149" rx="2"/>
<text x="226" y="168" font-family="Consolas,monospace" font-size="13px" fill="#c9d1d9">Neovim</text>
<text x="226" y="181" font-family="Consolas,monospace" font-size="11px" fill="#616e7f">12.2%  18 hrs 26 mins</text>
<rect x="210" y="194" width="10" height="10" fill="#d2a8ff" rx="2"/>
<text x="226" y="204" font-family="Consolas,monospace" font-size="13px" fill="#c9d1d9">Kiro</text>
<text x="226" y="217" font-family="Consolas,monospace" font-size="11px" fill="#616e7f">8.2%  12 hrs 20 mins</text>
<rect x="210" y="230" width="10" height="10" fill="#79c0ff" rx="2"/>
<text x="226" y="240" font-family="Consolas,monospace" font-size="13px" fill="#c9d1d9">Opencode Cli</text>
<text x="226" y="253" font-family="Consolas,monospace" font-size="11px" fill="#616e7f">3.5%  5 hrs 21 mins</text>
</svg>