<svg xmlns="http://www.w3.org/2000/svg" font-family="Consolas,monospace" width="760" height="205" font-size="14px"><rect width="760" height="205" fill="#161b22" rx="12"/>
<text x="20" y="34" font-family="Consolas,monospace" font-size="14px" fill="#616e7f">- Working Hours  (last 30d) ———————————————————————————————————————————-—-</text>
<text x="20" y="50" font-family="Consolas,monospace" font-size="12px" fill="#616e7f">total 135h 55m | peak 4h 21:00-01:00 | busiest 16:00 (12h 18m) | tz Asia/Ho_Chi_Minh</text>
<defs>
<linearGradient id="hourFill" x1="0" y1="0" x2="1" y2="0">
<stop offset="0%" stop-color="#1d4ed8"/>
<stop offset="45%" stop-color="#7c3aed"/>
<stop offset="75%" stop-color="#db2777"/>
<stop offset="100%" stop-color="#facc15"/>
</linearGradient>
<linearGradient id="hourFade" x1="0" y1="0" x2="1" y2="0">
<stop offset="0%" stop-color="#1d4ed8" stop-opacity="0.42"/>
<stop offset="28%" stop-color="#2563eb" stop-opacity="0.5"/>
<stop offset="50%" stop-color="#7c3aed" stop-opacity="0.58"/>
<stop offset="70%" stop-color="#db2777" stop-opacity="0.62"/>
<stop offset="86%" stop-color="#f97316" stop-opacity="0.58"/>
<stop offset="100%" stop-color="#facc15" stop-opacity="0.48"/>
</linearGradient>
</defs>
<line x1="56" y1="156" x2="720" y2="156" stroke="#616e7f" stroke-width="1" opacity="0.35"/>
<line x1="56.00" y1="72" x2="56.00" y2="156" stroke="#616e7f" stroke-width="1" opacity="0.16"/>
<text x="56.00" y="174" text-anchor="middle" font-family="Consolas,monospace" font-size="8px" fill="#616e7f">00</text>
<line x1="84.87" y1="72" x2="84.87" y2="156" stroke="#616e7f" stroke-width="1" opacity="0.07"/>
<text x="84.87" y="174" text-anchor="middle" font-family="Consolas,monospace" font-size="8px" fill="#616e7f">01</text>
<line x1="113.74" y1="72" x2="113.74" y2="156" stroke="#616e7f" stroke-width="1" opacity="0.07"/>
<text x="113.74" y="174" text-anchor="middle" font-family="Consolas,monospace" font-size="8px" fill="#616e7f">02</text>
<line x1="142.61" y1="72" x2="142.61" y2="156" stroke="#616e7f" stroke-width="1" opacity="0.16"/>
<text x="142.61" y="174" text-anchor="middle" font-family="Consolas,monospace" font-size="8px" fill="#616e7f">03</text>
<line x1="171.48" y1="72" x2="171.48" y2="156" stroke="#616e7f" stroke-width="1" opacity="0.07"/>
<text x="171.48" y="174" text-anchor="middle" font-family="Consolas,monospace" font-size="8px" fill="#616e7f">04</text>
<line x1="200.35" y1="72" x2="200.35" y2="156" stroke="#616e7f" stroke-width="1" opacity="0.07"/>
<text x="200.35" y="174" text-anchor="middle" font-family="Consolas,monospace" font-size="8px" fill="#616e7f">05</text>
<line x1="229.22" y1="72" x2="229.22" y2="156" stroke="#616e7f" stroke-width="1" opacity="0.16"/>
<text x="229.22" y="174" text-anchor="middle" font-family="Consolas,monospace" font-size="8px" fill="#616e7f">06</text>
<line x1="258.09" y1="72" x2="258.09" y2="156" stroke="#616e7f" stroke-width="1" opacity="0.07"/>
<text x="258.09" y="174" text-anchor="middle" font-family="Consolas,monospace" font-size="8px" fill="#616e7f">07</text>
<line x1="286.96" y1="72" x2="286.96" y2="156" stroke="#616e7f" stroke-width="1" opacity="0.07"/>
<text x="286.96" y="174" text-anchor="middle" font-family="Consolas,monospace" font-size="8px" fill="#616e7f">08</text>
<line x1="315.83" y1="72" x2="315.83" y2="156" stroke="#616e7f" stroke-width="1" opacity="0.16"/>
<text x="315.83" y="174" text-anchor="middle" font-family="Consolas,monospace" font-size="8px" fill="#616e7f">09</text>
<line x1="344.70" y1="72" x2="344.70" y2="156" stroke="#616e7f" stroke-width="1" opacity="0.07"/>
<text x="344.70" y="174" text-anchor="middle" font-family="Consolas,monospace" font-size="8px" fill="#616e7f">10</text>
<line x1="373.57" y1="72" x2="373.57" y2="156" stroke="#616e7f" stroke-width="1" opacity="0.07"/>
<text x="373.57" y="174" text-anchor="middle" font-family="Consolas,monospace" font-size="8px" fill="#616e7f">11</text>
<line x1="402.43" y1="72" x2="402.43" y2="156" stroke="#616e7f" stroke-width="1" opacity="0.16"/>
<text x="402.43" y="174" text-anchor="middle" font-family="Consolas,monospace" font-size="8px" fill="#616e7f">12</text>
<line x1="431.30" y1="72" x2="431.30" y2="156" stroke="#616e7f" stroke-width="1" opacity="0.07"/>
<text x="431.30" y="174" text-anchor="middle" font-family="Consolas,monospace" font-size="8px" fill="#616e7f">13</text>
<line x1="460.17" y1="72" x2="460.17" y2="156" stroke="#616e7f" stroke-width="1" opacity="0.07"/>
<text x="460.17" y="174" text-anchor="middle" font-family="Consolas,monospace" font-size="8px" fill="#616e7f">14</text>
<line x1="489.04" y1="72" x2="489.04" y2="156" stroke="#616e7f" stroke-width="1" opacity="0.16"/>
<text x="489.04" y="174" text-anchor="middle" font-family="Consolas,monospace" font-size="8px" fill="#616e7f">15</text>
<line x1="517.91" y1="72" x2="517.91" y2="156" stroke="#616e7f" stroke-width="1" opacity="0.07"/>
<text x="517.91" y="174" text-anchor="middle" font-family="Consolas,monospace" font-size="8px" fill="#616e7f">16</text>
<line x1="546.78" y1="72" x2="546.78" y2="156" stroke="#616e7f" stroke-width="1" opacity="0.07"/>
<text x="546.78" y="174" text-anchor="middle" font-family="Consolas,monospace" font-size="8px" fill="#616e7f">17</text>
<line x1="575.65" y1="72" x2="575.65" y2="156" stroke="#616e7f" stroke-width="1" opacity="0.16"/>
<text x="575.65" y="174" text-anchor="middle" font-family="Consolas,monospace" font-size="8px" fill="#616e7f">18</text>
<line x1="604.52" y1="72" x2="604.52" y2="156" stroke="#616e7f" stroke-width="1" opacity="0.07"/>
<text x="604.52" y="174" text-anchor="middle" font-family="Consolas,monospace" font-size="8px" fill="#616e7f">19</text>
<line x1="633.39" y1="72" x2="633.39" y2="156" stroke="#616e7f" stroke-width="1" opacity="0.07"/>
<text x="633.39" y="174" text-anchor="middle" font-family="Consolas,monospace" font-size="8px" fill="#616e7f">20</text>
<line x1="662.26" y1="72" x2="662.26" y2="156" stroke="#616e7f" stroke-width="1" opacity="0.16"/>
<text x="662.26" y="174" text-anchor="middle" font-family="Consolas,monospace" font-size="8px" fill="#616e7f">21</text>
<line x1="691.13" y1="72" x2="691.13" y2="156" stroke="#616e7f" stroke-width="1" opacity="0.07"/>
<text x="691.13" y="174" text-anchor="middle" font-family="Consolas,monospace" font-size="8px" fill="#616e7f">22</text>
<line x1="720.00" y1="72" x2="720.00" y2="156" stroke="#616e7f" stroke-width="1" opacity="0.07"/>
<text x="720.00" y="174" text-anchor="middle" font-family="Consolas,monospace" font-size="8px" fill="#616e7f">23</text>
<path d="M 56.00 73.96 C 60.81 76.25, 75.25 82.76, 84.87 87.74 C 94.49 92.72, 104.12 95.85, 113.74 103.82 C 123.36 111.79, 132.99 128.30, 142.61 135.56 C 152.23 142.81, 161.86 145.07, 171.48 147.37 C 181.10 149.66, 190.72 148.07, 200.35 149.33 C 209.97 150.60, 219.59 154.98, 229.22 154.96 C 238.84 154.93, 248.46 150.14, 258.09 149.17 C 267.71 148.21, 277.33 149.65, 286.96 149.17 C 296.58 148.70, 306.20 147.26, 315.83 146.33 C 325.45 145.40, 335.07 144.11, 344.70 143.60 C 354.32 143.09, 363.94 141.72, 373.57 143.28 C 383.19 144.85, 392.81 153.38, 402.43 152.98 C 412.06 152.58, 421.68 147.39, 431.30 140.89 C 440.93 134.39, 450.55 124.13, 460.17 114.01 C 469.80 103.89, 479.42 87.18, 489.04 80.18 C 498.67 73.18, 508.29 69.13, 517.91 72.00 C 527.54 74.87, 537.16 93.39, 546.78 97.41 C 556.41 101.43, 566.03 94.71, 575.65 96.12 C 585.28 97.53, 594.90 103.16, 604.52 105.85 C 614.14 108.54, 623.77 115.74, 633.39 112.26 C 643.01 108.77, 652.64 89.26, 662.26 84.93 C 671.88 80.60, 681.51 85.65, 691.13 86.27 C 700.75 86.89, 715.19 88.27, 720.00 88.67 L 720.00 156.00 L 56.00 156.00 Z" fill="url(#hourFade)"/>
<path d="M 56.00 73.96 C 60.81 76.25, 75.25 82.76, 84.87 87.74 C 94.49 92.72, 104.12 95.85, 113.74 103.82 C 123.36 111.79, 132.99 128.30, 142.61 135.56 C 152.23 142.81, 161.86 145.07, 171.48 147.37 C 181.10 149.66, 190.72 148.07, 200.35 149.33 C 209.97 150.60, 219.59 154.98, 229.22 154.96 C 238.84 154.93, 248.46 150.14, 258.09 149.17 C 267.71 148.21, 277.33 149.65, 286.96 149.17 C 296.58 148.70, 306.20 147.26, 315.83 146.33 C 325.45 145.40, 335.07 144.11, 344.70 143.60 C 354.32 143.09, 363.94 141.72, 373.57 143.28 C 383.19 144.85, 392.81 153.38, 402.43 152.98 C 412.06 152.58, 421.68 147.39, 431.30 140.89 C 440.93 134.39, 450.55 124.13, 460.17 114.01 C 469.80 103.89, 479.42 87.18, 489.04 80.18 C 498.67 73.18, 508.29 69.13, 517.91 72.00 C 527.54 74.87, 537.16 93.39, 546.78 97.41 C 556.41 101.43, 566.03 94.71, 575.65 96.12 C 585.28 97.53, 594.90 103.16, 604.52 105.85 C 614.14 108.54, 623.77 115.74, 633.39 112.26 C 643.01 108.77, 652.64 89.26, 662.26 84.93 C 671.88 80.60, 681.51 85.65, 691.13 86.27 C 700.75 86.89, 715.19 88.27, 720.00 88.67" fill="none" stroke="url(#hourFill)" stroke-width="4" stroke-linecap="round"/>
<circle cx="56.00" cy="73.96" r="2.5" fill="#facc15" opacity="1"><title>00:00 - 12h 0m total</title></circle>
<circle cx="84.87" cy="87.74" r="2.5" fill="#facc15" opacity="1"><title>01:00 - 9h 59m total</title></circle>
<circle cx="113.74" cy="103.82" r="2.5" fill="#facc15" opacity="1"><title>02:00 - 7h 38m total</title></circle>
<circle cx="142.61" cy="135.56" r="2.5" fill="#facc15" opacity="1"><title>03:00 - 2h 59m total</title></circle>
<circle cx="171.48" cy="147.37" r="2.5" fill="#facc15" opacity="1"><title>04:00 - 1h 15m total</title></circle>
<circle cx="200.35" cy="149.33" r="2.5" fill="#facc15" opacity="1"><title>05:00 - 58m total</title></circle>
<circle cx="229.22" cy="154.96" r="2.5" fill="#facc15" opacity="1"><title>06:00 - 9m total</title></circle>
<circle cx="258.09" cy="149.17" r="2.5" fill="#facc15" opacity="1"><title>07:00 - 1h 0m total</title></circle>
<circle cx="286.96" cy="149.17" r="2.5" fill="#facc15" opacity="1"><title>08:00 - 1h 0m total</title></circle>
<circle cx="315.83" cy="146.33" r="2.5" fill="#facc15" opacity="1"><title>09:00 - 1h 24m total</title></circle>
<circle cx="344.70" cy="143.60" r="2.5" fill="#facc15" opacity="1"><title>10:00 - 1h 48m total</title></circle>
<circle cx="373.57" cy="143.28" r="2.5" fill="#facc15" opacity="1"><title>11:00 - 1h 51m total</title></circle>
<circle cx="402.43" cy="152.98" r="2.5" fill="#facc15" opacity="1"><title>12:00 - 26m total</title></circle>
<circle cx="431.30" cy="140.89" r="2.5" fill="#facc15" opacity="1"><title>13:00 - 2h 12m total</title></circle>
<circle cx="460.17" cy="114.01" r="2.5" fill="#facc15" opacity="1"><title>14:00 - 6h 8m total</title></circle>
<circle cx="489.04" cy="80.18" r="2.5" fill="#facc15" opacity="1"><title>15:00 - 11h 6m total</title></circle>
<circle cx="517.91" cy="72.00" r="4" fill="#facc15" opacity="1"><title>16:00 - 12h 18m total</title></circle>
<circle cx="546.78" cy="97.41" r="2.5" fill="#facc15" opacity="1"><title>17:00 - 8h 34m total</title></circle>
<circle cx="575.65" cy="96.12" r="2.5" fill="#facc15" opacity="1"><title>18:00 - 8h 46m total</title></circle>
<circle cx="604.52" cy="105.85" r="2.5" fill="#facc15" opacity="1"><title>19:00 - 7h 20m total</title></circle>
<circle cx="633.39" cy="112.26" r="2.5" fill="#facc15" opacity="1"><title>20:00 - 6h 24m total</title></circle>
<circle cx="662.26" cy="84.93" r="2.5" fill="#facc15" opacity="1"><title>21:00 - 10h 24m total</title></circle>
<circle cx="691.13" cy="86.27" r="2.5" fill="#facc15" opacity="1"><title>22:00 - 10h 12m total</title></circle>
<circle cx="720.00" cy="88.67" r="2.5" fill="#facc15" opacity="1"><title>23:00 - 9h 51m total</title></circle>
<text x="20" y="191" font-family="Consolas,monospace" font-size="11px" fill="#616e7f">24-hour distribution across 30 days; higher curve = more coding time in that hour</text>
</svg>