<svg xmlns="http://www.w3.org/2000/svg" font-family="Consolas,monospace" width="760" height="205" font-size="14px"><rect width="760" height="205" fill="#161b22" rx="12"/>
<text x="20" y="34" font-family="Consolas,monospace" font-size="14px" fill="#616e7f">- Working Hours  (last 30d) ———————————————————————————————————————————-—-</text>
<text x="20" y="50" font-family="Consolas,monospace" font-size="12px" fill="#616e7f">total 111h 3m | peak 4h 16:00-20:00 | busiest 17:00 (10h 19m) | tz Asia/Ho_Chi_Minh</text>
<defs>
<linearGradient id="hourFill" x1="0" y1="0" x2="1" y2="0">
<stop offset="0%" stop-color="#1d4ed8"/>
<stop offset="45%" stop-color="#7c3aed"/>
<stop offset="75%" stop-color="#db2777"/>
<stop offset="100%" stop-color="#facc15"/>
</linearGradient>
<linearGradient id="hourFade" x1="0" y1="0" x2="1" y2="0">
<stop offset="0%" stop-color="#1d4ed8" stop-opacity="0.42"/>
<stop offset="28%" stop-color="#2563eb" stop-opacity="0.5"/>
<stop offset="50%" stop-color="#7c3aed" stop-opacity="0.58"/>
<stop offset="70%" stop-color="#db2777" stop-opacity="0.62"/>
<stop offset="86%" stop-color="#f97316" stop-opacity="0.58"/>
<stop offset="100%" stop-color="#facc15" stop-opacity="0.48"/>
</linearGradient>
</defs>
<line x1="56" y1="156" x2="720" y2="156" stroke="#616e7f" stroke-width="1" opacity="0.35"/>
<line x1="56.00" y1="72" x2="56.00" y2="156" stroke="#616e7f" stroke-width="1" opacity="0.16"/>
<text x="56.00" y="174" text-anchor="middle" font-family="Consolas,monospace" font-size="8px" fill="#616e7f">00</text>
<line x1="84.87" y1="72" x2="84.87" y2="156" stroke="#616e7f" stroke-width="1" opacity="0.07"/>
<text x="84.87" y="174" text-anchor="middle" font-family="Consolas,monospace" font-size="8px" fill="#616e7f">01</text>
<line x1="113.74" y1="72" x2="113.74" y2="156" stroke="#616e7f" stroke-width="1" opacity="0.07"/>
<text x="113.74" y="174" text-anchor="middle" font-family="Consolas,monospace" font-size="8px" fill="#616e7f">02</text>
<line x1="142.61" y1="72" x2="142.61" y2="156" stroke="#616e7f" stroke-width="1" opacity="0.16"/>
<text x="142.61" y="174" text-anchor="middle" font-family="Consolas,monospace" font-size="8px" fill="#616e7f">03</text>
<line x1="171.48" y1="72" x2="171.48" y2="156" stroke="#616e7f" stroke-width="1" opacity="0.07"/>
<text x="171.48" y="174" text-anchor="middle" font-family="Consolas,monospace" font-size="8px" fill="#616e7f">04</text>
<line x1="200.35" y1="72" x2="200.35" y2="156" stroke="#616e7f" stroke-width="1" opacity="0.07"/>
<text x="200.35" y="174" text-anchor="middle" font-family="Consolas,monospace" font-size="8px" fill="#616e7f">05</text>
<line x1="229.22" y1="72" x2="229.22" y2="156" stroke="#616e7f" stroke-width="1" opacity="0.16"/>
<text x="229.22" y="174" text-anchor="middle" font-family="Consolas,monospace" font-size="8px" fill="#616e7f">06</text>
<line x1="258.09" y1="72" x2="258.09" y2="156" stroke="#616e7f" stroke-width="1" opacity="0.07"/>
<text x="258.09" y="174" text-anchor="middle" font-family="Consolas,monospace" font-size="8px" fill="#616e7f">07</text>
<line x1="286.96" y1="72" x2="286.96" y2="156" stroke="#616e7f" stroke-width="1" opacity="0.07"/>
<text x="286.96" y="174" text-anchor="middle" font-family="Consolas,monospace" font-size="8px" fill="#616e7f">08</text>
<line x1="315.83" y1="72" x2="315.83" y2="156" stroke="#616e7f" stroke-width="1" opacity="0.16"/>
<text x="315.83" y="174" text-anchor="middle" font-family="Consolas,monospace" font-size="8px" fill="#616e7f">09</text>
<line x1="344.70" y1="72" x2="344.70" y2="156" stroke="#616e7f" stroke-width="1" opacity="0.07"/>
<text x="344.70" y="174" text-anchor="middle" font-family="Consolas,monospace" font-size="8px" fill="#616e7f">10</text>
<line x1="373.57" y1="72" x2="373.57" y2="156" stroke="#616e7f" stroke-width="1" opacity="0.07"/>
<text x="373.57" y="174" text-anchor="middle" font-family="Consolas,monospace" font-size="8px" fill="#616e7f">11</text>
<line x1="402.43" y1="72" x2="402.43" y2="156" stroke="#616e7f" stroke-width="1" opacity="0.16"/>
<text x="402.43" y="174" text-anchor="middle" font-family="Consolas,monospace" font-size="8px" fill="#616e7f">12</text>
<line x1="431.30" y1="72" x2="431.30" y2="156" stroke="#616e7f" stroke-width="1" opacity="0.07"/>
<text x="431.30" y="174" text-anchor="middle" font-family="Consolas,monospace" font-size="8px" fill="#616e7f">13</text>
<line x1="460.17" y1="72" x2="460.17" y2="156" stroke="#616e7f" stroke-width="1" opacity="0.07"/>
<text x="460.17" y="174" text-anchor="middle" font-family="Consolas,monospace" font-size="8px" fill="#616e7f">14</text>
<line x1="489.04" y1="72" x2="489.04" y2="156" stroke="#616e7f" stroke-width="1" opacity="0.16"/>
<text x="489.04" y="174" text-anchor="middle" font-family="Consolas,monospace" font-size="8px" fill="#616e7f">15</text>
<line x1="517.91" y1="72" x2="517.91" y2="156" stroke="#616e7f" stroke-width="1" opacity="0.07"/>
<text x="517.91" y="174" text-anchor="middle" font-family="Consolas,monospace" font-size="8px" fill="#616e7f">16</text>
<line x1="546.78" y1="72" x2="546.78" y2="156" stroke="#616e7f" stroke-width="1" opacity="0.07"/>
<text x="546.78" y="174" text-anchor="middle" font-family="Consolas,monospace" font-size="8px" fill="#616e7f">17</text>
<line x1="575.65" y1="72" x2="575.65" y2="156" stroke="#616e7f" stroke-width="1" opacity="0.16"/>
<text x="575.65" y="174" text-anchor="middle" font-family="Consolas,monospace" font-size="8px" fill="#616e7f">18</text>
<line x1="604.52" y1="72" x2="604.52" y2="156" stroke="#616e7f" stroke-width="1" opacity="0.07"/>
<text x="604.52" y="174" text-anchor="middle" font-family="Consolas,monospace" font-size="8px" fill="#616e7f">19</text>
<line x1="633.39" y1="72" x2="633.39" y2="156" stroke="#616e7f" stroke-width="1" opacity="0.07"/>
<text x="633.39" y="174" text-anchor="middle" font-family="Consolas,monospace" font-size="8px" fill="#616e7f">20</text>
<line x1="662.26" y1="72" x2="662.26" y2="156" stroke="#616e7f" stroke-width="1" opacity="0.16"/>
<text x="662.26" y="174" text-anchor="middle" font-family="Consolas,monospace" font-size="8px" fill="#616e7f">21</text>
<line x1="691.13" y1="72" x2="691.13" y2="156" stroke="#616e7f" stroke-width="1" opacity="0.07"/>
<text x="691.13" y="174" text-anchor="middle" font-family="Consolas,monospace" font-size="8px" fill="#616e7f">22</text>
<line x1="720.00" y1="72" x2="720.00" y2="156" stroke="#616e7f" stroke-width="1" opacity="0.07"/>
<text x="720.00" y="174" text-anchor="middle" font-family="Consolas,monospace" font-size="8px" fill="#616e7f">23</text>
<path d="M 56.00 102.21 C 60.81 101.42, 75.25 98.71, 84.87 97.46 C 94.49 96.21, 104.12 92.10, 113.74 94.72 C 123.36 97.34, 132.99 105.89, 142.61 113.17 C 152.23 120.44, 161.86 132.81, 171.48 138.38 C 181.10 143.95, 190.72 144.21, 200.35 146.58 C 209.97 148.95, 219.59 151.05, 229.22 152.62 C 238.84 154.19, 248.46 155.44, 258.09 156.00 C 267.71 156.56, 277.33 156.00, 286.96 156.00 C 296.58 156.00, 306.20 156.23, 315.83 156.00 C 325.45 155.77, 335.07 155.47, 344.70 154.62 C 354.32 153.77, 363.94 152.03, 373.57 150.89 C 383.19 149.74, 392.81 151.65, 402.43 147.74 C 412.06 143.82, 421.68 134.79, 431.30 127.40 C 440.93 120.01, 450.55 108.40, 460.17 103.41 C 469.80 98.43, 479.42 101.15, 489.04 97.49 C 498.67 93.82, 508.29 85.66, 517.91 81.41 C 527.54 77.17, 537.16 72.27, 546.78 72.00 C 556.41 71.73, 566.03 76.94, 575.65 79.82 C 585.28 82.70, 594.90 87.79, 604.52 89.28 C 614.14 90.77, 623.77 87.30, 633.39 88.75 C 643.01 90.21, 652.64 92.17, 662.26 98.02 C 671.88 103.87, 681.51 121.35, 691.13 123.87 C 700.75 126.38, 715.19 114.90, 720.00 113.10 L 720.00 156.00 L 56.00 156.00 Z" fill="url(#hourFade)"/>
<path d="M 56.00 102.21 C 60.81 101.42, 75.25 98.71, 84.87 97.46 C 94.49 96.21, 104.12 92.10, 113.74 94.72 C 123.36 97.34, 132.99 105.89, 142.61 113.17 C 152.23 120.44, 161.86 132.81, 171.48 138.38 C 181.10 143.95, 190.72 144.21, 200.35 146.58 C 209.97 148.95, 219.59 151.05, 229.22 152.62 C 238.84 154.19, 248.46 155.44, 258.09 156.00 C 267.71 156.56, 277.33 156.00, 286.96 156.00 C 296.58 156.00, 306.20 156.23, 315.83 156.00 C 325.45 155.77, 335.07 155.47, 344.70 154.62 C 354.32 153.77, 363.94 152.03, 373.57 150.89 C 383.19 149.74, 392.81 151.65, 402.43 147.74 C 412.06 143.82, 421.68 134.79, 431.30 127.40 C 440.93 120.01, 450.55 108.40, 460.17 103.41 C 469.80 98.43, 479.42 101.15, 489.04 97.49 C 498.67 93.82, 508.29 85.66, 517.91 81.41 C 527.54 77.17, 537.16 72.27, 546.78 72.00 C 556.41 71.73, 566.03 76.94, 575.65 79.82 C 585.28 82.70, 594.90 87.79, 604.52 89.28 C 614.14 90.77, 623.77 87.30, 633.39 88.75 C 643.01 90.21, 652.64 92.17, 662.26 98.02 C 671.88 103.87, 681.51 121.35, 691.13 123.87 C 700.75 126.38, 715.19 114.90, 720.00 113.10" fill="none" stroke="url(#hourFill)" stroke-width="4" stroke-linecap="round"/>
<circle cx="56.00" cy="102.21" r="2.5" fill="#facc15" opacity="1"><title>00:00 - 6h 36m total</title></circle>
<circle cx="84.87" cy="97.46" r="2.5" fill="#facc15" opacity="1"><title>01:00 - 7h 11m total</title></circle>
<circle cx="113.74" cy="94.72" r="2.5" fill="#facc15" opacity="1"><title>02:00 - 7h 32m total</title></circle>
<circle cx="142.61" cy="113.17" r="2.5" fill="#facc15" opacity="1"><title>03:00 - 5h 16m total</title></circle>
<circle cx="171.48" cy="138.38" r="2.5" fill="#facc15" opacity="1"><title>04:00 - 2h 10m total</title></circle>
<circle cx="200.35" cy="146.58" r="2.5" fill="#facc15" opacity="1"><title>05:00 - 1h 9m total</title></circle>
<circle cx="229.22" cy="152.62" r="2.5" fill="#facc15" opacity="1"><title>06:00 - 24m total</title></circle>
<circle cx="258.09" cy="156.00" r="2.5" fill="#facc15" opacity="0.25"><title>07:00 - 0m total</title></circle>
<circle cx="286.96" cy="156.00" r="2.5" fill="#facc15" opacity="0.25"><title>08:00 - 0m total</title></circle>
<circle cx="315.83" cy="156.00" r="2.5" fill="#facc15" opacity="0.25"><title>09:00 - 0m total</title></circle>
<circle cx="344.70" cy="154.62" r="2.5" fill="#facc15" opacity="1"><title>10:00 - 10m total</title></circle>
<circle cx="373.57" cy="150.89" r="2.5" fill="#facc15" opacity="1"><title>11:00 - 37m total</title></circle>
<circle cx="402.43" cy="147.74" r="2.5" fill="#facc15" opacity="1"><title>12:00 - 1h 0m total</title></circle>
<circle cx="431.30" cy="127.40" r="2.5" fill="#facc15" opacity="1"><title>13:00 - 3h 31m total</title></circle>
<circle cx="460.17" cy="103.41" r="2.5" fill="#facc15" opacity="1"><title>14:00 - 6h 28m total</title></circle>
<circle cx="489.04" cy="97.49" r="2.5" fill="#facc15" opacity="1"><title>15:00 - 7h 11m total</title></circle>
<circle cx="517.91" cy="81.41" r="2.5" fill="#facc15" opacity="1"><title>16:00 - 9h 10m total</title></circle>
<circle cx="546.78" cy="72.00" r="4" fill="#facc15" opacity="1"><title>17:00 - 10h 19m total</title></circle>
<circle cx="575.65" cy="79.82" r="2.5" fill="#facc15" opacity="1"><title>18:00 - 9h 22m total</title></circle>
<circle cx="604.52" cy="89.28" r="2.5" fill="#facc15" opacity="1"><title>19:00 - 8h 12m total</title></circle>
<circle cx="633.39" cy="88.75" r="2.5" fill="#facc15" opacity="1"><title>20:00 - 8h 16m total</title></circle>
<circle cx="662.26" cy="98.02" r="2.5" fill="#facc15" opacity="1"><title>21:00 - 7h 7m total</title></circle>
<circle cx="691.13" cy="123.87" r="2.5" fill="#facc15" opacity="1"><title>22:00 - 3h 57m total</title></circle>
<circle cx="720.00" cy="113.10" r="2.5" fill="#facc15" opacity="1"><title>23:00 - 5h 16m total</title></circle>
<text x="20" y="191" font-family="Consolas,monospace" font-size="11px" fill="#616e7f">24-hour distribution across 30 days; higher curve = more coding time in that hour</text>
</svg>