<svg xmlns="http://www.w3.org/2000/svg" font-family="Consolas,monospace" width="760" height="205" font-size="14px"><rect width="760" height="205" fill="#161b22" rx="12"/>
<text x="20" y="34" font-family="Consolas,monospace" font-size="14px" fill="#616e7f">- Working Hours  (last 30d) ———————————————————————————————————————————-—-</text>
<text x="20" y="50" font-family="Consolas,monospace" font-size="12px" fill="#616e7f">total 128h 36m | peak 4h 15:00-19:00 | busiest 16:00 (13h 7m) | tz Asia/Ho_Chi_Minh</text>
<defs>
<linearGradient id="hourFill" x1="0" y1="0" x2="1" y2="0">
<stop offset="0%" stop-color="#1d4ed8"/>
<stop offset="45%" stop-color="#7c3aed"/>
<stop offset="75%" stop-color="#db2777"/>
<stop offset="100%" stop-color="#facc15"/>
</linearGradient>
<linearGradient id="hourFade" x1="0" y1="0" x2="1" y2="0">
<stop offset="0%" stop-color="#1d4ed8" stop-opacity="0.42"/>
<stop offset="28%" stop-color="#2563eb" stop-opacity="0.5"/>
<stop offset="50%" stop-color="#7c3aed" stop-opacity="0.58"/>
<stop offset="70%" stop-color="#db2777" stop-opacity="0.62"/>
<stop offset="86%" stop-color="#f97316" stop-opacity="0.58"/>
<stop offset="100%" stop-color="#facc15" stop-opacity="0.48"/>
</linearGradient>
</defs>
<line x1="56" y1="156" x2="720" y2="156" stroke="#616e7f" stroke-width="1" opacity="0.35"/>
<line x1="56.00" y1="72" x2="56.00" y2="156" stroke="#616e7f" stroke-width="1" opacity="0.16"/>
<text x="56.00" y="174" text-anchor="middle" font-family="Consolas,monospace" font-size="8px" fill="#616e7f">00</text>
<line x1="84.87" y1="72" x2="84.87" y2="156" stroke="#616e7f" stroke-width="1" opacity="0.07"/>
<text x="84.87" y="174" text-anchor="middle" font-family="Consolas,monospace" font-size="8px" fill="#616e7f">01</text>
<line x1="113.74" y1="72" x2="113.74" y2="156" stroke="#616e7f" stroke-width="1" opacity="0.07"/>
<text x="113.74" y="174" text-anchor="middle" font-family="Consolas,monospace" font-size="8px" fill="#616e7f">02</text>
<line x1="142.61" y1="72" x2="142.61" y2="156" stroke="#616e7f" stroke-width="1" opacity="0.16"/>
<text x="142.61" y="174" text-anchor="middle" font-family="Consolas,monospace" font-size="8px" fill="#616e7f">03</text>
<line x1="171.48" y1="72" x2="171.48" y2="156" stroke="#616e7f" stroke-width="1" opacity="0.07"/>
<text x="171.48" y="174" text-anchor="middle" font-family="Consolas,monospace" font-size="8px" fill="#616e7f">04</text>
<line x1="200.35" y1="72" x2="200.35" y2="156" stroke="#616e7f" stroke-width="1" opacity="0.07"/>
<text x="200.35" y="174" text-anchor="middle" font-family="Consolas,monospace" font-size="8px" fill="#616e7f">05</text>
<line x1="229.22" y1="72" x2="229.22" y2="156" stroke="#616e7f" stroke-width="1" opacity="0.16"/>
<text x="229.22" y="174" text-anchor="middle" font-family="Consolas,monospace" font-size="8px" fill="#616e7f">06</text>
<line x1="258.09" y1="72" x2="258.09" y2="156" stroke="#616e7f" stroke-width="1" opacity="0.07"/>
<text x="258.09" y="174" text-anchor="middle" font-family="Consolas,monospace" font-size="8px" fill="#616e7f">07</text>
<line x1="286.96" y1="72" x2="286.96" y2="156" stroke="#616e7f" stroke-width="1" opacity="0.07"/>
<text x="286.96" y="174" text-anchor="middle" font-family="Consolas,monospace" font-size="8px" fill="#616e7f">08</text>
<line x1="315.83" y1="72" x2="315.83" y2="156" stroke="#616e7f" stroke-width="1" opacity="0.16"/>
<text x="315.83" y="174" text-anchor="middle" font-family="Consolas,monospace" font-size="8px" fill="#616e7f">09</text>
<line x1="344.70" y1="72" x2="344.70" y2="156" stroke="#616e7f" stroke-width="1" opacity="0.07"/>
<text x="344.70" y="174" text-anchor="middle" font-family="Consolas,monospace" font-size="8px" fill="#616e7f">10</text>
<line x1="373.57" y1="72" x2="373.57" y2="156" stroke="#616e7f" stroke-width="1" opacity="0.07"/>
<text x="373.57" y="174" text-anchor="middle" font-family="Consolas,monospace" font-size="8px" fill="#616e7f">11</text>
<line x1="402.43" y1="72" x2="402.43" y2="156" stroke="#616e7f" stroke-width="1" opacity="0.16"/>
<text x="402.43" y="174" text-anchor="middle" font-family="Consolas,monospace" font-size="8px" fill="#616e7f">12</text>
<line x1="431.30" y1="72" x2="431.30" y2="156" stroke="#616e7f" stroke-width="1" opacity="0.07"/>
<text x="431.30" y="174" text-anchor="middle" font-family="Consolas,monospace" font-size="8px" fill="#616e7f">13</text>
<line x1="460.17" y1="72" x2="460.17" y2="156" stroke="#616e7f" stroke-width="1" opacity="0.07"/>
<text x="460.17" y="174" text-anchor="middle" font-family="Consolas,monospace" font-size="8px" fill="#616e7f">14</text>
<line x1="489.04" y1="72" x2="489.04" y2="156" stroke="#616e7f" stroke-width="1" opacity="0.16"/>
<text x="489.04" y="174" text-anchor="middle" font-family="Consolas,monospace" font-size="8px" fill="#616e7f">15</text>
<line x1="517.91" y1="72" x2="517.91" y2="156" stroke="#616e7f" stroke-width="1" opacity="0.07"/>
<text x="517.91" y="174" text-anchor="middle" font-family="Consolas,monospace" font-size="8px" fill="#616e7f">16</text>
<line x1="546.78" y1="72" x2="546.78" y2="156" stroke="#616e7f" stroke-width="1" opacity="0.07"/>
<text x="546.78" y="174" text-anchor="middle" font-family="Consolas,monospace" font-size="8px" fill="#616e7f">17</text>
<line x1="575.65" y1="72" x2="575.65" y2="156" stroke="#616e7f" stroke-width="1" opacity="0.16"/>
<text x="575.65" y="174" text-anchor="middle" font-family="Consolas,monospace" font-size="8px" fill="#616e7f">18</text>
<line x1="604.52" y1="72" x2="604.52" y2="156" stroke="#616e7f" stroke-width="1" opacity="0.07"/>
<text x="604.52" y="174" text-anchor="middle" font-family="Consolas,monospace" font-size="8px" fill="#616e7f">19</text>
<line x1="633.39" y1="72" x2="633.39" y2="156" stroke="#616e7f" stroke-width="1" opacity="0.07"/>
<text x="633.39" y="174" text-anchor="middle" font-family="Consolas,monospace" font-size="8px" fill="#616e7f">20</text>
<line x1="662.26" y1="72" x2="662.26" y2="156" stroke="#616e7f" stroke-width="1" opacity="0.16"/>
<text x="662.26" y="174" text-anchor="middle" font-family="Consolas,monospace" font-size="8px" fill="#616e7f">21</text>
<line x1="691.13" y1="72" x2="691.13" y2="156" stroke="#616e7f" stroke-width="1" opacity="0.07"/>
<text x="691.13" y="174" text-anchor="middle" font-family="Consolas,monospace" font-size="8px" fill="#616e7f">22</text>
<line x1="720.00" y1="72" x2="720.00" y2="156" stroke="#616e7f" stroke-width="1" opacity="0.07"/>
<text x="720.00" y="174" text-anchor="middle" font-family="Consolas,monospace" font-size="8px" fill="#616e7f">23</text>
<path d="M 56.00 109.28 C 60.81 108.96, 75.25 104.19, 84.87 107.34 C 94.49 110.49, 104.12 123.55, 113.74 128.20 C 123.36 132.85, 132.99 132.04, 142.61 135.25 C 152.23 138.46, 161.86 144.91, 171.48 147.48 C 181.10 150.06, 190.72 149.41, 200.35 150.69 C 209.97 151.98, 219.59 154.35, 229.22 155.18 C 238.84 156.02, 248.46 157.15, 258.09 155.71 C 267.71 154.28, 277.33 147.79, 286.96 146.57 C 296.58 145.35, 306.20 147.07, 315.83 148.37 C 325.45 149.68, 335.07 153.48, 344.70 154.41 C 354.32 155.34, 363.94 156.57, 373.57 153.95 C 383.19 151.34, 392.81 145.03, 402.43 138.72 C 412.06 132.41, 421.68 121.12, 431.30 116.09 C 440.93 111.05, 450.55 113.84, 460.17 108.53 C 469.80 103.23, 479.42 90.35, 489.04 84.26 C 498.67 78.18, 508.29 71.71, 517.91 72.00 C 527.54 72.29, 537.16 82.09, 546.78 85.99 C 556.41 89.90, 566.03 93.24, 575.65 95.43 C 585.28 97.62, 594.90 97.84, 604.52 99.14 C 614.14 100.43, 623.77 99.82, 633.39 103.18 C 643.01 106.54, 652.64 118.41, 662.26 119.31 C 671.88 120.22, 681.51 112.24, 691.13 108.61 C 700.75 104.97, 715.19 99.35, 720.00 97.49 L 720.00 156.00 L 56.00 156.00 Z" fill="url(#hourFade)"/>
<path d="M 56.00 109.28 C 60.81 108.96, 75.25 104.19, 84.87 107.34 C 94.49 110.49, 104.12 123.55, 113.74 128.20 C 123.36 132.85, 132.99 132.04, 142.61 135.25 C 152.23 138.46, 161.86 144.91, 171.48 147.48 C 181.10 150.06, 190.72 149.41, 200.35 150.69 C 209.97 151.98, 219.59 154.35, 229.22 155.18 C 238.84 156.02, 248.46 157.15, 258.09 155.71 C 267.71 154.28, 277.33 147.79, 286.96 146.57 C 296.58 145.35, 306.20 147.07, 315.83 148.37 C 325.45 149.68, 335.07 153.48, 344.70 154.41 C 354.32 155.34, 363.94 156.57, 373.57 153.95 C 383.19 151.34, 392.81 145.03, 402.43 138.72 C 412.06 132.41, 421.68 121.12, 431.30 116.09 C 440.93 111.05, 450.55 113.84, 460.17 108.53 C 469.80 103.23, 479.42 90.35, 489.04 84.26 C 498.67 78.18, 508.29 71.71, 517.91 72.00 C 527.54 72.29, 537.16 82.09, 546.78 85.99 C 556.41 89.90, 566.03 93.24, 575.65 95.43 C 585.28 97.62, 594.90 97.84, 604.52 99.14 C 614.14 100.43, 623.77 99.82, 633.39 103.18 C 643.01 106.54, 652.64 118.41, 662.26 119.31 C 671.88 120.22, 681.51 112.24, 691.13 108.61 C 700.75 104.97, 715.19 99.35, 720.00 97.49" fill="none" stroke="url(#hourFill)" stroke-width="4" stroke-linecap="round"/>
<circle cx="56.00" cy="109.28" r="2.5" fill="#facc15" opacity="1"><title>00:00 - 7h 18m total</title></circle>
<circle cx="84.87" cy="107.34" r="2.5" fill="#facc15" opacity="1"><title>01:00 - 7h 36m total</title></circle>
<circle cx="113.74" cy="128.20" r="2.5" fill="#facc15" opacity="1"><title>02:00 - 4h 20m total</title></circle>
<circle cx="142.61" cy="135.25" r="2.5" fill="#facc15" opacity="1"><title>03:00 - 3h 14m total</title></circle>
<circle cx="171.48" cy="147.48" r="2.5" fill="#facc15" opacity="1"><title>04:00 - 1h 19m total</title></circle>
<circle cx="200.35" cy="150.69" r="2.5" fill="#facc15" opacity="1"><title>05:00 - 49m total</title></circle>
<circle cx="229.22" cy="155.18" r="2.5" fill="#facc15" opacity="1"><title>06:00 - 7m total</title></circle>
<circle cx="258.09" cy="155.71" r="2.5" fill="#facc15" opacity="1"><title>07:00 - 2m total</title></circle>
<circle cx="286.96" cy="146.57" r="2.5" fill="#facc15" opacity="1"><title>08:00 - 1h 28m total</title></circle>
<circle cx="315.83" cy="148.37" r="2.5" fill="#facc15" opacity="1"><title>09:00 - 1h 11m total</title></circle>
<circle cx="344.70" cy="154.41" r="2.5" fill="#facc15" opacity="1"><title>10:00 - 14m total</title></circle>
<circle cx="373.57" cy="153.95" r="2.5" fill="#facc15" opacity="1"><title>11:00 - 19m total</title></circle>
<circle cx="402.43" cy="138.72" r="2.5" fill="#facc15" opacity="1"><title>12:00 - 2h 42m total</title></circle>
<circle cx="431.30" cy="116.09" r="2.5" fill="#facc15" opacity="1"><title>13:00 - 6h 14m total</title></circle>
<circle cx="460.17" cy="108.53" r="2.5" fill="#facc15" opacity="1"><title>14:00 - 7h 25m total</title></circle>
<circle cx="489.04" cy="84.26" r="2.5" fill="#facc15" opacity="1"><title>15:00 - 11h 12m total</title></circle>
<circle cx="517.91" cy="72.00" r="4" fill="#facc15" opacity="1"><title>16:00 - 13h 7m total</title></circle>
<circle cx="546.78" cy="85.99" r="2.5" fill="#facc15" opacity="1"><title>17:00 - 10h 56m total</title></circle>
<circle cx="575.65" cy="95.43" r="2.5" fill="#facc15" opacity="1"><title>18:00 - 9h 28m total</title></circle>
<circle cx="604.52" cy="99.14" r="2.5" fill="#facc15" opacity="1"><title>19:00 - 8h 53m total</title></circle>
<circle cx="633.39" cy="103.18" r="2.5" fill="#facc15" opacity="1"><title>20:00 - 8h 15m total</title></circle>
<circle cx="662.26" cy="119.31" r="2.5" fill="#facc15" opacity="1"><title>21:00 - 5h 44m total</title></circle>
<circle cx="691.13" cy="108.61" r="2.5" fill="#facc15" opacity="1"><title>22:00 - 7h 24m total</title></circle>
<circle cx="720.00" cy="97.49" r="2.5" fill="#facc15" opacity="1"><title>23:00 - 9h 8m total</title></circle>
<text x="20" y="191" font-family="Consolas,monospace" font-size="11px" fill="#616e7f">24-hour distribution across 30 days; higher curve = more coding time in that hour</text>
</svg>