<svg xmlns="http://www.w3.org/2000/svg" font-family="Consolas,monospace" width="340" height="170" font-size="14px"><rect width="340" height="170" fill="#161b22" rx="12"/>
<text x="15" y="29" font-family="Consolas,monospace" font-size="14px" fill="#616e7f">- Coding Activity  (last 30d) —-—-</text>
<rect x="15" y="55" width="218" height="36" fill="#58a6ff" rx="4 0 0 4"/>
<rect x="233" y="55" width="69" height="36" fill="#3fb950" rx="0"/>
<rect x="302" y="55" width="17" height="36" fill="#ffa657" rx="0"/>
<rect x="319" y="55" width="5" height="36" fill="#f85149" rx="0 4 4 0"/>
<rect x="15" y="102" width="8" height="8" fill="#58a6ff" rx="2"/>
<text x="27" y="111" font-family="Consolas,monospace" font-size="12px" fill="#c9d1d9">AI Coding: 70.5%  101 hrs 24 mins</text>
<rect x="15" y="122" width="8" height="8" fill="#3fb950" rx="2"/>
<text x="27" y="131" font-family="Consolas,monospace" font-size="12px" fill="#c9d1d9">Coding: 22.3%  32 hrs 6 mins</text>
<rect x="231" y="122" width="8" height="8" fill="#ffa657" rx="2"/>
<text x="243" y="131" font-family="Consolas,monospace" font-size="12px" fill="#c9d1d9">Writing Docs: 5.5%  7 hrs 55 mins</text>
<rect x="15" y="142" width="8" height="8" fill="#f85149" rx="2"/>
<text x="27" y="151" font-family="Consolas,monospace" font-size="12px" fill="#c9d1d9">Writing Tests: 1.7%  2 hrs 23 mins</text>
</svg>