<svg xmlns="http://www.w3.org/2000/svg" font-family="Consolas,monospace" width="340" height="170" font-size="14px"><rect width="340" height="170" fill="#161b22" rx="12"/>
<text x="15" y="29" font-family="Consolas,monospace" font-size="14px" fill="#616e7f">- Coding Activity  (last 30d) —-—-</text>
<rect x="15" y="55" width="295" height="36" fill="#58a6ff" rx="4 0 0 4"/>
<rect x="310" y="55" width="8" height="36" fill="#3fb950" rx="0"/>
<rect x="318" y="55" width="5" height="36" fill="#ffa657" rx="0"/>
<rect x="323" y="55" width="1" height="36" fill="#f85149" rx="0"/>
<rect x="324" y="55" width="0" height="36" fill="#d2a8ff" rx="0 4 4 0"/>
<rect x="15" y="102" width="8" height="8" fill="#58a6ff" rx="2"/>
<text x="27" y="111" font-family="Consolas,monospace" font-size="12px" fill="#c9d1d9">AI Coding: 95.2%  169 hrs 2 mins</text>
<rect x="15" y="122" width="8" height="8" fill="#3fb950" rx="2"/>
<text x="27" y="131" font-family="Consolas,monospace" font-size="12px" fill="#c9d1d9">Coding: 2.6%  4 hrs 39 mins</text>
<rect x="224" y="122" width="8" height="8" fill="#ffa657" rx="2"/>
<text x="236" y="131" font-family="Consolas,monospace" font-size="12px" fill="#c9d1d9">Code Reviewing: 1.8%  3 hrs 13 mins</text>
<rect x="15" y="142" width="8" height="8" fill="#f85149" rx="2"/>
<text x="27" y="151" font-family="Consolas,monospace" font-size="12px" fill="#c9d1d9">Writing Docs: 0.3%  35 mins</text>
<rect x="224" y="142" width="8" height="8" fill="#d2a8ff" rx="2"/>
<text x="236" y="151" font-family="Consolas,monospace" font-size="12px" fill="#c9d1d9">Writing Tests: 0.0%  2 mins</text>
</svg>