<svg xmlns="http://www.w3.org/2000/svg" font-family="Consolas,monospace" width="760" height="260" font-size="14px"><rect width="760" height="260" fill="#161b22" rx="12"/>
<text x="20" y="34" font-family="Consolas,monospace" font-size="14px" fill="#616e7f">- Daily Activity  (last 30d) ——————————————————————————————————————————-—-</text>
<rect x="20" y="108" width="21" height="112" fill="#58a6ff" rx="2" opacity="0.85"/>
<text x="30" y="238" text-anchor="middle" font-family="Consolas,monospace" font-size="11px" fill="#616e7f">05/06</text>
<text x="30" y="104" text-anchor="middle" font-family="Consolas,monospace" font-size="10px" fill="#c9d1d9">7h 50m</text>
<rect x="44" y="193" width="21" height="27" fill="#58a6ff" rx="2" opacity="0.85"/>
<rect x="68" y="175" width="21" height="45" fill="#58a6ff" rx="2" opacity="0.85"/>
<rect x="92" y="206" width="21" height="14" fill="#58a6ff" rx="2" opacity="0.85"/>
<rect x="116" y="205" width="21" height="15" fill="#58a6ff" rx="2" opacity="0.85"/>
<rect x="140" y="122" width="21" height="98" fill="#58a6ff" rx="2" opacity="0.85"/>
<text x="150" y="238" text-anchor="middle" font-family="Consolas,monospace" font-size="11px" fill="#616e7f">05/11</text>
<text x="150" y="118" text-anchor="middle" font-family="Consolas,monospace" font-size="10px" fill="#c9d1d9">6h 48m</text>
<rect x="164" y="75" width="21" height="145" fill="#58a6ff" rx="2" opacity="0.85"/>
<text x="174" y="71" text-anchor="middle" font-family="Consolas,monospace" font-size="10px" fill="#c9d1d9">10h 6m</text>
<rect x="188" y="115" width="21" height="105" fill="#58a6ff" rx="2" opacity="0.85"/>
<text x="198" y="111" text-anchor="middle" font-family="Consolas,monospace" font-size="10px" fill="#c9d1d9">7h 17m</text>
<rect x="212" y="166" width="21" height="54" fill="#58a6ff" rx="2" opacity="0.85"/>
<rect x="236" y="60" width="21" height="160" fill="#58a6ff" rx="2" opacity="0.85"/>
<text x="246" y="56" text-anchor="middle" font-family="Consolas,monospace" font-size="10px" fill="#c9d1d9">11h 6m</text>
<rect x="260" y="196" width="21" height="24" fill="#58a6ff" rx="2" opacity="0.85"/>
<text x="270" y="238" text-anchor="middle" font-family="Consolas,monospace" font-size="11px" fill="#616e7f">05/16</text>
<rect x="284" y="216" width="21" height="4" fill="#58a6ff" rx="2" opacity="0.85"/>
<rect x="308" y="185" width="21" height="35" fill="#58a6ff" rx="2" opacity="0.85"/>
<rect x="332" y="198" width="21" height="22" fill="#58a6ff" rx="2" opacity="0.85"/>
<rect x="356" y="216" width="21" height="4" fill="#58a6ff" rx="2" opacity="0.85"/>
<rect x="380" y="121" width="21" height="99" fill="#58a6ff" rx="2" opacity="0.85"/>
<text x="390" y="238" text-anchor="middle" font-family="Consolas,monospace" font-size="11px" fill="#616e7f">05/21</text>
<text x="390" y="117" text-anchor="middle" font-family="Consolas,monospace" font-size="10px" fill="#c9d1d9">6h 52m</text>
<rect x="404" y="200" width="21" height="20" fill="#58a6ff" rx="2" opacity="0.85"/>
<rect x="428" y="183" width="21" height="37" fill="#58a6ff" rx="2" opacity="0.85"/>
<rect x="452" y="185" width="21" height="35" fill="#58a6ff" rx="2" opacity="0.85"/>
<rect x="476" y="176" width="21" height="44" fill="#58a6ff" rx="2" opacity="0.85"/>
<rect x="500" y="143" width="21" height="77" fill="#58a6ff" rx="2" opacity="0.85"/>
<text x="510" y="238" text-anchor="middle" font-family="Consolas,monospace" font-size="11px" fill="#616e7f">05/26</text>
<text x="510" y="139" text-anchor="middle" font-family="Consolas,monospace" font-size="10px" fill="#c9d1d9">5h 21m</text>
<rect x="524" y="180" width="21" height="40" fill="#58a6ff" rx="2" opacity="0.85"/>
<rect x="548" y="134" width="21" height="86" fill="#58a6ff" rx="2" opacity="0.85"/>
<text x="558" y="130" text-anchor="middle" font-family="Consolas,monospace" font-size="10px" fill="#c9d1d9">5h 59m</text>
<rect x="572" y="169" width="21" height="51" fill="#58a6ff" rx="2" opacity="0.85"/>
<rect x="596" y="215" width="21" height="5" fill="#58a6ff" rx="2" opacity="0.85"/>
<rect x="620" y="126" width="21" height="94" fill="#58a6ff" rx="2" opacity="0.85"/>
<text x="630" y="238" text-anchor="middle" font-family="Consolas,monospace" font-size="11px" fill="#616e7f">05/31</text>
<text x="630" y="122" text-anchor="middle" font-family="Consolas,monospace" font-size="10px" fill="#c9d1d9">6h 34m</text>
<rect x="644" y="170" width="21" height="50" fill="#58a6ff" rx="2" opacity="0.85"/>
<rect x="668" y="218" width="21" height="2" fill="#58a6ff" rx="2" opacity="0.85"/>
<rect x="692" y="108" width="21" height="112" fill="#58a6ff" rx="2" opacity="0.85"/>
<text x="702" y="104" text-anchor="middle" font-family="Consolas,monospace" font-size="10px" fill="#c9d1d9">7h 49m</text>
<rect x="716" y="193" width="21" height="27" fill="#58a6ff" rx="2" opacity="0.85"/>
<text x="726" y="238" text-anchor="middle" font-family="Consolas,monospace" font-size="11px" fill="#616e7f">06/04</text>
<line x1="20" y1="165" x2="740" y2="165" stroke="#f85149" stroke-width="1" stroke-dasharray="4,3" opacity="0.7"/>
<text x="738" y="161" text-anchor="end" font-family="Consolas,monospace" font-size="10px" fill="#f85149">avg 3h 49m</text>
</svg>