<svg xmlns="http://www.w3.org/2000/svg" font-family="Consolas,monospace" width="760" height="205" font-size="14px"><rect width="760" height="205" fill="#161b22" rx="12"/>
<text x="20" y="34" font-family="Consolas,monospace" font-size="14px" fill="#616e7f">- Working Hours  (last 30d) ———————————————————————————————————————————-—-</text>
<text x="20" y="50" font-family="Consolas,monospace" font-size="12px" fill="#616e7f">total 137h 3m | peak 4h 22:00-02:00 | busiest 00:00 (12h 53m) | tz Asia/Ho_Chi_Minh</text>
<defs>
<linearGradient id="hourFill" x1="0" y1="0" x2="1" y2="0">
<stop offset="0%" stop-color="#1d4ed8"/>
<stop offset="45%" stop-color="#7c3aed"/>
<stop offset="75%" stop-color="#db2777"/>
<stop offset="100%" stop-color="#facc15"/>
</linearGradient>
<linearGradient id="hourFade" x1="0" y1="0" x2="1" y2="0">
<stop offset="0%" stop-color="#1d4ed8" stop-opacity="0.42"/>
<stop offset="28%" stop-color="#2563eb" stop-opacity="0.5"/>
<stop offset="50%" stop-color="#7c3aed" stop-opacity="0.58"/>
<stop offset="70%" stop-color="#db2777" stop-opacity="0.62"/>
<stop offset="86%" stop-color="#f97316" stop-opacity="0.58"/>
<stop offset="100%" stop-color="#facc15" stop-opacity="0.48"/>
</linearGradient>
</defs>
<line x1="56" y1="156" x2="720" y2="156" stroke="#616e7f" stroke-width="1" opacity="0.35"/>
<line x1="56.00" y1="72" x2="56.00" y2="156" stroke="#616e7f" stroke-width="1" opacity="0.16"/>
<text x="56.00" y="174" text-anchor="middle" font-family="Consolas,monospace" font-size="8px" fill="#616e7f">00</text>
<line x1="84.87" y1="72" x2="84.87" y2="156" stroke="#616e7f" stroke-width="1" opacity="0.07"/>
<text x="84.87" y="174" text-anchor="middle" font-family="Consolas,monospace" font-size="8px" fill="#616e7f">01</text>
<line x1="113.74" y1="72" x2="113.74" y2="156" stroke="#616e7f" stroke-width="1" opacity="0.07"/>
<text x="113.74" y="174" text-anchor="middle" font-family="Consolas,monospace" font-size="8px" fill="#616e7f">02</text>
<line x1="142.61" y1="72" x2="142.61" y2="156" stroke="#616e7f" stroke-width="1" opacity="0.16"/>
<text x="142.61" y="174" text-anchor="middle" font-family="Consolas,monospace" font-size="8px" fill="#616e7f">03</text>
<line x1="171.48" y1="72" x2="171.48" y2="156" stroke="#616e7f" stroke-width="1" opacity="0.07"/>
<text x="171.48" y="174" text-anchor="middle" font-family="Consolas,monospace" font-size="8px" fill="#616e7f">04</text>
<line x1="200.35" y1="72" x2="200.35" y2="156" stroke="#616e7f" stroke-width="1" opacity="0.07"/>
<text x="200.35" y="174" text-anchor="middle" font-family="Consolas,monospace" font-size="8px" fill="#616e7f">05</text>
<line x1="229.22" y1="72" x2="229.22" y2="156" stroke="#616e7f" stroke-width="1" opacity="0.16"/>
<text x="229.22" y="174" text-anchor="middle" font-family="Consolas,monospace" font-size="8px" fill="#616e7f">06</text>
<line x1="258.09" y1="72" x2="258.09" y2="156" stroke="#616e7f" stroke-width="1" opacity="0.07"/>
<text x="258.09" y="174" text-anchor="middle" font-family="Consolas,monospace" font-size="8px" fill="#616e7f">07</text>
<line x1="286.96" y1="72" x2="286.96" y2="156" stroke="#616e7f" stroke-width="1" opacity="0.07"/>
<text x="286.96" y="174" text-anchor="middle" font-family="Consolas,monospace" font-size="8px" fill="#616e7f">08</text>
<line x1="315.83" y1="72" x2="315.83" y2="156" stroke="#616e7f" stroke-width="1" opacity="0.16"/>
<text x="315.83" y="174" text-anchor="middle" font-family="Consolas,monospace" font-size="8px" fill="#616e7f">09</text>
<line x1="344.70" y1="72" x2="344.70" y2="156" stroke="#616e7f" stroke-width="1" opacity="0.07"/>
<text x="344.70" y="174" text-anchor="middle" font-family="Consolas,monospace" font-size="8px" fill="#616e7f">10</text>
<line x1="373.57" y1="72" x2="373.57" y2="156" stroke="#616e7f" stroke-width="1" opacity="0.07"/>
<text x="373.57" y="174" text-anchor="middle" font-family="Consolas,monospace" font-size="8px" fill="#616e7f">11</text>
<line x1="402.43" y1="72" x2="402.43" y2="156" stroke="#616e7f" stroke-width="1" opacity="0.16"/>
<text x="402.43" y="174" text-anchor="middle" font-family="Consolas,monospace" font-size="8px" fill="#616e7f">12</text>
<line x1="431.30" y1="72" x2="431.30" y2="156" stroke="#616e7f" stroke-width="1" opacity="0.07"/>
<text x="431.30" y="174" text-anchor="middle" font-family="Consolas,monospace" font-size="8px" fill="#616e7f">13</text>
<line x1="460.17" y1="72" x2="460.17" y2="156" stroke="#616e7f" stroke-width="1" opacity="0.07"/>
<text x="460.17" y="174" text-anchor="middle" font-family="Consolas,monospace" font-size="8px" fill="#616e7f">14</text>
<line x1="489.04" y1="72" x2="489.04" y2="156" stroke="#616e7f" stroke-width="1" opacity="0.16"/>
<text x="489.04" y="174" text-anchor="middle" font-family="Consolas,monospace" font-size="8px" fill="#616e7f">15</text>
<line x1="517.91" y1="72" x2="517.91" y2="156" stroke="#616e7f" stroke-width="1" opacity="0.07"/>
<text x="517.91" y="174" text-anchor="middle" font-family="Consolas,monospace" font-size="8px" fill="#616e7f">16</text>
<line x1="546.78" y1="72" x2="546.78" y2="156" stroke="#616e7f" stroke-width="1" opacity="0.07"/>
<text x="546.78" y="174" text-anchor="middle" font-family="Consolas,monospace" font-size="8px" fill="#616e7f">17</text>
<line x1="575.65" y1="72" x2="575.65" y2="156" stroke="#616e7f" stroke-width="1" opacity="0.16"/>
<text x="575.65" y="174" text-anchor="middle" font-family="Consolas,monospace" font-size="8px" fill="#616e7f">18</text>
<line x1="604.52" y1="72" x2="604.52" y2="156" stroke="#616e7f" stroke-width="1" opacity="0.07"/>
<text x="604.52" y="174" text-anchor="middle" font-family="Consolas,monospace" font-size="8px" fill="#616e7f">19</text>
<line x1="633.39" y1="72" x2="633.39" y2="156" stroke="#616e7f" stroke-width="1" opacity="0.07"/>
<text x="633.39" y="174" text-anchor="middle" font-family="Consolas,monospace" font-size="8px" fill="#616e7f">20</text>
<line x1="662.26" y1="72" x2="662.26" y2="156" stroke="#616e7f" stroke-width="1" opacity="0.16"/>
<text x="662.26" y="174" text-anchor="middle" font-family="Consolas,monospace" font-size="8px" fill="#616e7f">21</text>
<line x1="691.13" y1="72" x2="691.13" y2="156" stroke="#616e7f" stroke-width="1" opacity="0.07"/>
<text x="691.13" y="174" text-anchor="middle" font-family="Consolas,monospace" font-size="8px" fill="#616e7f">22</text>
<line x1="720.00" y1="72" x2="720.00" y2="156" stroke="#616e7f" stroke-width="1" opacity="0.07"/>
<text x="720.00" y="174" text-anchor="middle" font-family="Consolas,monospace" font-size="8px" fill="#616e7f">23</text>
<path d="M 56.00 72.00 C 60.81 74.10, 75.25 79.49, 84.87 84.61 C 94.49 89.74, 104.12 96.97, 113.74 102.78 C 123.36 108.58, 132.99 112.04, 142.61 119.44 C 152.23 126.84, 161.86 142.19, 171.48 147.19 C 181.10 152.20, 190.72 148.34, 200.35 149.48 C 209.97 150.62, 219.59 154.02, 229.22 154.02 C 238.84 154.02, 248.46 150.53, 258.09 149.48 C 267.71 148.43, 277.33 148.53, 286.96 147.73 C 296.58 146.92, 306.20 145.82, 315.83 144.65 C 325.45 143.49, 335.07 140.23, 344.70 140.74 C 354.32 141.25, 363.94 145.88, 373.57 147.71 C 383.19 149.54, 392.81 153.02, 402.43 151.73 C 412.06 150.44, 421.68 145.67, 431.30 139.99 C 440.93 134.31, 450.55 125.04, 460.17 117.64 C 469.80 110.23, 479.42 101.79, 489.04 95.58 C 498.67 89.38, 508.29 79.12, 517.91 80.41 C 527.54 81.70, 537.16 98.81, 546.78 103.33 C 556.41 107.84, 566.03 107.26, 575.65 107.51 C 585.28 107.77, 594.90 105.51, 604.52 104.84 C 614.14 104.18, 623.77 104.61, 633.39 103.55 C 643.01 102.49, 652.64 98.90, 662.26 98.50 C 671.88 98.11, 681.51 103.21, 691.13 101.18 C 700.75 99.14, 715.19 88.79, 720.00 86.31 L 720.00 156.00 L 56.00 156.00 Z" fill="url(#hourFade)"/>
<path d="M 56.00 72.00 C 60.81 74.10, 75.25 79.49, 84.87 84.61 C 94.49 89.74, 104.12 96.97, 113.74 102.78 C 123.36 108.58, 132.99 112.04, 142.61 119.44 C 152.23 126.84, 161.86 142.19, 171.48 147.19 C 181.10 152.20, 190.72 148.34, 200.35 149.48 C 209.97 150.62, 219.59 154.02, 229.22 154.02 C 238.84 154.02, 248.46 150.53, 258.09 149.48 C 267.71 148.43, 277.33 148.53, 286.96 147.73 C 296.58 146.92, 306.20 145.82, 315.83 144.65 C 325.45 143.49, 335.07 140.23, 344.70 140.74 C 354.32 141.25, 363.94 145.88, 373.57 147.71 C 383.19 149.54, 392.81 153.02, 402.43 151.73 C 412.06 150.44, 421.68 145.67, 431.30 139.99 C 440.93 134.31, 450.55 125.04, 460.17 117.64 C 469.80 110.23, 479.42 101.79, 489.04 95.58 C 498.67 89.38, 508.29 79.12, 517.91 80.41 C 527.54 81.70, 537.16 98.81, 546.78 103.33 C 556.41 107.84, 566.03 107.26, 575.65 107.51 C 585.28 107.77, 594.90 105.51, 604.52 104.84 C 614.14 104.18, 623.77 104.61, 633.39 103.55 C 643.01 102.49, 652.64 98.90, 662.26 98.50 C 671.88 98.11, 681.51 103.21, 691.13 101.18 C 700.75 99.14, 715.19 88.79, 720.00 86.31" fill="none" stroke="url(#hourFill)" stroke-width="4" stroke-linecap="round"/>
<circle cx="56.00" cy="72.00" r="4" fill="#facc15" opacity="1"><title>00:00 - 12h 53m total</title></circle>
<circle cx="84.87" cy="84.61" r="2.5" fill="#facc15" opacity="1"><title>01:00 - 10h 56m total</title></circle>
<circle cx="113.74" cy="102.78" r="2.5" fill="#facc15" opacity="1"><title>02:00 - 8h 9m total</title></circle>
<circle cx="142.61" cy="119.44" r="2.5" fill="#facc15" opacity="1"><title>03:00 - 5h 36m total</title></circle>
<circle cx="171.48" cy="147.19" r="2.5" fill="#facc15" opacity="1"><title>04:00 - 1h 21m total</title></circle>
<circle cx="200.35" cy="149.48" r="2.5" fill="#facc15" opacity="1"><title>05:00 - 1h 0m total</title></circle>
<circle cx="229.22" cy="154.02" r="2.5" fill="#facc15" opacity="1"><title>06:00 - 18m total</title></circle>
<circle cx="258.09" cy="149.48" r="2.5" fill="#facc15" opacity="1"><title>07:00 - 1h 0m total</title></circle>
<circle cx="286.96" cy="147.73" r="2.5" fill="#facc15" opacity="1"><title>08:00 - 1h 16m total</title></circle>
<circle cx="315.83" cy="144.65" r="2.5" fill="#facc15" opacity="1"><title>09:00 - 1h 44m total</title></circle>
<circle cx="344.70" cy="140.74" r="2.5" fill="#facc15" opacity="1"><title>10:00 - 2h 20m total</title></circle>
<circle cx="373.57" cy="147.71" r="2.5" fill="#facc15" opacity="1"><title>11:00 - 1h 16m total</title></circle>
<circle cx="402.43" cy="151.73" r="2.5" fill="#facc15" opacity="1"><title>12:00 - 39m total</title></circle>
<circle cx="431.30" cy="139.99" r="2.5" fill="#facc15" opacity="1"><title>13:00 - 2h 27m total</title></circle>
<circle cx="460.17" cy="117.64" r="2.5" fill="#facc15" opacity="1"><title>14:00 - 5h 53m total</title></circle>
<circle cx="489.04" cy="95.58" r="2.5" fill="#facc15" opacity="1"><title>15:00 - 9h 16m total</title></circle>
<circle cx="517.91" cy="80.41" r="2.5" fill="#facc15" opacity="1"><title>16:00 - 11h 35m total</title></circle>
<circle cx="546.78" cy="103.33" r="2.5" fill="#facc15" opacity="1"><title>17:00 - 8h 4m total</title></circle>
<circle cx="575.65" cy="107.51" r="2.5" fill="#facc15" opacity="1"><title>18:00 - 7h 26m total</title></circle>
<circle cx="604.52" cy="104.84" r="2.5" fill="#facc15" opacity="1"><title>19:00 - 7h 50m total</title></circle>
<circle cx="633.39" cy="103.55" r="2.5" fill="#facc15" opacity="1"><title>20:00 - 8h 2m total</title></circle>
<circle cx="662.26" cy="98.50" r="2.5" fill="#facc15" opacity="1"><title>21:00 - 8h 49m total</title></circle>
<circle cx="691.13" cy="101.18" r="2.5" fill="#facc15" opacity="1"><title>22:00 - 8h 24m total</title></circle>
<circle cx="720.00" cy="86.31" r="2.5" fill="#facc15" opacity="1"><title>23:00 - 10h 41m total</title></circle>
<text x="20" y="191" font-family="Consolas,monospace" font-size="11px" fill="#616e7f">24-hour distribution across 30 days; higher curve = more coding time in that hour</text>
</svg>