<svg xmlns="http://www.w3.org/2000/svg" font-family="Consolas,monospace" width="340" height="300" font-size="14px"><rect width="340" height="300" fill="#161b22" rx="12"/>
<text x="15" y="29" font-family="Consolas,monospace" font-size="14px" fill="#616e7f">- Editors  (last 30d) —————————-—-</text>
<path d="M 110.00 92.00 L 110.00 70.00 A 85 85 0 0 1 194.80 160.82 L 172.85 159.31 A 63 63 0 0 0 110.00 92.00 Z" fill="#58a6ff" stroke="#161b22" stroke-width="2"/>
<path d="M 172.85 159.31 L 194.80 160.82 A 85 85 0 0 1 101.34 239.56 L 103.58 217.67 A 63 63 0 0 0 172.85 159.31 Z" fill="#3fb950" stroke="#161b22" stroke-width="2"/>
<path d="M 103.58 217.67 L 101.34 239.56 A 85 85 0 0 1 30.21 184.30 L 50.86 176.72 A 63 63 0 0 0 103.58 217.67 Z" fill="#ffa657" stroke="#161b22" stroke-width="2"/>
<path d="M 50.86 176.72 L 30.21 184.30 A 85 85 0 0 1 38.47 109.08 L 56.98 120.97 A 63 63 0 0 0 50.86 176.72 Z" fill="#f85149" stroke="#161b22" stroke-width="2"/>
<path d="M 56.98 120.97 L 38.47 109.08 A 85 85 0 0 1 86.05 73.44 L 92.25 94.55 A 63 63 0 0 0 56.98 120.97 Z" fill="#d2a8ff" stroke="#161b22" stroke-width="2"/>
<path d="M 92.25 94.55 L 86.05 73.44 A 85 85 0 0 1 110.00 70.00 L 110.00 92.00 A 63 63 0 0 0 92.25 94.55 Z" fill="#79c0ff" stroke="#161b22" stroke-width="2"/>
<text x="110" y="147" text-anchor="middle" font-family="Consolas,monospace" font-size="11px" fill="#616e7f">avg/day</text>
<text x="110" y="167" text-anchor="middle" font-family="Consolas,monospace" font-size="16px" font-weight="bold" fill="#58a6ff">3h 50m</text>
<rect x="210" y="50" width="10" height="10" fill="#58a6ff" rx="2"/>
<text x="226" y="60" font-family="Consolas,monospace" font-size="13px" fill="#c9d1d9">Codex CLI</text>
<text x="226" y="73" font-family="Consolas,monospace" font-size="11px" fill="#616e7f">24.4%  28 hrs 20 mins</text>
<rect x="210" y="86" width="10" height="10" fill="#3fb950" rx="2"/>
<text x="226" y="96" font-family="Consolas,monospace" font-size="13px" fill="#c9d1d9">Claude Code</text>
<text x="226" y="109" font-family="Consolas,monospace" font-size="11px" fill="#616e7f">23.9%  27 hrs 44 mins</text>
<rect x="210" y="122" width="10" height="10" fill="#ffa657" rx="2"/>
<text x="226" y="132" font-family="Consolas,monospace" font-size="13px" fill="#c9d1d9">Neovim</text>
<text x="226" y="145" font-family="Consolas,monospace" font-size="11px" fill="#616e7f">16.6%  19 hrs 18 mins</text>
<rect x="210" y="158" width="10" height="10" fill="#f85149" rx="2"/>
<text x="226" y="168" font-family="Consolas,monospace" font-size="13px" fill="#c9d1d9">OpenCode</text>
<text x="226" y="181" font-family="Consolas,monospace" font-size="11px" fill="#616e7f">13.7%  15 hrs 57 mins</text>
<rect x="210" y="194" width="10" height="10" fill="#d2a8ff" rx="2"/>
<text x="226" y="204" font-family="Consolas,monospace" font-size="13px" fill="#c9d1d9">Kiro</text>
<text x="226" y="217" font-family="Consolas,monospace" font-size="11px" fill="#616e7f">10.6%  12 hrs 21 mins</text>
<rect x="210" y="230" width="10" height="10" fill="#79c0ff" rx="2"/>
<text x="226" y="240" font-family="Consolas,monospace" font-size="13px" fill="#c9d1d9">Opencode Cli</text>
<text x="226" y="253" font-family="Consolas,monospace" font-size="11px" fill="#616e7f">4.2%  4 hrs 56 mins</text>
</svg>