<svg xmlns="http://www.w3.org/2000/svg" font-family="Consolas,monospace" width="340" height="300" font-size="14px"><rect width="340" height="300" fill="#161b22" rx="12"/>
<text x="15" y="29" font-family="Consolas,monospace" font-size="14px" fill="#616e7f">- Editors  (last 30d) —————————-—-</text>
<path d="M 110.00 92.00 L 110.00 70.00 A 85 85 0 1 1 71.36 230.71 L 81.36 211.12 A 63 63 0 1 0 110.00 92.00 Z" fill="#58a6ff" stroke="#161b22" stroke-width="2"/>
<path d="M 81.36 211.12 L 71.36 230.71 A 85 85 0 0 1 26.18 169.13 L 47.88 165.48 A 63 63 0 0 0 81.36 211.12 Z" fill="#3fb950" stroke="#161b22" stroke-width="2"/>
<path d="M 47.88 165.48 L 26.18 169.13 A 85 85 0 0 1 47.87 97.00 L 63.95 112.01 A 63 63 0 0 0 47.88 165.48 Z" fill="#ffa657" stroke="#161b22" stroke-width="2"/>
<path d="M 63.95 112.01 L 47.87 97.00 A 85 85 0 0 1 105.29 70.13 L 106.51 92.10 A 63 63 0 0 0 63.95 112.01 Z" fill="#f85149" stroke="#161b22" stroke-width="2"/>
<path d="M 106.51 92.10 L 105.29 70.13 A 85 85 0 0 1 108.39 70.02 L 108.81 92.01 A 63 63 0 0 0 106.51 92.10 Z" fill="#d2a8ff" stroke="#161b22" stroke-width="2"/>
<path d="M 108.81 92.01 L 108.39 70.02 A 85 85 0 0 1 110.00 70.00 L 110.00 92.00 A 63 63 0 0 0 108.81 92.01 Z" fill="#79c0ff" stroke="#161b22" stroke-width="2"/>
<text x="110" y="147" text-anchor="middle" font-family="Consolas,monospace" font-size="11px" fill="#616e7f">avg/day</text>
<text x="110" y="167" text-anchor="middle" font-family="Consolas,monospace" font-size="16px" font-weight="bold" fill="#58a6ff">3h 38m</text>
<rect x="210" y="50" width="10" height="10" fill="#58a6ff" rx="2"/>
<text x="226" y="60" font-family="Consolas,monospace" font-size="13px" fill="#c9d1d9">OpenCode</text>
<text x="226" y="73" font-family="Consolas,monospace" font-size="11px" fill="#616e7f">57.5%  79 hrs 22 mins</text>
<rect x="210" y="86" width="10" height="10" fill="#3fb950" rx="2"/>
<text x="226" y="96" font-family="Consolas,monospace" font-size="13px" fill="#c9d1d9">Neovim</text>
<text x="226" y="109" font-family="Consolas,monospace" font-size="11px" fill="#616e7f">14.8%  20 hrs 28 mins</text>
<rect x="210" y="122" width="10" height="10" fill="#ffa657" rx="2"/>
<text x="226" y="132" font-family="Consolas,monospace" font-size="13px" fill="#c9d1d9">VS Code</text>
<text x="226" y="145" font-family="Consolas,monospace" font-size="11px" fill="#616e7f">14.6%  20 hrs 10 mins</text>
<rect x="210" y="158" width="10" height="10" fill="#f85149" rx="2"/>
<text x="226" y="168" font-family="Consolas,monospace" font-size="13px" fill="#c9d1d9">Zed</text>
<text x="226" y="181" font-family="Consolas,monospace" font-size="11px" fill="#616e7f">12.2%  16 hrs 47 mins</text>
<rect x="210" y="194" width="10" height="10" fill="#d2a8ff" rx="2"/>
<text x="226" y="204" font-family="Consolas,monospace" font-size="13px" fill="#c9d1d9">Claude Code</text>
<text x="226" y="217" font-family="Consolas,monospace" font-size="11px" fill="#616e7f">0.6%  48 mins</text>
<rect x="210" y="230" width="10" height="10" fill="#79c0ff" rx="2"/>
<text x="226" y="240" font-family="Consolas,monospace" font-size="13px" fill="#c9d1d9">Unknown Editor</text>
<text x="226" y="253" font-family="Consolas,monospace" font-size="11px" fill="#616e7f">0.3%  24 mins</text>
</svg>