<svg xmlns="http://www.w3.org/2000/svg" font-family="Consolas,monospace" width="340" height="170" font-size="14px"><rect width="340" height="170" fill="#161b22" rx="12"/>
<text x="15" y="29" font-family="Consolas,monospace" font-size="14px" fill="#616e7f">- Coding Activity  (last 30d) —-—-</text>
<rect x="15" y="55" width="237" height="36" fill="#58a6ff" rx="4 0 0 4"/>
<rect x="252" y="55" width="59" height="36" fill="#3fb950" rx="0"/>
<rect x="311" y="55" width="10" height="36" fill="#ffa657" rx="0"/>
<rect x="321" y="55" width="3" height="36" fill="#f85149" rx="0 4 4 0"/>
<rect x="15" y="102" width="8" height="8" fill="#58a6ff" rx="2"/>
<text x="27" y="111" font-family="Consolas,monospace" font-size="12px" fill="#c9d1d9">AI Coding: 76.7%  97 hrs 56 mins</text>
<rect x="15" y="122" width="8" height="8" fill="#3fb950" rx="2"/>
<text x="27" y="131" font-family="Consolas,monospace" font-size="12px" fill="#c9d1d9">Coding: 19.1%  24 hrs 20 mins</text>
<rect x="238" y="122" width="8" height="8" fill="#ffa657" rx="2"/>
<text x="250" y="131" font-family="Consolas,monospace" font-size="12px" fill="#c9d1d9">Writing Docs: 3.2%  4 hrs 8 mins</text>
<rect x="15" y="142" width="8" height="8" fill="#f85149" rx="2"/>
<text x="27" y="151" font-family="Consolas,monospace" font-size="12px" fill="#c9d1d9">Writing Tests: 1.0%  1 hr 18 mins</text>
</svg>