<svg xmlns="http://www.w3.org/2000/svg" font-family="Consolas,monospace" width="760" height="205" font-size="14px"><rect width="760" height="205" fill="#161b22" rx="12"/>
<text x="20" y="34" font-family="Consolas,monospace" font-size="14px" fill="#616e7f">- Working Hours  (last 30d) ———————————————————————————————————————————-—-</text>
<text x="20" y="50" font-family="Consolas,monospace" font-size="12px" fill="#616e7f">total 128h 58m | peak 4h 15:00-19:00 | busiest 16:00 (10h 44m) | tz Asia/Ho_Chi_Minh</text>
<defs>
<linearGradient id="hourFill" x1="0" y1="0" x2="1" y2="0">
<stop offset="0%" stop-color="#1d4ed8"/>
<stop offset="45%" stop-color="#7c3aed"/>
<stop offset="75%" stop-color="#db2777"/>
<stop offset="100%" stop-color="#facc15"/>
</linearGradient>
<linearGradient id="hourFade" x1="0" y1="0" x2="1" y2="0">
<stop offset="0%" stop-color="#1d4ed8" stop-opacity="0.42"/>
<stop offset="28%" stop-color="#2563eb" stop-opacity="0.5"/>
<stop offset="50%" stop-color="#7c3aed" stop-opacity="0.58"/>
<stop offset="70%" stop-color="#db2777" stop-opacity="0.62"/>
<stop offset="86%" stop-color="#f97316" stop-opacity="0.58"/>
<stop offset="100%" stop-color="#facc15" stop-opacity="0.48"/>
</linearGradient>
</defs>
<line x1="56" y1="156" x2="720" y2="156" stroke="#616e7f" stroke-width="1" opacity="0.35"/>
<line x1="56.00" y1="72" x2="56.00" y2="156" stroke="#616e7f" stroke-width="1" opacity="0.16"/>
<text x="56.00" y="174" text-anchor="middle" font-family="Consolas,monospace" font-size="8px" fill="#616e7f">00</text>
<line x1="84.87" y1="72" x2="84.87" y2="156" stroke="#616e7f" stroke-width="1" opacity="0.07"/>
<text x="84.87" y="174" text-anchor="middle" font-family="Consolas,monospace" font-size="8px" fill="#616e7f">01</text>
<line x1="113.74" y1="72" x2="113.74" y2="156" stroke="#616e7f" stroke-width="1" opacity="0.07"/>
<text x="113.74" y="174" text-anchor="middle" font-family="Consolas,monospace" font-size="8px" fill="#616e7f">02</text>
<line x1="142.61" y1="72" x2="142.61" y2="156" stroke="#616e7f" stroke-width="1" opacity="0.16"/>
<text x="142.61" y="174" text-anchor="middle" font-family="Consolas,monospace" font-size="8px" fill="#616e7f">03</text>
<line x1="171.48" y1="72" x2="171.48" y2="156" stroke="#616e7f" stroke-width="1" opacity="0.07"/>
<text x="171.48" y="174" text-anchor="middle" font-family="Consolas,monospace" font-size="8px" fill="#616e7f">04</text>
<line x1="200.35" y1="72" x2="200.35" y2="156" stroke="#616e7f" stroke-width="1" opacity="0.07"/>
<text x="200.35" y="174" text-anchor="middle" font-family="Consolas,monospace" font-size="8px" fill="#616e7f">05</text>
<line x1="229.22" y1="72" x2="229.22" y2="156" stroke="#616e7f" stroke-width="1" opacity="0.16"/>
<text x="229.22" y="174" text-anchor="middle" font-family="Consolas,monospace" font-size="8px" fill="#616e7f">06</text>
<line x1="258.09" y1="72" x2="258.09" y2="156" stroke="#616e7f" stroke-width="1" opacity="0.07"/>
<text x="258.09" y="174" text-anchor="middle" font-family="Consolas,monospace" font-size="8px" fill="#616e7f">07</text>
<line x1="286.96" y1="72" x2="286.96" y2="156" stroke="#616e7f" stroke-width="1" opacity="0.07"/>
<text x="286.96" y="174" text-anchor="middle" font-family="Consolas,monospace" font-size="8px" fill="#616e7f">08</text>
<line x1="315.83" y1="72" x2="315.83" y2="156" stroke="#616e7f" stroke-width="1" opacity="0.16"/>
<text x="315.83" y="174" text-anchor="middle" font-family="Consolas,monospace" font-size="8px" fill="#616e7f">09</text>
<line x1="344.70" y1="72" x2="344.70" y2="156" stroke="#616e7f" stroke-width="1" opacity="0.07"/>
<text x="344.70" y="174" text-anchor="middle" font-family="Consolas,monospace" font-size="8px" fill="#616e7f">10</text>
<line x1="373.57" y1="72" x2="373.57" y2="156" stroke="#616e7f" stroke-width="1" opacity="0.07"/>
<text x="373.57" y="174" text-anchor="middle" font-family="Consolas,monospace" font-size="8px" fill="#616e7f">11</text>
<line x1="402.43" y1="72" x2="402.43" y2="156" stroke="#616e7f" stroke-width="1" opacity="0.16"/>
<text x="402.43" y="174" text-anchor="middle" font-family="Consolas,monospace" font-size="8px" fill="#616e7f">12</text>
<line x1="431.30" y1="72" x2="431.30" y2="156" stroke="#616e7f" stroke-width="1" opacity="0.07"/>
<text x="431.30" y="174" text-anchor="middle" font-family="Consolas,monospace" font-size="8px" fill="#616e7f">13</text>
<line x1="460.17" y1="72" x2="460.17" y2="156" stroke="#616e7f" stroke-width="1" opacity="0.07"/>
<text x="460.17" y="174" text-anchor="middle" font-family="Consolas,monospace" font-size="8px" fill="#616e7f">14</text>
<line x1="489.04" y1="72" x2="489.04" y2="156" stroke="#616e7f" stroke-width="1" opacity="0.16"/>
<text x="489.04" y="174" text-anchor="middle" font-family="Consolas,monospace" font-size="8px" fill="#616e7f">15</text>
<line x1="517.91" y1="72" x2="517.91" y2="156" stroke="#616e7f" stroke-width="1" opacity="0.07"/>
<text x="517.91" y="174" text-anchor="middle" font-family="Consolas,monospace" font-size="8px" fill="#616e7f">16</text>
<line x1="546.78" y1="72" x2="546.78" y2="156" stroke="#616e7f" stroke-width="1" opacity="0.07"/>
<text x="546.78" y="174" text-anchor="middle" font-family="Consolas,monospace" font-size="8px" fill="#616e7f">17</text>
<line x1="575.65" y1="72" x2="575.65" y2="156" stroke="#616e7f" stroke-width="1" opacity="0.16"/>
<text x="575.65" y="174" text-anchor="middle" font-family="Consolas,monospace" font-size="8px" fill="#616e7f">18</text>
<line x1="604.52" y1="72" x2="604.52" y2="156" stroke="#616e7f" stroke-width="1" opacity="0.07"/>
<text x="604.52" y="174" text-anchor="middle" font-family="Consolas,monospace" font-size="8px" fill="#616e7f">19</text>
<line x1="633.39" y1="72" x2="633.39" y2="156" stroke="#616e7f" stroke-width="1" opacity="0.07"/>
<text x="633.39" y="174" text-anchor="middle" font-family="Consolas,monospace" font-size="8px" fill="#616e7f">20</text>
<line x1="662.26" y1="72" x2="662.26" y2="156" stroke="#616e7f" stroke-width="1" opacity="0.16"/>
<text x="662.26" y="174" text-anchor="middle" font-family="Consolas,monospace" font-size="8px" fill="#616e7f">21</text>
<line x1="691.13" y1="72" x2="691.13" y2="156" stroke="#616e7f" stroke-width="1" opacity="0.07"/>
<text x="691.13" y="174" text-anchor="middle" font-family="Consolas,monospace" font-size="8px" fill="#616e7f">22</text>
<line x1="720.00" y1="72" x2="720.00" y2="156" stroke="#616e7f" stroke-width="1" opacity="0.07"/>
<text x="720.00" y="174" text-anchor="middle" font-family="Consolas,monospace" font-size="8px" fill="#616e7f">23</text>
<path d="M 56.00 82.69 C 60.81 82.52, 75.25 78.75, 84.87 81.67 C 94.49 84.59, 104.12 96.37, 113.74 100.19 C 123.36 104.01, 132.99 98.42, 142.61 104.61 C 152.23 110.79, 161.86 131.13, 171.48 137.31 C 181.10 143.49, 190.72 138.98, 200.35 141.70 C 209.97 144.42, 219.59 152.54, 229.22 153.62 C 238.84 154.70, 248.46 150.06, 258.09 148.18 C 267.71 146.31, 277.33 143.84, 286.96 142.38 C 296.58 140.91, 306.20 139.21, 315.83 139.39 C 325.45 139.58, 335.07 141.09, 344.70 143.50 C 354.32 145.91, 363.94 153.08, 373.57 153.87 C 383.19 154.67, 392.81 151.15, 402.43 148.28 C 412.06 145.42, 421.68 142.24, 431.30 136.68 C 440.93 131.11, 450.55 124.35, 460.17 114.87 C 469.80 105.39, 479.42 86.93, 489.04 79.78 C 498.67 72.64, 508.29 71.37, 517.91 72.00 C 527.54 72.63, 537.16 80.34, 546.78 83.59 C 556.41 86.84, 566.03 89.47, 575.65 91.50 C 585.28 93.53, 594.90 95.37, 604.52 95.76 C 614.14 96.16, 623.77 92.18, 633.39 93.89 C 643.01 95.60, 652.64 105.61, 662.26 106.04 C 671.88 106.47, 681.51 99.48, 691.13 96.47 C 700.75 93.46, 715.19 89.39, 720.00 87.98 L 720.00 156.00 L 56.00 156.00 Z" fill="url(#hourFade)"/>
<path d="M 56.00 82.69 C 60.81 82.52, 75.25 78.75, 84.87 81.67 C 94.49 84.59, 104.12 96.37, 113.74 100.19 C 123.36 104.01, 132.99 98.42, 142.61 104.61 C 152.23 110.79, 161.86 131.13, 171.48 137.31 C 181.10 143.49, 190.72 138.98, 200.35 141.70 C 209.97 144.42, 219.59 152.54, 229.22 153.62 C 238.84 154.70, 248.46 150.06, 258.09 148.18 C 267.71 146.31, 277.33 143.84, 286.96 142.38 C 296.58 140.91, 306.20 139.21, 315.83 139.39 C 325.45 139.58, 335.07 141.09, 344.70 143.50 C 354.32 145.91, 363.94 153.08, 373.57 153.87 C 383.19 154.67, 392.81 151.15, 402.43 148.28 C 412.06 145.42, 421.68 142.24, 431.30 136.68 C 440.93 131.11, 450.55 124.35, 460.17 114.87 C 469.80 105.39, 479.42 86.93, 489.04 79.78 C 498.67 72.64, 508.29 71.37, 517.91 72.00 C 527.54 72.63, 537.16 80.34, 546.78 83.59 C 556.41 86.84, 566.03 89.47, 575.65 91.50 C 585.28 93.53, 594.90 95.37, 604.52 95.76 C 614.14 96.16, 623.77 92.18, 633.39 93.89 C 643.01 95.60, 652.64 105.61, 662.26 106.04 C 671.88 106.47, 681.51 99.48, 691.13 96.47 C 700.75 93.46, 715.19 89.39, 720.00 87.98" fill="none" stroke="url(#hourFill)" stroke-width="4" stroke-linecap="round"/>
<circle cx="56.00" cy="82.69" r="2.5" fill="#facc15" opacity="1"><title>00:00 - 9h 22m total</title></circle>
<circle cx="84.87" cy="81.67" r="2.5" fill="#facc15" opacity="1"><title>01:00 - 9h 30m total</title></circle>
<circle cx="113.74" cy="100.19" r="2.5" fill="#facc15" opacity="1"><title>02:00 - 7h 8m total</title></circle>
<circle cx="142.61" cy="104.61" r="2.5" fill="#facc15" opacity="1"><title>03:00 - 6h 34m total</title></circle>
<circle cx="171.48" cy="137.31" r="2.5" fill="#facc15" opacity="1"><title>04:00 - 2h 23m total</title></circle>
<circle cx="200.35" cy="141.70" r="2.5" fill="#facc15" opacity="1"><title>05:00 - 1h 49m total</title></circle>
<circle cx="229.22" cy="153.62" r="2.5" fill="#facc15" opacity="1"><title>06:00 - 18m total</title></circle>
<circle cx="258.09" cy="148.18" r="2.5" fill="#facc15" opacity="1"><title>07:00 - 1h 0m total</title></circle>
<circle cx="286.96" cy="142.38" r="2.5" fill="#facc15" opacity="1"><title>08:00 - 1h 44m total</title></circle>
<circle cx="315.83" cy="139.39" r="2.5" fill="#facc15" opacity="1"><title>09:00 - 2h 7m total</title></circle>
<circle cx="344.70" cy="143.50" r="2.5" fill="#facc15" opacity="1"><title>10:00 - 1h 35m total</title></circle>
<circle cx="373.57" cy="153.87" r="2.5" fill="#facc15" opacity="1"><title>11:00 - 16m total</title></circle>
<circle cx="402.43" cy="148.28" r="2.5" fill="#facc15" opacity="1"><title>12:00 - 59m total</title></circle>
<circle cx="431.30" cy="136.68" r="2.5" fill="#facc15" opacity="1"><title>13:00 - 2h 28m total</title></circle>
<circle cx="460.17" cy="114.87" r="2.5" fill="#facc15" opacity="1"><title>14:00 - 5h 15m total</title></circle>
<circle cx="489.04" cy="79.78" r="2.5" fill="#facc15" opacity="1"><title>15:00 - 9h 45m total</title></circle>
<circle cx="517.91" cy="72.00" r="4" fill="#facc15" opacity="1"><title>16:00 - 10h 44m total</title></circle>
<circle cx="546.78" cy="83.59" r="2.5" fill="#facc15" opacity="1"><title>17:00 - 9h 15m total</title></circle>
<circle cx="575.65" cy="91.50" r="2.5" fill="#facc15" opacity="1"><title>18:00 - 8h 15m total</title></circle>
<circle cx="604.52" cy="95.76" r="2.5" fill="#facc15" opacity="1"><title>19:00 - 7h 42m total</title></circle>
<circle cx="633.39" cy="93.89" r="2.5" fill="#facc15" opacity="1"><title>20:00 - 7h 56m total</title></circle>
<circle cx="662.26" cy="106.04" r="2.5" fill="#facc15" opacity="1"><title>21:00 - 6h 23m total</title></circle>
<circle cx="691.13" cy="96.47" r="2.5" fill="#facc15" opacity="1"><title>22:00 - 7h 36m total</title></circle>
<circle cx="720.00" cy="87.98" r="2.5" fill="#facc15" opacity="1"><title>23:00 - 8h 42m total</title></circle>
<text x="20" y="191" font-family="Consolas,monospace" font-size="11px" fill="#616e7f">24-hour distribution across 30 days; higher curve = more coding time in that hour</text>
</svg>