<svg xmlns="http://www.w3.org/2000/svg" font-family="Consolas,monospace" width="760" height="205" font-size="14px"><rect width="760" height="205" fill="#161b22" rx="12"/>
<text x="20" y="34" font-family="Consolas,monospace" font-size="14px" fill="#616e7f">- Working Hours  (last 30d) ———————————————————————————————————————————-—-</text>
<text x="20" y="50" font-family="Consolas,monospace" font-size="12px" fill="#616e7f">total 171h 53m | peak 4h 15:00-19:00 | busiest 16:00 (17h 22m) | tz Asia/Ho_Chi_Minh</text>
<defs>
<linearGradient id="hourFill" x1="0" y1="0" x2="1" y2="0">
<stop offset="0%" stop-color="#1d4ed8"/>
<stop offset="45%" stop-color="#7c3aed"/>
<stop offset="75%" stop-color="#db2777"/>
<stop offset="100%" stop-color="#facc15"/>
</linearGradient>
<linearGradient id="hourFade" x1="0" y1="0" x2="1" y2="0">
<stop offset="0%" stop-color="#1d4ed8" stop-opacity="0.42"/>
<stop offset="28%" stop-color="#2563eb" stop-opacity="0.5"/>
<stop offset="50%" stop-color="#7c3aed" stop-opacity="0.58"/>
<stop offset="70%" stop-color="#db2777" stop-opacity="0.62"/>
<stop offset="86%" stop-color="#f97316" stop-opacity="0.58"/>
<stop offset="100%" stop-color="#facc15" stop-opacity="0.48"/>
</linearGradient>
</defs>
<line x1="56" y1="156" x2="720" y2="156" stroke="#616e7f" stroke-width="1" opacity="0.35"/>
<line x1="56.00" y1="72" x2="56.00" y2="156" stroke="#616e7f" stroke-width="1" opacity="0.16"/>
<text x="56.00" y="174" text-anchor="middle" font-family="Consolas,monospace" font-size="8px" fill="#616e7f">00</text>
<line x1="84.87" y1="72" x2="84.87" y2="156" stroke="#616e7f" stroke-width="1" opacity="0.07"/>
<text x="84.87" y="174" text-anchor="middle" font-family="Consolas,monospace" font-size="8px" fill="#616e7f">01</text>
<line x1="113.74" y1="72" x2="113.74" y2="156" stroke="#616e7f" stroke-width="1" opacity="0.07"/>
<text x="113.74" y="174" text-anchor="middle" font-family="Consolas,monospace" font-size="8px" fill="#616e7f">02</text>
<line x1="142.61" y1="72" x2="142.61" y2="156" stroke="#616e7f" stroke-width="1" opacity="0.16"/>
<text x="142.61" y="174" text-anchor="middle" font-family="Consolas,monospace" font-size="8px" fill="#616e7f">03</text>
<line x1="171.48" y1="72" x2="171.48" y2="156" stroke="#616e7f" stroke-width="1" opacity="0.07"/>
<text x="171.48" y="174" text-anchor="middle" font-family="Consolas,monospace" font-size="8px" fill="#616e7f">04</text>
<line x1="200.35" y1="72" x2="200.35" y2="156" stroke="#616e7f" stroke-width="1" opacity="0.07"/>
<text x="200.35" y="174" text-anchor="middle" font-family="Consolas,monospace" font-size="8px" fill="#616e7f">05</text>
<line x1="229.22" y1="72" x2="229.22" y2="156" stroke="#616e7f" stroke-width="1" opacity="0.16"/>
<text x="229.22" y="174" text-anchor="middle" font-family="Consolas,monospace" font-size="8px" fill="#616e7f">06</text>
<line x1="258.09" y1="72" x2="258.09" y2="156" stroke="#616e7f" stroke-width="1" opacity="0.07"/>
<text x="258.09" y="174" text-anchor="middle" font-family="Consolas,monospace" font-size="8px" fill="#616e7f">07</text>
<line x1="286.96" y1="72" x2="286.96" y2="156" stroke="#616e7f" stroke-width="1" opacity="0.07"/>
<text x="286.96" y="174" text-anchor="middle" font-family="Consolas,monospace" font-size="8px" fill="#616e7f">08</text>
<line x1="315.83" y1="72" x2="315.83" y2="156" stroke="#616e7f" stroke-width="1" opacity="0.16"/>
<text x="315.83" y="174" text-anchor="middle" font-family="Consolas,monospace" font-size="8px" fill="#616e7f">09</text>
<line x1="344.70" y1="72" x2="344.70" y2="156" stroke="#616e7f" stroke-width="1" opacity="0.07"/>
<text x="344.70" y="174" text-anchor="middle" font-family="Consolas,monospace" font-size="8px" fill="#616e7f">10</text>
<line x1="373.57" y1="72" x2="373.57" y2="156" stroke="#616e7f" stroke-width="1" opacity="0.07"/>
<text x="373.57" y="174" text-anchor="middle" font-family="Consolas,monospace" font-size="8px" fill="#616e7f">11</text>
<line x1="402.43" y1="72" x2="402.43" y2="156" stroke="#616e7f" stroke-width="1" opacity="0.16"/>
<text x="402.43" y="174" text-anchor="middle" font-family="Consolas,monospace" font-size="8px" fill="#616e7f">12</text>
<line x1="431.30" y1="72" x2="431.30" y2="156" stroke="#616e7f" stroke-width="1" opacity="0.07"/>
<text x="431.30" y="174" text-anchor="middle" font-family="Consolas,monospace" font-size="8px" fill="#616e7f">13</text>
<line x1="460.17" y1="72" x2="460.17" y2="156" stroke="#616e7f" stroke-width="1" opacity="0.07"/>
<text x="460.17" y="174" text-anchor="middle" font-family="Consolas,monospace" font-size="8px" fill="#616e7f">14</text>
<line x1="489.04" y1="72" x2="489.04" y2="156" stroke="#616e7f" stroke-width="1" opacity="0.16"/>
<text x="489.04" y="174" text-anchor="middle" font-family="Consolas,monospace" font-size="8px" fill="#616e7f">15</text>
<line x1="517.91" y1="72" x2="517.91" y2="156" stroke="#616e7f" stroke-width="1" opacity="0.07"/>
<text x="517.91" y="174" text-anchor="middle" font-family="Consolas,monospace" font-size="8px" fill="#616e7f">16</text>
<line x1="546.78" y1="72" x2="546.78" y2="156" stroke="#616e7f" stroke-width="1" opacity="0.07"/>
<text x="546.78" y="174" text-anchor="middle" font-family="Consolas,monospace" font-size="8px" fill="#616e7f">17</text>
<line x1="575.65" y1="72" x2="575.65" y2="156" stroke="#616e7f" stroke-width="1" opacity="0.16"/>
<text x="575.65" y="174" text-anchor="middle" font-family="Consolas,monospace" font-size="8px" fill="#616e7f">18</text>
<line x1="604.52" y1="72" x2="604.52" y2="156" stroke="#616e7f" stroke-width="1" opacity="0.07"/>
<text x="604.52" y="174" text-anchor="middle" font-family="Consolas,monospace" font-size="8px" fill="#616e7f">19</text>
<line x1="633.39" y1="72" x2="633.39" y2="156" stroke="#616e7f" stroke-width="1" opacity="0.07"/>
<text x="633.39" y="174" text-anchor="middle" font-family="Consolas,monospace" font-size="8px" fill="#616e7f">20</text>
<line x1="662.26" y1="72" x2="662.26" y2="156" stroke="#616e7f" stroke-width="1" opacity="0.16"/>
<text x="662.26" y="174" text-anchor="middle" font-family="Consolas,monospace" font-size="8px" fill="#616e7f">21</text>
<line x1="691.13" y1="72" x2="691.13" y2="156" stroke="#616e7f" stroke-width="1" opacity="0.07"/>
<text x="691.13" y="174" text-anchor="middle" font-family="Consolas,monospace" font-size="8px" fill="#616e7f">22</text>
<line x1="720.00" y1="72" x2="720.00" y2="156" stroke="#616e7f" stroke-width="1" opacity="0.07"/>
<text x="720.00" y="174" text-anchor="middle" font-family="Consolas,monospace" font-size="8px" fill="#616e7f">23</text>
<path d="M 56.00 108.84 C 60.81 109.30, 75.25 109.06, 84.87 111.62 C 94.49 114.18, 104.12 119.96, 113.74 124.19 C 123.36 128.42, 132.99 133.13, 142.61 137.02 C 152.23 140.91, 161.86 145.29, 171.48 147.52 C 181.10 149.75, 190.72 149.79, 200.35 150.40 C 209.97 151.01, 219.59 151.03, 229.22 151.16 C 238.84 151.30, 248.46 151.90, 258.09 151.20 C 267.71 150.50, 277.33 147.09, 286.96 146.95 C 296.58 146.81, 306.20 149.44, 315.83 150.36 C 325.45 151.27, 335.07 152.48, 344.70 152.44 C 354.32 152.39, 363.94 151.47, 373.57 150.10 C 383.19 148.73, 392.81 148.59, 402.43 144.22 C 412.06 139.84, 421.68 128.75, 431.30 123.85 C 440.93 118.95, 450.55 120.79, 460.17 114.82 C 469.80 108.86, 479.42 95.19, 489.04 88.05 C 498.67 80.92, 508.29 71.89, 517.91 72.00 C 527.54 72.11, 537.16 84.31, 546.78 88.72 C 556.41 93.13, 566.03 95.88, 575.65 98.46 C 585.28 101.05, 594.90 104.40, 604.52 104.22 C 614.14 104.04, 623.77 98.75, 633.39 97.39 C 643.01 96.04, 652.64 95.33, 662.26 96.10 C 671.88 96.87, 681.51 101.17, 691.13 102.01 C 700.75 102.86, 715.19 101.32, 720.00 101.18 L 720.00 156.00 L 56.00 156.00 Z" fill="url(#hourFade)"/>
<path d="M 56.00 108.84 C 60.81 109.30, 75.25 109.06, 84.87 111.62 C 94.49 114.18, 104.12 119.96, 113.74 124.19 C 123.36 128.42, 132.99 133.13, 142.61 137.02 C 152.23 140.91, 161.86 145.29, 171.48 147.52 C 181.10 149.75, 190.72 149.79, 200.35 150.40 C 209.97 151.01, 219.59 151.03, 229.22 151.16 C 238.84 151.30, 248.46 151.90, 258.09 151.20 C 267.71 150.50, 277.33 147.09, 286.96 146.95 C 296.58 146.81, 306.20 149.44, 315.83 150.36 C 325.45 151.27, 335.07 152.48, 344.70 152.44 C 354.32 152.39, 363.94 151.47, 373.57 150.10 C 383.19 148.73, 392.81 148.59, 402.43 144.22 C 412.06 139.84, 421.68 128.75, 431.30 123.85 C 440.93 118.95, 450.55 120.79, 460.17 114.82 C 469.80 108.86, 479.42 95.19, 489.04 88.05 C 498.67 80.92, 508.29 71.89, 517.91 72.00 C 527.54 72.11, 537.16 84.31, 546.78 88.72 C 556.41 93.13, 566.03 95.88, 575.65 98.46 C 585.28 101.05, 594.90 104.40, 604.52 104.22 C 614.14 104.04, 623.77 98.75, 633.39 97.39 C 643.01 96.04, 652.64 95.33, 662.26 96.10 C 671.88 96.87, 681.51 101.17, 691.13 102.01 C 700.75 102.86, 715.19 101.32, 720.00 101.18" fill="none" stroke="url(#hourFill)" stroke-width="4" stroke-linecap="round"/>
<circle cx="56.00" cy="108.84" r="2.5" fill="#facc15" opacity="1"><title>00:00 - 9h 45m total</title></circle>
<circle cx="84.87" cy="111.62" r="2.5" fill="#facc15" opacity="1"><title>01:00 - 9h 10m total</title></circle>
<circle cx="113.74" cy="124.19" r="2.5" fill="#facc15" opacity="1"><title>02:00 - 6h 34m total</title></circle>
<circle cx="142.61" cy="137.02" r="2.5" fill="#facc15" opacity="1"><title>03:00 - 3h 55m total</title></circle>
<circle cx="171.48" cy="147.52" r="2.5" fill="#facc15" opacity="1"><title>04:00 - 1h 45m total</title></circle>
<circle cx="200.35" cy="150.40" r="2.5" fill="#facc15" opacity="1"><title>05:00 - 1h 9m total</title></circle>
<circle cx="229.22" cy="151.16" r="2.5" fill="#facc15" opacity="1"><title>06:00 - 1h 0m total</title></circle>
<circle cx="258.09" cy="151.20" r="2.5" fill="#facc15" opacity="1"><title>07:00 - 59m total</title></circle>
<circle cx="286.96" cy="146.95" r="2.5" fill="#facc15" opacity="1"><title>08:00 - 1h 52m total</title></circle>
<circle cx="315.83" cy="150.36" r="2.5" fill="#facc15" opacity="1"><title>09:00 - 1h 9m total</title></circle>
<circle cx="344.70" cy="152.44" r="2.5" fill="#facc15" opacity="1"><title>10:00 - 44m total</title></circle>
<circle cx="373.57" cy="150.10" r="2.5" fill="#facc15" opacity="1"><title>11:00 - 1h 13m total</title></circle>
<circle cx="402.43" cy="144.22" r="2.5" fill="#facc15" opacity="1"><title>12:00 - 2h 26m total</title></circle>
<circle cx="431.30" cy="123.85" r="2.5" fill="#facc15" opacity="1"><title>13:00 - 6h 38m total</title></circle>
<circle cx="460.17" cy="114.82" r="2.5" fill="#facc15" opacity="1"><title>14:00 - 8h 30m total</title></circle>
<circle cx="489.04" cy="88.05" r="2.5" fill="#facc15" opacity="1"><title>15:00 - 14h 3m total</title></circle>
<circle cx="517.91" cy="72.00" r="4" fill="#facc15" opacity="1"><title>16:00 - 17h 22m total</title></circle>
<circle cx="546.78" cy="88.72" r="2.5" fill="#facc15" opacity="1"><title>17:00 - 13h 54m total</title></circle>
<circle cx="575.65" cy="98.46" r="2.5" fill="#facc15" opacity="1"><title>18:00 - 11h 53m total</title></circle>
<circle cx="604.52" cy="104.22" r="2.5" fill="#facc15" opacity="1"><title>19:00 - 10h 42m total</title></circle>
<circle cx="633.39" cy="97.39" r="2.5" fill="#facc15" opacity="1"><title>20:00 - 12h 7m total</title></circle>
<circle cx="662.26" cy="96.10" r="2.5" fill="#facc15" opacity="1"><title>21:00 - 12h 23m total</title></circle>
<circle cx="691.13" cy="102.01" r="2.5" fill="#facc15" opacity="1"><title>22:00 - 11h 9m total</title></circle>
<circle cx="720.00" cy="101.18" r="2.5" fill="#facc15" opacity="1"><title>23:00 - 11h 20m total</title></circle>
<text x="20" y="191" font-family="Consolas,monospace" font-size="11px" fill="#616e7f">24-hour distribution across 30 days; higher curve = more coding time in that hour</text>
</svg>