<svg xmlns="http://www.w3.org/2000/svg" font-family="Consolas,monospace" width="760" height="260" font-size="14px"><rect width="760" height="260" fill="#161b22" rx="12"/>
<text x="20" y="34" font-family="Consolas,monospace" font-size="14px" fill="#616e7f">- Daily Activity  (last 30d) ——————————————————————————————————————————-—-</text>
<rect x="20" y="131" width="21" height="89" fill="#58a6ff" rx="2" opacity="0.85"/>
<text x="30" y="238" text-anchor="middle" font-family="Consolas,monospace" font-size="11px" fill="#616e7f">05/21</text>
<text x="30" y="127" text-anchor="middle" font-family="Consolas,monospace" font-size="10px" fill="#c9d1d9">6h 52m</text>
<rect x="44" y="202" width="21" height="18" fill="#58a6ff" rx="2" opacity="0.85"/>
<rect x="68" y="187" width="21" height="33" fill="#58a6ff" rx="2" opacity="0.85"/>
<rect x="92" y="189" width="21" height="31" fill="#58a6ff" rx="2" opacity="0.85"/>
<rect x="116" y="180" width="21" height="40" fill="#58a6ff" rx="2" opacity="0.85"/>
<rect x="140" y="151" width="21" height="69" fill="#58a6ff" rx="2" opacity="0.85"/>
<text x="150" y="238" text-anchor="middle" font-family="Consolas,monospace" font-size="11px" fill="#616e7f">05/26</text>
<text x="150" y="147" text-anchor="middle" font-family="Consolas,monospace" font-size="10px" fill="#c9d1d9">5h 21m</text>
<rect x="164" y="184" width="21" height="36" fill="#58a6ff" rx="2" opacity="0.85"/>
<rect x="188" y="142" width="21" height="78" fill="#58a6ff" rx="2" opacity="0.85"/>
<text x="198" y="138" text-anchor="middle" font-family="Consolas,monospace" font-size="10px" fill="#c9d1d9">5h 59m</text>
<rect x="212" y="174" width="21" height="46" fill="#58a6ff" rx="2" opacity="0.85"/>
<rect x="236" y="216" width="21" height="4" fill="#58a6ff" rx="2" opacity="0.85"/>
<rect x="260" y="135" width="21" height="85" fill="#58a6ff" rx="2" opacity="0.85"/>
<text x="270" y="238" text-anchor="middle" font-family="Consolas,monospace" font-size="11px" fill="#616e7f">05/31</text>
<text x="270" y="131" text-anchor="middle" font-family="Consolas,monospace" font-size="10px" fill="#c9d1d9">6h 34m</text>
<rect x="284" y="175" width="21" height="45" fill="#58a6ff" rx="2" opacity="0.85"/>
<rect x="308" y="218" width="21" height="2" fill="#58a6ff" rx="2" opacity="0.85"/>
<rect x="332" y="119" width="21" height="101" fill="#58a6ff" rx="2" opacity="0.85"/>
<text x="342" y="115" text-anchor="middle" font-family="Consolas,monospace" font-size="10px" fill="#c9d1d9">7h 49m</text>
<rect x="356" y="85" width="21" height="135" fill="#58a6ff" rx="2" opacity="0.85"/>
<text x="366" y="81" text-anchor="middle" font-family="Consolas,monospace" font-size="10px" fill="#c9d1d9">10h 23m</text>
<rect x="380" y="120" width="21" height="100" fill="#58a6ff" rx="2" opacity="0.85"/>
<text x="390" y="238" text-anchor="middle" font-family="Consolas,monospace" font-size="11px" fill="#616e7f">06/05</text>
<text x="390" y="116" text-anchor="middle" font-family="Consolas,monospace" font-size="10px" fill="#c9d1d9">7h 41m</text>
<rect x="404" y="110" width="21" height="110" fill="#58a6ff" rx="2" opacity="0.85"/>
<text x="414" y="106" text-anchor="middle" font-family="Consolas,monospace" font-size="10px" fill="#c9d1d9">8h 31m</text>
<rect x="428" y="127" width="21" height="93" fill="#58a6ff" rx="2" opacity="0.85"/>
<text x="438" y="123" text-anchor="middle" font-family="Consolas,monospace" font-size="10px" fill="#c9d1d9">7h 12m</text>
<rect x="452" y="99" width="21" height="121" fill="#58a6ff" rx="2" opacity="0.85"/>
<text x="462" y="95" text-anchor="middle" font-family="Consolas,monospace" font-size="10px" fill="#c9d1d9">9h 19m</text>
<rect x="476" y="103" width="21" height="117" fill="#58a6ff" rx="2" opacity="0.85"/>
<text x="486" y="99" text-anchor="middle" font-family="Consolas,monospace" font-size="10px" fill="#c9d1d9">8h 59m</text>
<rect x="500" y="111" width="21" height="109" fill="#58a6ff" rx="2" opacity="0.85"/>
<text x="510" y="238" text-anchor="middle" font-family="Consolas,monospace" font-size="11px" fill="#616e7f">06/10</text>
<text x="510" y="107" text-anchor="middle" font-family="Consolas,monospace" font-size="10px" fill="#c9d1d9">8h 23m</text>
<rect x="524" y="147" width="21" height="73" fill="#58a6ff" rx="2" opacity="0.85"/>
<text x="534" y="143" text-anchor="middle" font-family="Consolas,monospace" font-size="10px" fill="#c9d1d9">5h 40m</text>
<rect x="548" y="200" width="21" height="20" fill="#58a6ff" rx="2" opacity="0.85"/>
<rect x="572" y="115" width="21" height="105" fill="#58a6ff" rx="2" opacity="0.85"/>
<text x="582" y="111" text-anchor="middle" font-family="Consolas,monospace" font-size="10px" fill="#c9d1d9">8h 4m</text>
<rect x="596" y="107" width="21" height="113" fill="#58a6ff" rx="2" opacity="0.85"/>
<text x="606" y="103" text-anchor="middle" font-family="Consolas,monospace" font-size="10px" fill="#c9d1d9">8h 42m</text>
<rect x="620" y="93" width="21" height="127" fill="#58a6ff" rx="2" opacity="0.85"/>
<text x="630" y="238" text-anchor="middle" font-family="Consolas,monospace" font-size="11px" fill="#616e7f">06/15</text>
<text x="630" y="89" text-anchor="middle" font-family="Consolas,monospace" font-size="10px" fill="#c9d1d9">9h 49m</text>
<rect x="644" y="155" width="21" height="65" fill="#58a6ff" rx="2" opacity="0.85"/>
<text x="654" y="151" text-anchor="middle" font-family="Consolas,monospace" font-size="10px" fill="#c9d1d9">4h 59m</text>
<rect x="668" y="104" width="21" height="116" fill="#58a6ff" rx="2" opacity="0.85"/>
<text x="678" y="100" text-anchor="middle" font-family="Consolas,monospace" font-size="10px" fill="#c9d1d9">8h 57m</text>
<rect x="692" y="60" width="21" height="160" fill="#58a6ff" rx="2" opacity="0.85"/>
<text x="702" y="56" text-anchor="middle" font-family="Consolas,monospace" font-size="10px" fill="#c9d1d9">12h 17m</text>
<rect x="716" y="203" width="21" height="17" fill="#58a6ff" rx="2" opacity="0.85"/>
<text x="726" y="238" text-anchor="middle" font-family="Consolas,monospace" font-size="11px" fill="#616e7f">06/19</text>
<line x1="20" y1="145" x2="740" y2="145" stroke="#f85149" stroke-width="1" stroke-dasharray="4,3" opacity="0.7"/>
<text x="738" y="141" text-anchor="end" font-family="Consolas,monospace" font-size="10px" fill="#f85149">avg 5h 48m</text>
</svg>