<svg xmlns="http://www.w3.org/2000/svg" font-family="Consolas,monospace" width="760" height="205" font-size="14px"><rect width="760" height="205" fill="#161b22" rx="12"/>
<text x="20" y="34" font-family="Consolas,monospace" font-size="14px" fill="#616e7f">- Working Hours  (last 30d) ———————————————————————————————————————————-—-</text>
<text x="20" y="50" font-family="Consolas,monospace" font-size="12px" fill="#616e7f">total 163h 1m | peak 4h 15:00-19:00 | busiest 16:00 (16h 14m) | tz Asia/Ho_Chi_Minh</text>
<defs>
<linearGradient id="hourFill" x1="0" y1="0" x2="1" y2="0">
<stop offset="0%" stop-color="#1d4ed8"/>
<stop offset="45%" stop-color="#7c3aed"/>
<stop offset="75%" stop-color="#db2777"/>
<stop offset="100%" stop-color="#facc15"/>
</linearGradient>
<linearGradient id="hourFade" x1="0" y1="0" x2="1" y2="0">
<stop offset="0%" stop-color="#1d4ed8" stop-opacity="0.42"/>
<stop offset="28%" stop-color="#2563eb" stop-opacity="0.5"/>
<stop offset="50%" stop-color="#7c3aed" stop-opacity="0.58"/>
<stop offset="70%" stop-color="#db2777" stop-opacity="0.62"/>
<stop offset="86%" stop-color="#f97316" stop-opacity="0.58"/>
<stop offset="100%" stop-color="#facc15" stop-opacity="0.48"/>
</linearGradient>
</defs>
<line x1="56" y1="156" x2="720" y2="156" stroke="#616e7f" stroke-width="1" opacity="0.35"/>
<line x1="56.00" y1="72" x2="56.00" y2="156" stroke="#616e7f" stroke-width="1" opacity="0.16"/>
<text x="56.00" y="174" text-anchor="middle" font-family="Consolas,monospace" font-size="8px" fill="#616e7f">00</text>
<line x1="84.87" y1="72" x2="84.87" y2="156" stroke="#616e7f" stroke-width="1" opacity="0.07"/>
<text x="84.87" y="174" text-anchor="middle" font-family="Consolas,monospace" font-size="8px" fill="#616e7f">01</text>
<line x1="113.74" y1="72" x2="113.74" y2="156" stroke="#616e7f" stroke-width="1" opacity="0.07"/>
<text x="113.74" y="174" text-anchor="middle" font-family="Consolas,monospace" font-size="8px" fill="#616e7f">02</text>
<line x1="142.61" y1="72" x2="142.61" y2="156" stroke="#616e7f" stroke-width="1" opacity="0.16"/>
<text x="142.61" y="174" text-anchor="middle" font-family="Consolas,monospace" font-size="8px" fill="#616e7f">03</text>
<line x1="171.48" y1="72" x2="171.48" y2="156" stroke="#616e7f" stroke-width="1" opacity="0.07"/>
<text x="171.48" y="174" text-anchor="middle" font-family="Consolas,monospace" font-size="8px" fill="#616e7f">04</text>
<line x1="200.35" y1="72" x2="200.35" y2="156" stroke="#616e7f" stroke-width="1" opacity="0.07"/>
<text x="200.35" y="174" text-anchor="middle" font-family="Consolas,monospace" font-size="8px" fill="#616e7f">05</text>
<line x1="229.22" y1="72" x2="229.22" y2="156" stroke="#616e7f" stroke-width="1" opacity="0.16"/>
<text x="229.22" y="174" text-anchor="middle" font-family="Consolas,monospace" font-size="8px" fill="#616e7f">06</text>
<line x1="258.09" y1="72" x2="258.09" y2="156" stroke="#616e7f" stroke-width="1" opacity="0.07"/>
<text x="258.09" y="174" text-anchor="middle" font-family="Consolas,monospace" font-size="8px" fill="#616e7f">07</text>
<line x1="286.96" y1="72" x2="286.96" y2="156" stroke="#616e7f" stroke-width="1" opacity="0.07"/>
<text x="286.96" y="174" text-anchor="middle" font-family="Consolas,monospace" font-size="8px" fill="#616e7f">08</text>
<line x1="315.83" y1="72" x2="315.83" y2="156" stroke="#616e7f" stroke-width="1" opacity="0.16"/>
<text x="315.83" y="174" text-anchor="middle" font-family="Consolas,monospace" font-size="8px" fill="#616e7f">09</text>
<line x1="344.70" y1="72" x2="344.70" y2="156" stroke="#616e7f" stroke-width="1" opacity="0.07"/>
<text x="344.70" y="174" text-anchor="middle" font-family="Consolas,monospace" font-size="8px" fill="#616e7f">10</text>
<line x1="373.57" y1="72" x2="373.57" y2="156" stroke="#616e7f" stroke-width="1" opacity="0.07"/>
<text x="373.57" y="174" text-anchor="middle" font-family="Consolas,monospace" font-size="8px" fill="#616e7f">11</text>
<line x1="402.43" y1="72" x2="402.43" y2="156" stroke="#616e7f" stroke-width="1" opacity="0.16"/>
<text x="402.43" y="174" text-anchor="middle" font-family="Consolas,monospace" font-size="8px" fill="#616e7f">12</text>
<line x1="431.30" y1="72" x2="431.30" y2="156" stroke="#616e7f" stroke-width="1" opacity="0.07"/>
<text x="431.30" y="174" text-anchor="middle" font-family="Consolas,monospace" font-size="8px" fill="#616e7f">13</text>
<line x1="460.17" y1="72" x2="460.17" y2="156" stroke="#616e7f" stroke-width="1" opacity="0.07"/>
<text x="460.17" y="174" text-anchor="middle" font-family="Consolas,monospace" font-size="8px" fill="#616e7f">14</text>
<line x1="489.04" y1="72" x2="489.04" y2="156" stroke="#616e7f" stroke-width="1" opacity="0.16"/>
<text x="489.04" y="174" text-anchor="middle" font-family="Consolas,monospace" font-size="8px" fill="#616e7f">15</text>
<line x1="517.91" y1="72" x2="517.91" y2="156" stroke="#616e7f" stroke-width="1" opacity="0.07"/>
<text x="517.91" y="174" text-anchor="middle" font-family="Consolas,monospace" font-size="8px" fill="#616e7f">16</text>
<line x1="546.78" y1="72" x2="546.78" y2="156" stroke="#616e7f" stroke-width="1" opacity="0.07"/>
<text x="546.78" y="174" text-anchor="middle" font-family="Consolas,monospace" font-size="8px" fill="#616e7f">17</text>
<line x1="575.65" y1="72" x2="575.65" y2="156" stroke="#616e7f" stroke-width="1" opacity="0.16"/>
<text x="575.65" y="174" text-anchor="middle" font-family="Consolas,monospace" font-size="8px" fill="#616e7f">18</text>
<line x1="604.52" y1="72" x2="604.52" y2="156" stroke="#616e7f" stroke-width="1" opacity="0.07"/>
<text x="604.52" y="174" text-anchor="middle" font-family="Consolas,monospace" font-size="8px" fill="#616e7f">19</text>
<line x1="633.39" y1="72" x2="633.39" y2="156" stroke="#616e7f" stroke-width="1" opacity="0.07"/>
<text x="633.39" y="174" text-anchor="middle" font-family="Consolas,monospace" font-size="8px" fill="#616e7f">20</text>
<line x1="662.26" y1="72" x2="662.26" y2="156" stroke="#616e7f" stroke-width="1" opacity="0.16"/>
<text x="662.26" y="174" text-anchor="middle" font-family="Consolas,monospace" font-size="8px" fill="#616e7f">21</text>
<line x1="691.13" y1="72" x2="691.13" y2="156" stroke="#616e7f" stroke-width="1" opacity="0.07"/>
<text x="691.13" y="174" text-anchor="middle" font-family="Consolas,monospace" font-size="8px" fill="#616e7f">22</text>
<line x1="720.00" y1="72" x2="720.00" y2="156" stroke="#616e7f" stroke-width="1" opacity="0.07"/>
<text x="720.00" y="174" text-anchor="middle" font-family="Consolas,monospace" font-size="8px" fill="#616e7f">23</text>
<path d="M 56.00 102.71 C 60.81 103.06, 75.25 100.90, 84.87 104.81 C 94.49 108.71, 104.12 119.66, 113.74 126.15 C 123.36 132.64, 132.99 139.90, 142.61 143.74 C 152.23 147.58, 161.86 148.15, 171.48 149.19 C 181.10 150.24, 190.72 149.74, 200.35 150.01 C 209.97 150.28, 219.59 150.68, 229.22 150.83 C 238.84 150.97, 248.46 151.62, 258.09 150.87 C 267.71 150.12, 277.33 146.50, 286.96 146.32 C 296.58 146.14, 306.20 148.66, 315.83 149.78 C 325.45 150.90, 335.07 152.54, 344.70 153.06 C 354.32 153.59, 363.94 154.49, 373.57 152.94 C 383.19 151.40, 392.81 148.21, 402.43 143.78 C 412.06 139.35, 421.68 130.96, 431.30 126.34 C 440.93 121.73, 450.55 122.76, 460.17 116.11 C 469.80 109.46, 479.42 93.80, 489.04 86.45 C 498.67 79.09, 508.29 71.90, 517.91 72.00 C 527.54 72.10, 537.16 83.00, 546.78 87.02 C 556.41 91.05, 566.03 94.05, 575.65 96.16 C 585.28 98.27, 594.90 99.55, 604.52 99.68 C 614.14 99.82, 623.77 96.95, 633.39 96.99 C 643.01 97.02, 652.64 99.38, 662.26 99.88 C 671.88 100.38, 681.51 100.61, 691.13 99.96 C 700.75 99.31, 715.19 96.65, 720.00 95.99 L 720.00 156.00 L 56.00 156.00 Z" fill="url(#hourFade)"/>
<path d="M 56.00 102.71 C 60.81 103.06, 75.25 100.90, 84.87 104.81 C 94.49 108.71, 104.12 119.66, 113.74 126.15 C 123.36 132.64, 132.99 139.90, 142.61 143.74 C 152.23 147.58, 161.86 148.15, 171.48 149.19 C 181.10 150.24, 190.72 149.74, 200.35 150.01 C 209.97 150.28, 219.59 150.68, 229.22 150.83 C 238.84 150.97, 248.46 151.62, 258.09 150.87 C 267.71 150.12, 277.33 146.50, 286.96 146.32 C 296.58 146.14, 306.20 148.66, 315.83 149.78 C 325.45 150.90, 335.07 152.54, 344.70 153.06 C 354.32 153.59, 363.94 154.49, 373.57 152.94 C 383.19 151.40, 392.81 148.21, 402.43 143.78 C 412.06 139.35, 421.68 130.96, 431.30 126.34 C 440.93 121.73, 450.55 122.76, 460.17 116.11 C 469.80 109.46, 479.42 93.80, 489.04 86.45 C 498.67 79.09, 508.29 71.90, 517.91 72.00 C 527.54 72.10, 537.16 83.00, 546.78 87.02 C 556.41 91.05, 566.03 94.05, 575.65 96.16 C 585.28 98.27, 594.90 99.55, 604.52 99.68 C 614.14 99.82, 623.77 96.95, 633.39 96.99 C 643.01 97.02, 652.64 99.38, 662.26 99.88 C 671.88 100.38, 681.51 100.61, 691.13 99.96 C 700.75 99.31, 715.19 96.65, 720.00 95.99" fill="none" stroke="url(#hourFill)" stroke-width="4" stroke-linecap="round"/>
<circle cx="56.00" cy="102.71" r="2.5" fill="#facc15" opacity="1"><title>00:00 - 10h 18m total</title></circle>
<circle cx="84.87" cy="104.81" r="2.5" fill="#facc15" opacity="1"><title>01:00 - 9h 53m total</title></circle>
<circle cx="113.74" cy="126.15" r="2.5" fill="#facc15" opacity="1"><title>02:00 - 5h 46m total</title></circle>
<circle cx="142.61" cy="143.74" r="2.5" fill="#facc15" opacity="1"><title>03:00 - 2h 22m total</title></circle>
<circle cx="171.48" cy="149.19" r="2.5" fill="#facc15" opacity="1"><title>04:00 - 1h 18m total</title></circle>
<circle cx="200.35" cy="150.01" r="2.5" fill="#facc15" opacity="1"><title>05:00 - 1h 9m total</title></circle>
<circle cx="229.22" cy="150.83" r="2.5" fill="#facc15" opacity="1"><title>06:00 - 1h 0m total</title></circle>
<circle cx="258.09" cy="150.87" r="2.5" fill="#facc15" opacity="1"><title>07:00 - 59m total</title></circle>
<circle cx="286.96" cy="146.32" r="2.5" fill="#facc15" opacity="1"><title>08:00 - 1h 52m total</title></circle>
<circle cx="315.83" cy="149.78" r="2.5" fill="#facc15" opacity="1"><title>09:00 - 1h 12m total</title></circle>
<circle cx="344.70" cy="153.06" r="2.5" fill="#facc15" opacity="1"><title>10:00 - 34m total</title></circle>
<circle cx="373.57" cy="152.94" r="2.5" fill="#facc15" opacity="1"><title>11:00 - 35m total</title></circle>
<circle cx="402.43" cy="143.78" r="2.5" fill="#facc15" opacity="1"><title>12:00 - 2h 21m total</title></circle>
<circle cx="431.30" cy="126.34" r="2.5" fill="#facc15" opacity="1"><title>13:00 - 5h 44m total</title></circle>
<circle cx="460.17" cy="116.11" r="2.5" fill="#facc15" opacity="1"><title>14:00 - 7h 42m total</title></circle>
<circle cx="489.04" cy="86.45" r="2.5" fill="#facc15" opacity="1"><title>15:00 - 13h 26m total</title></circle>
<circle cx="517.91" cy="72.00" r="4" fill="#facc15" opacity="1"><title>16:00 - 16h 14m total</title></circle>
<circle cx="546.78" cy="87.02" r="2.5" fill="#facc15" opacity="1"><title>17:00 - 13h 20m total</title></circle>
<circle cx="575.65" cy="96.16" r="2.5" fill="#facc15" opacity="1"><title>18:00 - 11h 34m total</title></circle>
<circle cx="604.52" cy="99.68" r="2.5" fill="#facc15" opacity="1"><title>19:00 - 10h 53m total</title></circle>
<circle cx="633.39" cy="96.99" r="2.5" fill="#facc15" opacity="1"><title>20:00 - 11h 24m total</title></circle>
<circle cx="662.26" cy="99.88" r="2.5" fill="#facc15" opacity="1"><title>21:00 - 10h 51m total</title></circle>
<circle cx="691.13" cy="99.96" r="2.5" fill="#facc15" opacity="1"><title>22:00 - 10h 50m total</title></circle>
<circle cx="720.00" cy="95.99" r="2.5" fill="#facc15" opacity="1"><title>23:00 - 11h 36m total</title></circle>
<text x="20" y="191" font-family="Consolas,monospace" font-size="11px" fill="#616e7f">24-hour distribution across 30 days; higher curve = more coding time in that hour</text>
</svg>