<svg xmlns="http://www.w3.org/2000/svg" font-family="Consolas,monospace" width="760" height="205" font-size="14px"><rect width="760" height="205" fill="#161b22" rx="12"/>
<text x="20" y="34" font-family="Consolas,monospace" font-size="14px" fill="#616e7f">- Working Hours  (last 30d) ———————————————————————————————————————————-—-</text>
<text x="20" y="50" font-family="Consolas,monospace" font-size="12px" fill="#616e7f">total 133h 33m | peak 4h 23:00-03:00 | busiest 00:00 (11h 12m) | tz Asia/Ho_Chi_Minh</text>
<defs>
<linearGradient id="hourFill" x1="0" y1="0" x2="1" y2="0">
<stop offset="0%" stop-color="#1d4ed8"/>
<stop offset="45%" stop-color="#7c3aed"/>
<stop offset="75%" stop-color="#db2777"/>
<stop offset="100%" stop-color="#facc15"/>
</linearGradient>
<linearGradient id="hourFade" x1="0" y1="0" x2="1" y2="0">
<stop offset="0%" stop-color="#1d4ed8" stop-opacity="0.42"/>
<stop offset="28%" stop-color="#2563eb" stop-opacity="0.5"/>
<stop offset="50%" stop-color="#7c3aed" stop-opacity="0.58"/>
<stop offset="70%" stop-color="#db2777" stop-opacity="0.62"/>
<stop offset="86%" stop-color="#f97316" stop-opacity="0.58"/>
<stop offset="100%" stop-color="#facc15" stop-opacity="0.48"/>
</linearGradient>
</defs>
<line x1="56" y1="156" x2="720" y2="156" stroke="#616e7f" stroke-width="1" opacity="0.35"/>
<line x1="56.00" y1="72" x2="56.00" y2="156" stroke="#616e7f" stroke-width="1" opacity="0.16"/>
<text x="56.00" y="174" text-anchor="middle" font-family="Consolas,monospace" font-size="8px" fill="#616e7f">00</text>
<line x1="84.87" y1="72" x2="84.87" y2="156" stroke="#616e7f" stroke-width="1" opacity="0.07"/>
<text x="84.87" y="174" text-anchor="middle" font-family="Consolas,monospace" font-size="8px" fill="#616e7f">01</text>
<line x1="113.74" y1="72" x2="113.74" y2="156" stroke="#616e7f" stroke-width="1" opacity="0.07"/>
<text x="113.74" y="174" text-anchor="middle" font-family="Consolas,monospace" font-size="8px" fill="#616e7f">02</text>
<line x1="142.61" y1="72" x2="142.61" y2="156" stroke="#616e7f" stroke-width="1" opacity="0.16"/>
<text x="142.61" y="174" text-anchor="middle" font-family="Consolas,monospace" font-size="8px" fill="#616e7f">03</text>
<line x1="171.48" y1="72" x2="171.48" y2="156" stroke="#616e7f" stroke-width="1" opacity="0.07"/>
<text x="171.48" y="174" text-anchor="middle" font-family="Consolas,monospace" font-size="8px" fill="#616e7f">04</text>
<line x1="200.35" y1="72" x2="200.35" y2="156" stroke="#616e7f" stroke-width="1" opacity="0.07"/>
<text x="200.35" y="174" text-anchor="middle" font-family="Consolas,monospace" font-size="8px" fill="#616e7f">05</text>
<line x1="229.22" y1="72" x2="229.22" y2="156" stroke="#616e7f" stroke-width="1" opacity="0.16"/>
<text x="229.22" y="174" text-anchor="middle" font-family="Consolas,monospace" font-size="8px" fill="#616e7f">06</text>
<line x1="258.09" y1="72" x2="258.09" y2="156" stroke="#616e7f" stroke-width="1" opacity="0.07"/>
<text x="258.09" y="174" text-anchor="middle" font-family="Consolas,monospace" font-size="8px" fill="#616e7f">07</text>
<line x1="286.96" y1="72" x2="286.96" y2="156" stroke="#616e7f" stroke-width="1" opacity="0.07"/>
<text x="286.96" y="174" text-anchor="middle" font-family="Consolas,monospace" font-size="8px" fill="#616e7f">08</text>
<line x1="315.83" y1="72" x2="315.83" y2="156" stroke="#616e7f" stroke-width="1" opacity="0.16"/>
<text x="315.83" y="174" text-anchor="middle" font-family="Consolas,monospace" font-size="8px" fill="#616e7f">09</text>
<line x1="344.70" y1="72" x2="344.70" y2="156" stroke="#616e7f" stroke-width="1" opacity="0.07"/>
<text x="344.70" y="174" text-anchor="middle" font-family="Consolas,monospace" font-size="8px" fill="#616e7f">10</text>
<line x1="373.57" y1="72" x2="373.57" y2="156" stroke="#616e7f" stroke-width="1" opacity="0.07"/>
<text x="373.57" y="174" text-anchor="middle" font-family="Consolas,monospace" font-size="8px" fill="#616e7f">11</text>
<line x1="402.43" y1="72" x2="402.43" y2="156" stroke="#616e7f" stroke-width="1" opacity="0.16"/>
<text x="402.43" y="174" text-anchor="middle" font-family="Consolas,monospace" font-size="8px" fill="#616e7f">12</text>
<line x1="431.30" y1="72" x2="431.30" y2="156" stroke="#616e7f" stroke-width="1" opacity="0.07"/>
<text x="431.30" y="174" text-anchor="middle" font-family="Consolas,monospace" font-size="8px" fill="#616e7f">13</text>
<line x1="460.17" y1="72" x2="460.17" y2="156" stroke="#616e7f" stroke-width="1" opacity="0.07"/>
<text x="460.17" y="174" text-anchor="middle" font-family="Consolas,monospace" font-size="8px" fill="#616e7f">14</text>
<line x1="489.04" y1="72" x2="489.04" y2="156" stroke="#616e7f" stroke-width="1" opacity="0.16"/>
<text x="489.04" y="174" text-anchor="middle" font-family="Consolas,monospace" font-size="8px" fill="#616e7f">15</text>
<line x1="517.91" y1="72" x2="517.91" y2="156" stroke="#616e7f" stroke-width="1" opacity="0.07"/>
<text x="517.91" y="174" text-anchor="middle" font-family="Consolas,monospace" font-size="8px" fill="#616e7f">16</text>
<line x1="546.78" y1="72" x2="546.78" y2="156" stroke="#616e7f" stroke-width="1" opacity="0.07"/>
<text x="546.78" y="174" text-anchor="middle" font-family="Consolas,monospace" font-size="8px" fill="#616e7f">17</text>
<line x1="575.65" y1="72" x2="575.65" y2="156" stroke="#616e7f" stroke-width="1" opacity="0.16"/>
<text x="575.65" y="174" text-anchor="middle" font-family="Consolas,monospace" font-size="8px" fill="#616e7f">18</text>
<line x1="604.52" y1="72" x2="604.52" y2="156" stroke="#616e7f" stroke-width="1" opacity="0.07"/>
<text x="604.52" y="174" text-anchor="middle" font-family="Consolas,monospace" font-size="8px" fill="#616e7f">19</text>
<line x1="633.39" y1="72" x2="633.39" y2="156" stroke="#616e7f" stroke-width="1" opacity="0.07"/>
<text x="633.39" y="174" text-anchor="middle" font-family="Consolas,monospace" font-size="8px" fill="#616e7f">20</text>
<line x1="662.26" y1="72" x2="662.26" y2="156" stroke="#616e7f" stroke-width="1" opacity="0.16"/>
<text x="662.26" y="174" text-anchor="middle" font-family="Consolas,monospace" font-size="8px" fill="#616e7f">21</text>
<line x1="691.13" y1="72" x2="691.13" y2="156" stroke="#616e7f" stroke-width="1" opacity="0.07"/>
<text x="691.13" y="174" text-anchor="middle" font-family="Consolas,monospace" font-size="8px" fill="#616e7f">22</text>
<line x1="720.00" y1="72" x2="720.00" y2="156" stroke="#616e7f" stroke-width="1" opacity="0.07"/>
<text x="720.00" y="174" text-anchor="middle" font-family="Consolas,monospace" font-size="8px" fill="#616e7f">23</text>
<path d="M 56.00 72.00 C 60.81 73.99, 75.25 79.17, 84.87 83.96 C 94.49 88.74, 104.12 96.58, 113.74 100.72 C 123.36 104.86, 132.99 102.51, 142.61 108.79 C 152.23 115.07, 161.86 132.80, 171.48 138.38 C 181.10 143.96, 190.72 139.73, 200.35 142.29 C 209.97 144.84, 219.59 152.68, 229.22 153.72 C 238.84 154.76, 248.46 149.71, 258.09 148.51 C 267.71 147.30, 277.33 147.46, 286.96 146.49 C 296.58 145.53, 306.20 144.04, 315.83 142.71 C 325.45 141.37, 335.07 137.83, 344.70 138.46 C 354.32 139.09, 363.94 144.36, 373.57 146.47 C 383.19 148.57, 392.81 152.87, 402.43 151.09 C 412.06 149.31, 421.68 142.39, 431.30 135.78 C 440.93 129.17, 450.55 119.65, 460.17 111.43 C 469.80 103.20, 479.42 92.88, 489.04 86.43 C 498.67 79.98, 508.29 71.78, 517.91 72.74 C 527.54 73.69, 537.16 88.22, 546.78 92.17 C 556.41 96.11, 566.03 95.75, 575.65 96.40 C 585.28 97.04, 594.90 96.39, 604.52 96.06 C 614.14 95.73, 623.77 93.54, 633.39 94.43 C 643.01 95.33, 652.64 100.16, 662.26 101.42 C 671.88 102.68, 681.51 105.48, 691.13 102.00 C 700.75 98.51, 715.19 84.11, 720.00 80.53 L 720.00 156.00 L 56.00 156.00 Z" fill="url(#hourFade)"/>
<path d="M 56.00 72.00 C 60.81 73.99, 75.25 79.17, 84.87 83.96 C 94.49 88.74, 104.12 96.58, 113.74 100.72 C 123.36 104.86, 132.99 102.51, 142.61 108.79 C 152.23 115.07, 161.86 132.80, 171.48 138.38 C 181.10 143.96, 190.72 139.73, 200.35 142.29 C 209.97 144.84, 219.59 152.68, 229.22 153.72 C 238.84 154.76, 248.46 149.71, 258.09 148.51 C 267.71 147.30, 277.33 147.46, 286.96 146.49 C 296.58 145.53, 306.20 144.04, 315.83 142.71 C 325.45 141.37, 335.07 137.83, 344.70 138.46 C 354.32 139.09, 363.94 144.36, 373.57 146.47 C 383.19 148.57, 392.81 152.87, 402.43 151.09 C 412.06 149.31, 421.68 142.39, 431.30 135.78 C 440.93 129.17, 450.55 119.65, 460.17 111.43 C 469.80 103.20, 479.42 92.88, 489.04 86.43 C 498.67 79.98, 508.29 71.78, 517.91 72.74 C 527.54 73.69, 537.16 88.22, 546.78 92.17 C 556.41 96.11, 566.03 95.75, 575.65 96.40 C 585.28 97.04, 594.90 96.39, 604.52 96.06 C 614.14 95.73, 623.77 93.54, 633.39 94.43 C 643.01 95.33, 652.64 100.16, 662.26 101.42 C 671.88 102.68, 681.51 105.48, 691.13 102.00 C 700.75 98.51, 715.19 84.11, 720.00 80.53" fill="none" stroke="url(#hourFill)" stroke-width="4" stroke-linecap="round"/>
<circle cx="56.00" cy="72.00" r="4" fill="#facc15" opacity="1"><title>00:00 - 11h 12m total</title></circle>
<circle cx="84.87" cy="83.96" r="2.5" fill="#facc15" opacity="1"><title>01:00 - 9h 36m total</title></circle>
<circle cx="113.74" cy="100.72" r="2.5" fill="#facc15" opacity="1"><title>02:00 - 7h 22m total</title></circle>
<circle cx="142.61" cy="108.79" r="2.5" fill="#facc15" opacity="1"><title>03:00 - 6h 17m total</title></circle>
<circle cx="171.48" cy="138.38" r="2.5" fill="#facc15" opacity="1"><title>04:00 - 2h 21m total</title></circle>
<circle cx="200.35" cy="142.29" r="2.5" fill="#facc15" opacity="1"><title>05:00 - 1h 49m total</title></circle>
<circle cx="229.22" cy="153.72" r="2.5" fill="#facc15" opacity="1"><title>06:00 - 18m total</title></circle>
<circle cx="258.09" cy="148.51" r="2.5" fill="#facc15" opacity="1"><title>07:00 - 1h 0m total</title></circle>
<circle cx="286.96" cy="146.49" r="2.5" fill="#facc15" opacity="1"><title>08:00 - 1h 16m total</title></circle>
<circle cx="315.83" cy="142.71" r="2.5" fill="#facc15" opacity="1"><title>09:00 - 1h 46m total</title></circle>
<circle cx="344.70" cy="138.46" r="2.5" fill="#facc15" opacity="1"><title>10:00 - 2h 20m total</title></circle>
<circle cx="373.57" cy="146.47" r="2.5" fill="#facc15" opacity="1"><title>11:00 - 1h 16m total</title></circle>
<circle cx="402.43" cy="151.09" r="2.5" fill="#facc15" opacity="1"><title>12:00 - 39m total</title></circle>
<circle cx="431.30" cy="135.78" r="2.5" fill="#facc15" opacity="1"><title>13:00 - 2h 41m total</title></circle>
<circle cx="460.17" cy="111.43" r="2.5" fill="#facc15" opacity="1"><title>14:00 - 5h 56m total</title></circle>
<circle cx="489.04" cy="86.43" r="2.5" fill="#facc15" opacity="1"><title>15:00 - 9h 16m total</title></circle>
<circle cx="517.91" cy="72.74" r="2.5" fill="#facc15" opacity="1"><title>16:00 - 11h 6m total</title></circle>
<circle cx="546.78" cy="92.17" r="2.5" fill="#facc15" opacity="1"><title>17:00 - 8h 31m total</title></circle>
<circle cx="575.65" cy="96.40" r="2.5" fill="#facc15" opacity="1"><title>18:00 - 7h 57m total</title></circle>
<circle cx="604.52" cy="96.06" r="2.5" fill="#facc15" opacity="1"><title>19:00 - 7h 59m total</title></circle>
<circle cx="633.39" cy="94.43" r="2.5" fill="#facc15" opacity="1"><title>20:00 - 8h 12m total</title></circle>
<circle cx="662.26" cy="101.42" r="2.5" fill="#facc15" opacity="1"><title>21:00 - 7h 16m total</title></circle>
<circle cx="691.13" cy="102.00" r="2.5" fill="#facc15" opacity="1"><title>22:00 - 7h 12m total</title></circle>
<circle cx="720.00" cy="80.53" r="2.5" fill="#facc15" opacity="1"><title>23:00 - 10h 4m total</title></circle>
<text x="20" y="191" font-family="Consolas,monospace" font-size="11px" fill="#616e7f">24-hour distribution across 30 days; higher curve = more coding time in that hour</text>
</svg>