<svg xmlns="http://www.w3.org/2000/svg" font-family="Consolas,monospace" width="340" height="300" font-size="14px"><rect width="340" height="300" fill="#161b22" rx="12"/>
<text x="15" y="29" font-family="Consolas,monospace" font-size="14px" fill="#616e7f">- Editors  (last 30d) —————————-—-</text>
<path d="M 110.00 92.00 L 110.00 70.00 A 85 85 0 0 1 192.88 173.89 L 171.43 169.00 A 63 63 0 0 0 110.00 92.00 Z" fill="#58a6ff" stroke="#161b22" stroke-width="2"/>
<path d="M 171.43 169.00 L 192.88 173.89 A 85 85 0 0 1 106.76 239.94 L 107.60 217.95 A 63 63 0 0 0 171.43 169.00 Z" fill="#3fb950" stroke="#161b22" stroke-width="2"/>
<path d="M 107.60 217.95 L 106.76 239.94 A 85 85 0 0 1 26.01 168.03 L 47.75 164.66 A 63 63 0 0 0 107.60 217.95 Z" fill="#ffa657" stroke="#161b22" stroke-width="2"/>
<path d="M 47.75 164.66 L 26.01 168.03 A 85 85 0 0 1 37.27 111.01 L 56.09 122.39 A 63 63 0 0 0 47.75 164.66 Z" fill="#f85149" stroke="#161b22" stroke-width="2"/>
<path d="M 56.09 122.39 L 37.27 111.01 A 85 85 0 0 1 72.21 78.86 L 81.99 98.57 A 63 63 0 0 0 56.09 122.39 Z" fill="#d2a8ff" stroke="#161b22" stroke-width="2"/>
<path d="M 81.99 98.57 L 72.21 78.86 A 85 85 0 0 1 110.00 70.00 L 110.00 92.00 A 63 63 0 0 0 81.99 98.57 Z" fill="#79c0ff" stroke="#161b22" stroke-width="2"/>
<text x="110" y="147" text-anchor="middle" font-family="Consolas,monospace" font-size="11px" fill="#616e7f">avg/day</text>
<text x="110" y="167" text-anchor="middle" font-family="Consolas,monospace" font-size="16px" font-weight="bold" fill="#58a6ff">4h 47m</text>
<rect x="210" y="50" width="10" height="10" fill="#58a6ff" rx="2"/>
<text x="226" y="60" font-family="Consolas,monospace" font-size="13px" fill="#c9d1d9">Opencode Cli</text>
<text x="226" y="73" font-family="Consolas,monospace" font-size="11px" fill="#616e7f">26.3%  39 hrs 55 mins</text>
<rect x="210" y="86" width="10" height="10" fill="#3fb950" rx="2"/>
<text x="226" y="96" font-family="Consolas,monospace" font-size="13px" fill="#c9d1d9">Claude Code</text>
<text x="226" y="109" font-family="Consolas,monospace" font-size="11px" fill="#616e7f">20.3%  30 hrs 48 mins</text>
<rect x="210" y="122" width="10" height="10" fill="#ffa657" rx="2"/>
<text x="226" y="132" font-family="Consolas,monospace" font-size="13px" fill="#c9d1d9">Zed</text>
<text x="226" y="145" font-family="Consolas,monospace" font-size="11px" fill="#616e7f">20.2%  30 hrs 40 mins</text>
<rect x="210" y="158" width="10" height="10" fill="#f85149" rx="2"/>
<text x="226" y="168" font-family="Consolas,monospace" font-size="13px" fill="#c9d1d9">Codex CLI</text>
<text x="226" y="181" font-family="Consolas,monospace" font-size="11px" fill="#616e7f">10.2%  15 hrs 31 mins</text>
<rect x="210" y="194" width="10" height="10" fill="#d2a8ff" rx="2"/>
<text x="226" y="204" font-family="Consolas,monospace" font-size="13px" fill="#c9d1d9">OpenCode</text>
<text x="226" y="217" font-family="Consolas,monospace" font-size="11px" fill="#616e7f">8.3%  12 hrs 35 mins</text>
<rect x="210" y="230" width="10" height="10" fill="#79c0ff" rx="2"/>
<text x="226" y="240" font-family="Consolas,monospace" font-size="13px" fill="#c9d1d9">Neovim</text>
<text x="226" y="253" font-family="Consolas,monospace" font-size="11px" fill="#616e7f">6.8%  10 hrs 15 mins</text>
</svg>